<svg version="1.1" viewBox="0.0 0.0 933.9212598425197 551.3779527559055" fill="none" stroke="none" stroke-linecap="square" stroke-miterlimit="10" xmlns:xlink="http://www.w3.org/1999/xlink" xmlns="http://www.w3.org/2000/svg"><clipPath id="p.0"><path d="m0 0l933.92126 0l0 551.3779l-933.92126 0l0 -551.3779z" clip-rule="nonzero"/></clipPath><g clip-path="url(#p.0)"><path fill="#000000" fill-opacity="0.0" d="m0 0l933.92126 0l0 551.3779l-933.92126 0z" fill-rule="evenodd"/><path fill="#efefef" d="m62.614174 5.4488187l211.81104 0l0 104.88189l-211.81104 0z" fill-rule="evenodd"/><path stroke="#000000" stroke-width="1.0" stroke-linejoin="round" stroke-linecap="butt" d="m62.614174 5.4488187l211.81104 0l0 104.88189l-211.81104 0z" fill-rule="evenodd"/><path fill="#000000" d="m122.23934 64.80976l-5.359375 0l0 -1.390625l1.78125 0l0 -10.78125l-1.78125 0l0 -1.390625l5.359375 0l0 1.390625l-1.78125 0l0 10.78125l1.78125 0l0 1.390625zm15.149254 0l-1.8125 0l0 -11.6875l-3.765625 7.953125l-1.078125 0l-3.7499924 -7.953125l0 11.6875l-1.671875 0l0 -13.5625l2.453125 0l3.6093674 7.546875l3.5 -7.546875l2.515625 0l0 13.5625zm14.332367 0l-1.921875 0l-1.328125 -3.78125l-5.875 0l-1.328125 3.78125l-1.828125 0l4.9375 -13.5625l2.40625 0l4.9375 13.5625zm-3.8125 -5.328125l-2.375 -6.65625l-2.390625 6.65625l4.765625 0zm15.630905 1.453125q0 0.796875 -0.375 1.578125q-0.359375 0.765625 -1.015625 1.296875q-0.734375 0.59375 -1.703125 0.921875q-0.96875 0.328125 -2.34375 0.328125q-1.46875 0 -2.640625 -0.265625q-1.15625 -0.28125 -2.375 -0.828125l0 -2.25l0.125 0q1.03125 0.859375 2.375 1.328125q1.359375 0.453125 2.546875 0.453125q1.671875 0 2.59375 -0.625q0.9375 -0.625 0.9375 -1.671875q0 -0.90625 -0.4375 -1.328125q-0.4375 -0.4375 -1.34375 -0.671875q-0.6875 -0.1875 -1.484375 -0.296875q-0.796875 -0.125 -1.6875 -0.3125q-1.796875 -0.375 -2.671875 -1.296875q-0.875 -0.921875 -0.875 -2.40625q0 -1.71875 1.4375 -2.796875q1.453125 -1.09375 3.65625 -1.09375q1.4375 0 2.625 0.28125q1.203125 0.265625 2.109375 0.671875l0 2.125l-0.125 0q-0.765625 -0.65625 -2.03125 -1.078125q-1.265625 -0.4375 -2.578125 -0.4375q-1.453125 0 -2.34375 0.609375q-0.875 0.59375 -0.875 1.53125q0 0.859375 0.4375 1.34375q0.4375 0.46875 1.546875 0.734375q0.578125 0.125 1.65625 0.3125q1.078125 0.171875 1.828125 0.375q1.5 0.390625 2.265625 1.203125q0.765625 0.8125 0.765625 2.265625zm16.843384 3.234375q-0.84375 0.40625 -1.625 0.640625q-0.765625 0.234375 -1.625 0.234375q-1.109375 0 -2.03125 -0.328125q-0.921875 -0.328125 -1.578125 -0.984375q-0.65625 -0.65625 -1.03125 -1.65625q-0.359375 -1.0 -0.359375 -2.34375q0 -2.484375 1.375 -3.90625q1.375 -1.421875 3.625 -1.421875q0.875 0 1.71875 0.25q0.84375 0.234375 1.53125 0.59375l0 1.90625l-0.078125 0q-0.796875 -0.609375 -1.625 -0.9375q-0.828125 -0.328125 -1.625 -0.328125q-1.453125 0 -2.296875 0.984375q-0.84375 0.96875 -0.84375 2.859375q0 1.84375 0.8125 2.84375q0.828125 0.984375 2.328125 0.984375q0.515625 0 1.046875 -0.140625q0.546875 -0.140625 0.96875 -0.359375q0.375 -0.1875 0.703125 -0.40625q0.328125 -0.21875 0.53125 -0.359375l0.078125 0l0 1.875zm3.9385834 0.640625l-1.71875 0l0 -14.171875l1.71875 0l0 14.171875zm5.2289124 -11.875l-1.9375 0l0 -1.78125l1.9375 0l0 1.78125zm-0.109375 11.875l-1.71875 0l0 -10.171875l1.71875 0l0 10.171875zm11.900787 -4.90625l-7.5 0q0 0.9375 0.28125 1.640625q0.28125 0.6875 0.78125 1.140625q0.46875 0.4375 1.109375 0.65625q0.65625 0.21875 1.453125 0.21875q1.03125 0 2.078125 -0.421875q1.0625 -0.421875 1.5 -0.8125l0.09375 0l0 1.859375q-0.859375 0.375 -1.765625 0.625q-0.90625 0.234375 -1.890625 0.234375q-2.53125 0 -3.953125 -1.359375q-1.421875 -1.375 -1.421875 -3.90625q0 -2.5 1.359375 -3.953125q1.359375 -1.46875 3.578125 -1.46875q2.0625 0 3.171875 1.203125q1.125 1.203125 1.125 3.40625l0 0.9375zm-1.671875 -1.3125q0 -1.34375 -0.671875 -2.078125q-0.671875 -0.75 -2.03125 -0.75q-1.375 0 -2.203125 0.8125q-0.8125 0.8125 -0.921875 2.015625l5.828125 0zm12.769836 6.21875l-1.703125 0l0 -5.796875q0 -0.703125 -0.09375 -1.3125q-0.078125 -0.609375 -0.296875 -0.96875q-0.21875 -0.375 -0.65625 -0.5625q-0.421875 -0.1875 -1.109375 -0.1875q-0.703125 0 -1.46875 0.34375q-0.765625 0.34375 -1.46875 0.890625l0 7.59375l-1.703125 0l0 -10.171875l1.703125 0l0 1.125q0.8125 -0.65625 1.65625 -1.03125q0.859375 -0.375 1.765625 -0.375q1.65625 0 2.515625 1.0q0.859375 0.984375 0.859375 2.84375l0 6.609375zm8.587158 -0.09375q-0.484375 0.125 -1.0625 0.203125q-0.5625 0.09375 -1.0 0.09375q-1.5625 0 -2.375 -0.828125q-0.8125 -0.84375 -0.8125 -2.703125l0 -5.40625l-1.15625 0l0 -1.4375l1.15625 0l0 -2.921875l1.71875 0l0 2.921875l3.53125 0l0 1.4375l-3.53125 0l0 4.640625q0 0.796875 0.03125 1.25q0.03125 0.453125 0.25 0.84375q0.203125 0.359375 0.546875 0.53125q0.359375 0.171875 1.078125 0.171875q0.421875 0 0.875 -0.125q0.453125 -0.125 0.65625 -0.203125l0.09375 0l0 1.53125z" fill-rule="nonzero"/><path fill="#cfe2f3" d="m62.614174 151.57478l211.81104 0l0 104.88188l-211.81104 0z" fill-rule="evenodd"/><path stroke="#000000" stroke-width="1.0" stroke-linejoin="round" stroke-linecap="butt" d="m62.614174 151.57478l211.81104 0l0 104.88188l-211.81104 0z" fill-rule="evenodd"/><path fill="#000000" d="m124.48055 205.76385q0 1.28125 -0.359375 2.3125q-0.359375 1.015625 -0.96875 1.703125q-0.65625 0.71875 -1.4375 1.078125q-0.765625 0.359375 -1.6875 0.359375q-0.875 0 -1.515625 -0.203125q-0.640625 -0.203125 -1.28125 -0.546875l-0.109375 0.46875l-1.59375 0l0 -14.171875l1.703125 0l0 5.0625q0.734375 -0.59375 1.53125 -0.96875q0.8125 -0.375 1.828125 -0.375q1.796875 0 2.84375 1.390625q1.046875 1.375 1.046875 3.890625zm-1.765625 0.046875q0 -1.8125 -0.609375 -2.75q-0.59375 -0.953125 -1.9375 -0.953125q-0.75 0 -1.515625 0.328125q-0.765625 0.3125 -1.421875 0.828125l0 5.828125q0.734375 0.328125 1.25 0.46875q0.53125 0.125 1.203125 0.125q1.421875 0 2.21875 -0.9375q0.8125 -0.9375 0.8125 -2.9375zm12.951836 0.21875l-7.5 0q0 0.9375 0.28125 1.640625q0.28125 0.6875 0.78125 1.140625q0.46875 0.4375 1.109375 0.65625q0.65625 0.21875 1.453125 0.21875q1.03125 0 2.078125 -0.421875q1.0625 -0.421875 1.5 -0.8125l0.09375 0l0 1.859375q-0.859375 0.375 -1.765625 0.625q-0.90625 0.234375 -1.890625 0.234375q-2.53125 0 -3.9531174 -1.359375q-1.421875 -1.375 -1.421875 -3.90625q0 -2.5 1.359375 -3.953125q1.3593674 -1.46875 3.5781174 -1.46875q2.0625 0 3.171875 1.203125q1.125 1.203125 1.125 3.40625l0 0.9375zm-1.671875 -1.3125q0 -1.34375 -0.671875 -2.078125q-0.671875 -0.75 -2.03125 -0.75q-1.375 0 -2.203125 0.8125q-0.8125 0.8125 -0.921875 2.015625l5.828125 0zm12.519836 5.0625q0 2.59375 -1.171875 3.796875q-1.171875 1.21875 -3.625 1.21875q-0.796875 0 -1.578125 -0.125q-0.765625 -0.109375 -1.515625 -0.3125l0 -1.75l0.09375 0q0.421875 0.15625 1.328125 0.390625q0.90625 0.25 1.828125 0.25q0.875 0 1.4375 -0.21875q0.578125 -0.203125 0.90625 -0.578125q0.3125 -0.34375 0.4375 -0.859375q0.140625 -0.5 0.140625 -1.109375l0 -0.9375q-0.765625 0.625 -1.46875 0.9375q-0.703125 0.296875 -1.796875 0.296875q-1.828125 0 -2.90625 -1.3125q-1.0625 -1.3125 -1.0625 -3.71875q0 -1.3125 0.359375 -2.265625q0.375 -0.953125 1.015625 -1.640625q0.59375 -0.640625 1.4375 -1.0q0.84375 -0.359375 1.6875 -0.359375q0.890625 0 1.484375 0.171875q0.59375 0.171875 1.25 0.546875l0.109375 -0.4375l1.609375 0l0 9.015625zm-1.71875 -1.640625l0 -5.546875q-0.671875 -0.3125 -1.265625 -0.4375q-0.578125 -0.140625 -1.171875 -0.140625q-1.40625 0 -2.21875 0.953125q-0.8125 0.953125 -0.8125 2.75q0 1.71875 0.59375 2.609375q0.609375 0.875 2.0 0.875q0.75 0 1.5 -0.28125q0.75 -0.296875 1.375 -0.78125zm6.9362183 -9.078125l-1.9375 0l0 -1.78125l1.9375 0l0 1.78125zm-0.109375 11.875l-1.71875 0l0 -10.171875l1.71875 0l0 10.171875zm11.885162 0l-1.703125 0l0 -5.796875q0 -0.703125 -0.09375 -1.3125q-0.078125 -0.609375 -0.296875 -0.96875q-0.21875 -0.375 -0.65625 -0.5625q-0.421875 -0.1875 -1.109375 -0.1875q-0.703125 0 -1.46875 0.34375q-0.765625 0.34375 -1.46875 0.890625l0 7.59375l-1.703125 0l0 -10.171875l1.703125 0l0 1.125q0.8125 -0.65625 1.65625 -1.03125q0.859375 -0.375 1.765625 -0.375q1.65625 0 2.515625 1.0q0.859375 0.984375 0.859375 2.84375l0 6.609375zm14.134033 0l-1.921875 0l-1.328125 -3.78125l-5.875 0l-1.328125 3.78125l-1.828125 0l4.9375 -13.5625l2.40625 0l4.9375 13.5625zm-3.8125 -5.328125l-2.375 -6.65625l-2.390625 6.65625l4.765625 0zm13.253296 4.6875q-0.84375 0.40625 -1.625 0.640625q-0.765625 0.234375 -1.625 0.234375q-1.109375 0 -2.03125 -0.328125q-0.921875 -0.328125 -1.578125 -0.984375q-0.65625 -0.65625 -1.03125 -1.65625q-0.359375 -1.0 -0.359375 -2.34375q0 -2.484375 1.375 -3.90625q1.375 -1.421875 3.625 -1.421875q0.875 0 1.71875 0.25q0.84375 0.234375 1.53125 0.59375l0 1.90625l-0.078125 0q-0.796875 -0.609375 -1.625 -0.9375q-0.828125 -0.328125 -1.625 -0.328125q-1.453125 0 -2.296875 0.984375q-0.84375 0.96875 -0.84375 2.859375q0 1.84375 0.8125 2.84375q0.828125 0.984375 2.328125 0.984375q0.515625 0 1.046875 -0.140625q0.546875 -0.140625 0.96875 -0.359375q0.375 -0.1875 0.703125 -0.40625q0.328125 -0.21875 0.53125 -0.359375l0.078125 0l0 1.875zm7.4854584 0.546875q-0.484375 0.125 -1.0625 0.203125q-0.5625 0.09375 -1.0 0.09375q-1.5625 0 -2.375 -0.828125q-0.8125 -0.84375 -0.8125 -2.703125l0 -5.40625l-1.15625 0l0 -1.4375l1.15625 0l0 -2.921875l1.71875 0l0 2.921875l3.53125 0l0 1.4375l-3.53125 0l0 4.640625q0 0.796875 0.03125 1.25q0.03125 0.453125 0.25 0.84375q0.203125 0.359375 0.546875 0.53125q0.359375 0.171875 1.078125 0.171875q0.421875 0 0.875 -0.125q0.453125 -0.125 0.65625 -0.203125l0.09375 0l0 1.53125zm3.9138641 -11.78125l-1.9375 0l0 -1.78125l1.9375 0l0 1.78125zm-0.109375 11.875l-1.71875 0l0 -10.171875l1.71875 0l0 10.171875zm12.057037 -5.078125q0 2.484375 -1.28125 3.921875q-1.265625 1.4375 -3.40625 1.4375q-2.171875 0 -3.4375 -1.4375q-1.265625 -1.4375 -1.265625 -3.921875q0 -2.484375 1.265625 -3.921875q1.265625 -1.453125 3.4375 -1.453125q2.140625 0 3.40625 1.453125q1.28125 1.4375 1.28125 3.921875zm-1.765625 0q0 -1.984375 -0.78125 -2.9375q-0.765625 -0.96875 -2.140625 -0.96875q-1.40625 0 -2.171875 0.96875q-0.765625 0.953125 -0.765625 2.9375q0 1.90625 0.765625 2.90625q0.78125 0.984375 2.171875 0.984375q1.359375 0 2.140625 -0.984375q0.78125 -0.984375 0.78125 -2.90625zm12.916855 5.078125l-1.703125 0l0 -5.796875q0 -0.703125 -0.09375 -1.3125q-0.078125 -0.609375 -0.296875 -0.96875q-0.21875 -0.375 -0.65625 -0.5625q-0.421875 -0.1875 -1.109375 -0.1875q-0.703125 0 -1.46875 0.34375q-0.765625 0.34375 -1.46875 0.890625l0 7.59375l-1.703125 0l0 -10.171875l1.703125 0l0 1.125q0.8125 -0.65625 1.65625 -1.03125q0.859375 -0.375 1.765625 -0.375q1.65625 0 2.515625 1.0q0.859375 0.984375 0.859375 2.84375l0 6.609375z" fill-rule="nonzero"/><path fill="#cfe2f3" d="m62.614174 297.8739l211.81104 0l0 104.8819l-211.81104 0z" fill-rule="evenodd"/><path stroke="#000000" stroke-width="1.0" stroke-linejoin="round" stroke-linecap="butt" d="m62.614174 297.8739l211.81104 0l0 104.8819l-211.81104 0z" fill-rule="evenodd"/><path fill="#000000" d="m133.53133 348.92233l-0.09375 0q-0.375 -0.09375 -0.734375 -0.125q-0.359375 -0.046875 -0.859375 -0.046875q-0.78125 0 -1.53125 0.359375q-0.734375 0.34375 -1.421875 0.90625l0 7.21875l-1.7031174 0l0 -10.171875l1.7031174 0l0 1.5q1.03125 -0.8125 1.796875 -1.15625q0.78125 -0.34375 1.59375 -0.34375q0.453125 0 0.65625 0.03125q0.203125 0.015625 0.59375 0.078125l0 1.75zm10.133575 3.40625l-7.5 0q0 0.9375 0.28125 1.640625q0.28125 0.6875 0.78125 1.140625q0.46875 0.4375 1.109375 0.65625q0.65625 0.21875 1.453125 0.21875q1.03125 0 2.078125 -0.421875q1.0625 -0.421875 1.5 -0.8125l0.09375 0l0 1.859375q-0.859375 0.375 -1.765625 0.625q-0.90625 0.234375 -1.890625 0.234375q-2.53125 0 -3.953125 -1.359375q-1.421875 -1.375 -1.421875 -3.90625q0 -2.5 1.359375 -3.953125q1.359375 -1.46875 3.578125 -1.46875q2.0625 0 3.171875 1.203125q1.125 1.203125 1.125 3.40625l0 0.9375zm-1.671875 -1.3125q0 -1.34375 -0.671875 -2.078125q-0.671875 -0.75 -2.03125 -0.75q-1.375 0 -2.203125 0.8125q-0.8125 0.8125 -0.921875 2.015625l5.828125 0zm12.176086 6.21875l-1.703125 0l0 -1.078125q-0.234375 0.15625 -0.625 0.4375q-0.375 0.265625 -0.75 0.4375q-0.421875 0.203125 -0.984375 0.34375q-0.546875 0.140625 -1.296875 0.140625q-1.375 0 -2.328125 -0.90625q-0.953125 -0.921875 -0.953125 -2.328125q0 -1.15625 0.484375 -1.859375q0.5 -0.71875 1.421875 -1.140625q0.9375 -0.40625 2.234375 -0.546875q1.296875 -0.15625 2.796875 -0.21875l0 -0.265625q0 -0.578125 -0.203125 -0.953125q-0.203125 -0.390625 -0.59375 -0.609375q-0.359375 -0.21875 -0.875 -0.28125q-0.5 -0.078125 -1.0625 -0.078125q-0.671875 0 -1.5 0.1875q-0.828125 0.171875 -1.71875 0.5l-0.09375 0l0 -1.734375q0.5 -0.140625 1.453125 -0.296875q0.953125 -0.171875 1.875 -0.171875q1.0625 0 1.859375 0.1875q0.796875 0.171875 1.390625 0.59375q0.5625 0.421875 0.859375 1.09375q0.3125 0.65625 0.3125 1.640625l0 6.90625zm-1.703125 -2.5l0 -2.84375q-0.78125 0.046875 -1.84375 0.140625q-1.0625 0.09375 -1.6875 0.265625q-0.734375 0.203125 -1.1875 0.65625q-0.453125 0.4375 -0.453125 1.21875q0 0.859375 0.515625 1.3125q0.53125 0.4375 1.625 0.4375q0.890625 0 1.640625 -0.34375q0.75 -0.359375 1.390625 -0.84375zm13.251556 2.5l-1.71875 0l0 -1.0625q-0.734375 0.640625 -1.53125 1.0q-0.796875 0.34375 -1.734375 0.34375q-1.828125 0 -2.90625 -1.390625q-1.0625 -1.40625 -1.0625 -3.90625q0 -1.28125 0.359375 -2.296875q0.375 -1.015625 1.0 -1.71875q0.625 -0.703125 1.453125 -1.0625q0.828125 -0.359375 1.703125 -0.359375q0.796875 0 1.421875 0.171875q0.625 0.15625 1.296875 0.515625l0 -4.40625l1.71875 0l0 14.171875zm-1.71875 -2.5l0 -5.84375q-0.6875 -0.3125 -1.234375 -0.421875q-0.546875 -0.125 -1.1875 -0.125q-1.4375 0 -2.25 1.0q-0.796875 1.0 -0.796875 2.84375q0 1.8125 0.609375 2.765625q0.625 0.9375 2.0 0.9375q0.71875 0 1.46875 -0.328125q0.75 -0.328125 1.390625 -0.828125zm16.686218 -4.265625q0 1.84375 -0.8125 3.359375q-0.796875 1.5 -2.140625 2.328125q-0.921875 0.5625 -2.078125 0.828125q-1.140625 0.25 -3.0 0.25l-3.421875 0l0 -13.5625l3.375 0q2.0 0 3.15625 0.296875q1.171875 0.28125 1.984375 0.78125q1.390625 0.859375 2.15625 2.296875q0.78125 1.4375 0.78125 3.421875zm-1.890625 -0.03125q0 -1.59375 -0.5625 -2.6875q-0.546875 -1.09375 -1.640625 -1.71875q-0.8125 -0.453125 -1.71875 -0.625q-0.890625 -0.1875 -2.15625 -0.1875l-1.6875 0l0 10.46875l1.6875 0q1.3125 0 2.28125 -0.1875q0.96875 -0.203125 1.78125 -0.71875q1.015625 -0.640625 1.515625 -1.6875q0.5 -1.0625 0.5 -2.65625zm12.577911 6.796875l-1.703125 0l0 -1.078125q-0.234375 0.15625 -0.625 0.4375q-0.375 0.265625 -0.75 0.4375q-0.421875 0.203125 -0.984375 0.34375q-0.546875 0.140625 -1.296875 0.140625q-1.375 0 -2.328125 -0.90625q-0.953125 -0.921875 -0.953125 -2.328125q0 -1.15625 0.484375 -1.859375q0.5 -0.71875 1.421875 -1.140625q0.9375 -0.40625 2.234375 -0.546875q1.296875 -0.15625 2.796875 -0.21875l0 -0.265625q0 -0.578125 -0.203125 -0.953125q-0.203125 -0.390625 -0.59375 -0.609375q-0.359375 -0.21875 -0.875 -0.28125q-0.5 -0.078125 -1.0625 -0.078125q-0.671875 0 -1.5 0.1875q-0.828125 0.171875 -1.71875 0.5l-0.09375 0l0 -1.734375q0.5 -0.140625 1.453125 -0.296875q0.953125 -0.171875 1.875 -0.171875q1.0625 0 1.859375 0.1875q0.796875 0.171875 1.390625 0.59375q0.5625 0.421875 0.859375 1.09375q0.3125 0.65625 0.3125 1.640625l0 6.90625zm-1.703125 -2.5l0 -2.84375q-0.78125 0.046875 -1.84375 0.140625q-1.0625 0.09375 -1.6875 0.265625q-0.734375 0.203125 -1.1875 0.65625q-0.453125 0.4375 -0.453125 1.21875q0 0.859375 0.515625 1.3125q0.53125 0.4375 1.625 0.4375q0.890625 0 1.640625 -0.34375q0.75 -0.359375 1.390625 -0.84375zm10.282806 2.40625q-0.484375 0.125 -1.0625 0.203125q-0.5625 0.09375 -1.0 0.09375q-1.5625 0 -2.375 -0.828125q-0.8125 -0.84375 -0.8125 -2.703125l0 -5.40625l-1.15625 0l0 -1.4375l1.15625 0l0 -2.921875l1.71875 0l0 2.921875l3.53125 0l0 1.4375l-3.53125 0l0 4.640625q0 0.796875 0.03125 1.25q0.03125 0.453125 0.25 0.84375q0.203125 0.359375 0.546875 0.53125q0.359375 0.171875 1.078125 0.171875q0.421875 0 0.875 -0.125q0.453125 -0.125 0.65625 -0.203125l0.09375 0l0 1.53125zm9.976364 0.09375l-1.703125 0l0 -1.078125q-0.234375 0.15625 -0.625 0.4375q-0.375 0.265625 -0.75 0.4375q-0.421875 0.203125 -0.984375 0.34375q-0.546875 0.140625 -1.296875 0.140625q-1.375 0 -2.328125 -0.90625q-0.953125 -0.921875 -0.953125 -2.328125q0 -1.15625 0.484375 -1.859375q0.5 -0.71875 1.421875 -1.140625q0.9375 -0.40625 2.234375 -0.546875q1.296875 -0.15625 2.796875 -0.21875l0 -0.265625q0 -0.578125 -0.203125 -0.953125q-0.203125 -0.390625 -0.59375 -0.609375q-0.359375 -0.21875 -0.875 -0.28125q-0.5 -0.078125 -1.0625 -0.078125q-0.671875 0 -1.5 0.1875q-0.828125 0.171875 -1.71875 0.5l-0.09375 0l0 -1.734375q0.5 -0.140625 1.453125 -0.296875q0.953125 -0.171875 1.875 -0.171875q1.0625 0 1.859375 0.1875q0.796875 0.171875 1.390625 0.59375q0.5625 0.421875 0.859375 1.09375q0.3125 0.65625 0.3125 1.640625l0 6.90625zm-1.703125 -2.5l0 -2.84375q-0.78125 0.046875 -1.84375 0.140625q-1.0625 0.09375 -1.6875 0.265625q-0.734375 0.203125 -1.1875 0.65625q-0.453125 0.4375 -0.453125 1.21875q0 0.859375 0.515625 1.3125q0.53125 0.4375 1.625 0.4375q0.890625 0 1.640625 -0.34375q0.75 -0.359375 1.390625 -0.84375z" fill-rule="nonzero"/><path fill="#efefef" d="m62.614174 444.1731l211.81104 0l0 104.8819l-211.81104 0z" fill-rule="evenodd"/><path stroke="#000000" stroke-width="1.0" stroke-linejoin="round" stroke-linecap="butt" d="m62.614174 444.1731l211.81104 0l0 104.8819l-211.81104 0z" fill-rule="evenodd"/><path fill="#000000" d="m113.99067 503.53406l-5.359375 0l0 -1.390625l1.78125 0l0 -10.78125l-1.78125 0l0 -1.390625l5.359375 0l0 1.390625l-1.78125 0l0 10.78125l1.78125 0l0 1.390625zm14.524254 -6.765625q0 1.84375 -0.8124924 3.359375q-0.796875 1.5 -2.140625 2.328125q-0.921875 0.5625 -2.078125 0.828125q-1.140625 0.25 -3.0 0.25l-3.421875 0l0 -13.5625l3.375 0q2.0 0 3.15625 0.296875q1.171875 0.28125 1.984375 0.78125q1.390625 0.859375 2.15625 2.296875q0.7812424 1.4375 0.7812424 3.421875zm-1.8906174 -0.03125q0 -1.59375 -0.5625 -2.6875q-0.546875 -1.09375 -1.640625 -1.71875q-0.8125 -0.453125 -1.71875 -0.625q-0.890625 -0.1875 -2.15625 -0.1875l-1.6875 0l0 10.46875l1.6875 0q1.3125 0 2.28125 -0.1875q0.96875 -0.203125 1.78125 -0.71875q1.015625 -0.640625 1.515625 -1.6875q0.5 -1.0625 0.5 -2.65625zm14.656029 2.921875q0 0.796875 -0.375 1.578125q-0.359375 0.765625 -1.015625 1.296875q-0.734375 0.59375 -1.703125 0.921875q-0.96875 0.328125 -2.34375 0.328125q-1.46875 0 -2.640625 -0.265625q-1.15625 -0.28125 -2.375 -0.828125l0 -2.25l0.125 0q1.03125 0.859375 2.375 1.328125q1.359375 0.453125 2.546875 0.453125q1.671875 0 2.59375 -0.625q0.9375 -0.625 0.9375 -1.671875q0 -0.90625 -0.4375 -1.328125q-0.4375 -0.4375 -1.34375 -0.671875q-0.6875 -0.1875 -1.484375 -0.296875q-0.796875 -0.125 -1.6875 -0.3125q-1.796875 -0.375 -2.671875 -1.296875q-0.875 -0.921875 -0.875 -2.40625q0 -1.71875 1.4375 -2.796875q1.453125 -1.09375 3.65625 -1.09375q1.4375 0 2.625 0.28125q1.203125 0.265625 2.109375 0.671875l0 2.125l-0.125 0q-0.765625 -0.65625 -2.03125 -1.078125q-1.265625 -0.4375 -2.578125 -0.4375q-1.453125 0 -2.34375 0.609375q-0.875 0.59375 -0.875 1.53125q0 0.859375 0.4375 1.34375q0.4375 0.46875 1.546875 0.734375q0.578125 0.125 1.65625 0.3125q1.078125 0.171875 1.828125 0.375q1.5 0.390625 2.265625 1.203125q0.765625 0.8125 0.765625 2.265625zm15.671509 -4.4375l-0.09375 0q-0.375 -0.09375 -0.734375 -0.125q-0.359375 -0.046875 -0.859375 -0.046875q-0.78125 0 -1.53125 0.359375q-0.734375 0.34375 -1.421875 0.90625l0 7.21875l-1.703125 0l0 -10.171875l1.703125 0l0 1.5q1.03125 -0.8125 1.796875 -1.15625q0.78125 -0.34375 1.59375 -0.34375q0.453125 0 0.65625 0.03125q0.203125 0.015625 0.59375 0.078125l0 1.75zm10.133575 3.40625l-7.5 0q0 0.9375 0.28125 1.640625q0.28125 0.6875 0.78125 1.140625q0.46875 0.4375 1.109375 0.65625q0.65625 0.21875 1.453125 0.21875q1.03125 0 2.078125 -0.421875q1.0625 -0.421875 1.5 -0.8125l0.09375 0l0 1.859375q-0.859375 0.375 -1.765625 0.625q-0.90625 0.234375 -1.890625 0.234375q-2.53125 0 -3.953125 -1.359375q-1.421875 -1.375 -1.421875 -3.90625q0 -2.5 1.359375 -3.953125q1.359375 -1.46875 3.578125 -1.46875q2.0625 0 3.171875 1.203125q1.125 1.203125 1.125 3.40625l0 0.9375zm-1.671875 -1.3125q0 -1.34375 -0.671875 -2.078125q-0.671875 -0.75 -2.03125 -0.75q-1.375 0 -2.203125 0.8125q-0.8125 0.8125 -0.921875 2.015625l5.828125 0zm9.551086 6.125q-0.484375 0.125 -1.0625 0.203125q-0.5625 0.09375 -1.0 0.09375q-1.5625 0 -2.375 -0.828125q-0.8125 -0.84375 -0.8125 -2.703125l0 -5.40625l-1.15625 0l0 -1.4375l1.15625 0l0 -2.921875l1.71875 0l0 2.921875l3.53125 0l0 1.4375l-3.53125 0l0 4.640625q0 0.796875 0.03125 1.25q0.03125 0.453125 0.25 0.84375q0.203125 0.359375 0.546875 0.53125q0.359375 0.171875 1.078125 0.171875q0.421875 0 0.875 -0.125q0.453125 -0.125 0.65625 -0.203125l0.09375 0l0 1.53125zm10.507614 0.09375l-1.71875 0l0 -1.125q-0.859375 0.671875 -1.65625 1.046875q-0.796875 0.359375 -1.75 0.359375q-1.609375 0 -2.5 -0.96875q-0.890625 -0.984375 -0.890625 -2.890625l0 -6.59375l1.71875 0l0 5.796875q0 0.765625 0.0625 1.328125q0.078125 0.546875 0.3125 0.9375q0.25 0.390625 0.640625 0.578125q0.390625 0.1875 1.140625 0.1875q0.671875 0 1.453125 -0.34375q0.78125 -0.359375 1.46875 -0.890625l0 -7.59375l1.71875 0l0 10.171875zm9.712158 -8.3125l-0.09375 0q-0.375 -0.09375 -0.734375 -0.125q-0.359375 -0.046875 -0.859375 -0.046875q-0.78125 0 -1.53125 0.359375q-0.734375 0.34375 -1.421875 0.90625l0 7.21875l-1.703125 0l0 -10.171875l1.703125 0l0 1.5q1.03125 -0.8125 1.796875 -1.15625q0.78125 -0.34375 1.59375 -0.34375q0.453125 0 0.65625 0.03125q0.203125 0.015625 0.59375 0.078125l0 1.75zm10.11795 8.3125l-1.703125 0l0 -5.796875q0 -0.703125 -0.09375 -1.3125q-0.078125 -0.609375 -0.296875 -0.96875q-0.21875 -0.375 -0.65625 -0.5625q-0.421875 -0.1875 -1.109375 -0.1875q-0.703125 0 -1.46875 0.34375q-0.765625 0.34375 -1.46875 0.890625l0 7.59375l-1.703125 0l0 -10.171875l1.703125 0l0 1.125q0.8125 -0.65625 1.65625 -1.03125q0.859375 -0.375 1.765625 -0.375q1.65625 0 2.515625 1.0q0.859375 0.984375 0.859375 2.84375l0 6.609375zm11.821533 -4.90625l-7.5 0q0 0.9375 0.28125 1.640625q0.28125 0.6875 0.78125 1.140625q0.46875 0.4375 1.109375 0.65625q0.65625 0.21875 1.453125 0.21875q1.03125 0 2.078125 -0.421875q1.0625 -0.421875 1.5 -0.8125l0.09375 0l0 1.859375q-0.859375 0.375 -1.765625 0.625q-0.90625 0.234375 -1.890625 0.234375q-2.53125 0 -3.953125 -1.359375q-1.421875 -1.375 -1.421875 -3.90625q0 -2.5 1.359375 -3.953125q1.359375 -1.46875 3.578125 -1.46875q2.0625 0 3.171875 1.203125q1.125 1.203125 1.125 3.40625l0 0.9375zm-1.671875 -1.3125q0 -1.34375 -0.671875 -2.078125q-0.671875 -0.75 -2.03125 -0.75q-1.375 0 -2.203125 0.8125q-0.8125 0.8125 -0.921875 2.015625l5.828125 0zm12.519836 6.21875l-1.71875 0l0 -1.0625q-0.734375 0.640625 -1.53125 1.0q-0.796875 0.34375 -1.734375 0.34375q-1.828125 0 -2.90625 -1.390625q-1.0625 -1.40625 -1.0625 -3.90625q0 -1.28125 0.359375 -2.296875q0.375 -1.015625 1.0 -1.71875q0.625 -0.703125 1.453125 -1.0625q0.828125 -0.359375 1.703125 -0.359375q0.796875 0 1.421875 0.171875q0.625 0.15625 1.296875 0.515625l0 -4.40625l1.71875 0l0 14.171875zm-1.71875 -2.5l0 -5.84375q-0.6875 -0.3125 -1.234375 -0.421875q-0.546875 -0.125 -1.1875 -0.125q-1.4375 0 -2.25 1.0q-0.796875 1.0 -0.796875 2.84375q0 1.8125 0.609375 2.765625q0.625 0.9375 2.0 0.9375q0.71875 0 1.46875 -0.328125q0.75 -0.328125 1.390625 -0.828125z" fill-rule="nonzero"/><path fill="#d9ead3" d="m800.6037 22.929132l0 0c0 -9.654111 29.157288 -17.480314 65.12463 -17.480314c35.967346 0 65.124695 7.8262033 65.124695 17.480314l0 69.921265c0 9.654106 -29.157349 17.480316 -65.124695 17.480316c-35.967346 0 -65.12463 -7.82621 -65.12463 -17.480316z" fill-rule="evenodd"/><path fill="#000000" fill-opacity="0.0" d="m930.853 22.929132l0 0c0 9.654112 -29.157349 17.480314 -65.124695 17.480314c-35.967346 0 -65.12463 -7.8262024 -65.12463 -17.480314" fill-rule="evenodd"/><path fill="#000000" fill-opacity="0.0" d="m800.6037 22.929132l0 0c0 -9.654111 29.157288 -17.480314 65.12463 -17.480314c35.967346 0 65.124695 7.8262033 65.124695 17.480314l0 69.921265c0 9.654106 -29.157349 17.480316 -65.124695 17.480316c-35.967346 0 -65.12463 -7.82621 -65.12463 -17.480316z" fill-rule="evenodd"/><path stroke="#000000" stroke-width="1.0" stroke-linejoin="round" stroke-linecap="butt" d="m930.853 22.929132l0 0c0 9.654112 -29.157349 17.480314 -65.124695 17.480314c-35.967346 0 -65.12463 -7.8262024 -65.12463 -17.480314" fill-rule="evenodd"/><path stroke="#000000" stroke-width="1.0" stroke-linejoin="round" stroke-linecap="butt" d="m800.6037 22.929132l0 0c0 -9.654111 29.157288 -17.480314 65.12463 -17.480314c35.967346 0 65.124695 7.8262033 65.124695 17.480314l0 69.921265c0 9.654106 -29.157349 17.480316 -65.124695 17.480316c-35.967346 0 -65.12463 -7.82621 -65.12463 -17.480316z" fill-rule="evenodd"/><path fill="#000000" d="m839.70667 66.784294q0 1.84375 -0.8125 3.359375q-0.796875 1.5 -2.140625 2.328125q-0.921875 0.5625 -2.078125 0.828125q-1.140625 0.25 -3.0 0.25l-3.421875 0l0 -13.5625l3.375 0q2.0 0 3.15625 0.296875q1.171875 0.28125 1.984375 0.78125q1.390625 0.859375 2.15625 2.296875q0.78125 1.4375 0.78125 3.421875zm-1.890625 -0.03125q0 -1.59375 -0.5625 -2.6875q-0.546875 -1.09375 -1.640625 -1.71875q-0.8125 -0.453125 -1.71875 -0.625q-0.890625 -0.1875 -2.15625 -0.1875l-1.6875 0l0 10.46875l1.6875 0q1.3125 0 2.28125 -0.1875q0.96875 -0.203125 1.78125 -0.71875q1.015625 -0.640625 1.515625 -1.6875q0.5 -1.0625 0.5 -2.65625zm12.577942 6.796875l-1.703125 0l0 -1.078125q-0.234375 0.15625 -0.625 0.4375q-0.375 0.265625 -0.75 0.4375q-0.421875 0.203125 -0.984375 0.34375q-0.546875 0.140625 -1.296875 0.140625q-1.375 0 -2.328125 -0.90625q-0.953125 -0.921875 -0.953125 -2.328125q0 -1.15625 0.484375 -1.859375q0.5 -0.71875 1.421875 -1.140625q0.9375 -0.40625 2.234375 -0.546875q1.296875 -0.15625 2.796875 -0.21875l0 -0.265625q0 -0.578125 -0.203125 -0.953125q-0.203125 -0.390625 -0.59375 -0.609375q-0.359375 -0.21875 -0.875 -0.28125q-0.5 -0.078125 -1.0625 -0.078125q-0.671875 0 -1.5 0.1875q-0.828125 0.171875 -1.71875 0.5l-0.09375 0l0 -1.734375q0.5 -0.140625 1.453125 -0.296875q0.953125 -0.171875 1.875 -0.171875q1.0625 0 1.859375 0.1875q0.796875 0.171875 1.390625 0.59375q0.5625 0.421875 0.859375 1.09375q0.3125 0.65625 0.3125 1.640625l0 6.90625zm-1.703125 -2.5l0 -2.84375q-0.78125 0.046875 -1.84375 0.140625q-1.0625 0.09375 -1.6875 0.265625q-0.734375 0.203125 -1.1875 0.65625q-0.453125 0.4375 -0.453125 1.21875q0 0.859375 0.515625 1.3125q0.53125 0.4375 1.625 0.4375q0.890625 0 1.640625 -0.34375q0.75 -0.359375 1.390625 -0.84375zm10.282776 2.40625q-0.484375 0.125 -1.0625 0.203125q-0.5625 0.09375 -1.0 0.09375q-1.5625 0 -2.375 -0.828125q-0.8125 -0.84375 -0.8125 -2.703125l0 -5.40625l-1.15625 0l0 -1.4375l1.15625 0l0 -2.921875l1.71875 0l0 2.921875l3.53125 0l0 1.4375l-3.53125 0l0 4.640625q0 0.796875 0.03125 1.25q0.03125 0.453125 0.25 0.84375q0.203125 0.359375 0.546875 0.53125q0.359375 0.171875 1.078125 0.171875q0.421875 0 0.875 -0.125q0.453125 -0.125 0.65625 -0.203125l0.09375 0l0 1.53125zm9.976379 0.09375l-1.703125 0l0 -1.078125q-0.234375 0.15625 -0.625 0.4375q-0.375 0.265625 -0.75 0.4375q-0.421875 0.203125 -0.984375 0.34375q-0.546875 0.140625 -1.296875 0.140625q-1.375 0 -2.328125 -0.90625q-0.953125 -0.921875 -0.953125 -2.328125q0 -1.15625 0.484375 -1.859375q0.5 -0.71875 1.421875 -1.140625q0.9375 -0.40625 2.234375 -0.546875q1.296875 -0.15625 2.796875 -0.21875l0 -0.265625q0 -0.578125 -0.203125 -0.953125q-0.203125 -0.390625 -0.59375 -0.609375q-0.359375 -0.21875 -0.875 -0.28125q-0.5 -0.078125 -1.0625 -0.078125q-0.671875 0 -1.5 0.1875q-0.828125 0.171875 -1.71875 0.5l-0.09375 0l0 -1.734375q0.5 -0.140625 1.453125 -0.296875q0.953125 -0.171875 1.875 -0.171875q1.0625 0 1.859375 0.1875q0.796875 0.171875 1.390625 0.59375q0.5625 0.421875 0.859375 1.09375q0.3125 0.65625 0.3125 1.640625l0 6.90625zm-1.703125 -2.5l0 -2.84375q-0.78125 0.046875 -1.84375 0.140625q-1.0625 0.09375 -1.6875 0.265625q-0.734375 0.203125 -1.1875 0.65625q-0.453125 0.4375 -0.453125 1.21875q0 0.859375 0.515625 1.3125q0.53125 0.4375 1.625 0.4375q0.890625 0 1.640625 -0.34375q0.75 -0.359375 1.390625 -0.84375zm17.029114 -10.015625l-0.09375 0q-0.28125 -0.078125 -0.734375 -0.15625q-0.453125 -0.09375 -0.796875 -0.09375q-1.109375 0 -1.609375 0.484375q-0.484375 0.484375 -0.484375 1.765625l0 0.34375l3.078125 0l0 1.4375l-3.03125 0l0 8.734375l-1.703125 0l0 -8.734375l-1.15625 0l0 -1.4375l1.15625 0l0 -0.34375q0 -1.8125 0.890625 -2.78125q0.90625 -0.96875 2.609375 -0.96875q0.578125 0 1.03125 0.0625q0.46875 0.046875 0.84375 0.125l0 1.5625zm2.933838 0.640625l-1.9375 0l0 -1.78125l1.9375 0l0 1.78125zm-0.109375 11.875l-1.71875 0l0 -10.171875l1.71875 0l0 10.171875zm5.119568 0l-1.71875 0l0 -14.171875l1.71875 0l0 14.171875zm11.900757 -4.90625l-7.5 0q0 0.9375 0.28125 1.640625q0.28125 0.6875 0.78125 1.140625q0.46875 0.4375 1.109375 0.65625q0.65625 0.21875 1.453125 0.21875q1.03125 0 2.078125 -0.421875q1.0625 -0.421875 1.5 -0.8125l0.09375 0l0 1.859375q-0.859375 0.375 -1.765625 0.625q-0.90625 0.234375 -1.890625 0.234375q-2.53125 0 -3.953125 -1.359375q-1.421875 -1.375 -1.421875 -3.90625q0 -2.5 1.359375 -3.953125q1.359375 -1.46875 3.578125 -1.46875q2.0625 0 3.171875 1.203125q1.125 1.203125 1.125 3.40625l0 0.9375zm-1.671875 -1.3125q0 -1.34375 -0.671875 -2.078125q-0.671875 -0.75 -2.03125 -0.75q-1.375 0 -2.203125 0.8125q-0.8125 0.8125 -0.921875 2.015625l5.828125 0z" fill-rule="nonzero"/><path fill="#fff2cc" d="m155.25984 137.76378l6.6299286 0l0 -27.433067l13.259842 0l0 27.433067l6.6299133 0l-13.259842 13.259842z" fill-rule="evenodd"/><path stroke="#000000" stroke-width="1.0" stroke-linejoin="round" stroke-linecap="butt" d="m155.25984 137.76378l6.6299286 0l0 -27.433067l13.259842 0l0 27.433067l6.6299133 0l-13.259842 13.259842z" fill-rule="evenodd"/><path fill="#fff2cc" d="m155.25984 283.88974l6.6299286 0l0 -27.433075l13.259842 0l0 27.433075l6.6299133 0l-13.259842 13.259857z" fill-rule="evenodd"/><path stroke="#000000" stroke-width="1.0" stroke-linejoin="round" stroke-linecap="butt" d="m155.25984 283.88974l6.6299286 0l0 -27.433075l13.259842 0l0 27.433075l6.6299133 0l-13.259842 13.259857z" fill-rule="evenodd"/><path fill="#fff2cc" d="m155.25984 430.18887l6.6299286 0l0 -27.433075l13.259842 0l0 27.433075l6.6299133 0l-13.259842 13.259827z" fill-rule="evenodd"/><path stroke="#000000" stroke-width="1.0" stroke-linejoin="round" stroke-linecap="butt" d="m155.25984 430.18887l6.6299286 0l0 -27.433075l13.259842 0l0 27.433075l6.6299133 0l-13.259842 13.259827z" fill-rule="evenodd"/><path fill="#fce5cd" d="m534.52496 151.54855l211.81097 0l0 104.8819l-211.81097 0z" fill-rule="evenodd"/><path stroke="#000000" stroke-width="1.0" stroke-linejoin="round" stroke-linecap="butt" d="m534.52496 151.54855l211.81097 0l0 104.8819l-211.81097 0z" fill-rule="evenodd"/><path fill="#000000" d="m599.4171 205.45638q0 1.484375 -0.328125 2.578125q-0.3125 1.09375 -1.046875 1.828125q-0.703125 0.6875 -1.640625 1.015625q-0.9375 0.3125 -2.1875 0.3125q-1.28125 0 -2.234375 -0.328125q-0.9375 -0.34375 -1.59375 -1.0q-0.734375 -0.75 -1.0625 -1.796875q-0.3125 -1.0625 -0.3125 -2.609375l0 -8.109375l1.796875 0l0 8.203125q0 1.109375 0.140625 1.75q0.15625 0.625 0.515625 1.15625q0.40625 0.578125 1.09375 0.890625q0.6875 0.296875 1.65625 0.296875q0.96875 0 1.65625 -0.296875q0.6875 -0.296875 1.09375 -0.890625q0.34375 -0.53125 0.5 -1.1875q0.15625 -0.671875 0.15625 -1.671875l0 -8.25l1.796875 0l0 8.109375zm14.905151 -1.3125q0 1.84375 -0.8125 3.359375q-0.796875 1.5 -2.140625 2.328125q-0.921875 0.5625 -2.078125 0.828125q-1.140625 0.25 -3.0 0.25l-3.421875 0l0 -13.5625l3.375 0q2.0 0 3.15625 0.296875q1.171875 0.28125 1.984375 0.78125q1.390625 0.859375 2.15625 2.296875q0.78125 1.4375 0.78125 3.421875zm-1.890625 -0.03125q0 -1.59375 -0.5625 -2.6875q-0.546875 -1.09375 -1.640625 -1.71875q-0.8125 -0.453125 -1.71875 -0.625q-0.890625 -0.1875 -2.15625 -0.1875l-1.6875 0l0 10.46875l1.6875 0q1.3125 0 2.28125 -0.1875q0.96875 -0.203125 1.78125 -0.71875q1.015625 -0.640625 1.515625 -1.6875q0.5 -1.0625 0.5 -2.65625zm15.499817 6.796875l-1.921875 0l-1.328125 -3.78125l-5.875 0l-1.328125 3.78125l-1.828125 0l4.9375 -13.5625l2.40625 0l4.9375 13.5625zm-3.8125 -5.328125l-2.375 -6.65625l-2.390625 6.65625l4.765625 0zm19.562134 2.390625q0 1.390625 -1.15625 2.296875q-1.140625 0.890625 -3.140625 0.890625q-1.125 0 -2.078125 -0.265625q-0.9375 -0.28125 -1.578125 -0.59375l0 -1.921875l0.09375 0q0.8125 0.609375 1.796875 0.96875q1.0 0.359375 1.90625 0.359375q1.140625 0 1.765625 -0.359375q0.640625 -0.375 0.640625 -1.15625q0 -0.59375 -0.34375 -0.90625q-0.34375 -0.3125 -1.328125 -0.53125q-0.359375 -0.078125 -0.953125 -0.1875q-0.59375 -0.109375 -1.078125 -0.234375q-1.328125 -0.359375 -1.890625 -1.046875q-0.5625 -0.6875 -0.5625 -1.6875q0 -0.625 0.25 -1.1875q0.265625 -0.5625 0.796875 -0.984375q0.515625 -0.4375 1.296875 -0.6875q0.796875 -0.25 1.765625 -0.25q0.90625 0 1.84375 0.234375q0.9375 0.21875 1.546875 0.53125l0 1.828125l-0.078125 0q-0.65625 -0.484375 -1.59375 -0.8125q-0.9375 -0.328125 -1.84375 -0.328125q-0.9375 0 -1.59375 0.359375q-0.640625 0.359375 -0.640625 1.0625q0 0.625 0.390625 0.953125q0.390625 0.3125 1.234375 0.515625q0.484375 0.109375 1.0625 0.21875q0.59375 0.109375 0.984375 0.203125q1.1875 0.265625 1.84375 0.9375q0.640625 0.671875 0.640625 1.78125zm10.969788 -1.96875l-7.5 0q0 0.9375 0.28125 1.640625q0.28125 0.6875 0.78125 1.140625q0.46875 0.4375 1.109375 0.65625q0.65625 0.21875 1.453125 0.21875q1.03125 0 2.078125 -0.421875q1.0625 -0.421875 1.5 -0.8125l0.09375 0l0 1.859375q-0.859375 0.375 -1.765625 0.625q-0.90625 0.234375 -1.890625 0.234375q-2.53125 0 -3.953125 -1.359375q-1.421875 -1.375 -1.421875 -3.90625q0 -2.5 1.359375 -3.953125q1.359375 -1.46875 3.578125 -1.46875q2.0625 0 3.171875 1.203125q1.125 1.203125 1.125 3.40625l0 0.9375zm-1.671875 -1.3125q0 -1.34375 -0.671875 -2.078125q-0.671875 -0.75 -2.03125 -0.75q-1.375 0 -2.203125 0.8125q-0.8125 0.8125 -0.921875 2.015625l5.828125 0zm10.613647 -2.09375l-0.09375 0q-0.375 -0.09375 -0.734375 -0.125q-0.35943604 -0.046875 -0.85943604 -0.046875q-0.78125 0 -1.53125 0.359375q-0.734375 0.34375 -1.421875 0.90625l0 7.21875l-1.703125 0l0 -10.171875l1.703125 0l0 1.5q1.03125 -0.8125 1.796875 -1.15625q0.78125 -0.34375 1.59375 -0.34375q0.45318604 0 0.65631104 0.03125q0.203125 0.015625 0.59375 0.078125l0 1.75zm10.414795 -1.859375l-4.109375 10.171875l-1.734375 0l-4.078125 -10.171875l1.84375 0l3.15625 8.09375l3.125 -8.09375l1.796875 0zm10.595398 5.265625l-7.5 0q0 0.9375 0.28125 1.640625q0.28125 0.6875 0.78125 1.140625q0.46875 0.4375 1.109375 0.65625q0.65625 0.21875 1.453125 0.21875q1.03125 0 2.078125 -0.421875q1.0625 -0.421875 1.5 -0.8125l0.09375 0l0 1.859375q-0.859375 0.375 -1.765625 0.625q-0.90625 0.234375 -1.890625 0.234375q-2.53125 0 -3.953125 -1.359375q-1.421875 -1.375 -1.421875 -3.90625q0 -2.5 1.359375 -3.953125q1.359375 -1.46875 3.578125 -1.46875q2.0625 0 3.171875 1.203125q1.125 1.203125 1.125 3.40625l0 0.9375zm-1.671875 -1.3125q0 -1.34375 -0.671875 -2.078125q-0.671875 -0.75 -2.03125 -0.75q-1.375 0 -2.203125 0.8125q-0.8125 0.8125 -0.921875 2.015625l5.828125 0zm10.613586 -2.09375l-0.09375 0q-0.375 -0.09375 -0.734375 -0.125q-0.359375 -0.046875 -0.859375 -0.046875q-0.78125 0 -1.53125 0.359375q-0.734375 0.34375 -1.421875 0.90625l0 7.21875l-1.703125 0l0 -10.171875l1.703125 0l0 1.5q1.03125 -0.8125 1.796875 -1.15625q0.78125 -0.34375 1.59375 -0.34375q0.453125 0 0.65625 0.03125q0.203125 0.015625 0.59375 0.078125l0 1.75z" fill-rule="nonzero"/><path fill="#fce5cd" d="m534.52496 5.4488187l211.81097 0l0 104.88189l-211.81097 0z" fill-rule="evenodd"/><path stroke="#000000" stroke-width="1.0" stroke-linejoin="round" stroke-linecap="butt" d="m534.52496 5.4488187l211.81097 0l0 104.88189l-211.81097 0z" fill-rule="evenodd"/><path fill="#000000" d="m568.2308 59.356636q0 1.484375 -0.328125 2.578125q-0.3125 1.09375 -1.046875 1.828125q-0.703125 0.6875 -1.640625 1.015625q-0.9375 0.3125 -2.1875 0.3125q-1.28125 0 -2.234375 -0.328125q-0.9375 -0.34375 -1.59375 -1.0q-0.734375 -0.75 -1.0625 -1.796875q-0.3125 -1.0625 -0.3125 -2.609375l0 -8.109375l1.796875 0l0 8.203125q0 1.109375 0.140625 1.75q0.15625 0.625 0.515625 1.15625q0.40625 0.578125 1.09375 0.890625q0.6875 0.296875 1.65625 0.296875q0.96875 0 1.65625 -0.296875q0.6875 -0.296875 1.09375 -0.890625q0.34375 -0.53125 0.5 -1.1875q0.15625 -0.671875 0.15625 -1.671875l0 -8.25l1.796875 0l0 8.109375zm14.90509 -1.3125q0 1.84375 -0.8125 3.359375q-0.796875 1.5 -2.140625 2.328125q-0.921875 0.5625 -2.078125 0.828125q-1.140625 0.25 -3.0 0.25l-3.421875 0l0 -13.5625l3.375 0q2.0 0 3.15625 0.296875q1.171875 0.28125 1.984375 0.78125q1.390625 0.859375 2.15625 2.296875q0.78125 1.4375 0.78125 3.421875zm-1.890625 -0.03125q0 -1.59375 -0.5625 -2.6875q-0.546875 -1.09375 -1.640625 -1.71875q-0.8125 -0.453125 -1.71875 -0.625q-0.890625 -0.1875 -2.15625 -0.1875l-1.6875 0l0 10.46875l1.6875 0q1.3125 0 2.28125 -0.1875q0.96875 -0.203125 1.78125 -0.71875q1.015625 -0.640625 1.515625 -1.6875q0.5 -1.0625 0.5 -2.65625zm15.499817 6.796875l-1.921875 0l-1.328125 -3.78125l-5.875 0l-1.328125 3.78125l-1.828125 0l4.9375 -13.5625l2.40625 0l4.9375 13.5625zm-3.8125 -5.328125l-2.375 -6.65625l-2.390625 6.65625l4.765625 0zm21.249634 0.125q0 1.234375 -0.359375 2.265625q-0.359375 1.015625 -1.0 1.71875q-0.59375 0.6875 -1.421875 1.0625q-0.8125 0.359375 -1.71875 0.359375q-0.796875 0 -1.4375 -0.171875q-0.640625 -0.171875 -1.3125 -0.546875l0 4.265625l-1.703125 0l0 -13.921875l1.703125 0l0 1.0625q0.6875 -0.578125 1.53125 -0.953125q0.859375 -0.390625 1.828125 -0.390625q1.84375 0 2.859375 1.390625q1.03125 1.390625 1.03125 3.859375zm-1.765625 0.03125q0 -1.828125 -0.640625 -2.734375q-0.625 -0.921875 -1.921875 -0.921875q-0.734375 0 -1.484375 0.328125q-0.75 0.3125 -1.4375 0.828125l0 5.765625q0.734375 0.328125 1.25 0.453125q0.53125 0.109375 1.203125 0.109375q1.421875 0 2.21875 -0.953125q0.8125 -0.96875 0.8125 -2.875zm6.1705933 5.171875l-1.71875 0l0 -14.171875l1.71875 0l0 14.171875zm11.822632 0l-1.71875 0l0 -1.125q-0.859375 0.671875 -1.65625 1.046875q-0.796875 0.359375 -1.75 0.359375q-1.609375 0 -2.5 -0.96875q-0.890625 -0.984375 -0.890625 -2.890625l0 -6.59375l1.71875 0l0 5.796875q0 0.765625 0.0625 1.328125q0.078125 0.546875 0.3125 0.9375q0.25 0.390625 0.640625 0.578125q0.390625 0.1875 1.140625 0.1875q0.671875 0 1.453125 -0.34375q0.78125 -0.359375 1.46875 -0.890625l0 -7.59375l1.71875 0l0 10.171875zm11.618408 -1.15625q0 2.59375 -1.171875 3.796875q-1.171875 1.21875 -3.625 1.21875q-0.796875 0 -1.578125 -0.125q-0.765625 -0.109375 -1.515625 -0.3125l0 -1.75l0.09375 0q0.421875 0.15625 1.328125 0.390625q0.90625 0.25 1.828125 0.25q0.875 0 1.4375 -0.21875q0.578125 -0.203125 0.90625 -0.578125q0.3125 -0.34375 0.4375 -0.859375q0.140625 -0.5 0.140625 -1.109375l0 -0.9375q-0.765625 0.625 -1.46875 0.9375q-0.703125 0.296875 -1.796875 0.296875q-1.828125 0 -2.90625 -1.3125q-1.0625 -1.3125 -1.0625 -3.71875q0 -1.3125 0.359375 -2.265625q0.375 -0.953125 1.015625 -1.640625q0.59375 -0.640625 1.4375 -1.0q0.84375 -0.359375 1.6875 -0.359375q0.890625 0 1.484375 0.171875q0.59375 0.171875 1.25 0.546875l0.109375 -0.4375l1.609375 0l0 9.015625zm-1.71875 -1.640625l0 -5.546875q-0.671875 -0.3125 -1.265625 -0.4375q-0.578125 -0.140625 -1.171875 -0.140625q-1.40625 0 -2.21875 0.953125q-0.8125 0.953125 -0.8125 2.75q0 1.71875 0.59375 2.609375q0.609375 0.875 2.0 0.875q0.75 0 1.5 -0.28125q0.75 -0.296875 1.375 -0.78125zm6.9362183 -9.078125l-1.9375 0l0 -1.78125l1.9375 0l0 1.78125zm-0.109375 11.875l-1.71875 0l0 -10.171875l1.71875 0l0 10.171875zm11.885193 0l-1.703125 0l0 -5.796875q0 -0.703125 -0.09375 -1.3125q-0.078125 -0.609375 -0.296875 -0.96875q-0.21875 -0.375 -0.65625 -0.5625q-0.421875 -0.1875 -1.109375 -0.1875q-0.703125 0 -1.46875 0.34375q-0.765625 0.34375 -1.46875 0.890625l0 7.59375l-1.703125 0l0 -10.171875l1.703125 0l0 1.125q0.8125 -0.65625 1.65625 -1.03125q0.859375 -0.375 1.765625 -0.375q1.65625 0 2.515625 1.0q0.859375 0.984375 0.859375 2.84375l0 6.609375zm6.946533 -7.578125l-2.171875 0l0 -2.59375l2.171875 0l0 2.59375zm0 7.578125l-2.171875 0l0 -2.59375l2.171875 0l0 2.59375zm16.31195 0l-5.359375 0l0 -1.390625l1.78125 0l0 -10.78125l-1.78125 0l0 -1.390625l5.359375 0l0 1.390625l-1.78125 0l0 10.78125l1.78125 0l0 1.390625zm15.149231 0l-1.8125 0l0 -11.6875l-3.765625 7.953125l-1.078125 0l-3.75 -7.953125l0 11.6875l-1.671875 0l0 -13.5625l2.453125 0l3.609375 7.546875l3.5 -7.546875l2.515625 0l0 13.5625zm14.332397 0l-1.921875 0l-1.328125 -3.78125l-5.875 0l-1.328125 3.78125l-1.828125 0l4.9375 -13.5625l2.40625 0l4.9375 13.5625zm-3.8125 -5.328125l-2.375 -6.65625l-2.390625 6.65625l4.765625 0zm15.630859 1.453125q0 0.796875 -0.375 1.578125q-0.359375 0.765625 -1.015625 1.296875q-0.734375 0.59375 -1.703125 0.921875q-0.96875 0.328125 -2.34375 0.328125q-1.46875 0 -2.640625 -0.265625q-1.15625 -0.28125 -2.375 -0.828125l0 -2.25l0.125 0q1.03125 0.859375 2.375 1.328125q1.359375 0.453125 2.546875 0.453125q1.671875 0 2.59375 -0.625q0.9375 -0.625 0.9375 -1.671875q0 -0.90625 -0.4375 -1.328125q-0.4375 -0.4375 -1.34375 -0.671875q-0.6875 -0.1875 -1.484375 -0.296875q-0.796875 -0.125 -1.6875 -0.3125q-1.796875 -0.375 -2.671875 -1.296875q-0.875 -0.921875 -0.875 -2.40625q0 -1.71875 1.4375 -2.796875q1.453125 -1.09375 3.65625 -1.09375q1.4375 0 2.625 0.28125q1.203125 0.265625 2.109375 0.671875l0 2.125l-0.125 0q-0.765625 -0.65625 -2.03125 -1.078125q-1.265625 -0.4375 -2.578125 -0.4375q-1.453125 0 -2.34375 0.609375q-0.875 0.59375 -0.875 1.53125q0 0.859375 0.4375 1.34375q0.4375 0.46875 1.546875 0.734375q0.578125 0.125 1.65625 0.3125q1.078125 0.171875 1.828125 0.375q1.5 0.390625 2.265625 1.203125q0.765625 0.8125 0.765625 2.265625z" fill-rule="nonzero"/><path fill="#fff2cc" d="m627.1706 123.59055l13.259827 -13.259842l13.259888 13.259842l-6.629944 0l0 14.173225l6.629944 0l-13.259888 13.259842l-13.259827 -13.259842l6.629944 0l0 -14.173225z" fill-rule="evenodd"/><path stroke="#000000" stroke-width="1.0" stroke-linejoin="round" stroke-linecap="butt" d="m627.1706 123.59055l13.259827 -13.259842l13.259888 13.259842l-6.629944 0l0 14.173225l6.629944 0l-13.259888 13.259842l-13.259827 -13.259842l6.629944 0l0 -14.173225z" fill-rule="evenodd"/><path fill="#cfe2f3" d="m339.3504 316.9469l0 0c0 -10.656952 29.157288 -19.296143 65.124664 -19.296143c35.967346 0 65.124664 8.639191 65.124664 19.296143l0 77.1846c0 10.656982 -29.157318 19.296143 -65.124664 19.296143c-35.967377 0 -65.124664 -8.63916 -65.124664 -19.296143z" fill-rule="evenodd"/><path fill="#000000" fill-opacity="0.0" d="m469.59973 316.9469l0 0c0 10.656982 -29.157318 19.296143 -65.124664 19.296143c-35.967377 0 -65.124664 -8.63916 -65.124664 -19.296143" fill-rule="evenodd"/><path fill="#000000" fill-opacity="0.0" d="m339.3504 316.9469l0 0c0 -10.656952 29.157288 -19.296143 65.124664 -19.296143c35.967346 0 65.124664 8.639191 65.124664 19.296143l0 77.1846c0 10.656982 -29.157318 19.296143 -65.124664 19.296143c-35.967377 0 -65.124664 -8.63916 -65.124664 -19.296143z" fill-rule="evenodd"/><path stroke="#000000" stroke-width="1.0" stroke-linejoin="round" stroke-linecap="butt" d="m469.59973 316.9469l0 0c0 10.656982 -29.157318 19.296143 -65.124664 19.296143c-35.967377 0 -65.124664 -8.63916 -65.124664 -19.296143" fill-rule="evenodd"/><path stroke="#000000" stroke-width="1.0" stroke-linejoin="round" stroke-linecap="butt" d="m339.3504 316.9469l0 0c0 -10.656952 29.157288 -19.296143 65.124664 -19.296143c35.967346 0 65.124664 8.639191 65.124664 19.296143l0 77.1846c0 10.656982 -29.157318 19.296143 -65.124664 19.296143c-35.967377 0 -65.124664 -8.63916 -65.124664 -19.296143z" fill-rule="evenodd"/><path fill="#000000" d="m366.73648 372.10727l-2.34375 0l-4.53125 -5.390625l-2.546875 0l0 5.390625l-1.796875 0l0 -13.5625l3.796875 0q1.21875 0 2.03125 0.15625q0.828125 0.15625 1.484375 0.578125q0.75 0.453125 1.15625 1.171875q0.421875 0.703125 0.421875 1.78125q0 1.46875 -0.75 2.453125q-0.734375 0.984375 -2.03125 1.484375l5.109375 5.9375zm-4.21875 -9.75q0 -0.578125 -0.203125 -1.03125q-0.203125 -0.453125 -0.6875 -0.765625q-0.390625 -0.265625 -0.921875 -0.359375q-0.53125 -0.109375 -1.265625 -0.109375l-2.125 0l0 5.125l1.828125 0q0.84375 0 1.484375 -0.15625q0.640625 -0.15625 1.09375 -0.5625q0.40625 -0.375 0.59375 -0.875q0.203125 -0.5 0.203125 -1.265625zm16.659424 9.75l-1.921875 0l-1.328125 -3.78125l-5.875 0l-1.328125 3.78125l-1.828125 0l4.9375 -13.5625l2.40625 0l4.9375 13.5625zm-3.8125 -5.328125l-2.375 -6.65625l-2.390625 6.65625l4.765625 0zm17.95642 5.328125l-1.8125 0l0 -11.6875l-3.765625 7.953125l-1.078125 0l-3.75 -7.953125l0 11.6875l-1.671875 0l0 -13.5625l2.453125 0l3.609375 7.546875l3.5 -7.546875l2.515625 0l0 13.5625zm17.578705 -0.640625q-0.84375 0.40625 -1.625 0.640625q-0.765625 0.234375 -1.625 0.234375q-1.109375 0 -2.03125 -0.328125q-0.921875 -0.328125 -1.578125 -0.984375q-0.65625 -0.65625 -1.03125 -1.65625q-0.359375 -1.0 -0.359375 -2.34375q0 -2.484375 1.375 -3.90625q1.375 -1.421875 3.625 -1.421875q0.875 0 1.71875 0.25q0.84375 0.234375 1.53125 0.59375l0 1.90625l-0.078125 0q-0.796875 -0.609375 -1.625 -0.9375q-0.828125 -0.328125 -1.625 -0.328125q-1.453125 0 -2.296875 0.984375q-0.84375 0.96875 -0.84375 2.859375q0 1.84375 0.8125 2.84375q0.828125 0.984375 2.328125 0.984375q0.515625 0 1.046875 -0.140625q0.546875 -0.140625 0.96875 -0.359375q0.375 -0.1875 0.703125 -0.40625q0.328125 -0.21875 0.53125 -0.359375l0.078125 0l0 1.875zm10.110474 0.640625l-1.703125 0l0 -1.078125q-0.234375 0.15625 -0.625 0.4375q-0.375 0.265625 -0.75 0.4375q-0.421875 0.203125 -0.984375 0.34375q-0.546875 0.140625 -1.296875 0.140625q-1.375 0 -2.328125 -0.90625q-0.953125 -0.921875 -0.953125 -2.328125q0 -1.15625 0.484375 -1.859375q0.5 -0.71875 1.421875 -1.140625q0.9375 -0.40625 2.234375 -0.546875q1.296875 -0.15625 2.796875 -0.21875l0 -0.265625q0 -0.578125 -0.203125 -0.953125q-0.203125 -0.390625 -0.59375 -0.609375q-0.359375 -0.21875 -0.875 -0.28125q-0.5 -0.078125 -1.0625 -0.078125q-0.671875 0 -1.5 0.1875q-0.828125 0.171875 -1.71875 0.5l-0.09375 0l0 -1.734375q0.5 -0.140625 1.453125 -0.296875q0.953125 -0.171875 1.875 -0.171875q1.0625 0 1.859375 0.1875q0.796875 0.171875 1.390625 0.59375q0.5625 0.421875 0.859375 1.09375q0.3125 0.65625 0.3125 1.640625l0 6.90625zm-1.703125 -2.5l0 -2.84375q-0.78125 0.046875 -1.84375 0.140625q-1.0625 0.09375 -1.6875 0.265625q-0.734375 0.203125 -1.1875 0.65625q-0.453125 0.4375 -0.453125 1.21875q0 0.859375 0.515625 1.3125q0.53125 0.4375 1.625 0.4375q0.890625 0 1.640625 -0.34375q0.75 -0.359375 1.390625 -0.84375zm12.517181 1.859375q-0.84375 0.40625 -1.625 0.640625q-0.765625 0.234375 -1.625 0.234375q-1.109375 0 -2.03125 -0.328125q-0.921875 -0.328125 -1.578125 -0.984375q-0.65625 -0.65625 -1.03125 -1.65625q-0.359375 -1.0 -0.359375 -2.34375q0 -2.484375 1.375 -3.90625q1.375 -1.421875 3.625 -1.421875q0.875 0 1.71875 0.25q0.84375 0.234375 1.53125 0.59375l0 1.90625l-0.078125 0q-0.796875 -0.609375 -1.625 -0.9375q-0.828125 -0.328125 -1.625 -0.328125q-1.453125 0 -2.296875 0.984375q-0.84375 0.96875 -0.84375 2.859375q0 1.84375 0.8125 2.84375q0.828125 0.984375 2.328125 0.984375q0.515625 0 1.046875 -0.140625q0.546875 -0.140625 0.96875 -0.359375q0.375 -0.1875 0.703125 -0.40625q0.328125 -0.21875 0.53125 -0.359375l0.078125 0l0 1.875zm10.704193 0.640625l-1.703125 0l0 -5.796875q0 -0.703125 -0.09375 -1.3125q-0.078125 -0.609375 -0.296875 -0.96875q-0.21875 -0.375 -0.65625 -0.5625q-0.421875 -0.1875 -1.109375 -0.1875q-0.703125 0 -1.46875 0.34375q-0.765625 0.34375 -1.46875 0.890625l0 7.59375l-1.703125 0l0 -14.171875l1.703125 0l0 5.125q0.8125 -0.65625 1.65625 -1.03125q0.859375 -0.375 1.765625 -0.375q1.65625 0 2.515625 1.0q0.859375 0.984375 0.859375 2.84375l0 6.609375zm11.821533 -4.90625l-7.5 0q0 0.9375 0.28125 1.640625q0.28125 0.6875 0.78125 1.140625q0.46875 0.4375 1.109375 0.65625q0.65625 0.21875 1.453125 0.21875q1.03125 0 2.078125 -0.421875q1.0625 -0.421875 1.5 -0.8125l0.09375 0l0 1.859375q-0.859375 0.375 -1.765625 0.625q-0.90625 0.234375 -1.890625 0.234375q-2.53125 0 -3.953125 -1.359375q-1.421875 -1.375 -1.421875 -3.90625q0 -2.5 1.359375 -3.953125q1.359375 -1.46875 3.578125 -1.46875q2.0625 0 3.171875 1.203125q1.125 1.203125 1.125 3.40625l0 0.9375zm-1.671875 -1.3125q0 -1.34375 -0.671875 -2.078125q-0.671875 -0.75 -2.03125 -0.75q-1.375 0 -2.203125 0.8125q-0.8125 0.8125 -0.921875 2.015625l5.828125 0z" fill-rule="nonzero"/><path fill="#fff2cc" d="m62.614174 369.23358l-15.653545 -16.289368l0 7.826782l0 0c-18.85296 -1.5567017 -34.368366 -5.8296204 -41.97923 -11.561035c-7.1248655 5.3654175 -6.584836 11.457397 1.4790716 16.68512c8.063908 5.227722 22.851072 9.072174 40.50016 10.529449l0 7.826782z" fill-rule="evenodd"/><path fill="#cbc1a3" d="m0 357.03674c0 -11.058746 28.03332 -20.02362 62.614174 -20.02362l0 -15.653534l0 0c-34.580856 0 -62.614174 8.964874 -62.614174 20.02362z" fill-rule="evenodd"/><path fill="#000000" fill-opacity="0.0" d="m0 357.03674c0 -11.058746 28.03332 -20.02362 62.614174 -20.02362l0 -15.653534l0 0c-34.580856 0 -62.614174 8.964874 -62.614174 20.02362l-9.548501E-15 15.653534c0 9.130737 19.315317 17.105103 46.96063 19.387787l0 7.826782l15.653545 -15.017731l-15.653545 -16.289368l0 7.826782l0 0c-18.85296 -1.5567017 -34.368366 -5.8296204 -41.97923 -11.561035" fill-rule="evenodd"/><path stroke="#000000" stroke-width="1.0" stroke-linejoin="round" stroke-linecap="butt" d="m0 357.03674c0 -11.058746 28.03332 -20.02362 62.614174 -20.02362l0 -15.653534l0 0c-34.580856 0 -62.614174 8.964874 -62.614174 20.02362l-9.548501E-15 15.653534c0 9.130737 19.315317 17.105103 46.96063 19.387787l0 7.826782l15.653545 -15.017731l-15.653545 -16.289368l0 7.826782l0 0c-18.85296 -1.5567017 -34.368366 -5.8296204 -41.97923 -11.561035" fill-rule="evenodd"/><path fill="#fff2cc" d="m746.33594 57.88714l15.433105 -15.433071l0 7.7165375l38.834656 0l0 15.433071l-38.834656 0l0 7.7165375z" fill-rule="evenodd"/><path stroke="#000000" stroke-width="1.0" stroke-linejoin="round" stroke-linecap="butt" d="m746.33594 57.88714l15.433105 -15.433071l0 7.7165375l38.834656 0l0 15.433071l-38.834656 0l0 7.7165375z" fill-rule="evenodd"/><path fill="#fff2cc" d="m274.4252 355.53806l15.433075 -15.433075l0 7.7165527l49.480316 0l0 15.433075l-49.480316 0l0 7.716522z" fill-rule="evenodd"/><path stroke="#000000" stroke-width="1.0" stroke-linejoin="round" stroke-linecap="butt" d="m274.4252 355.53806l15.433075 -15.433075l0 7.7165527l49.480316 0l0 15.433075l-49.480316 0l0 7.716522z" fill-rule="evenodd"/><path fill="#fff2cc" d="m650.55646 256.95538l0 57.07254l0 0c0 27.708801 -22.462463 50.171234 -50.171265 50.171234l-117.29794 0l0 7.43338l-13.475708 -14.865601l13.475708 -14.865601l0 7.43338l117.29794 0l0 0c19.49939 0 35.306763 -15.807404 35.306763 -35.306793l0 -57.07254z" fill-rule="evenodd"/><path stroke="#000000" stroke-width="1.0" stroke-linejoin="round" stroke-linecap="butt" d="m650.55646 256.95538l0 57.07254l0 0c0 27.708801 -22.462463 50.171234 -50.171265 50.171234l-117.29794 0l0 7.43338l-13.475708 -14.865601l13.475708 -14.865601l0 7.43338l117.29794 0l0 0c19.49939 0 35.306763 -15.807404 35.306763 -35.306793l0 -57.07254z" fill-rule="evenodd"/><path fill="#cfe2f3" d="m342.5538 10.895013l123.84253 0l0 82.860565l-16.57251 16.57251l-107.27002 0z" fill-rule="evenodd"/><path fill="#a5b4c2" d="m449.82382 110.32809l3.3144836 -13.258011l13.258026 -3.314499z" fill-rule="evenodd"/><path fill="#000000" fill-opacity="0.0" d="m449.82382 110.32809l3.3144836 -13.258011l13.258026 -3.314499l-16.57251 16.57251l-107.27002 0l0 -99.433075l123.84253 0l0 82.860565" fill-rule="evenodd"/><path stroke="#000000" stroke-width="1.0" stroke-linejoin="round" stroke-linecap="butt" d="m449.82382 110.32809l3.3144836 -13.258011l13.258026 -3.314499l-16.57251 16.57251l-107.27002 0l0 -99.433075l123.84253 0l0 82.860565" fill-rule="evenodd"/><path fill="#000000" d="m395.68857 41.479668q0 1.84375 -0.8125 3.359375q-0.796875 1.5 -2.140625 2.328125q-0.921875 0.5625 -2.078125 0.828125q-1.140625 0.25 -3.0 0.25l-3.421875 0l0 -13.5625l3.375 0q2.0 0 3.15625 0.296875q1.171875 0.28125 1.984375 0.78125q1.390625 0.859375 2.15625 2.296875q0.78125 1.4375 0.78125 3.421875zm-1.890625 -0.03125q0 -1.59375 -0.5625 -2.6875q-0.546875 -1.09375 -1.640625 -1.71875q-0.8125 -0.453125 -1.71875 -0.625q-0.890625 -0.1875 -2.15625 -0.1875l-1.6875 0l0 10.46875l1.6875 0q1.3125 0 2.28125 -0.1875q0.96875 -0.203125 1.78125 -0.71875q1.015625 -0.640625 1.515625 -1.6875q0.5 -1.0625 0.5 -2.65625zm12.577911 6.796875l-1.703125 0l0 -1.078125q-0.234375 0.15625 -0.625 0.4375q-0.375 0.265625 -0.75 0.4375q-0.421875 0.203125 -0.984375 0.34375q-0.546875 0.140625 -1.296875 0.140625q-1.375 0 -2.328125 -0.90625q-0.953125 -0.921875 -0.953125 -2.328125q0 -1.15625 0.484375 -1.859375q0.5 -0.71875 1.421875 -1.140625q0.9375 -0.40625 2.234375 -0.546875q1.296875 -0.15625 2.796875 -0.21875l0 -0.265625q0 -0.578125 -0.203125 -0.953125q-0.203125 -0.390625 -0.59375 -0.609375q-0.359375 -0.21875 -0.875 -0.28125q-0.5 -0.078125 -1.0625 -0.078125q-0.671875 0 -1.5 0.1875q-0.828125 0.171875 -1.71875 0.5l-0.09375 0l0 -1.734375q0.5 -0.140625 1.453125 -0.296875q0.953125 -0.171875 1.875 -0.171875q1.0625 0 1.859375 0.1875q0.796875 0.171875 1.390625 0.59375q0.5625 0.421875 0.859375 1.09375q0.3125 0.65625 0.3125 1.640625l0 6.90625zm-1.703125 -2.5l0 -2.84375q-0.78125 0.046875 -1.84375 0.140625q-1.0625 0.09375 -1.6875 0.265625q-0.734375 0.203125 -1.1875 0.65625q-0.453125 0.4375 -0.453125 1.21875q0 0.859375 0.515625 1.3125q0.53125 0.4375 1.625 0.4375q0.890625 0 1.640625 -0.34375q0.75 -0.359375 1.390625 -0.84375zm10.282806 2.40625q-0.484375 0.125 -1.0625 0.203125q-0.5625 0.09375 -1.0 0.09375q-1.5625 0 -2.375 -0.828125q-0.8125 -0.84375 -0.8125 -2.703125l0 -5.40625l-1.15625 0l0 -1.4375l1.15625 0l0 -2.921875l1.71875 0l0 2.921875l3.53125 0l0 1.4375l-3.53125 0l0 4.640625q0 0.796875 0.03125 1.25q0.03125 0.453125 0.25 0.84375q0.203125 0.359375 0.546875 0.53125q0.359375 0.171875 1.078125 0.171875q0.421875 0 0.875 -0.125q0.453125 -0.125 0.65625 -0.203125l0.09375 0l0 1.53125zm9.976349 0.09375l-1.703125 0l0 -1.078125q-0.234375 0.15625 -0.625 0.4375q-0.375 0.265625 -0.75 0.4375q-0.421875 0.203125 -0.984375 0.34375q-0.546875 0.140625 -1.296875 0.140625q-1.375 0 -2.328125 -0.90625q-0.953125 -0.921875 -0.953125 -2.328125q0 -1.15625 0.484375 -1.859375q0.5 -0.71875 1.421875 -1.140625q0.9375 -0.40625 2.234375 -0.546875q1.296875 -0.15625 2.796875 -0.21875l0 -0.265625q0 -0.578125 -0.203125 -0.953125q-0.203125 -0.390625 -0.59375 -0.609375q-0.359375 -0.21875 -0.875 -0.28125q-0.5 -0.078125 -1.0625 -0.078125q-0.671875 0 -1.5 0.1875q-0.828125 0.171875 -1.71875 0.5l-0.09375 0l0 -1.734375q0.5 -0.140625 1.453125 -0.296875q0.953125 -0.171875 1.875 -0.171875q1.0625 0 1.859375 0.1875q0.796875 0.171875 1.390625 0.59375q0.5625 0.421875 0.859375 1.09375q0.3125 0.65625 0.3125 1.640625l0 6.90625zm-1.703125 -2.5l0 -2.84375q-0.78125 0.046875 -1.84375 0.140625q-1.0625 0.09375 -1.6875 0.265625q-0.734375 0.203125 -1.1875 0.65625q-0.453125 0.4375 -0.453125 1.21875q0 0.859375 0.515625 1.3125q0.53125 0.4375 1.625 0.4375q0.890625 0 1.640625 -0.34375q0.75 -0.359375 1.390625 -0.84375z" fill-rule="nonzero"/><path fill="#000000" d="m370.24573 63.479668q0 1.84375 -0.8125 3.359375q-0.796875 1.5 -2.140625 2.328125q-0.921875 0.5625 -2.078125 0.828125q-1.140625 0.25 -3.0 0.25l-3.421875 0l0 -13.5625l3.375 0q2.0 0 3.15625 0.296875q1.171875 0.28125 1.984375 0.78125q1.390625 0.859375 2.15625 2.296875q0.78125 1.4375 0.78125 3.421875zm-1.890625 -0.03125q0 -1.59375 -0.5625 -2.6875q-0.546875 -1.09375 -1.640625 -1.71875q-0.8125 -0.453125 -1.71875 -0.625q-0.890625 -0.1875 -2.15625 -0.1875l-1.6875 0l0 10.46875l1.6875 0q1.3125 0 2.28125 -0.1875q0.96875 -0.203125 1.78125 -0.71875q1.015625 -0.640625 1.515625 -1.6875q0.5 -1.0625 0.5 -2.65625zm6.5154114 -5.078125l-1.9375 0l0 -1.78125l1.9375 0l0 1.78125zm-0.109375 11.875l-1.71875 0l0 -10.171875l1.71875 0l0 10.171875zm10.900787 -0.640625q-0.84375 0.40625 -1.625 0.640625q-0.765625 0.234375 -1.625 0.234375q-1.109375 0 -2.03125 -0.328125q-0.921875 -0.328125 -1.578125 -0.984375q-0.65625 -0.65625 -1.03125 -1.65625q-0.359375 -1.0 -0.359375 -2.34375q0 -2.484375 1.375 -3.90625q1.375 -1.421875 3.625 -1.421875q0.875 0 1.71875 0.25q0.84375 0.234375 1.53125 0.59375l0 1.90625l-0.078125 0q-0.796875 -0.609375 -1.625 -0.9375q-0.828125 -0.328125 -1.625 -0.328125q-1.453125 0 -2.296875 0.984375q-0.84375 0.96875 -0.84375 2.859375q0 1.84375 0.8125 2.84375q0.828125 0.984375 2.328125 0.984375q0.515625 0 1.046875 -0.140625q0.546875 -0.140625 0.96875 -0.359375q0.375 -0.1875 0.703125 -0.40625q0.328125 -0.21875 0.53125 -0.359375l0.078125 0l0 1.875zm7.4854736 0.546875q-0.484375 0.125 -1.0625 0.203125q-0.5625 0.09375 -1.0 0.09375q-1.5625 0 -2.375 -0.828125q-0.8125 -0.84375 -0.8125 -2.703125l0 -5.40625l-1.15625 0l0 -1.4375l1.15625 0l0 -2.921875l1.71875 0l0 2.921875l3.53125 0l0 1.4375l-3.53125 0l0 4.640625q0 0.796875 0.03125 1.25q0.03125 0.453125 0.25 0.84375q0.203125 0.359375 0.546875 0.53125q0.359375 0.171875 1.078125 0.171875q0.421875 0 0.875 -0.125q0.453125 -0.125 0.65625 -0.203125l0.09375 0l0 1.53125zm3.9138489 -11.78125l-1.9375 0l0 -1.78125l1.9375 0l0 1.78125zm-0.109375 11.875l-1.71875 0l0 -10.171875l1.71875 0l0 10.171875zm12.057037 -5.078125q0 2.484375 -1.28125 3.921875q-1.265625 1.4375 -3.40625 1.4375q-2.171875 0 -3.4375 -1.4375q-1.265625 -1.4375 -1.265625 -3.921875q0 -2.484375 1.265625 -3.921875q1.265625 -1.453125 3.4375 -1.453125q2.140625 0 3.40625 1.453125q1.28125 1.4375 1.28125 3.921875zm-1.765625 0q0 -1.984375 -0.78125 -2.9375q-0.765625 -0.96875 -2.140625 -0.96875q-1.40625 0 -2.171875 0.96875q-0.765625 0.953125 -0.765625 2.9375q0 1.90625 0.765625 2.90625q0.78125 0.984375 2.171875 0.984375q1.359375 0 2.140625 -0.984375q0.78125 -0.984375 0.78125 -2.90625zm12.91687 5.078125l-1.703125 0l0 -5.796875q0 -0.703125 -0.09375 -1.3125q-0.078125 -0.609375 -0.296875 -0.96875q-0.21875 -0.375 -0.65625 -0.5625q-0.421875 -0.1875 -1.109375 -0.1875q-0.703125 0 -1.46875 0.34375q-0.765625 0.34375 -1.46875 0.890625l0 7.59375l-1.703125 0l0 -10.171875l1.703125 0l0 1.125q0.8125 -0.65625 1.65625 -1.03125q0.859375 -0.375 1.765625 -0.375q1.65625 0 2.515625 1.0q0.859375 0.984375 0.859375 2.84375l0 6.609375zm11.212158 0l-1.703125 0l0 -1.078125q-0.234375 0.15625 -0.625 0.4375q-0.375 0.265625 -0.75 0.4375q-0.421875 0.203125 -0.984375 0.34375q-0.546875 0.140625 -1.296875 0.140625q-1.375 0 -2.328125 -0.90625q-0.953125 -0.921875 -0.953125 -2.328125q0 -1.15625 0.484375 -1.859375q0.5 -0.71875 1.421875 -1.140625q0.9375 -0.40625 2.234375 -0.546875q1.296875 -0.15625 2.796875 -0.21875l0 -0.265625q0 -0.578125 -0.203125 -0.953125q-0.203125 -0.390625 -0.59375 -0.609375q-0.359375 -0.21875 -0.875 -0.28125q-0.5 -0.078125 -1.0625 -0.078125q-0.671875 0 -1.5 0.1875q-0.828125 0.171875 -1.71875 0.5l-0.09375 0l0 -1.734375q0.5 -0.140625 1.453125 -0.296875q0.953125 -0.171875 1.875 -0.171875q1.0625 0 1.859375 0.1875q0.796875 0.171875 1.390625 0.59375q0.5625 0.421875 0.859375 1.09375q0.3125 0.65625 0.3125 1.640625l0 6.90625zm-1.703125 -2.5l0 -2.84375q-0.78125 0.046875 -1.84375 0.140625q-1.0625 0.09375 -1.6875 0.265625q-0.734375 0.203125 -1.1875 0.65625q-0.453125 0.4375 -0.453125 1.21875q0 0.859375 0.515625 1.3125q0.53125 0.4375 1.625 0.4375q0.890625 0 1.640625 -0.34375q0.75 -0.359375 1.390625 -0.84375zm11.345306 -5.8125l-0.09375 0q-0.375 -0.09375 -0.734375 -0.125q-0.359375 -0.046875 -0.859375 -0.046875q-0.78125 0 -1.53125 0.359375q-0.734375 0.34375 -1.421875 0.90625l0 7.21875l-1.703125 0l0 -10.171875l1.703125 0l0 1.5q1.03125 -0.8125 1.796875 -1.15625q0.78125 -0.34375 1.59375 -0.34375q0.453125 0 0.65625 0.03125q0.203125 0.015625 0.59375 0.078125l0 1.75zm10.414825 -1.859375l-5.9375 13.921875l-1.828125 0l1.890625 -4.234375l-4.046875 -9.6875l1.84375 0l3.125 7.546875l3.15625 -7.546875l1.796875 0z" fill-rule="nonzero"/><path fill="#cfe2f3" d="m298.56955 151.57478l211.81104 0l0 104.88188l-211.81104 0z" fill-rule="evenodd"/><path stroke="#000000" stroke-width="1.0" stroke-linejoin="round" stroke-linecap="butt" d="m298.56955 151.57478l211.81104 0l0 104.88188l-211.81104 0z" fill-rule="evenodd"/><path fill="#000000" d="m331.2304 209.93573q-1.109375 0.515625 -2.4375 0.890625q-1.3125 0.375 -2.546875 0.375q-1.578125 0 -2.90625 -0.4375q-1.3125 -0.4375 -2.25 -1.3125q-0.9375 -0.890625 -1.453125 -2.203125q-0.5 -1.328125 -0.5 -3.109375q0 -3.25 1.890625 -5.125q1.90625 -1.890625 5.21875 -1.890625q1.15625 0 2.359375 0.28125q1.21875 0.28125 2.609375 0.9375l0 2.140625l-0.15625 0q-0.28125 -0.21875 -0.828125 -0.5625q-0.53125 -0.359375 -1.046875 -0.59375q-0.640625 -0.28125 -1.4375 -0.46875q-0.796875 -0.1875 -1.796875 -0.1875q-2.28125 0 -3.609375 1.46875q-1.328125 1.453125 -1.328125 3.953125q0 2.625 1.375 4.09375q1.390625 1.453125 3.78125 1.453125q0.875 0 1.734375 -0.171875q0.875 -0.171875 1.53125 -0.4375l0 -3.328125l-3.625 0l0 -1.59375l5.421875 0l0 5.828125zm11.528381 -3.90625l-7.5 0q0 0.9375 0.28125 1.640625q0.28125 0.6875 0.78125 1.140625q0.46875 0.4375 1.109375 0.65625q0.65625 0.21875 1.453125 0.21875q1.03125 0 2.078125 -0.421875q1.0625 -0.421875 1.5 -0.8125l0.09375 0l0 1.859375q-0.859375 0.375 -1.765625 0.625q-0.90625 0.234375 -1.890625 0.234375q-2.53125 0 -3.953125 -1.359375q-1.421875 -1.375 -1.421875 -3.90625q0 -2.5 1.359375 -3.953125q1.359375 -1.46875 3.578125 -1.46875q2.0625 0 3.171875 1.203125q1.125 1.203125 1.125 3.40625l0 0.9375zm-1.671875 -1.3125q0 -1.34375 -0.671875 -2.078125q-0.671875 -0.75 -2.03125 -0.75q-1.375 0 -2.203125 0.8125q-0.8125 0.8125 -0.921875 2.015625l5.828125 0zm12.769836 6.21875l-1.703125 0l0 -5.796875q0 -0.703125 -0.09375 -1.3125q-0.078125 -0.609375 -0.296875 -0.96875q-0.21875 -0.375 -0.65625 -0.5625q-0.421875 -0.1875 -1.109375 -0.1875q-0.703125 0 -1.46875 0.34375q-0.765625 0.34375 -1.46875 0.890625l0 7.59375l-1.703125 0l0 -10.171875l1.703125 0l0 1.125q0.8125 -0.65625 1.65625 -1.03125q0.859375 -0.375 1.765625 -0.375q1.65625 0 2.515625 1.0q0.859375 0.984375 0.859375 2.84375l0 6.609375zm11.821533 -4.90625l-7.5 0q0 0.9375 0.28125 1.640625q0.28125 0.6875 0.78125 1.140625q0.46875 0.4375 1.109375 0.65625q0.65625 0.21875 1.453125 0.21875q1.03125 0 2.078125 -0.421875q1.0625 -0.421875 1.5 -0.8125l0.09375 0l0 1.859375q-0.859375 0.375 -1.765625 0.625q-0.90625 0.234375 -1.890625 0.234375q-2.53125 0 -3.953125 -1.359375q-1.421875 -1.375 -1.421875 -3.90625q0 -2.5 1.359375 -3.953125q1.359375 -1.46875 3.578125 -1.46875q2.0625 0 3.171875 1.203125q1.125 1.203125 1.125 3.40625l0 0.9375zm-1.671875 -1.3125q0 -1.34375 -0.671875 -2.078125q-0.671875 -0.75 -2.03125 -0.75q-1.375 0 -2.203125 0.8125q-0.8125 0.8125 -0.921875 2.015625l5.828125 0zm10.613586 -2.09375l-0.09375 0q-0.375 -0.09375 -0.734375 -0.125q-0.359375 -0.046875 -0.859375 -0.046875q-0.78125 0 -1.53125 0.359375q-0.734375 0.34375 -1.421875 0.90625l0 7.21875l-1.703125 0l0 -10.171875l1.703125 0l0 1.5q1.03125 -0.8125 1.796875 -1.15625q0.78125 -0.34375 1.59375 -0.34375q0.453125 0 0.65625 0.03125q0.203125 0.015625 0.59375 0.078125l0 1.75zm9.196075 8.3125l-1.703125 0l0 -1.078125q-0.234375 0.15625 -0.625 0.4375q-0.375 0.265625 -0.75 0.4375q-0.421875 0.203125 -0.984375 0.34375q-0.546875 0.140625 -1.296875 0.140625q-1.375 0 -2.328125 -0.90625q-0.953125 -0.921875 -0.953125 -2.328125q0 -1.15625 0.484375 -1.859375q0.5 -0.71875 1.421875 -1.140625q0.9375 -0.40625 2.234375 -0.546875q1.296875 -0.15625 2.796875 -0.21875l0 -0.265625q0 -0.578125 -0.203125 -0.953125q-0.203125 -0.390625 -0.59375 -0.609375q-0.359375 -0.21875 -0.875 -0.28125q-0.5 -0.078125 -1.0625 -0.078125q-0.671875 0 -1.5 0.1875q-0.828125 0.171875 -1.71875 0.5l-0.09375 0l0 -1.734375q0.5 -0.140625 1.453125 -0.296875q0.953125 -0.171875 1.875 -0.171875q1.0625 0 1.859375 0.1875q0.796875 0.171875 1.390625 0.59375q0.5625 0.421875 0.859375 1.09375q0.3125 0.65625 0.3125 1.640625l0 6.90625zm-1.703125 -2.5l0 -2.84375q-0.78125 0.046875 -1.84375 0.140625q-1.0625 0.09375 -1.6875 0.265625q-0.734375 0.203125 -1.1875 0.65625q-0.453125 0.4375 -0.453125 1.21875q0 0.859375 0.515625 1.3125q0.53125 0.4375 1.625 0.4375q0.890625 0 1.640625 -0.34375q0.75 -0.359375 1.390625 -0.84375zm10.282806 2.40625q-0.484375 0.125 -1.0625 0.203125q-0.5625 0.09375 -1.0 0.09375q-1.5625 0 -2.375 -0.828125q-0.8125 -0.84375 -0.8125 -2.703125l0 -5.40625l-1.15625 0l0 -1.4375l1.15625 0l0 -2.921875l1.71875 0l0 2.921875l3.53125 0l0 1.4375l-3.53125 0l0 4.640625q0 0.796875 0.03125 1.25q0.03125 0.453125 0.25 0.84375q0.203125 0.359375 0.546875 0.53125q0.359375 0.171875 1.078125 0.171875q0.421875 0 0.875 -0.125q0.453125 -0.125 0.65625 -0.203125l0.09375 0l0 1.53125zm10.585754 -4.8125l-7.5 0q0 0.9375 0.28125 1.640625q0.28125 0.6875 0.78125 1.140625q0.46875 0.4375 1.109375 0.65625q0.65625 0.21875 1.453125 0.21875q1.03125 0 2.078125 -0.421875q1.0625 -0.421875 1.5 -0.8125l0.09375 0l0 1.859375q-0.859375 0.375 -1.765625 0.625q-0.90625 0.234375 -1.890625 0.234375q-2.53125 0 -3.953125 -1.359375q-1.421875 -1.375 -1.421875 -3.90625q0 -2.5 1.359375 -3.953125q1.359375 -1.46875 3.578125 -1.46875q2.0625 0 3.171875 1.203125q1.125 1.203125 1.125 3.40625l0 0.9375zm-1.671875 -1.3125q0 -1.34375 -0.671875 -2.078125q-0.671875 -0.75 -2.03125 -0.75q-1.375 0 -2.203125 0.8125q-0.8125 0.8125 -0.921875 2.015625l5.828125 0zm17.172424 -2.09375l-0.09375 0q-0.375 -0.09375 -0.734375 -0.125q-0.359375 -0.046875 -0.859375 -0.046875q-0.78125 0 -1.53125 0.359375q-0.734375 0.34375 -1.421875 0.90625l0 7.21875l-1.703125 0l0 -10.171875l1.703125 0l0 1.5q1.03125 -0.8125 1.796875 -1.15625q0.78125 -0.34375 1.59375 -0.34375q0.453125 0 0.65625 0.03125q0.203125 0.015625 0.59375 0.078125l0 1.75zm10.133575 3.40625l-7.5 0q0 0.9375 0.28125 1.640625q0.28125 0.6875 0.78125 1.140625q0.46875 0.4375 1.109375 0.65625q0.65625 0.21875 1.453125 0.21875q1.03125 0 2.078125 -0.421875q1.0625 -0.421875 1.5 -0.8125l0.09375 0l0 1.859375q-0.859375 0.375 -1.765625 0.625q-0.90625 0.234375 -1.890625 0.234375q-2.53125 0 -3.953125 -1.359375q-1.421875 -1.375 -1.421875 -3.90625q0 -2.5 1.359375 -3.953125q1.359375 -1.46875 3.578125 -1.46875q2.0625 0 3.171875 1.203125q1.125 1.203125 1.125 3.40625l0 0.9375zm-1.671875 -1.3125q0 -1.34375 -0.671875 -2.078125q-0.671875 -0.75 -2.03125 -0.75q-1.375 0 -2.203125 0.8125q-0.8125 0.8125 -0.921875 2.015625l5.828125 0zm12.519836 9.96875l-1.71875 0l0 -4.890625q-0.78125 0.671875 -1.578125 1.015625q-0.78125 0.328125 -1.6875 0.328125q-1.8125 0 -2.890625 -1.390625q-1.078125 -1.40625 -1.078125 -3.875q0 -1.3125 0.375 -2.3125q0.375 -1.0 1.0 -1.6875q0.59375 -0.671875 1.40625 -1.03125q0.8125 -0.359375 1.71875 -0.359375q0.8125 0 1.4375 0.1875q0.640625 0.171875 1.296875 0.53125l0.109375 -0.4375l1.609375 0l0 13.921875zm-1.71875 -6.34375l0 -5.75q-0.703125 -0.3125 -1.25 -0.4375q-0.546875 -0.140625 -1.1875 -0.140625q-1.484375 0 -2.265625 1.015625q-0.765625 1.0 -0.765625 2.765625q0 1.78125 0.625 2.75q0.625 0.953125 1.96875 0.953125q0.734375 0 1.484375 -0.3125q0.75 -0.328125 1.390625 -0.84375zm13.529968 2.59375l-1.71875 0l0 -1.125q-0.859375 0.671875 -1.65625 1.046875q-0.796875 0.359375 -1.75 0.359375q-1.609375 0 -2.5 -0.96875q-0.890625 -0.984375 -0.890625 -2.890625l0 -6.59375l1.71875 0l0 5.796875q0 0.765625 0.0625 1.328125q0.078125 0.546875 0.3125 0.9375q0.25 0.390625 0.640625 0.578125q0.390625 0.1875 1.140625 0.1875q0.671875 0 1.453125 -0.34375q0.78125 -0.359375 1.46875 -0.890625l0 -7.59375l1.71875 0l0 10.171875zm11.884033 -4.90625l-7.5 0q0 0.9375 0.28125 1.640625q0.28125 0.6875 0.78125 1.140625q0.46875 0.4375 1.109375 0.65625q0.65625 0.21875 1.453125 0.21875q1.03125 0 2.078125 -0.421875q1.0625 -0.421875 1.5 -0.8125l0.09375 0l0 1.859375q-0.859375 0.375 -1.765625 0.625q-0.90625 0.234375 -1.890625 0.234375q-2.53125 0 -3.953125 -1.359375q-1.421875 -1.375 -1.421875 -3.90625q0 -2.5 1.359375 -3.953125q1.359375 -1.46875 3.578125 -1.46875q2.0625 0 3.171875 1.203125q1.125 1.203125 1.125 3.40625l0 0.9375zm-1.671875 -1.3125q0 -1.34375 -0.671875 -2.078125q-0.671875 -0.75 -2.03125 -0.75q-1.375 0 -2.203125 0.8125q-0.8125 0.8125 -0.921875 2.015625l5.828125 0zm11.535461 3.28125q0 1.390625 -1.15625 2.296875q-1.140625 0.890625 -3.140625 0.890625q-1.125 0 -2.078125 -0.265625q-0.9375 -0.28125 -1.578125 -0.59375l0 -1.921875l0.09375 0q0.8125 0.609375 1.796875 0.96875q1.0 0.359375 1.90625 0.359375q1.140625 0 1.765625 -0.359375q0.640625 -0.375 0.640625 -1.15625q0 -0.59375 -0.34375 -0.90625q-0.34375 -0.3125 -1.328125 -0.53125q-0.359375 -0.078125 -0.953125 -0.1875q-0.59375 -0.109375 -1.078125 -0.234375q-1.328125 -0.359375 -1.890625 -1.046875q-0.5625 -0.6875 -0.5625 -1.6875q0 -0.625 0.25 -1.1875q0.265625 -0.5625 0.796875 -0.984375q0.515625 -0.4375 1.296875 -0.6875q0.796875 -0.25 1.765625 -0.25q0.90625 0 1.84375 0.234375q0.9375 0.21875 1.546875 0.53125l0 1.828125l-0.078125 0q-0.65625 -0.484375 -1.59375 -0.8125q-0.9375 -0.328125 -1.84375 -0.328125q-0.9375 0 -1.59375 0.359375q-0.640625 0.359375 -0.640625 1.0625q0 0.625 0.390625 0.953125q0.390625 0.3125 1.234375 0.515625q0.484375 0.109375 1.0625 0.21875q0.59375 0.109375 0.984375 0.203125q1.1875 0.265625 1.84375 0.9375q0.640625 0.671875 0.640625 1.78125zm7.735443 2.84375q-0.484375 0.125 -1.0625 0.203125q-0.5625 0.09375 -1.0 0.09375q-1.5625 0 -2.375 -0.828125q-0.8125 -0.84375 -0.8125 -2.703125l0 -5.40625l-1.15625 0l0 -1.4375l1.15625 0l0 -2.921875l1.71875 0l0 2.921875l3.53125 0l0 1.4375l-3.53125 0l0 4.640625q0 0.796875 0.03125 1.25q0.03125 0.453125 0.25 0.84375q0.203125 0.359375 0.546875 0.53125q0.359375 0.171875 1.078125 0.171875q0.421875 0 0.875 -0.125q0.453125 -0.125 0.65625 -0.203125l0.09375 0l0 1.53125zm9.335754 -2.84375q0 1.390625 -1.15625 2.296875q-1.140625 0.890625 -3.140625 0.890625q-1.125 0 -2.078125 -0.265625q-0.9375 -0.28125 -1.578125 -0.59375l0 -1.921875l0.09375 0q0.8125 0.609375 1.796875 0.96875q1.0 0.359375 1.90625 0.359375q1.140625 0 1.765625 -0.359375q0.640625 -0.375 0.640625 -1.15625q0 -0.59375 -0.34375 -0.90625q-0.34375 -0.3125 -1.328125 -0.53125q-0.359375 -0.078125 -0.953125 -0.1875q-0.59375 -0.109375 -1.078125 -0.234375q-1.328125 -0.359375 -1.890625 -1.046875q-0.5625 -0.6875 -0.5625 -1.6875q0 -0.625 0.25 -1.1875q0.265625 -0.5625 0.796875 -0.984375q0.515625 -0.4375 1.296875 -0.6875q0.796875 -0.25 1.765625 -0.25q0.90625 0 1.84375 0.234375q0.9375 0.21875 1.546875 0.53125l0 1.828125l-0.078125 0q-0.65625 -0.484375 -1.59375 -0.8125q-0.9375 -0.328125 -1.84375 -0.328125q-0.9375 0 -1.59375 0.359375q-0.640625 0.359375 -0.640625 1.0625q0 0.625 0.390625 0.953125q0.390625 0.3125 1.234375 0.515625q0.484375 0.109375 1.0625 0.21875q0.59375 0.109375 0.984375 0.203125q1.1875 0.265625 1.84375 0.9375q0.640625 0.671875 0.640625 1.78125z" fill-rule="nonzero"/><path fill="#fff2cc" d="m391.2152 137.76378l6.629944 0l0 -27.433067l13.259827 0l0 27.433067l6.6299133 0l-13.259827 13.259842z" fill-rule="evenodd"/><path stroke="#000000" stroke-width="1.0" stroke-linejoin="round" stroke-linecap="butt" d="m391.2152 137.76378l6.629944 0l0 -27.433067l13.259827 0l0 27.433067l6.6299133 0l-13.259827 13.259842z" fill-rule="evenodd"/><path fill="#fff2cc" d="m286.15747 217.24934l0 -6.6299286l-11.732269 0l0 -13.259842l11.732269 0l0 -6.6299133l11.7323 13.259842z" fill-rule="evenodd"/><path stroke="#000000" stroke-width="1.0" stroke-linejoin="round" stroke-linecap="butt" d="m286.15747 217.24934l0 -6.6299286l-11.732269 0l0 -13.259842l11.732269 0l0 -6.6299133l11.7323 13.259842z" fill-rule="evenodd"/><path fill="#fff2cc" d="m522.11285 217.24934l0 -6.6299286l-11.732269 0l0 -13.259842l11.732269 0l0 -6.6299133l11.7323 13.259842z" fill-rule="evenodd"/><path stroke="#000000" stroke-width="1.0" stroke-linejoin="round" stroke-linecap="butt" d="m522.11285 217.24934l0 -6.6299286l-11.732269 0l0 -13.259842l11.732269 0l0 -6.6299133l11.7323 13.259842z" fill-rule="evenodd"/></g></svg>