<svg version="1.1" viewBox="0.0 0.0 786.5538057742782 634.6377952755905" fill="none" stroke="none" stroke-linecap="square" stroke-miterlimit="10" xmlns:xlink="http://www.w3.org/1999/xlink" xmlns="http://www.w3.org/2000/svg"><clipPath id="p.0"><path d="m0 0l786.55383 0l0 634.6378l-786.55383 0l0 -634.6378z" clip-rule="nonzero"/></clipPath><g clip-path="url(#p.0)"><path fill="#000000" fill-opacity="0.0" d="m0 0l786.55383 0l0 634.6378l-786.55383 0z" fill-rule="evenodd"/><path fill="#fff2cc" d="m178.75984 137.1483l180.00002 0l0 99.87401l-180.00002 0z" fill-rule="evenodd"/><path stroke="#000000" stroke-width="1.0" stroke-linejoin="round" stroke-linecap="butt" d="m178.75984 137.1483l180.00002 0l0 99.87401l-180.00002 0z" fill-rule="evenodd"/><path fill="#000000" d="m246.02023 183.0053l-2.34375 0l-4.53125 -5.390625l-2.546875 0l0 5.390625l-1.796875 0l0 -13.5625l3.796875 0q1.21875 0 2.03125 0.15625q0.828125 0.15625 1.484375 0.578125q0.75 0.453125 1.15625 1.171875q0.421875 0.703125 0.421875 1.78125q0 1.46875 -0.75 2.453125q-0.734375 0.984375 -2.03125 1.484375l5.109375 5.9375zm-4.21875 -9.75q0 -0.578125 -0.203125 -1.03125q-0.203125 -0.453125 -0.6875 -0.765625q-0.390625 -0.265625 -0.921875 -0.359375q-0.53125 -0.109375 -1.265625 -0.109375l-2.125 0l0 5.125l1.828125 0q0.84375 0 1.484375 -0.15625q0.640625 -0.15625 1.09375 -0.5625q0.40625 -0.375 0.59375 -0.875q0.203125 -0.5 0.203125 -1.265625zm13.89119 4.84375l-7.5 0q0 0.9375 0.28125 1.640625q0.28125 0.6875 0.78125 1.140625q0.46875 0.4375 1.109375 0.65625q0.65625 0.21875 1.453125 0.21875q1.03125 0 2.078125 -0.421875q1.0625 -0.421875 1.5 -0.8125l0.09375 0l0 1.859375q-0.859375 0.375 -1.765625 0.625q-0.90625 0.234375 -1.890625 0.234375q-2.53125 0 -3.953125 -1.359375q-1.421875 -1.375 -1.421875 -3.90625q0 -2.5 1.359375 -3.953125q1.359375 -1.46875 3.578125 -1.46875q2.0625 0 3.171875 1.203125q1.125 1.203125 1.125 3.40625l0 0.9375zm-1.671875 -1.3125q0 -1.34375 -0.671875 -2.078125q-0.671875 -0.75 -2.03125 -0.75q-1.375 0 -2.203125 0.8125q-0.8125 0.8125 -0.921875 2.015625l5.828125 0zm11.785477 5.578125q-0.84375 0.40625 -1.625 0.640625q-0.765625 0.234375 -1.625 0.234375q-1.109375 0 -2.03125 -0.328125q-0.921875 -0.328125 -1.578125 -0.984375q-0.65625 -0.65625 -1.03125 -1.65625q-0.359375 -1.0 -0.359375 -2.34375q0 -2.484375 1.375 -3.90625q1.375 -1.421875 3.625 -1.421875q0.875 0 1.71875 0.25q0.84375 0.234375 1.53125 0.59375l0 1.90625l-0.078125 0q-0.796875 -0.609375 -1.625 -0.9375q-0.828125 -0.328125 -1.625 -0.328125q-1.453125 0 -2.296875 0.984375q-0.84375 0.96875 -0.84375 2.859375q0 1.84375 0.8125 2.84375q0.828125 0.984375 2.328125 0.984375q0.515625 0 1.046875 -0.140625q0.546875 -0.140625 0.96875 -0.359375q0.375 -0.1875 0.703125 -0.40625q0.328125 -0.21875 0.53125 -0.359375l0.078125 0l0 1.875zm10.719818 -4.265625l-7.5 0q0 0.9375 0.28125 1.640625q0.28125 0.6875 0.78125 1.140625q0.46875 0.4375 1.109375 0.65625q0.65625 0.21875 1.453125 0.21875q1.03125 0 2.078125 -0.421875q1.0625 -0.421875 1.5 -0.8125l0.09375 0l0 1.859375q-0.859375 0.375 -1.765625 0.625q-0.90625 0.234375 -1.890625 0.234375q-2.53125 0 -3.953125 -1.359375q-1.421875 -1.375 -1.421875 -3.90625q0 -2.5 1.359375 -3.953125q1.359375 -1.46875 3.578125 -1.46875q2.0625 0 3.171875 1.203125q1.125 1.203125 1.125 3.40625l0 0.9375zm-1.671875 -1.3125q0 -1.34375 -0.671875 -2.078125q-0.671875 -0.75 -2.03125 -0.75q-1.375 0 -2.203125 0.8125q-0.8125 0.8125 -0.921875 2.015625l5.828125 0zm6.1135864 -5.65625l-1.9375 0l0 -1.78125l1.9375 0l0 1.78125zm-0.109375 11.875l-1.71875 0l0 -10.171875l1.71875 0l0 10.171875zm12.182037 -10.171875l-4.109375 10.171875l-1.734375 0l-4.078125 -10.171875l1.84375 0l3.15625 8.09375l3.125 -8.09375l1.796875 0zm10.595398 5.265625l-7.5 0q0 0.9375 0.28125 1.640625q0.28125 0.6875 0.78125 1.140625q0.46875 0.4375 1.109375 0.65625q0.65625 0.21875 1.453125 0.21875q1.03125 0 2.078125 -0.421875q1.0625 -0.421875 1.5 -0.8125l0.09375 0l0 1.859375q-0.859375 0.375 -1.765625 0.625q-0.90625 0.234375 -1.890625 0.234375q-2.53125 0 -3.953125 -1.359375q-1.421875 -1.375 -1.421875 -3.90625q0 -2.5 1.359375 -3.953125q1.359375 -1.46875 3.578125 -1.46875q2.0625 0 3.171875 1.203125q1.125 1.203125 1.125 3.40625l0 0.9375zm-1.671875 -1.3125q0 -1.34375 -0.671875 -2.078125q-0.671875 -0.75 -2.03125 -0.75q-1.375 0 -2.203125 0.8125q-0.8125 0.8125 -0.921875 2.015625l5.828125 0z" fill-rule="nonzero"/><path fill="#000000" d="m227.41893 204.36469q-0.84375 0.40625 -1.625 0.640625q-0.765625 0.234375 -1.625 0.234375q-1.109375 0 -2.03125 -0.328125q-0.921875 -0.328125 -1.578125 -0.984375q-0.65625 -0.65625 -1.03125 -1.65625q-0.359375 -1.0 -0.359375 -2.34375q0 -2.484375 1.375 -3.90625q1.375 -1.421875 3.625 -1.421875q0.875 0 1.71875 0.25q0.84375 0.234375 1.53125 0.59375l0 1.90625l-0.078125 0q-0.796875 -0.609375 -1.625 -0.9375q-0.828125 -0.328125 -1.625 -0.328125q-1.453125 0 -2.296875 0.984375q-0.84375 0.96875 -0.84375 2.859375q0 1.84375 0.8125 2.84375q0.828125 0.984375 2.328125 0.984375q0.515625 0 1.046875 -0.140625q0.546875 -0.140625 0.96875 -0.359375q0.375 -0.1875 0.703125 -0.40625q0.328125 -0.21875 0.53125 -0.359375l0.078125 0l0 1.875zm10.876083 -4.4375q0 2.484375 -1.28125 3.921875q-1.265625 1.4375 -3.40625 1.4375q-2.171875 0 -3.4375 -1.4375q-1.265625 -1.4375 -1.265625 -3.921875q0 -2.484375 1.265625 -3.921875q1.265625 -1.453125 3.4375 -1.453125q2.140625 0 3.40625 1.453125q1.28125 1.4375 1.28125 3.921875zm-1.765625 0q0 -1.984375 -0.78125 -2.9375q-0.765625 -0.96875 -2.140625 -0.96875q-1.40625 0 -2.171875 0.96875q-0.765625 0.953125 -0.765625 2.9375q0 1.90625 0.765625 2.90625q0.78125 0.984375 2.171875 0.984375q1.359375 0 2.140625 -0.984375q0.78125 -0.984375 0.78125 -2.90625zm12.916855 5.078125l-1.703125 0l0 -5.796875q0 -0.703125 -0.09375 -1.3125q-0.078125 -0.609375 -0.296875 -0.96875q-0.21875 -0.375 -0.65625 -0.5625q-0.421875 -0.1875 -1.109375 -0.1875q-0.703125 0 -1.46875 0.34375q-0.765625 0.34375 -1.46875 0.890625l0 7.59375l-1.703125 0l0 -10.171875l1.703125 0l0 1.125q0.8125 -0.65625 1.65625 -1.03125q0.859375 -0.375 1.765625 -0.375q1.65625 0 2.515625 1.0q0.859375 0.984375 0.859375 2.84375l0 6.609375zm11.805893 0l-1.703125 0l0 -5.796875q0 -0.703125 -0.09375 -1.3125q-0.078125 -0.609375 -0.296875 -0.96875q-0.21875 -0.375 -0.65625 -0.5625q-0.421875 -0.1875 -1.109375 -0.1875q-0.703125 0 -1.4687347 0.34375q-0.765625 0.34375 -1.46875 0.890625l0 7.59375l-1.703125 0l0 -10.171875l1.703125 0l0 1.125q0.8125 -0.65625 1.6562347 -1.03125q0.859375 -0.375 1.765625 -0.375q1.65625 0 2.515625 1.0q0.859375 0.984375 0.859375 2.84375l0 6.609375zm11.821533 -4.90625l-7.5 0q0 0.9375 0.28125 1.640625q0.28125 0.6875 0.78125 1.140625q0.46875 0.4375 1.109375 0.65625q0.65625 0.21875 1.453125 0.21875q1.03125 0 2.078125 -0.421875q1.0625 -0.421875 1.5 -0.8125l0.09375 0l0 1.859375q-0.859375 0.375 -1.765625 0.625q-0.90625 0.234375 -1.890625 0.234375q-2.53125 0 -3.953125 -1.359375q-1.421875 -1.375 -1.421875 -3.90625q0 -2.5 1.359375 -3.953125q1.359375 -1.46875 3.578125 -1.46875q2.0625 0 3.171875 1.203125q1.125 1.203125 1.125 3.40625l0 0.9375zm-1.671875 -1.3125q0 -1.34375 -0.671875 -2.078125q-0.671875 -0.75 -2.03125 -0.75q-1.375 0 -2.203125 0.8125q-0.8125 0.8125 -0.921875 2.015625l5.828125 0zm11.785461 5.578125q-0.84375 0.40625 -1.625 0.640625q-0.765625 0.234375 -1.625 0.234375q-1.109375 0 -2.03125 -0.328125q-0.921875 -0.328125 -1.578125 -0.984375q-0.65625 -0.65625 -1.03125 -1.65625q-0.359375 -1.0 -0.359375 -2.34375q0 -2.484375 1.375 -3.90625q1.375 -1.421875 3.625 -1.421875q0.875 0 1.71875 0.25q0.84375 0.234375 1.53125 0.59375l0 1.90625l-0.078125 0q-0.796875 -0.609375 -1.625 -0.9375q-0.828125 -0.328125 -1.625 -0.328125q-1.453125 0 -2.296875 0.984375q-0.84375 0.96875 -0.84375 2.859375q0 1.84375 0.8125 2.84375q0.828125 0.984375 2.328125 0.984375q0.515625 0 1.046875 -0.140625q0.546875 -0.140625 0.96875 -0.359375q0.375 -0.1875 0.703125 -0.40625q0.328125 -0.21875 0.53125 -0.359375l0.078125 0l0 1.875zm7.4854736 0.546875q-0.484375 0.125 -1.0625 0.203125q-0.5625 0.09375 -1.0 0.09375q-1.5625 0 -2.375 -0.828125q-0.8125 -0.84375 -0.8125 -2.703125l0 -5.40625l-1.15625 0l0 -1.4375l1.15625 0l0 -2.921875l1.71875 0l0 2.921875l3.53125 0l0 1.4375l-3.53125 0l0 4.640625q0 0.796875 0.03125 1.25q0.03125 0.453125 0.25 0.84375q0.203125 0.359375 0.546875 0.53125q0.359375 0.171875 1.078125 0.171875q0.421875 0 0.875 -0.125q0.453125 -0.125 0.65625 -0.203125l0.09375 0l0 1.53125zm3.9138489 -11.78125l-1.9375 0l0 -1.78125l1.9375 0l0 1.78125zm-0.109375 11.875l-1.71875 0l0 -10.171875l1.71875 0l0 10.171875zm12.057037 -5.078125q0 2.484375 -1.28125 3.921875q-1.265625 1.4375 -3.40625 1.4375q-2.171875 0 -3.4375 -1.4375q-1.265625 -1.4375 -1.265625 -3.921875q0 -2.484375 1.265625 -3.921875q1.265625 -1.453125 3.4375 -1.453125q2.140625 0 3.40625 1.453125q1.28125 1.4375 1.28125 3.921875zm-1.765625 0q0 -1.984375 -0.78125 -2.9375q-0.765625 -0.96875 -2.140625 -0.96875q-1.40625 0 -2.171875 0.96875q-0.765625 0.953125 -0.765625 2.9375q0 1.90625 0.765625 2.90625q0.78125 0.984375 2.171875 0.984375q1.359375 0 2.140625 -0.984375q0.78125 -0.984375 0.78125 -2.90625zm12.91687 5.078125l-1.703125 0l0 -5.796875q0 -0.703125 -0.09375 -1.3125q-0.078125 -0.609375 -0.296875 -0.96875q-0.21875 -0.375 -0.65625 -0.5625q-0.421875 -0.1875 -1.109375 -0.1875q-0.703125 0 -1.46875 0.34375q-0.765625 0.34375 -1.46875 0.890625l0 7.59375l-1.703125 0l0 -10.171875l1.703125 0l0 1.125q0.8125 -0.65625 1.65625 -1.03125q0.859375 -0.375 1.765625 -0.375q1.65625 0 2.515625 1.0q0.859375 0.984375 0.859375 2.84375l0 6.609375z" fill-rule="nonzero"/><path fill="#cfe2f3" d="m178.75984 6.6968503l180.00002 0l0 99.874016l-180.00002 0z" fill-rule="evenodd"/><path stroke="#000000" stroke-width="1.0" stroke-linejoin="round" stroke-linecap="butt" d="m178.75984 6.6968503l180.00002 0l0 99.874016l-180.00002 0z" fill-rule="evenodd"/><path fill="#000000" d="m220.20943 63.553856l-8.578125 0l0 -13.5625l1.796875 0l0 11.953125l6.78125 0l0 1.609375zm10.337952 -5.078125q0 2.484375 -1.28125 3.921875q-1.265625 1.4375 -3.40625 1.4375q-2.171875 0 -3.4375 -1.4375q-1.265625 -1.4375 -1.265625 -3.921875q0 -2.484375 1.265625 -3.921875q1.265625 -1.453125 3.4375 -1.453125q2.140625 0 3.40625 1.453125q1.28125 1.4375 1.28125 3.921875zm-1.765625 0q0 -1.984375 -0.78125 -2.9375q-0.765625 -0.96875 -2.140625 -0.96875q-1.40625 0 -2.171875 0.96875q-0.765625 0.953125 -0.765625 2.9375q0 1.90625 0.765625 2.90625q0.78125 0.984375 2.171875 0.984375q1.359375 0 2.140625 -0.984375q0.78125 -0.984375 0.78125 -2.90625zm12.323105 5.078125l-1.703125 0l0 -1.078125q-0.234375 0.15625 -0.625 0.4375q-0.375 0.265625 -0.75 0.4375q-0.421875 0.203125 -0.984375 0.34375q-0.546875 0.140625 -1.296875 0.140625q-1.375 0 -2.328125 -0.90625q-0.953125 -0.921875 -0.953125 -2.328125q0 -1.15625 0.484375 -1.859375q0.5 -0.71875 1.421875 -1.140625q0.9375 -0.40625 2.234375 -0.546875q1.296875 -0.15625 2.796875 -0.21875l0 -0.265625q0 -0.578125 -0.203125 -0.953125q-0.203125 -0.390625 -0.59375 -0.609375q-0.359375 -0.21875 -0.875 -0.28125q-0.5 -0.078125 -1.0625 -0.078125q-0.671875 0 -1.5 0.1875q-0.828125 0.171875 -1.71875 0.5l-0.09375 0l0 -1.734375q0.5 -0.140625 1.453125 -0.296875q0.953125 -0.171875 1.875 -0.171875q1.0625 0 1.859375 0.1875q0.796875 0.171875 1.390625 0.59375q0.5625 0.421875 0.859375 1.09375q0.3125 0.65625 0.3125 1.640625l0 6.90625zm-1.703125 -2.5l0 -2.84375q-0.78125 0.046875 -1.84375 0.140625q-1.0625 0.09375 -1.6875 0.265625q-0.734375 0.203125 -1.1875 0.65625q-0.453125 0.4375 -0.453125 1.21875q0 0.859375 0.515625 1.3125q0.53125 0.4375 1.625 0.4375q0.890625 0 1.640625 -0.34375q0.75 -0.359375 1.390625 -0.84375zm13.251556 2.5l-1.71875 0l0 -1.0625q-0.734375 0.640625 -1.53125 1.0q-0.796875 0.34375 -1.734375 0.34375q-1.828125 0 -2.90625 -1.390625q-1.0625 -1.40625 -1.0625 -3.90625q0 -1.28125 0.359375 -2.296875q0.375 -1.015625 1.0 -1.71875q0.625 -0.703125 1.453125 -1.0625q0.828125 -0.359375 1.703125 -0.359375q0.796875 0 1.421875 0.171875q0.625 0.15625 1.296875 0.515625l0 -4.40625l1.71875 0l0 14.171875zm-1.71875 -2.5l0 -5.84375q-0.6875 -0.3125 -1.234375 -0.421875q-0.546875 -0.125 -1.1875 -0.125q-1.4375 0 -2.25 1.0q-0.796875 1.0 -0.796875 2.84375q0 1.8125 0.609375 2.765625q0.625 0.9375 2.0 0.9375q0.71875 0 1.46875 -0.328125q0.75 -0.328125 1.390625 -0.828125zm20.604431 -2.703125q0 1.234375 -0.359375 2.265625q-0.359375 1.015625 -1.0 1.71875q-0.59375 0.6875 -1.421875 1.0625q-0.8125 0.359375 -1.71875 0.359375q-0.796875 0 -1.4375 -0.171875q-0.640625 -0.171875 -1.3125 -0.546875l0 4.265625l-1.703125 0l0 -13.921875l1.703125 0l0 1.0625q0.6875 -0.578125 1.53125 -0.953125q0.859375 -0.390625 1.828125 -0.390625q1.84375 0 2.859375 1.390625q1.03125 1.390625 1.03125 3.859375zm-1.765625 0.03125q0 -1.828125 -0.640625 -2.734375q-0.625 -0.921875 -1.921875 -0.921875q-0.734375 0 -1.484375 0.328125q-0.75 0.3125 -1.4375 0.828125l0 5.765625q0.734375 0.328125 1.25 0.453125q0.53125 0.109375 1.203125 0.109375q1.421875 0 2.21875 -0.953125q0.8125 -0.96875 0.8125 -2.875zm6.1705933 5.171875l-1.71875 0l0 -14.171875l1.71875 0l0 14.171875zm11.822662 0l-1.71875 0l0 -1.125q-0.859375 0.671875 -1.65625 1.046875q-0.796875 0.359375 -1.75 0.359375q-1.609375 0 -2.5 -0.96875q-0.890625 -0.984375 -0.890625 -2.890625l0 -6.59375l1.71875 0l0 5.796875q0 0.765625 0.0625 1.328125q0.078125 0.546875 0.3125 0.9375q0.25 0.390625 0.640625 0.578125q0.390625 0.1875 1.140625 0.1875q0.671875 0 1.453125 -0.34375q0.78125 -0.359375 1.46875 -0.890625l0 -7.59375l1.71875 0l0 10.171875zm11.618408 -1.15625q0 2.59375 -1.171875 3.796875q-1.171875 1.21875 -3.625 1.21875q-0.796875 0 -1.578125 -0.125q-0.765625 -0.109375 -1.515625 -0.3125l0 -1.75l0.09375 0q0.421875 0.15625 1.328125 0.390625q0.90625 0.25 1.828125 0.25q0.875 0 1.4375 -0.21875q0.578125 -0.203125 0.90625 -0.578125q0.3125 -0.34375 0.4375 -0.859375q0.140625 -0.5 0.140625 -1.109375l0 -0.9375q-0.765625 0.625 -1.46875 0.9375q-0.703125 0.296875 -1.796875 0.296875q-1.828125 0 -2.90625 -1.3125q-1.0625 -1.3125 -1.0625 -3.71875q0 -1.3125 0.359375 -2.265625q0.375 -0.953125 1.015625 -1.640625q0.59375 -0.640625 1.4375 -1.0q0.84375 -0.359375 1.6875 -0.359375q0.890625 0 1.484375 0.171875q0.59375 0.171875 1.25 0.546875l0.109375 -0.4375l1.609375 0l0 9.015625zm-1.71875 -1.640625l0 -5.546875q-0.671875 -0.3125 -1.265625 -0.4375q-0.578125 -0.140625 -1.171875 -0.140625q-1.40625 0 -2.21875 0.953125q-0.8125 0.953125 -0.8125 2.75q0 1.71875 0.59375 2.609375q0.609375 0.875 2.0 0.875q0.75 0 1.5 -0.28125q0.75 -0.296875 1.375 -0.78125zm6.9362183 -9.078125l-1.9375 0l0 -1.78125l1.9375 0l0 1.78125zm-0.109375 11.875l-1.71875 0l0 -10.171875l1.71875 0l0 10.171875zm11.885162 0l-1.703125 0l0 -5.796875q0 -0.703125 -0.09375 -1.3125q-0.078125 -0.609375 -0.296875 -0.96875q-0.21875 -0.375 -0.65625 -0.5625q-0.421875 -0.1875 -1.109375 -0.1875q-0.703125 0 -1.46875 0.34375q-0.765625 0.34375 -1.46875 0.890625l0 7.59375l-1.703125 0l0 -10.171875l1.703125 0l0 1.125q0.8125 -0.65625 1.65625 -1.03125q0.859375 -0.375 1.765625 -0.375q1.65625 0 2.515625 1.0q0.859375 0.984375 0.859375 2.84375l0 6.609375zm10.571533 -2.9375q0 1.390625 -1.15625 2.296875q-1.140625 0.890625 -3.140625 0.890625q-1.125 0 -2.078125 -0.265625q-0.9375 -0.28125 -1.578125 -0.59375l0 -1.921875l0.09375 0q0.8125 0.609375 1.796875 0.96875q1.0 0.359375 1.90625 0.359375q1.140625 0 1.765625 -0.359375q0.640625 -0.375 0.640625 -1.15625q0 -0.59375 -0.34375 -0.90625q-0.34375 -0.3125 -1.328125 -0.53125q-0.359375 -0.078125 -0.953125 -0.1875q-0.59375 -0.109375 -1.078125 -0.234375q-1.328125 -0.359375 -1.890625 -1.046875q-0.5625 -0.6875 -0.5625 -1.6875q0 -0.625 0.25 -1.1875q0.265625 -0.5625 0.796875 -0.984375q0.515625 -0.4375 1.296875 -0.6875q0.796875 -0.25 1.765625 -0.25q0.90625 0 1.84375 0.234375q0.9375 0.21875 1.546875 0.53125l0 1.828125l-0.078125 0q-0.65625 -0.484375 -1.59375 -0.8125q-0.9375 -0.328125 -1.84375 -0.328125q-0.9375 0 -1.59375 0.359375q-0.640625 0.359375 -0.640625 1.0625q0 0.625 0.390625 0.953125q0.390625 0.3125 1.234375 0.515625q0.484375 0.109375 1.0625 0.21875q0.59375 0.109375 0.984375 0.203125q1.1875 0.265625 1.84375 0.9375q0.640625 0.671875 0.640625 1.78125z" fill-rule="nonzero"/><path fill="#fce5cd" d="m178.75984 267.59973l180.00002 0l0 99.87402l-180.00002 0z" fill-rule="evenodd"/><path stroke="#000000" stroke-width="1.0" stroke-linejoin="round" stroke-linecap="butt" d="m178.75984 267.59973l180.00002 0l0 99.87402l-180.00002 0z" fill-rule="evenodd"/><path fill="#000000" d="m215.42593 314.988q0 0.90625 -0.3125 1.6875q-0.3125 0.765625 -0.875 1.328125q-0.703125 0.703125 -1.65625 1.046875q-0.953125 0.34375 -2.421875 0.34375l-1.796875 0l0 5.0625l-1.796875 0l0 -13.5625l3.671875 0q1.21875 0 2.0625 0.203125q0.859375 0.203125 1.515625 0.640625q0.765625 0.515625 1.1875 1.296875q0.421875 0.765625 0.421875 1.953125zm-1.875 0.046875q0 -0.703125 -0.25 -1.21875q-0.234375 -0.515625 -0.734375 -0.84375q-0.4375 -0.28125 -1.0 -0.40625q-0.5625 -0.125 -1.421875 -0.125l-1.78125 0l0 5.421875l1.515625 0q1.09375 0 1.78125 -0.1875q0.6875 -0.203125 1.109375 -0.640625q0.4375 -0.4375 0.609375 -0.90625q0.171875 -0.484375 0.171875 -1.09375zm11.575745 9.421875l-1.703125 0l0 -1.078125q-0.234375 0.15625 -0.625 0.4375q-0.375 0.265625 -0.75 0.4375q-0.421875 0.203125 -0.984375 0.34375q-0.546875 0.140625 -1.296875 0.140625q-1.375 0 -2.328125 -0.90625q-0.953125 -0.921875 -0.953125 -2.328125q0 -1.15625 0.484375 -1.859375q0.5 -0.71875 1.421875 -1.140625q0.9375 -0.40625 2.234375 -0.546875q1.296875 -0.15625 2.796875 -0.21875l0 -0.265625q0 -0.578125 -0.203125 -0.953125q-0.203125 -0.390625 -0.59375 -0.609375q-0.359375 -0.21875 -0.875 -0.28125q-0.5 -0.078125 -1.0625 -0.078125q-0.671875 0 -1.5 0.1875q-0.828125 0.171875 -1.71875 0.5l-0.09375 0l0 -1.734375q0.5 -0.140625 1.453125 -0.296875q0.953125 -0.171875 1.875 -0.171875q1.0625 0 1.859375 0.1875q0.796875 0.171875 1.390625 0.59375q0.5625 0.421875 0.859375 1.09375q0.3125 0.65625 0.3125 1.640625l0 6.90625zm-1.703125 -2.5l0 -2.84375q-0.78125 0.046875 -1.84375 0.140625q-1.0625 0.09375 -1.6875 0.265625q-0.734375 0.203125 -1.1875 0.65625q-0.453125 0.4375 -0.453125 1.21875q0 0.859375 0.515625 1.3125q0.53125 0.4375 1.625 0.4375q0.890625 0 1.640625 -0.34375q0.75 -0.359375 1.390625 -0.84375zm11.345306 -5.8125l-0.09375 0q-0.375 -0.09375 -0.734375 -0.125q-0.359375 -0.046875 -0.859375 -0.046875q-0.78125 0 -1.53125 0.359375q-0.734375 0.34375 -1.421875 0.90625l0 7.21875l-1.703125 0l0 -10.171875l1.703125 0l0 1.5q1.03125 -0.8125 1.796875 -1.15625q0.78125 -0.34375 1.59375 -0.34375q0.453125 0 0.65625 0.03125q0.203125 0.015625 0.59375 0.078125l0 1.75zm8.883575 5.375q0 1.390625 -1.15625 2.296875q-1.140625 0.890625 -3.140625 0.890625q-1.125 0 -2.078125 -0.265625q-0.9375 -0.28125 -1.578125 -0.59375l0 -1.921875l0.09375 0q0.8125 0.609375 1.796875 0.96875q1.0 0.359375 1.90625 0.359375q1.140625 0 1.765625 -0.359375q0.640625 -0.375 0.640625 -1.15625q0 -0.59375 -0.34375 -0.90625q-0.34375 -0.3125 -1.328125 -0.53125q-0.359375 -0.078125 -0.953125 -0.1875q-0.59375 -0.109375 -1.078125 -0.234375q-1.328125 -0.359375 -1.890625 -1.046875q-0.5625 -0.6875 -0.5625 -1.6875q0 -0.625 0.25 -1.1875q0.265625 -0.5625 0.796875 -0.984375q0.515625 -0.4375 1.296875 -0.6875q0.796875 -0.25 1.765625 -0.25q0.90625 0 1.84375 0.234375q0.9375 0.21875 1.546875 0.53125l0 1.828125l-0.078125 0q-0.65625 -0.484375 -1.59375 -0.8125q-0.9375 -0.328125 -1.84375 -0.328125q-0.9375 0 -1.59375 0.359375q-0.640625 0.359375 -0.640625 1.0625q0 0.625 0.390625 0.953125q0.390625 0.3125 1.234375 0.515625q0.484375 0.109375 1.0625 0.21875q0.59375 0.109375 0.984375 0.203125q1.1875 0.265625 1.84375 0.9375q0.640625 0.671875 0.640625 1.78125zm10.969833 -1.96875l-7.5 0q0 0.9375 0.28125 1.640625q0.28125 0.6875 0.78125 1.140625q0.46875 0.4375 1.109375 0.65625q0.65625 0.21875 1.453125 0.21875q1.03125 0 2.078125 -0.421875q1.0625 -0.421875 1.5 -0.8125l0.09375 0l0 1.859375q-0.859375 0.375 -1.765625 0.625q-0.90625 0.234375 -1.890625 0.234375q-2.53125 0 -3.953125 -1.359375q-1.421875 -1.375 -1.421875 -3.90625q0 -2.5 1.359375 -3.953125q1.359375 -1.46875 3.578125 -1.46875q2.0625 0 3.171875 1.203125q1.125 1.203125 1.125 3.40625l0 0.9375zm-1.671875 -1.3125q0 -1.34375 -0.671875 -2.078125q-0.671875 -0.75 -2.03125 -0.75q-1.375 0 -2.203125 0.8125q-0.8125 0.8125 -0.921875 2.015625l5.828125 0zm17.17241 -2.09375l-0.09375 0q-0.375 -0.09375 -0.734375 -0.125q-0.359375 -0.046875 -0.859375 -0.046875q-0.78125 0 -1.53125 0.359375q-0.734375 0.34375 -1.421875 0.90625l0 7.21875l-1.703125 0l0 -10.171875l1.703125 0l0 1.5q1.03125 -0.8125 1.796875 -1.15625q0.78125 -0.34375 1.59375 -0.34375q0.453125 0 0.65625 0.03125q0.203125 0.015625 0.59375 0.078125l0 1.75zm10.133575 3.40625l-7.5 0q0 0.9375 0.28125 1.640625q0.28125 0.6875 0.78125 1.140625q0.46875 0.4375 1.109375 0.65625q0.65625 0.21875 1.453125 0.21875q1.03125 0 2.078125 -0.421875q1.0625 -0.421875 1.5 -0.8125l0.09375 0l0 1.859375q-0.859375 0.375 -1.765625 0.625q-0.90625 0.234375 -1.890625 0.234375q-2.53125 0 -3.953125 -1.359375q-1.421875 -1.375 -1.421875 -3.90625q0 -2.5 1.359375 -3.953125q1.359375 -1.46875 3.578125 -1.46875q2.0625 0 3.171875 1.203125q1.125 1.203125 1.125 3.40625l0 0.9375zm-1.671875 -1.3125q0 -1.34375 -0.671875 -2.078125q-0.671875 -0.75 -2.03125 -0.75q-1.375 0 -2.203125 0.8125q-0.8125 0.8125 -0.921875 2.015625l5.828125 0zm12.519836 9.96875l-1.71875 0l0 -4.890625q-0.78125 0.671875 -1.578125 1.015625q-0.78125 0.328125 -1.6875 0.328125q-1.8125 0 -2.890625 -1.390625q-1.078125 -1.40625 -1.078125 -3.875q0 -1.3125 0.375 -2.3125q0.375 -1.0 1.0 -1.6875q0.59375 -0.671875 1.40625 -1.03125q0.8125 -0.359375 1.71875 -0.359375q0.8125 0 1.4375 0.1875q0.640625 0.171875 1.296875 0.53125l0.109375 -0.4375l1.609375 0l0 13.921875zm-1.71875 -6.34375l0 -5.75q-0.703125 -0.3125 -1.25 -0.4375q-0.546875 -0.140625 -1.1875 -0.140625q-1.484375 0 -2.265625 1.015625q-0.765625 1.0 -0.765625 2.765625q0 1.78125 0.625 2.75q0.625 0.953125 1.96875 0.953125q0.734375 0 1.484375 -0.3125q0.75 -0.328125 1.390625 -0.84375zm13.529968 2.59375l-1.71875 0l0 -1.125q-0.859375 0.671875 -1.65625 1.046875q-0.796875 0.359375 -1.75 0.359375q-1.609375 0 -2.5 -0.96875q-0.890625 -0.984375 -0.890625 -2.890625l0 -6.59375l1.71875 0l0 5.796875q0 0.765625 0.0625 1.328125q0.078125 0.546875 0.3125 0.9375q0.25 0.390625 0.640625 0.578125q0.390625 0.1875 1.140625 0.1875q0.671875 0 1.453125 -0.34375q0.78125 -0.359375 1.46875 -0.890625l0 -7.59375l1.71875 0l0 10.171875zm11.884064 -4.90625l-7.5 0q0 0.9375 0.28125 1.640625q0.28125 0.6875 0.78125 1.140625q0.46875 0.4375 1.109375 0.65625q0.65625 0.21875 1.453125 0.21875q1.03125 0 2.078125 -0.421875q1.0625 -0.421875 1.5 -0.8125l0.09375 0l0 1.859375q-0.859375 0.375 -1.765625 0.625q-0.90625 0.234375 -1.890625 0.234375q-2.53125 0 -3.953125 -1.359375q-1.4219055 -1.375 -1.4219055 -3.90625q0 -2.5 1.3594055 -3.953125q1.359375 -1.46875 3.578125 -1.46875q2.0625 0 3.171875 1.203125q1.125 1.203125 1.125 3.40625l0 0.9375zm-1.671875 -1.3125q0 -1.34375 -0.671875 -2.078125q-0.671875 -0.75 -2.03125 -0.75q-1.375 0 -2.203125 0.8125q-0.8125 0.8125 -0.921875 2.015625l5.828125 0zm11.535461 3.28125q0 1.390625 -1.15625 2.296875q-1.140625 0.890625 -3.140625 0.890625q-1.125 0 -2.078125 -0.265625q-0.9375 -0.28125 -1.578125 -0.59375l0 -1.921875l0.09375 0q0.8125 0.609375 1.796875 0.96875q1.0 0.359375 1.90625 0.359375q1.140625 0 1.765625 -0.359375q0.640625 -0.375 0.640625 -1.15625q0 -0.59375 -0.34375 -0.90625q-0.34375 -0.3125 -1.328125 -0.53125q-0.359375 -0.078125 -0.953125 -0.1875q-0.59375 -0.109375 -1.078125 -0.234375q-1.328125 -0.359375 -1.890625 -1.046875q-0.5625 -0.6875 -0.5625 -1.6875q0 -0.625 0.25 -1.1875q0.265625 -0.5625 0.796875 -0.984375q0.515625 -0.4375 1.296875 -0.6875q0.796875 -0.25 1.765625 -0.25q0.90625 0 1.84375 0.234375q0.9375 0.21875 1.546875 0.53125l0 1.828125l-0.078125 0q-0.65625 -0.484375 -1.59375 -0.8125q-0.9375 -0.328125 -1.84375 -0.328125q-0.9375 0 -1.59375 0.359375q-0.640625 0.359375 -0.640625 1.0625q0 0.625 0.390625 0.953125q0.390625 0.3125 1.234375 0.515625q0.484375 0.109375 1.0625 0.21875q0.59375 0.109375 0.984375 0.203125q1.1875 0.265625 1.84375 0.9375q0.640625 0.671875 0.640625 1.78125zm7.735443 2.84375q-0.484375 0.125 -1.0625 0.203125q-0.5625 0.09375 -1.0 0.09375q-1.5625 0 -2.375 -0.828125q-0.8125 -0.84375 -0.8125 -2.703125l0 -5.40625l-1.15625 0l0 -1.4375l1.15625 0l0 -2.921875l1.71875 0l0 2.921875l3.53125 0l0 1.4375l-3.53125 0l0 4.640625q0 0.796875 0.03125 1.25q0.03125 0.453125 0.25 0.84375q0.203125 0.359375 0.546875 0.53125q0.359375 0.171875 1.078125 0.171875q0.421875 0 0.875 -0.125q0.453125 -0.125 0.65625 -0.203125l0.09375 0l0 1.53125z" fill-rule="nonzero"/><path fill="#cfe2f3" d="m405.97244 6.6968503l179.99997 0l0 83.22801l-16.645996 16.646004l-163.35397 0z" fill-rule="evenodd"/><path fill="#a5b4c2" d="m569.3264 106.57087l3.3292236 -13.316803l13.316772 -3.3292007z" fill-rule="evenodd"/><path fill="#000000" fill-opacity="0.0" d="m569.3264 106.57087l3.3292236 -13.316803l13.316772 -3.3292007l-16.645996 16.646004l-163.35397 0l0 -99.874016l179.99997 0l0 83.22801" fill-rule="evenodd"/><path stroke="#000000" stroke-width="1.0" stroke-linejoin="round" stroke-linecap="butt" d="m569.3264 106.57087l3.3292236 -13.316803l13.316772 -3.3292007l-16.645996 16.646004l-163.35397 0l0 -99.874016l179.99997 0l0 83.22801" fill-rule="evenodd"/><path fill="#000000" d="m432.46082 55.230854l-1.71875 0l0 -1.125q-0.859375 0.671875 -1.65625 1.046875q-0.796875 0.359375 -1.75 0.359375q-1.609375 0 -2.5 -0.96875q-0.890625 -0.984375 -0.890625 -2.890625l0 -6.59375l1.71875 0l0 5.796875q0 0.765625 0.0625 1.328125q0.078125 0.546875 0.3125 0.9375q0.25 0.390625 0.640625 0.578125q0.390625 0.1875 1.140625 0.1875q0.671875 0 1.453125 -0.34375q0.78125 -0.359375 1.46875 -0.890625l0 -7.59375l1.71875 0l0 10.171875zm11.618408 0l-1.71875 0l0 -1.0625q-0.734375 0.640625 -1.53125 1.0q-0.796875 0.34375 -1.734375 0.34375q-1.828125 0 -2.90625 -1.390625q-1.0625 -1.40625 -1.0625 -3.90625q0 -1.28125 0.359375 -2.296875q0.375 -1.015625 1.0 -1.71875q0.625 -0.703125 1.453125 -1.0625q0.828125 -0.359375 1.703125 -0.359375q0.796875 0 1.421875 0.171875q0.625 0.15625 1.296875 0.515625l0 -4.40625l1.71875 0l0 14.171875zm-1.71875 -2.5l0 -5.84375q-0.6875 -0.3125 -1.234375 -0.421875q-0.546875 -0.125 -1.1875 -0.125q-1.4375 0 -2.25 1.0q-0.796875 1.0 -0.796875 2.84375q0 1.8125 0.609375 2.765625q0.625 0.9375 2.0 0.9375q0.71875 0 1.46875 -0.328125q0.75 -0.328125 1.390625 -0.828125zm12.998718 2.5l-1.703125 0l0 -1.078125q-0.234375 0.15625 -0.625 0.4375q-0.375 0.265625 -0.75 0.4375q-0.421875 0.203125 -0.984375 0.34375q-0.546875 0.140625 -1.296875 0.140625q-1.375 0 -2.328125 -0.90625q-0.953125 -0.921875 -0.953125 -2.328125q0 -1.15625 0.484375 -1.859375q0.5 -0.71875 1.421875 -1.140625q0.9375 -0.40625 2.234375 -0.546875q1.296875 -0.15625 2.796875 -0.21875l0 -0.265625q0 -0.578125 -0.203125 -0.953125q-0.203125 -0.390625 -0.59375 -0.609375q-0.359375 -0.21875 -0.875 -0.28125q-0.5 -0.078125 -1.0625 -0.078125q-0.671875 0 -1.5 0.1875q-0.828125 0.171875 -1.71875 0.5l-0.09375 0l0 -1.734375q0.5 -0.140625 1.453125 -0.296875q0.953125 -0.171875 1.875 -0.171875q1.0625 0 1.859375 0.1875q0.796875 0.171875 1.390625 0.59375q0.5625 0.421875 0.859375 1.09375q0.3125 0.65625 0.3125 1.640625l0 6.90625zm-1.703125 -2.5l0 -2.84375q-0.78125 0.046875 -1.84375 0.140625q-1.0625 0.09375 -1.6875 0.265625q-0.734375 0.203125 -1.1875 0.65625q-0.453125 0.4375 -0.453125 1.21875q0 0.859375 0.515625 1.3125q0.53125 0.4375 1.625 0.4375q0.890625 0 1.640625 -0.34375q0.75 -0.359375 1.390625 -0.84375zm14.001556 -6.96875q0 0.90625 -0.3125 1.6875q-0.3125 0.765625 -0.875 1.328125q-0.703125 0.703125 -1.65625 1.046875q-0.953125 0.34375 -2.421875 0.34375l-1.796875 0l0 5.0625l-1.796875 0l0 -13.5625l3.671875 0q1.21875 0 2.0625 0.203125q0.859375 0.203125 1.515625 0.640625q0.765625 0.515625 1.1875 1.296875q0.421875 0.765625 0.421875 1.953125zm-1.875 0.046875q0 -0.703125 -0.25 -1.21875q-0.234375 -0.515625 -0.734375 -0.84375q-0.4375 -0.28125 -1.0 -0.40625q-0.5625 -0.125 -1.421875 -0.125l-1.78125 0l0 5.421875l1.515625 0q1.09375 0 1.78125 -0.1875q0.6875 -0.203125 1.109375 -0.640625q0.4375 -0.4375 0.609375 -0.90625q0.171875 -0.484375 0.171875 -1.09375zm5.859619 9.421875l-1.71875 0l0 -14.171875l1.71875 0l0 14.171875zm11.822662 0l-1.71875 0l0 -1.125q-0.859375 0.671875 -1.65625 1.046875q-0.796875 0.359375 -1.75 0.359375q-1.609375 0 -2.5 -0.96875q-0.890625 -0.984375 -0.890625 -2.890625l0 -6.59375l1.71875 0l0 5.796875q0 0.765625 0.0625 1.328125q0.078125 0.546875 0.3125 0.9375q0.25 0.390625 0.640625 0.578125q0.390625 0.1875 1.140625 0.1875q0.671875 0 1.453125 -0.34375q0.78125 -0.359375 1.46875 -0.890625l0 -7.59375l1.71875 0l0 10.171875zm11.618408 -1.15625q0 2.59375 -1.171875 3.796875q-1.171875 1.21875 -3.625 1.21875q-0.796875 0 -1.578125 -0.125q-0.765625 -0.109375 -1.515625 -0.3125l0 -1.75l0.09375 0q0.421875 0.15625 1.328125 0.390625q0.90625 0.25 1.828125 0.25q0.875 0 1.4375 -0.21875q0.578125 -0.203125 0.90625 -0.578125q0.3125 -0.34375 0.4375 -0.859375q0.140625 -0.5 0.140625 -1.109375l0 -0.9375q-0.765625 0.625 -1.46875 0.9375q-0.703125 0.296875 -1.796875 0.296875q-1.828125 0 -2.90625 -1.3125q-1.0625 -1.3125 -1.0625 -3.71875q0 -1.3125 0.359375 -2.265625q0.375 -0.953125 1.015625 -1.640625q0.59375 -0.640625 1.4375 -1.0q0.84375 -0.359375 1.6875 -0.359375q0.890625 0 1.484375 0.171875q0.59375 0.171875 1.25 0.546875l0.109375 -0.4375l1.609375 0l0 9.015625zm-1.71875 -1.640625l0 -5.546875q-0.671875 -0.3125 -1.265625 -0.4375q-0.578125 -0.140625 -1.171875 -0.140625q-1.40625 0 -2.21875 0.953125q-0.8125 0.953125 -0.8125 2.75q0 1.71875 0.59375 2.609375q0.609375 0.875 2.0 0.875q0.75 0 1.5 -0.28125q0.75 -0.296875 1.375 -0.78125zm6.9362183 -9.078125l-1.9375 0l0 -1.78125l1.9375 0l0 1.78125zm-0.109375 11.875l-1.71875 0l0 -10.171875l1.71875 0l0 10.171875zm11.885132 0l-1.7030945 0l0 -5.796875q0 -0.703125 -0.09375 -1.3125q-0.078125 -0.609375 -0.296875 -0.96875q-0.21875 -0.375 -0.65625 -0.5625q-0.421875 -0.1875 -1.109375 -0.1875q-0.703125 0 -1.46875 0.34375q-0.765625 0.34375 -1.46875 0.890625l0 7.59375l-1.703125 0l0 -10.171875l1.703125 0l0 1.125q0.8125 -0.65625 1.65625 -1.03125q0.859375 -0.375 1.765625 -0.375q1.65625 0 2.515625 1.0q0.8593445 0.984375 0.8593445 2.84375l0 6.609375zm10.571533 -2.9375q0 1.390625 -1.15625 2.296875q-1.140625 0.890625 -3.140625 0.890625q-1.125 0 -2.078125 -0.265625q-0.9375 -0.28125 -1.578125 -0.59375l0 -1.921875l0.09375 0q0.8125 0.609375 1.796875 0.96875q1.0 0.359375 1.90625 0.359375q1.140625 0 1.765625 -0.359375q0.640625 -0.375 0.640625 -1.15625q0 -0.59375 -0.34375 -0.90625q-0.34375 -0.3125 -1.328125 -0.53125q-0.359375 -0.078125 -0.953125 -0.1875q-0.59375 -0.109375 -1.078125 -0.234375q-1.328125 -0.359375 -1.890625 -1.046875q-0.5625 -0.6875 -0.5625 -1.6875q0 -0.625 0.25 -1.1875q0.265625 -0.5625 0.796875 -0.984375q0.515625 -0.4375 1.296875 -0.6875q0.796875 -0.25 1.765625 -0.25q0.90625 0 1.84375 0.234375q0.9375 0.21875 1.546875 0.53125l0 1.828125l-0.078125 0q-0.65625 -0.484375 -1.59375 -0.8125q-0.9375 -0.328125 -1.84375 -0.328125q-0.9375 0 -1.59375 0.359375q-0.640625 0.359375 -0.640625 1.0625q0 0.625 0.390625 0.953125q0.390625 0.3125 1.234375 0.515625q0.484375 0.109375 1.0625 0.21875q0.59375 0.109375 0.984375 0.203125q1.1875 0.265625 1.84375 0.9375q0.640625 0.671875 0.640625 1.78125zm5.2510986 2.9375l-2.171875 0l0 -2.59375l2.171875 0l0 2.59375zm11.50531 -0.640625q-0.84375 0.40625 -1.625 0.640625q-0.765625 0.234375 -1.625 0.234375q-1.109375 0 -2.03125 -0.328125q-0.921875 -0.328125 -1.578125 -0.984375q-0.65625 -0.65625 -1.03125 -1.65625q-0.359375 -1.0 -0.359375 -2.34375q0 -2.484375 1.375 -3.90625q1.375 -1.421875 3.625 -1.421875q0.875 0 1.71875 0.25q0.84375 0.234375 1.53125 0.59375l0 1.90625l-0.078125 0q-0.796875 -0.609375 -1.625 -0.9375q-0.828125 -0.328125 -1.625 -0.328125q-1.453125 0 -2.296875 0.984375q-0.84375 0.96875 -0.84375 2.859375q0 1.84375 0.8125 2.84375q0.828125 0.984375 2.328125 0.984375q0.515625 0 1.046875 -0.140625q0.546875 -0.140625 0.96875 -0.359375q0.375 -0.1875 0.703125 -0.40625q0.328125 -0.21875 0.53125 -0.359375l0.078125 0l0 1.875zm10.876099 -4.4375q0 2.484375 -1.28125 3.921875q-1.265625 1.4375 -3.40625 1.4375q-2.171875 0 -3.4375 -1.4375q-1.265625 -1.4375 -1.265625 -3.921875q0 -2.484375 1.265625 -3.921875q1.265625 -1.453125 3.4375 -1.453125q2.140625 0 3.40625 1.453125q1.28125 1.4375 1.28125 3.921875zm-1.765625 0q0 -1.984375 -0.78125 -2.9375q-0.765625 -0.96875 -2.140625 -0.96875q-1.40625 0 -2.171875 0.96875q-0.765625 0.953125 -0.765625 2.9375q0 1.90625 0.765625 2.90625q0.78125 0.984375 2.171875 0.984375q1.359375 0 2.140625 -0.984375q0.78125 -0.984375 0.78125 -2.90625zm12.91687 5.078125l-1.703125 0l0 -5.796875q0 -0.703125 -0.09375 -1.3125q-0.078125 -0.609375 -0.296875 -0.96875q-0.21875 -0.375 -0.65625 -0.5625q-0.421875 -0.1875 -1.109375 -0.1875q-0.703125 0 -1.46875 0.34375q-0.765625 0.34375 -1.46875 0.890625l0 7.59375l-1.703125 0l0 -10.171875l1.703125 0l0 1.125q0.8125 -0.65625 1.65625 -1.03125q0.859375 -0.375 1.765625 -0.375q1.65625 0 2.515625 1.0q0.859375 0.984375 0.859375 2.84375l0 6.609375zm8.774658 -12.515625l-0.09375 0q-0.28125 -0.078125 -0.734375 -0.15625q-0.453125 -0.09375 -0.796875 -0.09375q-1.109375 0 -1.609375 0.484375q-0.484375 0.484375 -0.484375 1.765625l0 0.34375l3.078125 0l0 1.4375l-3.03125 0l0 8.734375l-1.703125 0l0 -8.734375l-1.15625 0l0 -1.4375l1.15625 0l0 -0.34375q0 -1.8125 0.890625 -2.78125q0.90625 -0.96875 2.609375 -0.96875q0.578125 0 1.03125 0.0625q0.46875 0.046875 0.84375 0.125l0 1.5625z" fill-rule="nonzero"/><path fill="#fce5cd" d="m178.76115 348.24014l-36.728394 0l0 0c-15.340012 0 -27.775543 -12.435516 -27.775543 -27.775513l0 0l0 0c0 -7.3665466 2.9263458 -14.431366 8.135269 -19.64029c5.2089233 -5.2089233 12.273743 -8.135254 19.640274 -8.135254l19.761276 0l0 -9.236328l16.967117 13.531647l-16.967117 13.531616l0 -9.236298l-19.761276 0c-10.595535 0 -19.184906 8.589355 -19.184906 19.184906l0 0l0 0c0 10.59552 8.589371 19.184906 19.184906 19.184906l36.728394 0z" fill-rule="evenodd"/><path stroke="#000000" stroke-width="1.0" stroke-linejoin="round" stroke-linecap="butt" d="m178.76115 348.24014l-36.728394 0l0 0c-15.340012 0 -27.775543 -12.435516 -27.775543 -27.775513l0 0l0 0c0 -7.3665466 2.9263458 -14.431366 8.135269 -19.64029c5.2089233 -5.2089233 12.273743 -8.135254 19.640274 -8.135254l19.761276 0l0 -9.236328l16.967117 13.531647l-16.967117 13.531616l0 -9.236298l-19.761276 0c-10.595535 0 -19.184906 8.589355 -19.184906 19.184906l0 0l0 0c0 10.59552 8.589371 19.184906 19.184906 19.184906l36.728394 0z" fill-rule="evenodd"/><path fill="#ead1dc" d="m585.97504 265.90945l180.0 0l0 99.87402l-180.0 0z" fill-rule="evenodd"/><path stroke="#000000" stroke-width="1.0" stroke-linejoin="round" stroke-linecap="butt" d="m585.97504 265.90945l180.0 0l0 99.87402l-180.0 0z" fill-rule="evenodd"/><path fill="#000000" d="m658.3002 313.2977q0 0.90625 -0.3125 1.6875q-0.3125 0.765625 -0.875 1.328125q-0.703125 0.703125 -1.65625 1.046875q-0.953125 0.34375 -2.421875 0.34375l-1.796875 0l0 5.0625l-1.796875 0l0 -13.5625l3.671875 0q1.21875 0 2.0625 0.203125q0.859375 0.203125 1.515625 0.640625q0.765625 0.515625 1.1875 1.296875q0.421875 0.765625 0.421875 1.953125zm-1.875 0.046875q0 -0.703125 -0.25 -1.21875q-0.234375 -0.515625 -0.734375 -0.84375q-0.4375 -0.28125 -1.0 -0.40625q-0.5625 -0.125 -1.421875 -0.125l-1.78125 0l0 5.421875l1.515625 0q1.09375 0 1.78125 -0.1875q0.6875 -0.203125 1.109375 -0.640625q0.4375 -0.4375 0.609375 -0.90625q0.171875 -0.484375 0.171875 -1.09375zm5.859558 9.421875l-1.71875 0l0 -14.171875l1.71875 0l0 14.171875zm11.822693 0l-1.71875 0l0 -1.125q-0.859375 0.671875 -1.65625 1.046875q-0.796875 0.359375 -1.75 0.359375q-1.609375 0 -2.5 -0.96875q-0.890625 -0.984375 -0.890625 -2.890625l0 -6.59375l1.71875 0l0 5.796875q0 0.765625 0.0625 1.328125q0.078125 0.546875 0.3125 0.9375q0.25 0.390625 0.640625 0.578125q0.390625 0.1875 1.140625 0.1875q0.671875 0 1.453125 -0.34375q0.78125 -0.359375 1.46875 -0.890625l0 -7.59375l1.71875 0l0 10.171875zm11.618408 -1.15625q0 2.59375 -1.171875 3.796875q-1.171875 1.21875 -3.625 1.21875q-0.796875 0 -1.578125 -0.125q-0.765625 -0.109375 -1.515625 -0.3125l0 -1.75l0.09375 0q0.421875 0.15625 1.328125 0.390625q0.90625 0.25 1.828125 0.25q0.875 0 1.4375 -0.21875q0.578125 -0.203125 0.90625 -0.578125q0.3125 -0.34375 0.4375 -0.859375q0.140625 -0.5 0.140625 -1.109375l0 -0.9375q-0.765625 0.625 -1.46875 0.9375q-0.703125 0.296875 -1.796875 0.296875q-1.828125 0 -2.90625 -1.3125q-1.0625 -1.3125 -1.0625 -3.71875q0 -1.3125 0.359375 -2.265625q0.375 -0.953125 1.015625 -1.640625q0.59375 -0.640625 1.4375 -1.0q0.84375 -0.359375 1.6875 -0.359375q0.890625 0 1.484375 0.171875q0.59375 0.171875 1.25 0.546875l0.109375 -0.4375l1.609375 0l0 9.015625zm-1.71875 -1.640625l0 -5.546875q-0.671875 -0.3125 -1.265625 -0.4375q-0.578125 -0.140625 -1.171875 -0.140625q-1.40625 0 -2.21875 0.953125q-0.8125 0.953125 -0.8125 2.75q0 1.71875 0.59375 2.609375q0.609375 0.875 2.0 0.875q0.75 0 1.5 -0.28125q0.75 -0.296875 1.375 -0.78125zm6.9362183 -9.078125l-1.9375 0l0 -1.78125l1.9375 0l0 1.78125zm-0.109375 11.875l-1.71875 0l0 -10.171875l1.71875 0l0 10.171875zm11.885132 0l-1.703125 0l0 -5.796875q0 -0.703125 -0.09375 -1.3125q-0.078125 -0.609375 -0.296875 -0.96875q-0.21875 -0.375 -0.65625 -0.5625q-0.421875 -0.1875 -1.109375 -0.1875q-0.703125 0 -1.46875 0.34375q-0.765625 0.34375 -1.46875 0.890625l0 7.59375l-1.703125 0l0 -10.171875l1.703125 0l0 1.125q0.8125 -0.65625 1.65625 -1.03125q0.859375 -0.375 1.765625 -0.375q1.65625 0 2.515625 1.0q0.859375 0.984375 0.859375 2.84375l0 6.609375z" fill-rule="nonzero"/><path fill="#fff2cc" d="m178.75984 398.05118l180.00002 0l0 99.87402l-180.00002 0z" fill-rule="evenodd"/><path stroke="#000000" stroke-width="1.0" stroke-linejoin="round" stroke-linecap="butt" d="m178.75984 398.05118l180.00002 0l0 99.87402l-180.00002 0z" fill-rule="evenodd"/><path fill="#000000" d="m216.84743 451.03317q0 0.796875 -0.375 1.578125q-0.359375 0.765625 -1.015625 1.296875q-0.734375 0.59375 -1.703125 0.921875q-0.96875 0.328125 -2.34375 0.328125q-1.46875 0 -2.640625 -0.265625q-1.15625 -0.28125 -2.375 -0.828125l0 -2.25l0.125 0q1.03125 0.859375 2.375 1.328125q1.359375 0.453125 2.546875 0.453125q1.671875 0 2.59375 -0.625q0.9375 -0.625 0.9375 -1.671875q0 -0.90625 -0.4375 -1.328125q-0.4375 -0.4375 -1.34375 -0.671875q-0.6875 -0.1875 -1.484375 -0.296875q-0.796875 -0.125 -1.6875 -0.3125q-1.796875 -0.375 -2.671875 -1.296875q-0.875 -0.921875 -0.875 -2.40625q0 -1.71875 1.4375 -2.796875q1.453125 -1.09375 3.65625 -1.09375q1.4375 0 2.625 0.28125q1.203125 0.265625 2.109375 0.671875l0 2.125l-0.125 0q-0.765625 -0.65625 -2.03125 -1.078125q-1.265625 -0.4375 -2.578125 -0.4375q-1.453125 0 -2.34375 0.609375q-0.875 0.59375 -0.875 1.53125q0 0.859375 0.4375 1.34375q0.4375 0.46875 1.546875 0.734375q0.578125 0.125 1.65625 0.3125q1.078125 0.171875 1.828125 0.375q1.5 0.390625 2.265625 1.203125q0.765625 0.8125 0.765625 2.265625zm11.284546 -1.03125l-7.5 0q0 0.9375 0.28125 1.640625q0.28125 0.6875 0.78125 1.140625q0.46875 0.4375 1.109375 0.65625q0.65625 0.21875 1.453125 0.21875q1.03125 0 2.078125 -0.421875q1.0625 -0.421875 1.5 -0.8125l0.09375 0l0 1.859375q-0.859375 0.375 -1.765625 0.625q-0.90625 0.234375 -1.890625 0.234375q-2.53125 0 -3.953125 -1.359375q-1.421875 -1.375 -1.421875 -3.90625q0 -2.5 1.359375 -3.953125q1.359375 -1.46875 3.578125 -1.46875q2.0625 0 3.171875 1.203125q1.125 1.203125 1.125 3.40625l0 0.9375zm-1.671875 -1.3125q0 -1.34375 -0.671875 -2.078125q-0.671875 -0.75 -2.03125 -0.75q-1.375 0 -2.203125 0.8125q-0.8125 0.8125 -0.921875 2.015625l5.828125 0zm10.613586 -2.09375l-0.09375 0q-0.375 -0.09375 -0.734375 -0.125q-0.359375 -0.046875 -0.859375 -0.046875q-0.78125 0 -1.53125 0.359375q-0.734375 0.34375 -1.421875 0.90625l0 7.21875l-1.703125 0l0 -10.171875l1.703125 0l0 1.5q1.03125 -0.8125 1.796875 -1.15625q0.78125 -0.34375 1.59375 -0.34375q0.453125 0 0.65625 0.03125q0.203125 0.015625 0.59375 0.078125l0 1.75zm3.4617004 -3.5625l-1.9375 0l0 -1.78125l1.9375 0l0 1.78125zm-0.109375 11.875l-1.71875 0l0 -10.171875l1.71875 0l0 10.171875zm11.291412 0l-1.703125 0l0 -1.078125q-0.234375 0.15625 -0.625 0.4375q-0.375 0.265625 -0.75 0.4375q-0.421875 0.203125 -0.984375 0.34375q-0.546875 0.140625 -1.296875 0.140625q-1.375 0 -2.328125 -0.90625q-0.953125 -0.921875 -0.953125 -2.328125q0 -1.15625 0.484375 -1.859375q0.5 -0.71875 1.421875 -1.140625q0.9375 -0.40625 2.234375 -0.546875q1.296875 -0.15625 2.796875 -0.21875l0 -0.265625q0 -0.578125 -0.203125 -0.953125q-0.203125 -0.390625 -0.59375 -0.609375q-0.359375 -0.21875 -0.875 -0.28125q-0.5 -0.078125 -1.0625 -0.078125q-0.671875 0 -1.5 0.1875q-0.828125 0.171875 -1.71875 0.5l-0.09375 0l0 -1.734375q0.5 -0.140625 1.453125 -0.296875q0.953125 -0.171875 1.875 -0.171875q1.0625 0 1.859375 0.1875q0.796875 0.171875 1.390625 0.59375q0.5625 0.421875 0.859375 1.09375q0.3125 0.65625 0.3125 1.640625l0 6.90625zm-1.703125 -2.5l0 -2.84375q-0.78125 0.046875 -1.84375 0.140625q-1.0625 0.09375 -1.6875 0.265625q-0.734375 0.203125 -1.1875 0.65625q-0.453125 0.4375 -0.453125 1.21875q0 0.859375 0.515625 1.3125q0.53125 0.4375 1.625 0.4375q0.890625 0 1.640625 -0.34375q0.75 -0.359375 1.390625 -0.84375zm6.7359467 2.5l-1.7187653 0l0 -14.171875l1.7187653 0l0 14.171875zm5.2289124 -11.875l-1.9375 0l0 -1.78125l1.9375 0l0 1.78125zm-0.109375 11.875l-1.71875 0l0 -10.171875l1.71875 0l0 10.171875zm10.650787 -2.9375q0 1.390625 -1.15625 2.296875q-1.140625 0.890625 -3.140625 0.890625q-1.125 0 -2.078125 -0.265625q-0.9375 -0.28125 -1.578125 -0.59375l0 -1.921875l0.09375 0q0.8125 0.609375 1.796875 0.96875q1.0 0.359375 1.90625 0.359375q1.140625 0 1.765625 -0.359375q0.640625 -0.375 0.640625 -1.15625q0 -0.59375 -0.34375 -0.90625q-0.34375 -0.3125 -1.328125 -0.53125q-0.359375 -0.078125 -0.953125 -0.1875q-0.59375 -0.109375 -1.078125 -0.234375q-1.328125 -0.359375 -1.890625 -1.046875q-0.5625 -0.6875 -0.5625 -1.6875q0 -0.625 0.25 -1.1875q0.265625 -0.5625 0.796875 -0.984375q0.515625 -0.4375 1.296875 -0.6875q0.796875 -0.25 1.765625 -0.25q0.90625 0 1.84375 0.234375q0.9375 0.21875 1.546875 0.53125l0 1.828125l-0.078125 0q-0.65625 -0.484375 -1.59375 -0.8125q-0.9375 -0.328125 -1.84375 -0.328125q-0.9375 0 -1.59375 0.359375q-0.640625 0.359375 -0.640625 1.0625q0 0.625 0.390625 0.953125q0.390625 0.3125 1.234375 0.515625q0.484375 0.109375 1.0625 0.21875q0.59375 0.109375 0.984375 0.203125q1.1875 0.265625 1.84375 0.9375q0.640625 0.671875 0.640625 1.78125zm10.969818 -1.96875l-7.5 0q0 0.9375 0.28125 1.640625q0.28125 0.6875 0.78125 1.140625q0.46875 0.4375 1.109375 0.65625q0.65625 0.21875 1.453125 0.21875q1.03125 0 2.078125 -0.421875q1.0625 -0.421875 1.5 -0.8125l0.09375 0l0 1.859375q-0.859375 0.375 -1.765625 0.625q-0.90625 0.234375 -1.890625 0.234375q-2.53125 0 -3.953125 -1.359375q-1.421875 -1.375 -1.421875 -3.90625q0 -2.5 1.359375 -3.953125q1.359375 -1.46875 3.578125 -1.46875q2.0625 0 3.171875 1.203125q1.125 1.203125 1.125 3.40625l0 0.9375zm-1.671875 -1.3125q0 -1.34375 -0.671875 -2.078125q-0.671875 -0.75 -2.03125 -0.75q-1.375 0 -2.203125 0.8125q-0.8125 0.8125 -0.921875 2.015625l5.828125 0zm19.078674 6.21875l-1.71875 0l0 -1.0625q-0.734375 0.640625 -1.53125 1.0q-0.796875 0.34375 -1.734375 0.34375q-1.828125 0 -2.90625 -1.390625q-1.0625 -1.40625 -1.0625 -3.90625q0 -1.28125 0.359375 -2.296875q0.375 -1.015625 1.0 -1.71875q0.625 -0.703125 1.453125 -1.0625q0.828125 -0.359375 1.703125 -0.359375q0.796875 0 1.421875 0.171875q0.625 0.15625 1.296875 0.515625l0 -4.40625l1.71875 0l0 14.171875zm-1.71875 -2.5l0 -5.84375q-0.6875 -0.3125 -1.234375 -0.421875q-0.546875 -0.125 -1.1875 -0.125q-1.4375 0 -2.25 1.0q-0.796875 1.0 -0.796875 2.84375q0 1.8125 0.609375 2.765625q0.625 0.9375 2.0 0.9375q0.71875 0 1.46875 -0.328125q0.75 -0.328125 1.390625 -0.828125zm12.998718 2.5l-1.703125 0l0 -1.078125q-0.234375 0.15625 -0.625 0.4375q-0.375 0.265625 -0.75 0.4375q-0.421875 0.203125 -0.984375 0.34375q-0.546875 0.140625 -1.296875 0.140625q-1.375 0 -2.328125 -0.90625q-0.953125 -0.921875 -0.953125 -2.328125q0 -1.15625 0.484375 -1.859375q0.5 -0.71875 1.421875 -1.140625q0.9375 -0.40625 2.234375 -0.546875q1.296875 -0.15625 2.796875 -0.21875l0 -0.265625q0 -0.578125 -0.203125 -0.953125q-0.203125 -0.390625 -0.59375 -0.609375q-0.359375 -0.21875 -0.875 -0.28125q-0.5 -0.078125 -1.0625 -0.078125q-0.671875 0 -1.5 0.1875q-0.828125 0.171875 -1.71875 0.5l-0.09375 0l0 -1.734375q0.5 -0.140625 1.453125 -0.296875q0.953125 -0.171875 1.875 -0.171875q1.0625 0 1.859375 0.1875q0.796875 0.171875 1.390625 0.59375q0.5625 0.421875 0.859375 1.09375q0.3125 0.65625 0.3125 1.640625l0 6.90625zm-1.703125 -2.5l0 -2.84375q-0.78125 0.046875 -1.84375 0.140625q-1.0625 0.09375 -1.6875 0.265625q-0.734375 0.203125 -1.1875 0.65625q-0.453125 0.4375 -0.453125 1.21875q0 0.859375 0.515625 1.3125q0.53125 0.4375 1.625 0.4375q0.890625 0 1.640625 -0.34375q0.75 -0.359375 1.390625 -0.84375zm10.282806 2.40625q-0.484375 0.125 -1.0625 0.203125q-0.5625 0.09375 -1.0 0.09375q-1.5625 0 -2.375 -0.828125q-0.8125 -0.84375 -0.8125 -2.703125l0 -5.40625l-1.15625 0l0 -1.4375l1.15625 0l0 -2.921875l1.71875 0l0 2.921875l3.53125 0l0 1.4375l-3.53125 0l0 4.640625q0 0.796875 0.03125 1.25q0.03125 0.453125 0.25 0.84375q0.203125 0.359375 0.546875 0.53125q0.359375 0.171875 1.078125 0.171875q0.421875 0 0.875 -0.125q0.453125 -0.125 0.65625 -0.203125l0.09375 0l0 1.53125zm9.976379 0.09375l-1.703125 0l0 -1.078125q-0.234375 0.15625 -0.625 0.4375q-0.375 0.265625 -0.75 0.4375q-0.421875 0.203125 -0.984375 0.34375q-0.546875 0.140625 -1.296875 0.140625q-1.375 0 -2.328125 -0.90625q-0.953125 -0.921875 -0.953125 -2.328125q0 -1.15625 0.484375 -1.859375q0.5 -0.71875 1.421875 -1.140625q0.9375 -0.40625 2.234375 -0.546875q1.296875 -0.15625 2.796875 -0.21875l0 -0.265625q0 -0.578125 -0.203125 -0.953125q-0.203125 -0.390625 -0.59375 -0.609375q-0.359375 -0.21875 -0.875 -0.28125q-0.5 -0.078125 -1.0625 -0.078125q-0.671875 0 -1.5 0.1875q-0.828125 0.171875 -1.71875 0.5l-0.09375 0l0 -1.734375q0.5 -0.140625 1.453125 -0.296875q0.953125 -0.171875 1.875 -0.171875q1.0625 0 1.859375 0.1875q0.796875 0.171875 1.390625 0.59375q0.5625 0.421875 0.859375 1.09375q0.3125 0.65625 0.3125 1.640625l0 6.90625zm-1.703125 -2.5l0 -2.84375q-0.78125 0.046875 -1.84375 0.140625q-1.0625 0.09375 -1.6875 0.265625q-0.734375 0.203125 -1.1875 0.65625q-0.453125 0.4375 -0.453125 1.21875q0 0.859375 0.515625 1.3125q0.53125 0.4375 1.625 0.4375q0.890625 0 1.640625 -0.34375q0.75 -0.359375 1.390625 -0.84375z" fill-rule="nonzero"/><path fill="#fff2cc" d="m178.75984 528.06696l180.00002 0l0 99.87396l-180.00002 0z" fill-rule="evenodd"/><path stroke="#000000" stroke-width="1.0" stroke-linejoin="round" stroke-linecap="butt" d="m178.75984 528.06696l180.00002 0l0 99.87396l-180.00002 0z" fill-rule="evenodd"/><path fill="#000000" d="m232.81183 581.04895q0 0.796875 -0.375 1.578125q-0.359375 0.765625 -1.015625 1.296875q-0.734375 0.59375 -1.703125 0.921875q-0.96875 0.328125 -2.34375 0.328125q-1.46875 0 -2.640625 -0.265625q-1.15625 -0.28125 -2.375 -0.828125l0 -2.25l0.125 0q1.03125 0.859375 2.375 1.328125q1.359375 0.453125 2.546875 0.453125q1.671875 0 2.59375 -0.625q0.9375 -0.625 0.9375 -1.671875q0 -0.90625 -0.4375 -1.328125q-0.4375 -0.4375 -1.34375 -0.671875q-0.6875 -0.1875 -1.484375 -0.296875q-0.796875 -0.125 -1.6875 -0.3125q-1.796875 -0.375 -2.671875 -1.296875q-0.875 -0.921875 -0.875 -2.40625q0 -1.71875 1.4375 -2.796875q1.453125 -1.09375 3.65625 -1.09375q1.4375 0 2.625 0.28125q1.203125 0.265625 2.109375 0.671875l0 2.125l-0.125 0q-0.765625 -0.65625 -2.03125 -1.078125q-1.265625 -0.4375 -2.578125 -0.4375q-1.453125 0 -2.34375 0.609375q-0.875 0.59375 -0.875 1.53125q0 0.859375 0.4375 1.34375q0.4375 0.46875 1.546875 0.734375q0.578125 0.125 1.65625 0.3125q1.078125 0.171875 1.828125 0.375q1.5 0.390625 2.265625 1.203125q0.765625 0.8125 0.765625 2.265625zm11.284546 -1.03125l-7.5 0q0 0.9375 0.28125 1.640625q0.28125 0.6875 0.78125 1.140625q0.46875 0.4375 1.109375 0.65625q0.65625 0.21875 1.453125 0.21875q1.03125 0 2.078125 -0.421875q1.0625 -0.421875 1.5 -0.8125l0.09375 0l0 1.859375q-0.859375 0.375 -1.765625 0.625q-0.90625 0.234375 -1.890625 0.234375q-2.53125 0 -3.953125 -1.359375q-1.421875 -1.375 -1.421875 -3.90625q0 -2.5 1.359375 -3.953125q1.359375 -1.46875 3.578125 -1.46875q2.0625 0 3.171875 1.203125q1.125 1.203125 1.125 3.40625l0 0.9375zm-1.671875 -1.3125q0 -1.34375 -0.671875 -2.078125q-0.671875 -0.75 -2.03125 -0.75q-1.375 0 -2.203125 0.8125q-0.8125 0.8125 -0.921875 2.015625l5.828125 0zm12.769836 6.21875l-1.703125 0l0 -5.796875q0 -0.703125 -0.09375 -1.3125q-0.078125 -0.609375 -0.296875 -0.96875q-0.21875 -0.375 -0.65625 -0.5625q-0.421875 -0.1875 -1.109375 -0.1875q-0.703125 0 -1.46875 0.34375q-0.765625 0.34375 -1.46875 0.890625l0 7.59375l-1.703125 0l0 -10.171875l1.703125 0l0 1.125q0.8125 -0.65625 1.65625 -1.03125q0.859375 -0.375 1.765625 -0.375q1.65625 0 2.515625 1.0q0.859375 0.984375 0.859375 2.84375l0 6.609375zm11.555908 0l-1.71875 0l0 -1.0625q-0.734375 0.640625 -1.53125 1.0q-0.796875 0.34375 -1.734375 0.34375q-1.828125 0 -2.90625 -1.390625q-1.0625 -1.40625 -1.0625 -3.90625q0 -1.28125 0.359375 -2.296875q0.375 -1.015625 1.0 -1.71875q0.625 -0.703125 1.453125 -1.0625q0.828125 -0.359375 1.703125 -0.359375q0.796875 0 1.421875 0.171875q0.625 0.15625 1.296875 0.515625l0 -4.40625l1.71875 0l0 14.171875zm-1.71875 -2.5l0 -5.84375q-0.6875 -0.3125 -1.234375 -0.421875q-0.546875 -0.125 -1.1875 -0.125q-1.4375 0 -2.25 1.0q-0.796875 1.0 -0.796875 2.84375q0 1.8125 0.609375 2.765625q0.625 0.9375 2.0 0.9375q0.71875 0 1.46875 -0.328125q0.75 -0.328125 1.390625 -0.828125zm19.901306 2.5l-1.71875 0l0 -1.0625q-0.734375 0.640625 -1.53125 1.0q-0.796875 0.34375 -1.734375 0.34375q-1.828125 0 -2.90625 -1.390625q-1.0625 -1.40625 -1.0625 -3.90625q0 -1.28125 0.359375 -2.296875q0.375 -1.015625 1.0 -1.71875q0.625 -0.703125 1.453125 -1.0625q0.828125 -0.359375 1.703125 -0.359375q0.796875 0 1.421875 0.171875q0.625 0.15625 1.296875 0.515625l0 -4.40625l1.71875 0l0 14.171875zm-1.71875 -2.5l0 -5.84375q-0.6875 -0.3125 -1.234375 -0.421875q-0.546875 -0.125 -1.1875 -0.125q-1.4375 0 -2.25 1.0q-0.796875 1.0 -0.796875 2.84375q0 1.8125 0.609375 2.765625q0.625 0.9375 2.0 0.9375q0.71875 0 1.46875 -0.328125q0.75 -0.328125 1.390625 -0.828125zm12.998718 2.5l-1.703125 0l0 -1.078125q-0.234375 0.15625 -0.625 0.4375q-0.375 0.265625 -0.75 0.4375q-0.421875 0.203125 -0.984375 0.34375q-0.546875 0.140625 -1.296875 0.140625q-1.375 0 -2.328125 -0.90625q-0.953125 -0.921875 -0.953125 -2.328125q0 -1.15625 0.484375 -1.859375q0.5 -0.71875 1.421875 -1.140625q0.9375 -0.40625 2.234375 -0.546875q1.296875 -0.15625 2.796875 -0.21875l0 -0.265625q0 -0.578125 -0.203125 -0.953125q-0.203125 -0.390625 -0.59375 -0.609375q-0.359375 -0.21875 -0.875 -0.28125q-0.5 -0.078125 -1.0625 -0.078125q-0.671875 0 -1.5 0.1875q-0.828125 0.171875 -1.71875 0.5l-0.09375 0l0 -1.734375q0.5 -0.140625 1.453125 -0.296875q0.953125 -0.171875 1.875 -0.171875q1.0625 0 1.859375 0.1875q0.796875 0.171875 1.390625 0.59375q0.5625 0.421875 0.859375 1.09375q0.3125 0.65625 0.3125 1.640625l0 6.90625zm-1.703125 -2.5l0 -2.84375q-0.78125 0.046875 -1.84375 0.140625q-1.0625 0.09375 -1.6875 0.265625q-0.734375 0.203125 -1.1875 0.65625q-0.453125 0.4375 -0.453125 1.21875q0 0.859375 0.515625 1.3125q0.53125 0.4375 1.625 0.4375q0.890625 0 1.640625 -0.34375q0.75 -0.359375 1.390625 -0.84375zm10.282806 2.40625q-0.484375 0.125 -1.0625 0.203125q-0.5625 0.09375 -1.0 0.09375q-1.5625 0 -2.375 -0.828125q-0.8125 -0.84375 -0.8125 -2.703125l0 -5.40625l-1.15625 0l0 -1.4375l1.15625 0l0 -2.921875l1.71875 0l0 2.921875l3.53125 0l0 1.4375l-3.53125 0l0 4.640625q0 0.796875 0.03125 1.25q0.03125 0.453125 0.25 0.84375q0.203125 0.359375 0.546875 0.53125q0.359375 0.171875 1.078125 0.171875q0.421875 0 0.875 -0.125q0.453125 -0.125 0.65625 -0.203125l0.09375 0l0 1.53125zm9.976379 0.09375l-1.703125 0l0 -1.078125q-0.234375 0.15625 -0.625 0.4375q-0.375 0.265625 -0.75 0.4375q-0.421875 0.203125 -0.984375 0.34375q-0.546875 0.140625 -1.296875 0.140625q-1.375 0 -2.328125 -0.90625q-0.9531555 -0.921875 -0.9531555 -2.328125q0 -1.15625 0.484375 -1.859375q0.5000305 -0.71875 1.4219055 -1.140625q0.9375 -0.40625 2.234375 -0.546875q1.296875 -0.15625 2.796875 -0.21875l0 -0.265625q0 -0.578125 -0.203125 -0.953125q-0.203125 -0.390625 -0.59375 -0.609375q-0.359375 -0.21875 -0.875 -0.28125q-0.5 -0.078125 -1.0625 -0.078125q-0.671875 0 -1.5 0.1875q-0.828125 0.171875 -1.71875 0.5l-0.09375 0l0 -1.734375q0.5 -0.140625 1.453125 -0.296875q0.953125 -0.171875 1.875 -0.171875q1.0625 0 1.859375 0.1875q0.796875 0.171875 1.390625 0.59375q0.5625 0.421875 0.859375 1.09375q0.3125 0.65625 0.3125 1.640625l0 6.90625zm-1.703125 -2.5l0 -2.84375q-0.78125 0.046875 -1.84375 0.140625q-1.0625 0.09375 -1.6875 0.265625q-0.734375 0.203125 -1.1875 0.65625q-0.453125 0.4375 -0.453125 1.21875q0 0.859375 0.515625 1.3125q0.53125 0.4375 1.625 0.4375q0.890625 0 1.640625 -0.34375q0.75 -0.359375 1.390625 -0.84375z" fill-rule="nonzero"/><path fill="#ead1dc" d="m358.76117 317.53674l8.850372 -8.850403l0 4.4252014l209.51181 0l0 -4.4252014l8.850403 8.850403l-8.850403 8.850403l0 -4.4252014l-209.51181 0l0 4.4252014z" fill-rule="evenodd"/><path stroke="#000000" stroke-width="1.0" stroke-linejoin="round" stroke-linecap="butt" d="m358.76117 317.53674l8.850372 -8.850403l0 4.4252014l209.51181 0l0 -4.4252014l8.850403 8.850403l-8.850403 8.850403l0 -4.4252014l-209.51181 0l0 4.4252014z" fill-rule="evenodd"/><path fill="#fff2cc" d="m273.18634 368.03598l0 21.039368l4.4252014 0l-8.850372 8.850403l-8.850403 -8.850403l4.4252014 0l0 -21.039368z" fill-rule="evenodd"/><path stroke="#000000" stroke-width="1.0" stroke-linejoin="round" stroke-linecap="butt" d="m273.18634 368.03598l0 21.039368l4.4252014 0l-8.850372 8.850403l-8.850403 -8.850403l4.4252014 0l0 -21.039368z" fill-rule="evenodd"/><path fill="#fff2cc" d="m273.18634 498.05173l0 21.039337l4.4252014 0l-8.850372 8.850403l-8.850403 -8.850403l4.4252014 0l0 -21.039337z" fill-rule="evenodd"/><path stroke="#000000" stroke-width="1.0" stroke-linejoin="round" stroke-linecap="butt" d="m273.18634 498.05173l0 21.039337l4.4252014 0l-8.850372 8.850403l-8.850403 -8.850403l4.4252014 0l0 -21.039337z" fill-rule="evenodd"/><path fill="#fff2cc" d="m273.18634 237.36668l0 21.039383l4.4252014 0l-8.850372 8.850372l-8.850403 -8.850372l4.4252014 0l0 -21.039383z" fill-rule="evenodd"/><path stroke="#000000" stroke-width="1.0" stroke-linejoin="round" stroke-linecap="butt" d="m273.18634 237.36668l0 21.039383l4.4252014 0l-8.850372 8.850372l-8.850403 -8.850372l4.4252014 0l0 -21.039383z" fill-rule="evenodd"/><path fill="#cfe2f3" d="m273.18634 106.91524l0 21.039375l4.4252014 0l-8.850372 8.850395l-8.850403 -8.850395l4.4252014 0l0 -21.039375z" fill-rule="evenodd"/><path stroke="#000000" stroke-width="1.0" stroke-linejoin="round" stroke-linecap="butt" d="m273.18634 106.91524l0 21.039375l4.4252014 0l-8.850372 8.850395l-8.850403 -8.850395l4.4252014 0l0 -21.039375z" fill-rule="evenodd"/><path fill="#cfe2f3" d="m405.2651 61.059055l-36.944885 0l0 4.4251976l-8.850403 -8.850395l8.850403 -8.850391l0 4.425194l36.944885 0z" fill-rule="evenodd"/><path stroke="#000000" stroke-width="1.0" stroke-linejoin="round" stroke-linecap="butt" d="m405.2651 61.059055l-36.944885 0l0 4.4251976l-8.850403 -8.850395l8.850403 -8.850391l0 4.425194l36.944885 0z" fill-rule="evenodd"/><path fill="#d9ead3" d="m358.76642 481.14304l90.936584 0c7.4653015 0 13.51709 -6.0517883 13.51709 -13.51709l0 -5.209839l5.3730774 0l-9.534424 -9.367554l-9.534424 9.367554l5.3730774 0l0 5.209839l0 0c0 2.8687744 -2.3256226 5.194397 -5.194397 5.194397l-90.936584 0z" fill-rule="evenodd"/><path stroke="#999999" stroke-width="1.0" stroke-linejoin="round" stroke-linecap="butt" stroke-dasharray="4.0,3.0" d="m358.76642 481.14304l90.936584 0c7.4653015 0 13.51709 -6.0517883 13.51709 -13.51709l0 -5.209839l5.3730774 0l-9.534424 -9.367554l-9.534424 9.367554l5.3730774 0l0 5.209839l0 0c0 2.8687744 -2.3256226 5.194397 -5.194397 5.194397l-90.936584 0z" fill-rule="evenodd"/><path fill="#d9ead3" d="m464.11548 362.20078l0 -15.019684l0 0c0 -8.2951355 -6.7245483 -15.019684 -15.019684 -15.019684l-81.75195 0l0 -4.291321l-8.582672 8.582672l8.582672 8.582672l0 -4.2913513l81.75195 0l0 0c3.5550537 0 6.4370117 2.881958 6.4370117 6.4370117l0 15.019684z" fill-rule="evenodd"/><path stroke="#999999" stroke-width="1.0" stroke-linejoin="round" stroke-linecap="butt" stroke-dasharray="4.0,3.0" d="m464.11548 362.20078l0 -15.019684l0 0c0 -8.2951355 -6.7245483 -15.019684 -15.019684 -15.019684l-81.75195 0l0 -4.291321l-8.582672 8.582672l8.582672 8.582672l0 -4.2913513l81.75195 0l0 0c3.5550537 0 6.4370117 2.881958 6.4370117 6.4370117l0 15.019684z" fill-rule="evenodd"/><path fill="#d9ead3" d="m429.2593 365.65878l0 0c0 6.894867 23.894592 12.484253 53.370087 12.484253c29.475464 0 53.370056 -5.589386 53.370056 -12.484253l0 74.90552c0 6.894867 -23.894592 12.484253 -53.370056 12.484253c-29.475494 0 -53.370087 -5.589386 -53.370087 -12.484253z" fill-rule="evenodd"/><path fill="#e8f2e4" d="m429.2593 365.65878l0 0c0 -6.894867 23.894592 -12.484253 53.370087 -12.484253c29.475464 0 53.370056 5.589386 53.370056 12.484253l0 0c0 6.894867 -23.894592 12.484253 -53.370056 12.484253c-29.475494 0 -53.370087 -5.589386 -53.370087 -12.484253z" fill-rule="evenodd"/><path fill="#000000" fill-opacity="0.0" d="m535.99945 365.65878l0 0c0 6.894867 -23.894592 12.484253 -53.370056 12.484253c-29.475494 0 -53.370087 -5.589386 -53.370087 -12.484253l0 0c0 -6.894867 23.894592 -12.484253 53.370087 -12.484253c29.475464 0 53.370056 5.589386 53.370056 12.484253l0 74.90552c0 6.894867 -23.894592 12.484253 -53.370056 12.484253c-29.475494 0 -53.370087 -5.589386 -53.370087 -12.484253l0 -74.90552" fill-rule="evenodd"/><path stroke="#999999" stroke-width="1.0" stroke-linejoin="round" stroke-linecap="butt" stroke-dasharray="4.0,3.0" d="m535.99945 365.65878l0 0c0 6.894867 -23.894592 12.484253 -53.370056 12.484253c-29.475494 0 -53.370087 -5.589386 -53.370087 -12.484253l0 0c0 -6.894867 23.894592 -12.484253 53.370087 -12.484253c29.475464 0 53.370056 5.589386 53.370056 12.484253l0 74.90552c0 6.894867 -23.894592 12.484253 -53.370056 12.484253c-29.475494 0 -53.370087 -5.589386 -53.370087 -12.484253l0 -74.90552" fill-rule="evenodd"/><path fill="#999999" d="m466.49097 415.2893q-0.5 0.21875 -0.90625 0.421875q-0.40625 0.1875 -1.0625 0.390625q-0.546875 0.171875 -1.203125 0.296875q-0.65625 0.125 -1.4375 0.125q-1.46875 0 -2.6875 -0.40625q-1.203125 -0.421875 -2.09375 -1.3125q-0.875 -0.859375 -1.375 -2.1875q-0.484375 -1.34375 -0.484375 -3.109375q0 -1.671875 0.46875 -3.0q0.484375 -1.328125 1.375 -2.234375q0.859375 -0.875 2.078125 -1.34375q1.234375 -0.46875 2.734375 -0.46875q1.09375 0 2.171875 0.265625q1.09375 0.265625 2.421875 0.9375l0 2.140625l-0.140625 0q-1.109375 -0.953125 -2.21875 -1.375q-1.09375 -0.421875 -2.359375 -0.421875q-1.03125 0 -1.859375 0.328125q-0.8125 0.328125 -1.46875 1.03125q-0.625 0.6875 -0.984375 1.734375q-0.34375 1.03125 -0.34375 2.40625q0 1.421875 0.390625 2.453125q0.390625 1.03125 1.0 1.6875q0.640625 0.671875 1.484375 1.0q0.859375 0.3125 1.796875 0.3125q1.3125 0 2.4375 -0.4375q1.140625 -0.453125 2.140625 -1.34375l0.125 0l0 2.109375zm10.323456 0.984375l-1.703125 0l0 -1.078125q-0.234375 0.15625 -0.625 0.4375q-0.375 0.265625 -0.75 0.4375q-0.421875 0.203125 -0.984375 0.34375q-0.546875 0.140625 -1.296875 0.140625q-1.375 0 -2.328125 -0.90625q-0.953125 -0.921875 -0.953125 -2.328125q0 -1.15625 0.484375 -1.859375q0.5 -0.71875 1.421875 -1.140625q0.9375 -0.40625 2.234375 -0.546875q1.296875 -0.15625 2.796875 -0.21875l0 -0.265625q0 -0.578125 -0.203125 -0.953125q-0.203125 -0.390625 -0.59375 -0.609375q-0.359375 -0.21875 -0.875 -0.28125q-0.5 -0.078125 -1.0625 -0.078125q-0.671875 0 -1.5 0.1875q-0.828125 0.171875 -1.71875 0.5l-0.09375 0l0 -1.734375q0.5 -0.140625 1.453125 -0.296875q0.953125 -0.171875 1.875 -0.171875q1.0625 0 1.859375 0.1875q0.796875 0.171875 1.390625 0.59375q0.5625 0.421875 0.859375 1.09375q0.3125 0.65625 0.3125 1.640625l0 6.90625zm-1.703125 -2.5l0 -2.84375q-0.78125 0.046875 -1.84375 0.140625q-1.0625 0.09375 -1.6875 0.265625q-0.734375 0.203125 -1.1875 0.65625q-0.453125 0.4375 -0.453125 1.21875q0 0.859375 0.515625 1.3125q0.53125 0.4375 1.625 0.4375q0.890625 0 1.640625 -0.34375q0.75 -0.359375 1.390625 -0.84375zm12.517181 1.859375q-0.84375 0.40625 -1.625 0.640625q-0.765625 0.234375 -1.625 0.234375q-1.109375 0 -2.03125 -0.328125q-0.921875 -0.328125 -1.578125 -0.984375q-0.65625 -0.65625 -1.03125 -1.65625q-0.359375 -1.0 -0.359375 -2.34375q0 -2.484375 1.375 -3.90625q1.375 -1.421875 3.625 -1.421875q0.875 0 1.71875 0.25q0.84375 0.234375 1.53125 0.59375l0 1.90625l-0.078125 0q-0.796875 -0.609375 -1.625 -0.9375q-0.828125 -0.328125 -1.625 -0.328125q-1.453125 0 -2.296875 0.984375q-0.84375 0.96875 -0.84375 2.859375q0 1.84375 0.8125 2.84375q0.828125 0.984375 2.328125 0.984375q0.515625 0 1.046875 -0.140625q0.546875 -0.140625 0.96875 -0.359375q0.375 -0.1875 0.703125 -0.40625q0.328125 -0.21875 0.53125 -0.359375l0.078125 0l0 1.875zm10.704224 0.640625l-1.703125 0l0 -5.796875q0 -0.703125 -0.09375 -1.3125q-0.078125 -0.609375 -0.296875 -0.96875q-0.21875 -0.375 -0.65625 -0.5625q-0.421875 -0.1875 -1.109375 -0.1875q-0.703125 0 -1.46875 0.34375q-0.765625 0.34375 -1.46875 0.890625l0 7.59375l-1.703125 0l0 -14.171875l1.703125 0l0 5.125q0.8125 -0.65625 1.65625 -1.03125q0.859375 -0.375 1.765625 -0.375q1.65625 0 2.515625 1.0q0.859375 0.984375 0.859375 2.84375l0 6.609375zm11.821533 -4.90625l-7.5 0q0 0.9375 0.28125 1.640625q0.28125 0.6875 0.78125 1.140625q0.46875 0.4375 1.109375 0.65625q0.65625 0.21875 1.453125 0.21875q1.03125 0 2.078125 -0.421875q1.0625 -0.421875 1.5 -0.8125l0.09375 0l0 1.859375q-0.859375 0.375 -1.765625 0.625q-0.90625 0.234375 -1.890625 0.234375q-2.53125 0 -3.953125 -1.359375q-1.421875 -1.375 -1.421875 -3.90625q0 -2.5 1.359375 -3.953125q1.359375 -1.46875 3.578125 -1.46875q2.0625 0 3.171875 1.203125q1.125 1.203125 1.125 3.40625l0 0.9375zm-1.671875 -1.3125q0 -1.34375 -0.671875 -2.078125q-0.671875 -0.75 -2.03125 -0.75q-1.375 0 -2.203125 0.8125q-0.8125 0.8125 -0.921875 2.015625l5.828125 0z" fill-rule="nonzero"/><path fill="#fff2cc" d="m178.7559 583.7782l-65.338585 0l0 0c-28.066498 0 -50.818893 -22.75238 -50.818893 -50.81891l0 -295.77753c0 -13.478012 5.3541183 -26.403992 14.884506 -35.934387c9.5303955 -9.5303955 22.456383 -14.884506 35.934387 -14.884506l52.186073 0l0 -10.080734l13.152512 14.57312l-13.152512 14.57312l0 -10.080734l-52.186073 0l0 0c-23.10434 0 -41.834114 18.729782 -41.834114 41.83412l0 295.77753l0 0c0 23.10437 18.729774 41.834167 41.834114 41.834167l65.338585 0z" fill-rule="evenodd"/><path stroke="#000000" stroke-width="1.0" stroke-linejoin="round" stroke-linecap="butt" d="m178.7559 583.7782l-65.338585 0l0 0c-28.066498 0 -50.818893 -22.75238 -50.818893 -50.81891l0 -295.77753c0 -13.478012 5.3541183 -26.403992 14.884506 -35.934387c9.5303955 -9.5303955 22.456383 -14.884506 35.934387 -14.884506l52.186073 0l0 -10.080734l13.152512 14.57312l-13.152512 14.57312l0 -10.080734l-52.186073 0l0 0c-23.10434 0 -41.834114 18.729782 -41.834114 41.83412l0 295.77753l0 0c0 23.10437 18.729774 41.834167 41.834114 41.834167l65.338585 0z" fill-rule="evenodd"/><path fill="#000000" fill-opacity="0.0" d="m20.577427 456.07742l0 -152.09448l42.015747 0l0 152.09448z" fill-rule="evenodd"/><path fill="#000000" d="m43.622425 424.85538q0.796875 0 1.578125 0.375q0.765625 0.359375 1.296875 1.015625q0.59375 0.734375 0.921875 1.703125q0.328125 0.96875 0.328125 2.34375q0 1.46875 -0.265625 2.640625q-0.28125 1.15625 -0.828125 2.375l-2.25 0l0 -0.125q0.859375 -1.03125 1.328125 -2.375q0.453125 -1.359375 0.453125 -2.546875q0 -1.671875 -0.625 -2.59375q-0.625 -0.9375 -1.671875 -0.9375q-0.90625 0 -1.328125 0.4375q-0.4375 0.4375 -0.671875 1.34375q-0.1875 0.6875 -0.296875 1.484375q-0.125 0.796875 -0.3125 1.6875q-0.375 1.796875 -1.296875 2.671875q-0.921875 0.875 -2.40625 0.875q-1.71875 0 -2.796875 -1.4375q-1.09375 -1.453125 -1.09375 -3.65625q0 -1.4375 0.28125 -2.625q0.265625 -1.203125 0.671875 -2.109375l2.125 0l0 0.125q-0.65625 0.765625 -1.078125 2.03125q-0.4375 1.265625 -0.4375 2.578125q0 1.453125 0.609375 2.34375q0.59375 0.875 1.53125 0.875q0.859375 0 1.34375 -0.4375q0.46875 -0.4375 0.734375 -1.546875q0.125 -0.578125 0.3125 -1.65625q0.171875 -1.078125 0.375 -1.828125q0.390625 -1.5 1.203125 -2.265625q0.8125 -0.765625 2.265625 -0.765625zm-1.03125 -11.284546l0 7.5q0.9375 0 1.640625 -0.28125q0.6875 -0.28125 1.140625 -0.78125q0.4375 -0.46875 0.65625 -1.109375q0.21875 -0.65625 0.21875 -1.453125q0 -1.03125 -0.421875 -2.078125q-0.421875 -1.0625 -0.8125 -1.5l0 -0.09375l1.859375 0q0.375 0.859375 0.625 1.765625q0.234375 0.90625 0.234375 1.890625q0 2.53125 -1.359375 3.953125q-1.375 1.421875 -3.90625 1.421875q-2.5 0 -3.953125 -1.359375q-1.46875 -1.359375 -1.46875 -3.578125q0 -2.0625 1.203125 -3.171875q1.203125 -1.125 3.40625 -1.125l0.9375 0zm-1.3125 1.671875q-1.34375 0 -2.078125 0.671875q-0.75 0.671875 -0.75 2.03125q0 1.375 0.8125 2.203125q0.8125 0.8125 2.015625 0.921875l0 -5.828125zm-2.09375 -10.613586l0 0.09375q-0.09375 0.375 -0.125 0.734375q-0.046875 0.359375 -0.046875 0.859375q0 0.78125 0.359375 1.53125q0.34375 0.734375 0.90625 1.421875l7.21875 0l0 1.703125l-10.171875 0l0 -1.703125l1.5 0q-0.8125 -1.03125 -1.15625 -1.796875q-0.34375 -0.78125 -0.34375 -1.59375q0 -0.453125 0.03125 -0.65625q0.015625 -0.203125 0.078125 -0.59375l1.75 0zm-1.859375 -10.414825l10.171875 4.109375l0 1.734375l-10.171875 4.078125l0 -1.84375l8.09375 -3.15625l-8.09375 -3.125l0 -1.796875zm5.265625 -10.595398l0 7.5q0.9375 0 1.640625 -0.28125q0.6875 -0.28125 1.140625 -0.78125q0.4375 -0.46875 0.65625 -1.109375q0.21875 -0.65625 0.21875 -1.453125q0 -1.03125 -0.421875 -2.078125q-0.421875 -1.0625 -0.8125 -1.5l0 -0.09375l1.859375 0q0.375 0.859375 0.625 1.765625q0.234375 0.90625 0.234375 1.890625q0 2.53125 -1.359375 3.953125q-1.375 1.421875 -3.90625 1.421875q-2.5 0 -3.953125 -1.359375q-1.46875 -1.359375 -1.46875 -3.578125q0 -2.0625 1.203125 -3.171875q1.203125 -1.125 3.40625 -1.125l0.9375 0zm-1.3125 1.671875q-1.34375 0 -2.078125 0.671875q-0.75 0.671875 -0.75 2.03125q0 1.375 0.8125 2.203125q0.8125 0.8125 2.015625 0.921875l0 -5.828125zm-2.09375 -10.613586l0 0.09375q-0.09375 0.375 -0.125 0.734375q-0.046875 0.359375 -0.046875 0.859375q0 0.78125 0.359375 1.53125q0.34375 0.734375 0.90625 1.421875l7.21875 0l0 1.703125l-10.171875 0l0 -1.703125l1.5 0q-0.8125 -1.03125 -1.15625 -1.796875q-0.34375 -0.78125 -0.34375 -1.59375q0 -0.453125 0.03125 -0.65625q0.015625 -0.203125 0.078125 -0.59375l1.75 0zm8.3125 -16.895538l0 8.578125l-13.5625 0l0 -1.796875l11.953125 0l0 -6.78125l1.609375 0zm-5.078125 -10.337952q2.484375 0 3.921875 1.28125q1.4375 1.265625 1.4375 3.40625q0 2.171875 -1.4375 3.4375q-1.4375 1.265625 -3.921875 1.265625q-2.484375 0 -3.921875 -1.265625q-1.453125 -1.265625 -1.453125 -3.4375q0 -2.140625 1.453125 -3.40625q1.4375 -1.28125 3.921875 -1.28125zm0 1.765625q-1.984375 0 -2.9375 0.78125q-0.96875 0.765625 -0.96875 2.140625q0 1.40625 0.96875 2.171875q0.953125 0.765625 2.9375 0.765625q1.90625 0 2.90625 -0.765625q0.984375 -0.78125 0.984375 -2.171875q0 -1.359375 -0.984375 -2.140625q-0.984375 -0.78125 -2.90625 -0.78125zm0 -13.088745q2.484375 0 3.921875 1.28125q1.4375 1.265625 1.4375 3.40625q0 2.171875 -1.4375 3.4375q-1.4375 1.265625 -3.921875 1.265625q-2.484375 0 -3.921875 -1.265625q-1.453125 -1.265625 -1.453125 -3.4375q0 -2.140625 1.453125 -3.40625q1.4375 -1.28125 3.921875 -1.28125zm0 1.765625q-1.984375 0 -2.9375 0.78125q-0.96875 0.765625 -0.96875 2.140625q0 1.40625 0.96875 2.171875q0.953125 0.765625 2.9375 0.765625q1.90625 0 2.90625 -0.765625q0.984375 -0.78125 0.984375 -2.171875q0 -1.359375 -0.984375 -2.140625q-0.984375 -0.78125 -2.90625 -0.78125zm-0.125 -13.369965q1.234375 0 2.265625 0.359375q1.015625 0.359375 1.71875 1.0q0.6875 0.59375 1.0625 1.421875q0.359375 0.8125 0.359375 1.71875q0 0.796875 -0.171875 1.4375q-0.171875 0.640625 -0.546875 1.3125l4.265625 0l0 1.703125l-13.921875 0l0 -1.703125l1.0625 0q-0.578125 -0.6875 -0.953125 -1.53125q-0.390625 -0.859375 -0.390625 -1.828125q0 -1.84375 1.390625 -2.859375q1.390625 -1.03125 3.859375 -1.03125zm0.03125 1.765625q-1.828125 0 -2.734375 0.640625q-0.921875 0.625 -0.921875 1.921875q0 0.734375 0.328125 1.484375q0.3125 0.75 0.828125 1.4375l5.765625 0q0.328125 -0.734375 0.453125 -1.25q0.109375 -0.53125 0.109375 -1.203125q0 -1.421875 -0.953125 -2.21875q-0.96875 -0.8125 -2.875 -0.8125z" fill-rule="nonzero"/><path fill="#000000" fill-opacity="0.0" d="m81.314964 414.563l0 -168.59842l42.015747 0l0 168.59842z" fill-rule="evenodd"/><path fill="#000000" d="m104.06309 390.4141q1.015625 0 1.796875 0.390625q0.765625 0.375 1.265625 1.015625q0.59375 0.765625 0.859375 1.6875q0.25 0.90625 0.25 2.328125l0 4.796875l-13.5625 0l0 -4.015625q0 -1.484375 0.109375 -2.21875q0.109375 -0.734375 0.453125 -1.40625q0.390625 -0.75 1.015625 -1.078125q0.609375 -0.34375 1.46875 -0.34375q0.953125 0 1.640625 0.5q0.671875 0.484375 1.09375 1.296875l0.0625 0q0.28125 -1.375 1.21875 -2.15625q0.921875 -0.796875 2.328125 -0.796875zm-6.109375 3.03125q-0.5 0 -0.828125 0.171875q-0.34375 0.15625 -0.546875 0.515625q-0.25 0.4375 -0.3125 1.046875q-0.0625 0.609375 -0.0625 1.5l0 2.15625l3.921875 0l0 -2.328125q0 -0.859375 -0.078125 -1.359375q-0.09375 -0.5 -0.359375 -0.921875q-0.28125 -0.421875 -0.703125 -0.59375q-0.4375 -0.1875 -1.03125 -0.1875zm6.1875 -1.15625q-0.828125 0 -1.3125 0.25q-0.484375 0.234375 -0.8125 0.890625q-0.234375 0.4375 -0.296875 1.0625q-0.078125 0.625 -0.078125 1.515625l0 2.828125l5.046875 0l0 -2.390625q0 -1.1875 -0.109375 -1.9375q-0.125 -0.75 -0.453125 -1.234375q-0.359375 -0.515625 -0.8125 -0.75q-0.453125 -0.234375 -1.171875 -0.234375zm4.09375 -12.211609l0 1.703125l-1.078125 0q0.15625 0.234375 0.4375 0.625q0.265625 0.375 0.4375 0.75q0.203125 0.421875 0.34375 0.984375q0.140625 0.546875 0.140625 1.296875q0 1.375 -0.90625 2.328125q-0.921875 0.953125 -2.328125 0.953125q-1.15625 0 -1.859375 -0.484375q-0.71875 -0.5 -1.140625 -1.421875q-0.40625 -0.9375 -0.546875 -2.234375q-0.15625 -1.296875 -0.21875 -2.796875l-0.265625 0q-0.578125 0 -0.953125 0.203125q-0.390625 0.203125 -0.609375 0.59375q-0.21875 0.359375 -0.28125 0.875q-0.078125 0.5 -0.078125 1.0625q0 0.671875 0.1875 1.5q0.171875 0.828125 0.5 1.71875l0 0.09375l-1.734375 0q-0.140625 -0.5 -0.296875 -1.453125q-0.171875 -0.953125 -0.171875 -1.875q0 -1.0625 0.1875 -1.859375q0.171875 -0.796875 0.59375 -1.390625q0.421875 -0.5625 1.09375 -0.859375q0.65625 -0.3125 1.640625 -0.3125l6.90625 0zm-2.5 1.703125l-2.84375 0q0.046875 0.78125 0.140625 1.84375q0.09375 1.0625 0.265625 1.6875q0.203125 0.734375 0.65625 1.1875q0.4375 0.453125 1.21875 0.453125q0.859375 0 1.3125 -0.515625q0.4375 -0.53125 0.4375 -1.625q0 -0.890625 -0.34375 -1.640625q-0.359375 -0.75 -0.84375 -1.390625zm2.40625 -10.282806q0.125 0.484375 0.203125 1.0625q0.09375 0.5625 0.09375 1.0q0 1.5625 -0.828125 2.375q-0.84375 0.8125 -2.703125 0.8125l-5.40625 0l0 1.15625l-1.4375 0l0 -1.15625l-2.921875 0l0 -1.71875l2.921875 0l0 -3.53125l1.4375 0l0 3.53125l4.640625 0q0.796875 0 1.25 -0.03125q0.453125 -0.03125 0.84375 -0.25q0.359375 -0.203125 0.53125 -0.546875q0.171875 -0.359375 0.171875 -1.078125q0 -0.421875 -0.125 -0.875q-0.125 -0.453125 -0.203125 -0.65625l0 -0.09375l1.53125 0zm-0.546875 -9.585724q0.40625 0.84375 0.640625 1.625q0.234375 0.765625 0.234375 1.625q0 1.109375 -0.328125 2.03125q-0.328125 0.921875 -0.984375 1.578125q-0.65625 0.65625 -1.65625 1.03125q-1.0 0.359375 -2.34375 0.359375q-2.484375 0 -3.90625 -1.375q-1.421875 -1.375 -1.421875 -3.625q0 -0.875 0.25 -1.71875q0.234375 -0.84375 0.59375 -1.53125l1.90625 0l0 0.078125q-0.609375 0.796875 -0.9375 1.625q-0.328125 0.828125 -0.328125 1.625q0 1.453125 0.984375 2.296875q0.96875 0.84375 2.859375 0.84375q1.84375 0 2.84375 -0.8125q0.984375 -0.828125 0.984375 -2.328125q0 -0.515625 -0.140625 -1.046875q-0.140625 -0.546875 -0.359375 -0.96875q-0.1875 -0.375 -0.40625 -0.703125q-0.21875 -0.328125 -0.359375 -0.53125l0 -0.078125l1.875 0zm0.640625 -10.704224l0 1.703125l-5.796875 0q-0.703125 0 -1.3125 0.09375q-0.609375 0.078125 -0.96875 0.296875q-0.375 0.21875 -0.5625 0.65625q-0.1875 0.421875 -0.1875 1.109375q0 0.703125 0.34375 1.46875q0.34375 0.765625 0.890625 1.46875l7.59375 0l0 1.703125l-14.171875 0l0 -1.703125l5.125 0q-0.65625 -0.8125 -1.03125 -1.65625q-0.375 -0.859375 -0.375 -1.765625q0 -1.65625 1.0 -2.515625q0.984375 -0.859375 2.84375 -0.859375l6.609375 0zm0 -21.224121l0 2.34375l-5.390625 4.53125l0 2.546875l5.390625 0l0 1.796875l-13.5625 0l0 -3.796875q0 -1.21875 0.15625 -2.03125q0.15625 -0.828125 0.578125 -1.484375q0.453125 -0.75 1.171875 -1.15625q0.703125 -0.421875 1.78125 -0.421875q1.46875 0 2.453125 0.75q0.984375 0.734375 1.484375 2.03125l5.9375 -5.109375zm-9.75 4.21875q-0.578125 0 -1.03125 0.203125q-0.453125 0.203125 -0.765625 0.6875q-0.265625 0.390625 -0.359375 0.921875q-0.109375 0.53125 -0.109375 1.265625l0 2.125l5.125 0l0 -1.828125q0 -0.84375 -0.15625 -1.484375q-0.15625 -0.640625 -0.5625 -1.09375q-0.375 -0.40625 -0.875 -0.59375q-0.5 -0.203125 -1.265625 -0.203125zm4.84375 -13.891174l0 7.5q0.9375 0 1.640625 -0.28125q0.6875 -0.28125 1.140625 -0.78125q0.4375 -0.46875 0.65625 -1.109375q0.21875 -0.65625 0.21875 -1.453125q0 -1.03125 -0.421875 -2.078125q-0.421875 -1.0625 -0.8125 -1.5l0 -0.09375l1.859375 0q0.375 0.859375 0.625 1.765625q0.234375 0.90625 0.234375 1.890625q0 2.53125 -1.359375 3.953125q-1.375 1.421875 -3.90625 1.421875q-2.5 0 -3.953125 -1.359375q-1.46875 -1.359375 -1.46875 -3.578125q0 -2.0625 1.203125 -3.171875q1.203125 -1.125 3.40625 -1.125l0.9375 0zm-1.3125 1.671875q-1.34375 0 -2.078125 0.671875q-0.75 0.671875 -0.75 2.03125q0 1.375 0.8125 2.203125q0.8125 0.8125 2.015625 0.921875l0 -5.828125zm9.96875 -12.519836l0 1.71875l-4.890625 0q0.671875 0.78125 1.015625 1.578125q0.328125 0.78125 0.328125 1.6875q0 1.8125 -1.390625 2.890625q-1.40625 1.078125 -3.875 1.078125q-1.3125 0 -2.3125 -0.375q-1.0 -0.375 -1.6875 -1.0q-0.671875 -0.59375 -1.03125 -1.40625q-0.359375 -0.8125 -0.359375 -1.71875q0 -0.8125 0.1875 -1.4375q0.171875 -0.640625 0.53125 -1.296875l-0.4375 -0.109375l0 -1.609375l13.921875 0zm-6.34375 1.71875l-5.75 0q-0.3125 0.703125 -0.4375 1.25q-0.140625 0.546875 -0.140625 1.1875q0 1.484375 1.015625 2.265625q1.0 0.765625 2.765625 0.765625q1.78125 0 2.75 -0.625q0.953125 -0.625 0.953125 -1.96875q0 -0.734375 -0.3125 -1.484375q-0.328125 -0.75 -0.84375 -1.390625zm2.59375 -13.529968l0 1.71875l-1.125 0q0.671875 0.859375 1.046875 1.65625q0.359375 0.796875 0.359375 1.75q0 1.609375 -0.96875 2.5q-0.984375 0.890625 -2.890625 0.890625l-6.59375 0l0 -1.71875l5.796875 0q0.765625 0 1.328125 -0.0625q0.546875 -0.078125 0.9375 -0.3125q0.390625 -0.25 0.578125 -0.640625q0.1875 -0.390625 0.1875 -1.140625q0 -0.671875 -0.34375 -1.453125q-0.359375 -0.78125 -0.890625 -1.46875l-7.59375 0l0 -1.71875l10.171875 0zm-4.90625 -11.884033l0 7.5q0.9375 0 1.640625 -0.28125q0.6875 -0.28125 1.140625 -0.78125q0.4375 -0.46875 0.65625 -1.109375q0.21875 -0.65625 0.21875 -1.453125q0 -1.03125 -0.421875 -2.078125q-0.421875 -1.0625 -0.8125 -1.5l0 -0.09375l1.859375 0q0.375 0.859375 0.625 1.765625q0.234375 0.90625 0.234375 1.890625q0 2.53125 -1.359375 3.953125q-1.375 1.421875 -3.90625 1.421875q-2.5 0 -3.953125 -1.359375q-1.46875 -1.359375 -1.46875 -3.578125q0 -2.0625 1.203125 -3.171875q1.203125 -1.125 3.40625 -1.125l0.9375 0zm-1.3125 1.671875q-1.34375 0 -2.078125 0.671875q-0.75 0.671875 -0.75 2.03125q0 1.375 0.8125 2.203125q0.8125 0.8125 2.015625 0.921875l0 -5.828125zm3.28125 -11.535461q1.390625 0 2.296875 1.15625q0.890625 1.140625 0.890625 3.140625q0 1.125 -0.265625 2.078125q-0.28125 0.9375 -0.59375 1.578125l-1.921875 0l0 -0.09375q0.609375 -0.8125 0.96875 -1.796875q0.359375 -1.0 0.359375 -1.90625q0 -1.140625 -0.359375 -1.765625q-0.375 -0.640625 -1.15625 -0.640625q-0.59375 0 -0.90625 0.34375q-0.3125 0.34375 -0.53125 1.328125q-0.078125 0.359375 -0.1875 0.953125q-0.109375 0.59375 -0.234375 1.078125q-0.359375 1.328125 -1.046875 1.890625q-0.6875 0.5625 -1.6875 0.5625q-0.625 0 -1.1875 -0.25q-0.5625 -0.265625 -0.984375 -0.796875q-0.4375 -0.515625 -0.6875 -1.296875q-0.25 -0.796875 -0.25 -1.765625q0 -0.90625 0.234375 -1.84375q0.21875 -0.9375 0.53125 -1.546875l1.828125 0l0 0.078125q-0.484375 0.65625 -0.8125 1.59375q-0.328125 0.9375 -0.328125 1.84375q0 0.9375 0.359375 1.59375q0.359375 0.640625 1.0625 0.640625q0.625 0 0.953125 -0.390625q0.3125 -0.390625 0.515625 -1.234375q0.109375 -0.484375 0.21875 -1.0625q0.109375 -0.59375 0.203125 -0.984375q0.265625 -1.1875 0.9375 -1.84375q0.671875 -0.640625 1.78125 -0.640625zm2.84375 -7.7354736q0.125 0.484375 0.203125 1.0625q0.09375 0.5625 0.09375 1.0q0 1.5625 -0.828125 2.375q-0.84375 0.8125 -2.703125 0.8125l-5.40625 0l0 1.15625l-1.4375 0l0 -1.15625l-2.921875 0l0 -1.71875l2.921875 0l0 -3.53125l1.4375 0l0 3.53125l4.640625 0q0.796875 0 1.25 -0.03125q0.453125 -0.03125 0.84375 -0.25q0.359375 -0.203125 0.53125 -0.546875q0.171875 -0.359375 0.171875 -1.078125q0 -0.421875 -0.125 -0.875q-0.125 -0.453125 -0.203125 -0.65625l0 -0.09375l1.53125 0zm-2.84375 -9.335724q1.390625 0 2.296875 1.15625q0.890625 1.140625 0.890625 3.140625q0 1.125 -0.265625 2.078125q-0.28125 0.9375 -0.59375 1.578125l-1.921875 0l0 -0.09375q0.609375 -0.8125 0.96875 -1.796875q0.359375 -1.0 0.359375 -1.90625q0 -1.140625 -0.359375 -1.765625q-0.375 -0.640625 -1.15625 -0.640625q-0.59375 0 -0.90625 0.34375q-0.3125 0.34375 -0.53125 1.328125q-0.078125 0.359375 -0.1875 0.953125q-0.109375 0.59375 -0.234375 1.078125q-0.359375 1.328125 -1.046875 1.890625q-0.6875 0.5625 -1.6875 0.5625q-0.625 0 -1.1875 -0.25q-0.5625 -0.265625 -0.984375 -0.796875q-0.4375 -0.515625 -0.6875 -1.296875q-0.25 -0.796875 -0.25 -1.765625q0 -0.90625 0.234375 -1.84375q0.21875 -0.9375 0.53125 -1.546875l1.828125 0l0 0.078125q-0.484375 0.65625 -0.8125 1.59375q-0.328125 0.9375 -0.328125 1.84375q0 0.9375 0.359375 1.59375q0.359375 0.640625 1.0625 0.640625q0.625 0 0.953125 -0.390625q0.3125 -0.390625 0.515625 -1.234375q0.109375 -0.484375 0.21875 -1.0625q0.109375 -0.59375 0.203125 -0.984375q0.265625 -1.1875 0.9375 -1.84375q0.671875 -0.640625 1.78125 -0.640625z" fill-rule="nonzero"/><path fill="#f3f3f3" d="m464.12073 270.75723l0 15.019684l0 0c0 8.2951355 -6.7245483 15.019684 -15.019684 15.019684l-81.75195 0l0 4.291321l-8.582672 -8.582672l8.582672 -8.582672l0 4.291321l81.75195 0l0 0c3.5550537 0 6.4370117 -2.8819275 6.4370117 -6.436981l0 -15.019684z" fill-rule="evenodd"/><path stroke="#999999" stroke-width="1.0" stroke-linejoin="round" stroke-linecap="butt" stroke-dasharray="4.0,3.0" d="m464.12073 270.75723l0 15.019684l0 0c0 8.2951355 -6.7245483 15.019684 -15.019684 15.019684l-81.75195 0l0 4.291321l-8.582672 -8.582672l8.582672 -8.582672l0 4.291321l81.75195 0l0 0c3.5550537 0 6.4370117 -2.8819275 6.4370117 -6.436981l0 -15.019684z" fill-rule="evenodd"/><path fill="#f3f3f3" d="m429.2593 188.76509l0 0c0 6.894867 23.894592 12.484253 53.370087 12.484253c29.475464 0 53.370056 -5.589386 53.370056 -12.484253l0 74.9055c0 6.894867 -23.894592 12.484253 -53.370056 12.484253c-29.475494 0 -53.370087 -5.589386 -53.370087 -12.484253z" fill-rule="evenodd"/><path fill="#f7f7f7" d="m429.2593 188.76509l0 0c0 -6.894867 23.894592 -12.484253 53.370087 -12.484253c29.475464 0 53.370056 5.589386 53.370056 12.484253l0 0c0 6.894867 -23.894592 12.484253 -53.370056 12.484253c-29.475494 0 -53.370087 -5.589386 -53.370087 -12.484253z" fill-rule="evenodd"/><path fill="#000000" fill-opacity="0.0" d="m535.99945 188.76509l0 0c0 6.894867 -23.894592 12.484253 -53.370056 12.484253c-29.475494 0 -53.370087 -5.589386 -53.370087 -12.484253l0 0c0 -6.894867 23.894592 -12.484253 53.370087 -12.484253c29.475464 0 53.370056 5.589386 53.370056 12.484253l0 74.9055c0 6.894867 -23.894592 12.484253 -53.370056 12.484253c-29.475494 0 -53.370087 -5.589386 -53.370087 -12.484253l0 -74.9055" fill-rule="evenodd"/><path stroke="#999999" stroke-width="1.0" stroke-linejoin="round" stroke-linecap="butt" stroke-dasharray="4.0,3.0" d="m535.99945 188.76509l0 0c0 6.894867 -23.894592 12.484253 -53.370056 12.484253c-29.475494 0 -53.370087 -5.589386 -53.370087 -12.484253l0 0c0 -6.894867 23.894592 -12.484253 53.370087 -12.484253c29.475464 0 53.370056 5.589386 53.370056 12.484253l0 74.9055c0 6.894867 -23.894592 12.484253 -53.370056 12.484253c-29.475494 0 -53.370087 -5.589386 -53.370087 -12.484253l0 -74.9055" fill-rule="evenodd"/><path fill="#999999" d="m453.1471 228.37997l-1.8125 0l0 -11.6875l-3.765625 7.953125l-1.078125 0l-3.75 -7.953125l0 11.6875l-1.671875 0l0 -13.5625l2.453125 0l3.609375 7.546875l3.5 -7.546875l2.515625 0l0 13.5625zm12.019867 -4.90625l-7.5 0q0 0.9375 0.28125 1.640625q0.28125 0.6875 0.78125 1.140625q0.46875 0.4375 1.109375 0.65625q0.65625 0.21875 1.453125 0.21875q1.03125 0 2.078125 -0.421875q1.0625 -0.421875 1.5 -0.8125l0.09375 0l0 1.859375q-0.859375 0.375 -1.765625 0.625q-0.90625 0.234375 -1.890625 0.234375q-2.53125 0 -3.953125 -1.359375q-1.421875 -1.375 -1.421875 -3.90625q0 -2.5 1.359375 -3.953125q1.359375 -1.46875 3.578125 -1.46875q2.0625 0 3.171875 1.203125q1.125 1.203125 1.125 3.40625l0 0.9375zm-1.671875 -1.3125q0 -1.34375 -0.671875 -2.078125q-0.671875 -0.75 -2.03125 -0.75q-1.375 0 -2.203125 0.8125q-0.8125 0.8125 -0.921875 2.015625l5.828125 0zm9.551086 6.125q-0.484375 0.125 -1.0625 0.203125q-0.5625 0.09375 -1.0 0.09375q-1.5625 0 -2.375 -0.828125q-0.8125 -0.84375 -0.8125 -2.703125l0 -5.40625l-1.15625 0l0 -1.4375l1.15625 0l0 -2.921875l1.71875 0l0 2.921875l3.53125 0l0 1.4375l-3.53125 0l0 4.640625q0 0.796875 0.03125 1.25q0.03125 0.453125 0.25 0.84375q0.203125 0.359375 0.546875 0.53125q0.359375 0.171875 1.078125 0.171875q0.421875 0 0.875 -0.125q0.453125 -0.125 0.65625 -0.203125l0.09375 0l0 1.53125zm9.976379 0.09375l-1.703125 0l0 -1.078125q-0.234375 0.15625 -0.625 0.4375q-0.375 0.265625 -0.75 0.4375q-0.421875 0.203125 -0.984375 0.34375q-0.546875 0.140625 -1.296875 0.140625q-1.375 0 -2.328125 -0.90625q-0.953125 -0.921875 -0.953125 -2.328125q0 -1.15625 0.484375 -1.859375q0.5 -0.71875 1.421875 -1.140625q0.9375 -0.40625 2.234375 -0.546875q1.296875 -0.15625 2.796875 -0.21875l0 -0.265625q0 -0.578125 -0.203125 -0.953125q-0.203125 -0.390625 -0.59375 -0.609375q-0.359375 -0.21875 -0.875 -0.28125q-0.5 -0.078125 -1.0625 -0.078125q-0.671875 0 -1.5 0.1875q-0.828125 0.171875 -1.71875 0.5l-0.09375 0l0 -1.734375q0.5 -0.140625 1.453125 -0.296875q0.953125 -0.171875 1.875 -0.171875q1.0625 0 1.859375 0.1875q0.796875 0.171875 1.390625 0.59375q0.5625 0.421875 0.859375 1.09375q0.3125 0.65625 0.3125 1.640625l0 6.90625zm-1.703125 -2.5l0 -2.84375q-0.78125 0.046875 -1.84375 0.140625q-1.0625 0.09375 -1.6875 0.265625q-0.734375 0.203125 -1.1875 0.65625q-0.453125 0.4375 -0.453125 1.21875q0 0.859375 0.515625 1.3125q0.53125 0.4375 1.625 0.4375q0.890625 0 1.640625 -0.34375q0.75 -0.359375 1.390625 -0.84375zm13.251556 2.5l-1.71875 0l0 -1.0625q-0.734375 0.640625 -1.53125 1.0q-0.796875 0.34375 -1.734375 0.34375q-1.828125 0 -2.90625 -1.390625q-1.0625 -1.40625 -1.0625 -3.90625q0 -1.28125 0.359375 -2.296875q0.375 -1.015625 1.0 -1.71875q0.625 -0.703125 1.453125 -1.0625q0.828125 -0.359375 1.703125 -0.359375q0.796875 0 1.421875 0.171875q0.625 0.15625 1.296875 0.515625l0 -4.40625l1.71875 0l0 14.171875zm-1.71875 -2.5l0 -5.84375q-0.6875 -0.3125 -1.234375 -0.421875q-0.546875 -0.125 -1.1875 -0.125q-1.4375 0 -2.25 1.0q-0.796875 1.0 -0.796875 2.84375q0 1.8125 0.609375 2.765625q0.625 0.9375 2.0 0.9375q0.71875 0 1.46875 -0.328125q0.75 -0.328125 1.390625 -0.828125zm12.998718 2.5l-1.703125 0l0 -1.078125q-0.234375 0.15625 -0.625 0.4375q-0.375 0.265625 -0.75 0.4375q-0.421875 0.203125 -0.984375 0.34375q-0.546875 0.140625 -1.296875 0.140625q-1.375 0 -2.328125 -0.90625q-0.953125 -0.921875 -0.953125 -2.328125q0 -1.15625 0.484375 -1.859375q0.5 -0.71875 1.421875 -1.140625q0.9375 -0.40625 2.234375 -0.546875q1.296875 -0.15625 2.796875 -0.21875l0 -0.265625q0 -0.578125 -0.203125 -0.953125q-0.203125 -0.390625 -0.59375 -0.609375q-0.359375 -0.21875 -0.875 -0.28125q-0.5 -0.078125 -1.0625 -0.078125q-0.671875 0 -1.5 0.1875q-0.828125 0.171875 -1.71875 0.5l-0.09375 0l0 -1.734375q0.5 -0.140625 1.453125 -0.296875q0.953125 -0.171875 1.875 -0.171875q1.0625 0 1.859375 0.1875q0.796875 0.171875 1.390625 0.59375q0.5625 0.421875 0.859375 1.09375q0.3125 0.65625 0.3125 1.640625l0 6.90625zm-1.703125 -2.5l0 -2.84375q-0.78125 0.046875 -1.84375 0.140625q-1.0625 0.09375 -1.6875 0.265625q-0.734375 0.203125 -1.1875 0.65625q-0.453125 0.4375 -0.453125 1.21875q0 0.859375 0.515625 1.3125q0.53125 0.4375 1.625 0.4375q0.890625 0 1.640625 -0.34375q0.75 -0.359375 1.390625 -0.84375zm10.282776 2.40625q-0.484375 0.125 -1.0625 0.203125q-0.5625 0.09375 -1.0 0.09375q-1.5624695 0 -2.3749695 -0.828125q-0.8125 -0.84375 -0.8125 -2.703125l0 -5.40625l-1.15625 0l0 -1.4375l1.15625 0l0 -2.921875l1.71875 0l0 2.921875l3.5312195 0l0 1.4375l-3.5312195 0l0 4.640625q0 0.796875 0.03125 1.25q0.03125 0.453125 0.25 0.84375q0.203125 0.359375 0.546875 0.53125q0.35934448 0.171875 1.0780945 0.171875q0.421875 0 0.875 -0.125q0.453125 -0.125 0.65625 -0.203125l0.09375 0l0 1.53125zm9.976379 0.09375l-1.703125 0l0 -1.078125q-0.234375 0.15625 -0.625 0.4375q-0.375 0.265625 -0.75 0.4375q-0.421875 0.203125 -0.984375 0.34375q-0.546875 0.140625 -1.296875 0.140625q-1.375 0 -2.328125 -0.90625q-0.953125 -0.921875 -0.953125 -2.328125q0 -1.15625 0.484375 -1.859375q0.5 -0.71875 1.421875 -1.140625q0.9375 -0.40625 2.234375 -0.546875q1.296875 -0.15625 2.796875 -0.21875l0 -0.265625q0 -0.578125 -0.203125 -0.953125q-0.203125 -0.390625 -0.59375 -0.609375q-0.359375 -0.21875 -0.875 -0.28125q-0.5 -0.078125 -1.0625 -0.078125q-0.671875 0 -1.5 0.1875q-0.828125 0.171875 -1.71875 0.5l-0.09375 0l0 -1.734375q0.5 -0.140625 1.453125 -0.296875q0.953125 -0.171875 1.875 -0.171875q1.0625 0 1.859375 0.1875q0.796875 0.171875 1.390625 0.59375q0.5625 0.421875 0.859375 1.09375q0.3125 0.65625 0.3125 1.640625l0 6.90625zm-1.703125 -2.5l0 -2.84375q-0.78125 0.046875 -1.84375 0.140625q-1.0625 0.09375 -1.6875 0.265625q-0.734375 0.203125 -1.1875 0.65625q-0.453125 0.4375 -0.453125 1.21875q0 0.859375 0.515625 1.3125q0.53125 0.4375 1.625 0.4375q0.890625 0 1.640625 -0.34375q0.75 -0.359375 1.390625 -0.84375z" fill-rule="nonzero"/><path fill="#999999" d="m482.32837 243.61435q0 1.84375 -0.8125 3.359375q-0.796875 1.5 -2.140625 2.328125q-0.921875 0.5625 -2.078125 0.828125q-1.140625 0.25 -3.0 0.25l-3.421875 0l0 -13.5625l3.375 0q2.0 0 3.15625 0.296875q1.171875 0.28125 1.984375 0.78125q1.390625 0.859375 2.15625 2.296875q0.78125 1.4375 0.78125 3.421875zm-1.890625 -0.03125q0 -1.59375 -0.5625 -2.6875q-0.546875 -1.09375 -1.640625 -1.71875q-0.8125 -0.453125 -1.71875 -0.625q-0.890625 -0.1875 -2.15625 -0.1875l-1.6875 0l0 10.46875l1.6875 0q1.3125 0 2.28125 -0.1875q0.96875 -0.203125 1.78125 -0.71875q1.015625 -0.640625 1.515625 -1.6875q0.5 -1.0625 0.5 -2.65625zm15.031036 2.625q0 1.015625 -0.390625 1.796875q-0.375 0.765625 -1.015625 1.265625q-0.765625 0.59375 -1.6875 0.859375q-0.90625 0.25 -2.328125 0.25l-4.796875 0l0 -13.5625l4.015625 0q1.484375 0 2.21875 0.109375q0.734375 0.109375 1.40625 0.453125q0.75 0.390625 1.078125 1.015625q0.34375 0.609375 0.34375 1.46875q0 0.953125 -0.5 1.640625q-0.484375 0.671875 -1.296875 1.09375l0 0.0625q1.375 0.28125 2.15625 1.21875q0.796875 0.921875 0.796875 2.328125zm-3.03125 -6.109375q0 -0.5 -0.171875 -0.828125q-0.15625 -0.34375 -0.515625 -0.546875q-0.4375 -0.25 -1.046875 -0.3125q-0.609375 -0.0625 -1.5 -0.0625l-2.15625 0l0 3.921875l2.328125 0q0.859375 0 1.359375 -0.078125q0.5 -0.09375 0.921875 -0.359375q0.421875 -0.28125 0.59375 -0.703125q0.1875 -0.4375 0.1875 -1.03125zm1.15625 6.1875q0 -0.828125 -0.25 -1.3125q-0.234375 -0.484375 -0.890625 -0.8125q-0.4375 -0.234375 -1.0625 -0.296875q-0.625 -0.078125 -1.515625 -0.078125l-2.828125 0l0 5.046875l2.390625 0q1.1875 0 1.9375 -0.109375q0.75 -0.125 1.234375 -0.453125q0.515625 -0.359375 0.75 -0.8125q0.234375 -0.453125 0.234375 -1.171875z" fill-rule="nonzero"/></g></svg>