<svg version="1.1" viewBox="0.0 0.0 448.23622047244095 629.496062992126" fill="none" stroke="none" stroke-linecap="square" stroke-miterlimit="10" xmlns:xlink="http://www.w3.org/1999/xlink" xmlns="http://www.w3.org/2000/svg"><clipPath id="p.0"><path d="m0 0l448.2362 0l0 629.49603l-448.2362 0l0 -629.49603z" clip-rule="nonzero"/></clipPath><g clip-path="url(#p.0)"><path fill="#000000" fill-opacity="0.0" d="m0 0l448.2362 0l0 629.49603l-448.2362 0z" fill-rule="evenodd"/><path fill="#cfe2f3" d="m296.0861 406.6824l0 0c0 6.894867 23.894592 12.484253 53.370056 12.484253c29.475494 0 53.370087 -5.589386 53.370087 -12.484253l0 74.90552c0 6.894867 -23.894592 12.484253 -53.370087 12.484253c-29.475464 0 -53.370056 -5.589386 -53.370056 -12.484253z" fill-rule="evenodd"/><path fill="#e2edf7" d="m296.0861 406.6824l0 0c0 -6.8948364 23.894592 -12.484253 53.370056 -12.484253c29.475494 0 53.370087 5.5894165 53.370087 12.484253l0 0c0 6.894867 -23.894592 12.484253 -53.370087 12.484253c-29.475464 0 -53.370056 -5.589386 -53.370056 -12.484253z" fill-rule="evenodd"/><path fill="#000000" fill-opacity="0.0" d="m402.82623 406.6824l0 0c0 6.894867 -23.894592 12.484253 -53.370087 12.484253c-29.475464 0 -53.370056 -5.589386 -53.370056 -12.484253l0 0c0 -6.8948364 23.894592 -12.484253 53.370056 -12.484253c29.475494 0 53.370087 5.5894165 53.370087 12.484253l0 74.90552c0 6.894867 -23.894592 12.484253 -53.370087 12.484253c-29.475464 0 -53.370056 -5.589386 -53.370056 -12.484253l0 -74.90552" fill-rule="evenodd"/><path stroke="#000000" stroke-width="1.0" stroke-linejoin="round" stroke-linecap="butt" d="m402.82623 406.6824l0 0c0 6.894867 -23.894592 12.484253 -53.370087 12.484253c-29.475464 0 -53.370056 -5.589386 -53.370056 -12.484253l0 0c0 -6.8948364 23.894592 -12.484253 53.370056 -12.484253c29.475494 0 53.370087 5.5894165 53.370087 12.484253l0 74.90552c0 6.894867 -23.894592 12.484253 -53.370087 12.484253c-29.475464 0 -53.370056 -5.589386 -53.370056 -12.484253l0 -74.90552" fill-rule="evenodd"/><path fill="#000000" d="m340.66965 439.53168q0 1.84375 -0.8125 3.359375q-0.796875 1.5 -2.140625 2.328125q-0.921875 0.5625 -2.078125 0.828125q-1.140625 0.25 -3.0 0.25l-3.421875 0l0 -13.5625l3.375 0q2.0 0 3.15625 0.296875q1.171875 0.28125 1.984375 0.78125q1.390625 0.859375 2.15625 2.296875q0.78125 1.4375 0.78125 3.421875zm-1.890625 -0.03125q0 -1.59375 -0.5625 -2.6875q-0.546875 -1.09375 -1.640625 -1.71875q-0.8125 -0.453125 -1.71875 -0.625q-0.890625 -0.1875 -2.15625 -0.1875l-1.6875 0l0 10.46875l1.6875 0q1.3125 0 2.28125 -0.1875q0.96875 -0.203125 1.78125 -0.71875q1.015625 -0.640625 1.515625 -1.6875q0.5 -1.0625 0.5 -2.65625zm12.577911 6.796875l-1.703125 0l0 -1.078125q-0.234375 0.15625 -0.625 0.4375q-0.375 0.265625 -0.75 0.4375q-0.421875 0.203125 -0.984375 0.34375q-0.546875 0.140625 -1.296875 0.140625q-1.375 0 -2.328125 -0.90625q-0.953125 -0.921875 -0.953125 -2.328125q0 -1.15625 0.484375 -1.859375q0.5 -0.71875 1.421875 -1.140625q0.9375 -0.40625 2.234375 -0.546875q1.296875 -0.15625 2.796875 -0.21875l0 -0.265625q0 -0.578125 -0.203125 -0.953125q-0.203125 -0.390625 -0.59375 -0.609375q-0.359375 -0.21875 -0.875 -0.28125q-0.5 -0.078125 -1.0625 -0.078125q-0.671875 0 -1.5 0.1875q-0.828125 0.171875 -1.71875 0.5l-0.09375 0l0 -1.734375q0.5 -0.140625 1.453125 -0.296875q0.953125 -0.171875 1.875 -0.171875q1.0625 0 1.859375 0.1875q0.796875 0.171875 1.390625 0.59375q0.5625 0.421875 0.859375 1.09375q0.3125 0.65625 0.3125 1.640625l0 6.90625zm-1.703125 -2.5l0 -2.84375q-0.78125 0.046875 -1.84375 0.140625q-1.0625 0.09375 -1.6875 0.265625q-0.734375 0.203125 -1.1875 0.65625q-0.453125 0.4375 -0.453125 1.21875q0 0.859375 0.515625 1.3125q0.53125 0.4375 1.625 0.4375q0.890625 0 1.640625 -0.34375q0.75 -0.359375 1.390625 -0.84375zm10.282806 2.40625q-0.484375 0.125 -1.0625 0.203125q-0.5625 0.09375 -1.0 0.09375q-1.5625 0 -2.375 -0.828125q-0.8125 -0.84375 -0.8125 -2.703125l0 -5.40625l-1.15625 0l0 -1.4375l1.15625 0l0 -2.921875l1.71875 0l0 2.921875l3.53125 0l0 1.4375l-3.53125 0l0 4.640625q0 0.796875 0.03125 1.25q0.03125 0.453125 0.25 0.84375q0.203125 0.359375 0.546875 0.53125q0.359375 0.171875 1.078125 0.171875q0.421875 0 0.875 -0.125q0.453125 -0.125 0.65625 -0.203125l0.09375 0l0 1.53125zm9.976379 0.09375l-1.703125 0l0 -1.078125q-0.234375 0.15625 -0.625 0.4375q-0.375 0.265625 -0.75 0.4375q-0.421875 0.203125 -0.984375 0.34375q-0.546875 0.140625 -1.296875 0.140625q-1.375 0 -2.328125 -0.90625q-0.953125 -0.921875 -0.953125 -2.328125q0 -1.15625 0.484375 -1.859375q0.5 -0.71875 1.421875 -1.140625q0.9375 -0.40625 2.234375 -0.546875q1.296875 -0.15625 2.796875 -0.21875l0 -0.265625q0 -0.578125 -0.203125 -0.953125q-0.203125 -0.390625 -0.59375 -0.609375q-0.359375 -0.21875 -0.875 -0.28125q-0.5 -0.078125 -1.0625 -0.078125q-0.671875 0 -1.5 0.1875q-0.828125 0.171875 -1.71875 0.5l-0.09375 0l0 -1.734375q0.5 -0.140625 1.453125 -0.296875q0.953125 -0.171875 1.875 -0.171875q1.0625 0 1.859375 0.1875q0.796875 0.171875 1.390625 0.59375q0.5625 0.421875 0.859375 1.09375q0.3125 0.65625 0.3125 1.640625l0 6.90625zm-1.703125 -2.5l0 -2.84375q-0.78125 0.046875 -1.84375 0.140625q-1.0625 0.09375 -1.6875 0.265625q-0.734375 0.203125 -1.1875 0.65625q-0.453125 0.4375 -0.453125 1.21875q0 0.859375 0.515625 1.3125q0.53125 0.4375 1.625 0.4375q0.890625 0 1.640625 -0.34375q0.75 -0.359375 1.390625 -0.84375z" fill-rule="nonzero"/><path fill="#000000" d="m330.82343 463.12543q0 1.28125 -0.359375 2.3125q-0.359375 1.015625 -0.96875 1.703125q-0.65625 0.71875 -1.4375 1.078125q-0.765625 0.359375 -1.6875 0.359375q-0.875 0 -1.515625 -0.203125q-0.640625 -0.203125 -1.28125 -0.546875l-0.109375 0.46875l-1.59375 0l0 -14.171875l1.703125 0l0 5.0625q0.734375 -0.59375 1.53125 -0.96875q0.8125 -0.375 1.828125 -0.375q1.796875 0 2.84375 1.390625q1.046875 1.375 1.046875 3.890625zm-1.765625 0.046875q0 -1.8125 -0.609375 -2.75q-0.59375 -0.953125 -1.9375 -0.953125q-0.75 0 -1.515625 0.328125q-0.765625 0.3125 -1.421875 0.828125l0 5.828125q0.734375 0.328125 1.25 0.46875q0.53125 0.125 1.203125 0.125q1.421875 0 2.21875 -0.9375q0.8125 -0.9375 0.8125 -2.9375zm6.1705933 5.125l-1.71875 0l0 -14.171875l1.71875 0l0 14.171875zm12.057037 -5.078125q0 2.484375 -1.28125 3.921875q-1.265625 1.4375 -3.40625 1.4375q-2.171875 0 -3.4375 -1.4375q-1.265625 -1.4375 -1.265625 -3.921875q0 -2.484375 1.265625 -3.921875q1.265625 -1.453125 3.4375 -1.453125q2.140625 0 3.40625 1.453125q1.28125 1.4375 1.28125 3.921875zm-1.765625 0q0 -1.984375 -0.78125 -2.9375q-0.765625 -0.96875 -2.140625 -0.96875q-1.40625 0 -2.171875 0.96875q-0.765625 0.953125 -0.765625 2.9375q0 1.90625 0.765625 2.90625q0.78125 0.984375 2.171875 0.984375q1.359375 0 2.140625 -0.984375q0.78125 -0.984375 0.78125 -2.90625zm11.932465 4.4375q-0.84375 0.40625 -1.625 0.640625q-0.765625 0.234375 -1.625 0.234375q-1.109375 0 -2.03125 -0.328125q-0.921875 -0.328125 -1.578125 -0.984375q-0.65625 -0.65625 -1.03125 -1.65625q-0.359375 -1.0 -0.359375 -2.34375q0 -2.484375 1.375 -3.90625q1.375 -1.421875 3.625 -1.421875q0.875 0 1.71875 0.25q0.84375 0.234375 1.53125 0.59375l0 1.90625l-0.078125 0q-0.796875 -0.609375 -1.625 -0.9375q-0.828125 -0.328125 -1.625 -0.328125q-1.453125 0 -2.296875 0.984375q-0.84375 0.96875 -0.84375 2.859375q0 1.84375 0.8125 2.84375q0.828125 0.984375 2.328125 0.984375q0.515625 0 1.046875 -0.140625q0.546875 -0.140625 0.96875 -0.359375q0.375 -0.1875 0.703125 -0.40625q0.328125 -0.21875 0.53125 -0.359375l0.078125 0l0 1.875zm11.438599 0.640625l-2.265625 0l-4.078125 -4.453125l-1.109375 1.0625l0 3.390625l-1.703125 0l0 -14.171875l1.703125 0l0 9.09375l4.953125 -5.09375l2.15625 0l-4.734375 4.703125l5.078125 5.46875zm9.07196 -2.9375q0 1.390625 -1.15625 2.296875q-1.140625 0.890625 -3.140625 0.890625q-1.125 0 -2.078125 -0.265625q-0.9375 -0.28125 -1.578125 -0.59375l0 -1.921875l0.09375 0q0.8125 0.609375 1.796875 0.96875q1.0 0.359375 1.90625 0.359375q1.140625 0 1.765625 -0.359375q0.640625 -0.375 0.640625 -1.15625q0 -0.59375 -0.34375 -0.90625q-0.34375 -0.3125 -1.328125 -0.53125q-0.359375 -0.078125 -0.953125 -0.1875q-0.59375 -0.109375 -1.078125 -0.234375q-1.328125 -0.359375 -1.890625 -1.046875q-0.5625 -0.6875 -0.5625 -1.6875q0 -0.625 0.25 -1.1875q0.265625 -0.5625 0.796875 -0.984375q0.515625 -0.4375 1.296875 -0.6875q0.796875 -0.25 1.765625 -0.25q0.90625 0 1.84375 0.234375q0.9375 0.21875 1.546875 0.53125l0 1.828125l-0.078125 0q-0.65625 -0.484375 -1.59375 -0.8125q-0.9375 -0.328125 -1.84375 -0.328125q-0.9375 0 -1.59375 0.359375q-0.640625 0.359375 -0.640625 1.0625q0 0.625 0.390625 0.953125q0.390625 0.3125 1.234375 0.515625q0.484375 0.109375 1.0625 0.21875q0.59375 0.109375 0.984375 0.203125q1.1875 0.265625 1.84375 0.9375q0.640625 0.671875 0.640625 1.78125z" fill-rule="nonzero"/><path fill="#fff2cc" d="m103.20473 105.908676l0 21.039375l4.425194 0l-8.850395 8.850395l-8.850395 -8.850395l4.4252014 0l0 -21.039375z" fill-rule="evenodd"/><path stroke="#000000" stroke-width="1.0" stroke-linejoin="round" stroke-linecap="butt" d="m103.20473 105.908676l0 21.039375l4.425194 0l-8.850395 8.850395l-8.850395 -8.850395l4.4252014 0l0 -21.039375z" fill-rule="evenodd"/><path fill="#fff2cc" d="m103.20473 236.35902l0 21.039383l4.425194 0l-8.850395 8.850372l-8.850395 -8.850372l4.4252014 0l0 -21.039383z" fill-rule="evenodd"/><path stroke="#000000" stroke-width="1.0" stroke-linejoin="round" stroke-linecap="butt" d="m103.20473 236.35902l0 21.039383l4.425194 0l-8.850395 8.850372l-8.850395 -8.850372l4.4252014 0l0 -21.039383z" fill-rule="evenodd"/><path fill="#fff2cc" d="m103.20473 365.11734l0 21.039368l4.425194 0l-8.850395 8.850403l-8.850395 -8.850403l4.4252014 0l0 -21.039368z" fill-rule="evenodd"/><path stroke="#000000" stroke-width="1.0" stroke-linejoin="round" stroke-linecap="butt" d="m103.20473 365.11734l0 21.039368l4.425194 0l-8.850395 8.850403l-8.850395 -8.850403l4.4252014 0l0 -21.039368z" fill-rule="evenodd"/><path fill="#fff2cc" d="m103.20473 493.6987l0 21.039398l4.425194 0l-8.850395 8.850342l-8.850395 -8.850342l4.4252014 0l0 -21.039398z" fill-rule="evenodd"/><path stroke="#000000" stroke-width="1.0" stroke-linejoin="round" stroke-linecap="butt" d="m103.20473 493.6987l0 21.039398l4.425194 0l-8.850395 8.850342l-8.850395 -8.850342l4.4252014 0l0 -21.039398z" fill-rule="evenodd"/><path fill="#fff2cc" d="m8.778215 6.0341206l180.0 0l0 99.874016l-180.0 0z" fill-rule="evenodd"/><path stroke="#000000" stroke-width="1.0" stroke-linejoin="round" stroke-linecap="butt" d="m8.778215 6.0341206l180.0 0l0 99.874016l-180.0 0z" fill-rule="evenodd"/><path fill="#000000" d="m32.27839 50.89113q0.828125 0.90625 1.265625 2.234375q0.4375 1.3125 0.4375 2.984375q0 1.6875 -0.453125 3.015625q-0.4375 1.3125 -1.25 2.203125q-0.8437481 0.921875 -1.9843731 1.390625q-1.140625 0.453125 -2.609375 0.453125q-1.4375 0 -2.609375 -0.46875q-1.15625 -0.484375 -1.984375 -1.375q-0.8125 -0.90625 -1.265625 -2.21875q-0.4375 -1.3125 -0.4375 -3.0q0 -1.65625 0.4375 -2.96875q0.4375 -1.3125 1.28125 -2.25q0.796875 -0.90625 1.984375 -1.375q1.1875 -0.46875 2.59375 -0.46875q1.453125 0 2.609375 0.484375q1.171875 0.46875 1.9843731 1.359375zm-0.171875 5.21875q0 -2.640625 -1.1874981 -4.0625q-1.171875 -1.4375 -3.234375 -1.4375q-2.0625 0 -3.25 1.4375q-1.171875 1.421875 -1.171875 4.0625q0 2.671875 1.203125 4.09375q1.203125 1.40625 3.21875 1.40625q2.03125 0 3.21875 -1.40625q1.2031231 -1.421875 1.2031231 -4.09375zm13.559509 1.578125q0 1.234375 -0.359375 2.265625q-0.359375 1.015625 -1.0 1.71875q-0.59375 0.6875 -1.421875 1.0625q-0.8125 0.359375 -1.71875 0.359375q-0.796875 0 -1.4375 -0.171875q-0.640625 -0.171875 -1.3125 -0.546875l0 4.265625l-1.703125 0l0 -13.921875l1.703125 0l0 1.0625q0.6875 -0.578125 1.53125 -0.953125q0.859375 -0.390625 1.828125 -0.390625q1.84375 0 2.859375 1.390625q1.03125 1.390625 1.03125 3.859375zm-1.765625 0.03125q0 -1.828125 -0.640625 -2.734375q-0.625 -0.921875 -1.921875 -0.921875q-0.734375 0 -1.484375 0.328125q-0.75 0.3125 -1.4375 0.828125l0 5.765625q0.734375 0.328125 1.25 0.453125q0.53125 0.109375 1.203125 0.109375q1.421875 0 2.21875 -0.953125q0.8125 -0.96875 0.8125 -2.875zm12.951843 0.265625l-7.5 0q0 0.9375 0.28125 1.640625q0.28125 0.6875 0.78125 1.140625q0.46875 0.4375 1.109375 0.65625q0.65625 0.21875 1.453125 0.21875q1.03125 0 2.078125 -0.421875q1.0625 -0.421875 1.5 -0.8125l0.09375 0l0 1.859375q-0.859375 0.375 -1.765625 0.625q-0.90625 0.234375 -1.890625 0.234375q-2.53125 0 -3.953125 -1.359375q-1.421875 -1.375 -1.421875 -3.90625q0 -2.5 1.359375 -3.953125q1.359375 -1.46875 3.578125 -1.46875q2.0625 0 3.171875 1.203125q1.125 1.203125 1.125 3.40625l0 0.9375zm-1.671875 -1.3125q0 -1.34375 -0.671875 -2.078125q-0.671875 -0.75 -2.03125 -0.75q-1.375 0 -2.203125 0.8125q-0.8125 0.8125 -0.921875 2.015625l5.828125 0zm12.769836 6.21875l-1.703125 0l0 -5.796875q0 -0.703125 -0.09375 -1.3125q-0.078125 -0.609375 -0.296875 -0.96875q-0.21875 -0.375 -0.65625 -0.5625q-0.421875 -0.1875 -1.109375 -0.1875q-0.703125 0 -1.46875 0.34375q-0.765625 0.34375 -1.46875 0.890625l0 7.59375l-1.703125 0l0 -10.171875l1.703125 0l0 1.125q0.8125 -0.65625 1.65625 -1.03125q0.859375 -0.375 1.765625 -0.375q1.65625 0 2.515625 1.0q0.859375 0.984375 0.859375 2.84375l0 6.609375zm17.380371 -0.640625q-0.84375 0.40625 -1.625 0.640625q-0.765625 0.234375 -1.625 0.234375q-1.109375 0 -2.03125 -0.328125q-0.921875 -0.328125 -1.578125 -0.984375q-0.65625 -0.65625 -1.03125 -1.65625q-0.359375 -1.0 -0.359375 -2.34375q0 -2.484375 1.375 -3.90625q1.375 -1.421875 3.625 -1.421875q0.875 0 1.71875 0.25q0.84375 0.234375 1.53125 0.59375l0 1.90625l-0.078125 0q-0.796875 -0.609375 -1.625 -0.9375q-0.828125 -0.328125 -1.625 -0.328125q-1.453125 0 -2.296875 0.984375q-0.84375 0.96875 -0.84375 2.859375q0 1.84375 0.8125 2.84375q0.828125 0.984375 2.328125 0.984375q0.515625 0 1.046875 -0.140625q0.546875 -0.140625 0.96875 -0.359375q0.375 -0.1875 0.703125 -0.40625q0.328125 -0.21875 0.53125 -0.359375l0.078125 0l0 1.875zm10.876083 -4.4375q0 2.484375 -1.28125 3.921875q-1.265625 1.4375 -3.40625 1.4375q-2.171875 0 -3.4375 -1.4375q-1.265625 -1.4375 -1.265625 -3.921875q0 -2.484375 1.265625 -3.921875q1.265625 -1.453125 3.4375 -1.453125q2.140625 0 3.40625 1.453125q1.28125 1.4375 1.28125 3.921875zm-1.765625 0q0 -1.984375 -0.78125 -2.9375q-0.765625 -0.96875 -2.140625 -0.96875q-1.40625 0 -2.171875 0.96875q-0.765625 0.953125 -0.765625 2.9375q0 1.90625 0.765625 2.90625q0.78125 0.984375 2.171875 0.984375q1.359375 0 2.140625 -0.984375q0.78125 -0.984375 0.78125 -2.90625zm12.916855 5.078125l-1.703125 0l0 -5.796875q0 -0.703125 -0.09375 -1.3125q-0.078125 -0.609375 -0.296875 -0.96875q-0.21875 -0.375 -0.65625 -0.5625q-0.421875 -0.1875 -1.109375 -0.1875q-0.703125 0 -1.46875 0.34375q-0.765625 0.34375 -1.46875 0.890625l0 7.59375l-1.703125 0l0 -10.171875l1.703125 0l0 1.125q0.8125 -0.65625 1.65625 -1.03125q0.859375 -0.375 1.765625 -0.375q1.65625 0 2.515625 1.0q0.859375 0.984375 0.859375 2.84375l0 6.609375zm11.805908 0l-1.703125 0l0 -5.796875q0 -0.703125 -0.09375 -1.3125q-0.078125 -0.609375 -0.296875 -0.96875q-0.21875 -0.375 -0.65625 -0.5625q-0.421875 -0.1875 -1.109375 -0.1875q-0.703125 0 -1.46875 0.34375q-0.765625 0.34375 -1.46875 0.890625l0 7.59375l-1.703125 0l0 -10.171875l1.703125 0l0 1.125q0.8125 -0.65625 1.65625 -1.03125q0.859375 -0.375 1.765625 -0.375q1.65625 0 2.515625 1.0q0.859375 0.984375 0.859375 2.84375l0 6.609375zm11.821541 -4.90625l-7.5000076 0q0 0.9375 0.28125 1.640625q0.28125 0.6875 0.78125 1.140625q0.46875 0.4375 1.109375 0.65625q0.65625 0.21875 1.453125 0.21875q1.0312576 0 2.0781326 -0.421875q1.0625 -0.421875 1.5 -0.8125l0.09375 0l0 1.859375q-0.859375 0.375 -1.765625 0.625q-0.90625 0.234375 -1.8906326 0.234375q-2.53125 0 -3.953125 -1.359375q-1.421875 -1.375 -1.421875 -3.90625q0 -2.5 1.359375 -3.953125q1.359375 -1.46875 3.578125 -1.46875q2.0625076 0 3.1718826 1.203125q1.125 1.203125 1.125 3.40625l0 0.9375zm-1.671875 -1.3125q0 -1.34375 -0.671875 -2.078125q-0.6718826 -0.75 -2.0312576 -0.75q-1.375 0 -2.203125 0.8125q-0.8125 0.8125 -0.921875 2.015625l5.8281326 0zm11.785461 5.578125q-0.84375 0.40625 -1.625 0.640625q-0.765625 0.234375 -1.625 0.234375q-1.109375 0 -2.03125 -0.328125q-0.921875 -0.328125 -1.578125 -0.984375q-0.65625 -0.65625 -1.03125 -1.65625q-0.359375 -1.0 -0.359375 -2.34375q0 -2.484375 1.375 -3.90625q1.375 -1.421875 3.625 -1.421875q0.875 0 1.71875 0.25q0.84375 0.234375 1.53125 0.59375l0 1.90625l-0.078125 0q-0.796875 -0.609375 -1.625 -0.9375q-0.828125 -0.328125 -1.625 -0.328125q-1.453125 0 -2.296875 0.984375q-0.84375 0.96875 -0.84375 2.859375q0 1.84375 0.8125 2.84375q0.828125 0.984375 2.328125 0.984375q0.515625 0 1.046875 -0.140625q0.546875 -0.140625 0.96875 -0.359375q0.375 -0.1875 0.703125 -0.40625q0.328125 -0.21875 0.53125 -0.359375l0.078125 0l0 1.875zm7.485443 0.546875q-0.484375 0.125 -1.0625 0.203125q-0.5625 0.09375 -1.0 0.09375q-1.5625 0 -2.375 -0.828125q-0.8125 -0.84375 -0.8125 -2.703125l0 -5.40625l-1.15625 0l0 -1.4375l1.15625 0l0 -2.921875l1.71875 0l0 2.921875l3.53125 0l0 1.4375l-3.53125 0l0 4.640625q0 0.796875 0.03125 1.25q0.03125 0.453125 0.25 0.84375q0.203125 0.359375 0.546875 0.53125q0.359375 0.171875 1.078125 0.171875q0.421875 0 0.875 -0.125q0.453125 -0.125 0.65625 -0.203125l0.09375 0l0 1.53125zm3.9138794 -11.78125l-1.9375 0l0 -1.78125l1.9375 0l0 1.78125zm-0.109375 11.875l-1.71875 0l0 -10.171875l1.71875 0l0 10.171875zm12.057037 -5.078125q0 2.484375 -1.28125 3.921875q-1.265625 1.4375 -3.40625 1.4375q-2.171875 0 -3.4375 -1.4375q-1.265625 -1.4375 -1.265625 -3.921875q0 -2.484375 1.265625 -3.921875q1.265625 -1.453125 3.4375 -1.453125q2.140625 0 3.40625 1.453125q1.28125 1.4375 1.28125 3.921875zm-1.765625 0q0 -1.984375 -0.78125 -2.9375q-0.765625 -0.96875 -2.140625 -0.96875q-1.40625 0 -2.171875 0.96875q-0.765625 0.953125 -0.765625 2.9375q0 1.90625 0.765625 2.90625q0.78125 0.984375 2.171875 0.984375q1.359375 0 2.140625 -0.984375q0.78125 -0.984375 0.78125 -2.90625zm12.91684 5.078125l-1.703125 0l0 -5.796875q0 -0.703125 -0.09375 -1.3125q-0.078125 -0.609375 -0.296875 -0.96875q-0.21875 -0.375 -0.65625 -0.5625q-0.421875 -0.1875 -1.109375 -0.1875q-0.703125 0 -1.46875 0.34375q-0.765625 0.34375 -1.46875 0.890625l0 7.59375l-1.703125 0l0 -10.171875l1.703125 0l0 1.125q0.8125 -0.65625 1.65625 -1.03125q0.859375 -0.375 1.765625 -0.375q1.65625 0 2.515625 1.0q0.859375 0.984375 0.859375 2.84375l0 6.609375z" fill-rule="nonzero"/><path fill="#fff2cc" d="m8.778215 136.66077l180.0 0l0 99.87401l-180.0 0z" fill-rule="evenodd"/><path stroke="#000000" stroke-width="1.0" stroke-linejoin="round" stroke-linecap="butt" d="m8.778215 136.66077l180.0 0l0 99.87401l-180.0 0z" fill-rule="evenodd"/><path fill="#000000" d="m34.845818 189.64278q0 0.796875 -0.375 1.578125q-0.359375 0.765625 -1.015625 1.296875q-0.734375 0.59375 -1.7031231 0.921875q-0.96875 0.328125 -2.34375 0.328125q-1.46875 0 -2.640625 -0.265625q-1.15625 -0.28125 -2.375 -0.828125l0 -2.25l0.125 0q1.03125 0.859375 2.375 1.328125q1.359375 0.453125 2.546875 0.453125q1.671875 0 2.593748 -0.625q0.9375 -0.625 0.9375 -1.671875q0 -0.90625 -0.4375 -1.328125q-0.4375 -0.4375 -1.3437481 -0.671875q-0.6875 -0.1875 -1.484375 -0.296875q-0.796875 -0.125 -1.6875 -0.3125q-1.796875 -0.375 -2.671875 -1.296875q-0.875 -0.921875 -0.875 -2.40625q0 -1.71875 1.4375 -2.796875q1.453125 -1.09375 3.65625 -1.09375q1.4375 0 2.624998 0.28125q1.203125 0.265625 2.109375 0.671875l0 2.125l-0.125 0q-0.765625 -0.65625 -2.03125 -1.078125q-1.2656231 -0.4375 -2.578123 -0.4375q-1.453125 0 -2.34375 0.609375q-0.875 0.59375 -0.875 1.53125q0 0.859375 0.4375 1.34375q0.4375 0.46875 1.546875 0.734375q0.578125 0.125 1.65625 0.3125q1.078125 0.171875 1.828125 0.375q1.4999981 0.390625 2.265623 1.203125q0.765625 0.8125 0.765625 2.265625zm11.284546 -1.03125l-7.5 0q0 0.9375 0.28125 1.640625q0.28125 0.6875 0.78125 1.140625q0.46875 0.4375 1.109375 0.65625q0.65625 0.21875 1.453125 0.21875q1.03125 0 2.078125 -0.421875q1.0625 -0.421875 1.5 -0.8125l0.09375 0l0 1.859375q-0.859375 0.375 -1.765625 0.625q-0.90625 0.234375 -1.890625 0.234375q-2.53125 0 -3.953125 -1.359375q-1.421875 -1.375 -1.421875 -3.90625q0 -2.5 1.359375 -3.953125q1.359375 -1.46875 3.578125 -1.46875q2.0625 0 3.171875 1.203125q1.125 1.203125 1.125 3.40625l0 0.9375zm-1.671875 -1.3125q0 -1.34375 -0.671875 -2.078125q-0.671875 -0.75 -2.03125 -0.75q-1.375 0 -2.203125 0.8125q-0.8125 0.8125 -0.921875 2.015625l5.828125 0zm12.769836 6.21875l-1.703125 0l0 -5.796875q0 -0.703125 -0.09375 -1.3125q-0.078125 -0.609375 -0.296875 -0.96875q-0.21875 -0.375 -0.65625 -0.5625q-0.421875 -0.1875 -1.109375 -0.1875q-0.703125 0 -1.46875 0.34375q-0.765625 0.34375 -1.46875 0.890625l0 7.59375l-1.703125 0l0 -10.171875l1.703125 0l0 1.125q0.8125 -0.65625 1.65625 -1.03125q0.859375 -0.375 1.765625 -0.375q1.65625 0 2.515625 1.0q0.859375 0.984375 0.859375 2.84375l0 6.609375zm11.555908 0l-1.71875 0l0 -1.0625q-0.734375 0.640625 -1.53125 1.0q-0.796875 0.34375 -1.734375 0.34375q-1.828125 0 -2.90625 -1.390625q-1.0625 -1.40625 -1.0625 -3.90625q0 -1.28125 0.359375 -2.296875q0.375 -1.015625 1.0 -1.71875q0.625 -0.703125 1.453125 -1.0625q0.828125 -0.359375 1.703125 -0.359375q0.796875 0 1.421875 0.171875q0.625 0.15625 1.296875 0.515625l0 -4.40625l1.71875 0l0 14.171875zm-1.71875 -2.5l0 -5.84375q-0.6875 -0.3125 -1.234375 -0.421875q-0.546875 -0.125 -1.1875 -0.125q-1.4375 0 -2.25 1.0q-0.796875 1.0 -0.796875 2.84375q0 1.8125 0.609375 2.765625q0.625 0.9375 2.0 0.9375q0.71875 0 1.46875 -0.328125q0.75 -0.328125 1.390625 -0.828125zm17.995056 -5.8125l-0.09375 0q-0.375 -0.09375 -0.734375 -0.125q-0.359375 -0.046875 -0.859375 -0.046875q-0.78125 0 -1.53125 0.359375q-0.734375 0.34375 -1.421875 0.90625l0 7.21875l-1.703125 0l0 -10.171875l1.703125 0l0 1.5q1.03125 -0.8125 1.796875 -1.15625q0.78125 -0.34375 1.59375 -0.34375q0.453125 0 0.65625 0.03125q0.203125 0.015625 0.59375 0.078125l0 1.75zm10.133575 3.40625l-7.5 0q0 0.9375 0.28125 1.640625q0.28125 0.6875 0.78125 1.140625q0.46875 0.4375 1.109375 0.65625q0.65625 0.21875 1.453125 0.21875q1.03125 0 2.078125 -0.421875q1.0625 -0.421875 1.5 -0.8125l0.09375 0l0 1.859375q-0.859375 0.375 -1.765625 0.625q-0.90625 0.234375 -1.890625 0.234375q-2.53125 0 -3.953125 -1.359375q-1.421875 -1.375 -1.421875 -3.90625q0 -2.5 1.359375 -3.953125q1.359375 -1.46875 3.578125 -1.46875q2.0625 0 3.171875 1.203125q1.125 1.203125 1.125 3.40625l0 0.9375zm-1.671875 -1.3125q0 -1.34375 -0.671875 -2.078125q-0.671875 -0.75 -2.03125 -0.75q-1.375 0 -2.203125 0.8125q-0.8125 0.8125 -0.921875 2.015625l5.828125 0zm12.519836 9.96875l-1.71875 0l0 -4.890625q-0.78125 0.671875 -1.578125 1.015625q-0.78125 0.328125 -1.6875 0.328125q-1.8125 0 -2.890625 -1.390625q-1.078125 -1.40625 -1.078125 -3.875q0 -1.3125 0.375 -2.3125q0.375 -1.0 1.0 -1.6875q0.59375 -0.671875 1.40625 -1.03125q0.8125 -0.359375 1.71875 -0.359375q0.8125 0 1.4375 0.1875q0.640625 0.171875 1.296875 0.53125l0.109375 -0.4375l1.609375 0l0 13.921875zm-1.71875 -6.34375l0 -5.75q-0.703125 -0.3125 -1.25 -0.4375q-0.546875 -0.140625 -1.1875 -0.140625q-1.484375 0 -2.265625 1.015625q-0.765625 1.0 -0.765625 2.765625q0 1.78125 0.625 2.75q0.625 0.953125 1.96875 0.953125q0.734375 0 1.484375 -0.3125q0.75 -0.328125 1.390625 -0.84375zm13.529968 2.59375l-1.71875 0l0 -1.125q-0.859375 0.671875 -1.65625 1.046875q-0.796875 0.359375 -1.75 0.359375q-1.609375 0 -2.5 -0.96875q-0.890625 -0.984375 -0.890625 -2.890625l0 -6.59375l1.71875 0l0 5.796875q0 0.765625 0.0625 1.328125q0.078125 0.546875 0.3125 0.9375q0.25 0.390625 0.640625 0.578125q0.390625 0.1875 1.140625 0.1875q0.671875 0 1.453125 -0.34375q0.78125 -0.359375 1.46875 -0.890625l0 -7.59375l1.71875 0l0 10.171875zm11.884041 -4.90625l-7.5000076 0q0 0.9375 0.28125 1.640625q0.28125 0.6875 0.78125 1.140625q0.46875 0.4375 1.109375 0.65625q0.65625 0.21875 1.453125 0.21875q1.03125 0 2.078125 -0.421875q1.0625076 -0.421875 1.5000076 -0.8125l0.09375 0l0 1.859375q-0.859375 0.375 -1.7656326 0.625q-0.90625 0.234375 -1.890625 0.234375q-2.53125 0 -3.953125 -1.359375q-1.421875 -1.375 -1.421875 -3.90625q0 -2.5 1.359375 -3.953125q1.359375 -1.46875 3.578125 -1.46875q2.0625 0 3.1718826 1.203125q1.125 1.203125 1.125 3.40625l0 0.9375zm-1.671875 -1.3125q0 -1.34375 -0.6718826 -2.078125q-0.671875 -0.75 -2.03125 -0.75q-1.375 0 -2.203125 0.8125q-0.8125 0.8125 -0.921875 2.015625l5.8281326 0zm11.535446 3.28125q0 1.390625 -1.15625 2.296875q-1.140625 0.890625 -3.1406097 0.890625q-1.125 0 -2.078125 -0.265625q-0.9375 -0.28125 -1.578125 -0.59375l0 -1.921875l0.09375 0q0.8125 0.609375 1.796875 0.96875q1.0 0.359375 1.90625 0.359375q1.140625 0 1.7656097 -0.359375q0.640625 -0.375 0.640625 -1.15625q0 -0.59375 -0.34375 -0.90625q-0.34375 -0.3125 -1.3281097 -0.53125q-0.359375 -0.078125 -0.953125 -0.1875q-0.59375 -0.109375 -1.078125 -0.234375q-1.328125 -0.359375 -1.890625 -1.046875q-0.5625 -0.6875 -0.5625 -1.6875q0 -0.625 0.25 -1.1875q0.265625 -0.5625 0.796875 -0.984375q0.515625 -0.4375 1.296875 -0.6875q0.796875 -0.25 1.765625 -0.25q0.90625 0 1.8437347 0.234375q0.9375 0.21875 1.546875 0.53125l0 1.828125l-0.078125 0q-0.65625 -0.484375 -1.59375 -0.8125q-0.93748474 -0.328125 -1.8437347 -0.328125q-0.9375 0 -1.59375 0.359375q-0.640625 0.359375 -0.640625 1.0625q0 0.625 0.390625 0.953125q0.390625 0.3125 1.234375 0.515625q0.484375 0.109375 1.0625 0.21875q0.59375 0.109375 0.98435974 0.203125q1.1875 0.265625 1.84375 0.9375q0.640625 0.671875 0.640625 1.78125zm7.7354736 2.84375q-0.484375 0.125 -1.0625 0.203125q-0.5625 0.09375 -1.0 0.09375q-1.5625 0 -2.375 -0.828125q-0.8125 -0.84375 -0.8125 -2.703125l0 -5.40625l-1.15625 0l0 -1.4375l1.15625 0l0 -2.921875l1.71875 0l0 2.921875l3.53125 0l0 1.4375l-3.53125 0l0 4.640625q0 0.796875 0.03125 1.25q0.03125 0.453125 0.25 0.84375q0.203125 0.359375 0.546875 0.53125q0.359375 0.171875 1.078125 0.171875q0.421875 0 0.875 -0.125q0.453125 -0.125 0.65625 -0.203125l0.09375 0l0 1.53125zm7.507599 3.84375l-2.078125 0q-1.609375 -1.84375 -2.5 -4.03125q-0.890625 -2.1875 -0.890625 -4.921875q0 -2.75 0.890625 -4.9375q0.890625 -2.1875 2.5 -4.03125l2.078125 0l0 0.09375q-0.734375 0.65625 -1.40625 1.53125q-0.65625 0.875 -1.234375 2.03125q-0.546875 1.109375 -0.890625 2.46875q-0.34375 1.34375 -0.34375 2.84375q0 1.546875 0.328125 2.84375q0.34375 1.296875 0.90625 2.453125q0.546875 1.125 1.25 2.03125q0.703125 0.90625 1.390625 1.53125l0 0.09375zm10.299957 -6.6875q0 1.390625 -1.15625 2.296875q-1.140625 0.890625 -3.140625 0.890625q-1.125 0 -2.078125 -0.265625q-0.9375 -0.28125 -1.578125 -0.59375l0 -1.921875l0.09375 0q0.8125 0.609375 1.796875 0.96875q1.0 0.359375 1.90625 0.359375q1.140625 0 1.765625 -0.359375q0.640625 -0.375 0.640625 -1.15625q0 -0.59375 -0.34375 -0.90625q-0.34375 -0.3125 -1.328125 -0.53125q-0.359375 -0.078125 -0.953125 -0.1875q-0.59375 -0.109375 -1.078125 -0.234375q-1.328125 -0.359375 -1.890625 -1.046875q-0.5625 -0.6875 -0.5625 -1.6875q0 -0.625 0.25 -1.1875q0.265625 -0.5625 0.796875 -0.984375q0.515625 -0.4375 1.296875 -0.6875q0.796875 -0.25 1.765625 -0.25q0.90625 0 1.84375 0.234375q0.9375 0.21875 1.546875 0.53125l0 1.828125l-0.078125 0q-0.65625 -0.484375 -1.59375 -0.8125q-0.9375 -0.328125 -1.84375 -0.328125q-0.9375 0 -1.59375 0.359375q-0.640625 0.359375 -0.640625 1.0625q0 0.625 0.390625 0.953125q0.390625 0.3125 1.234375 0.515625q0.484375 0.109375 1.0625 0.21875q0.59375 0.109375 0.984375 0.203125q1.1875 0.265625 1.84375 0.9375q0.640625 0.671875 0.640625 1.78125zm7.5948486 -2.265625q0 2.734375 -0.90625 4.921875q-0.890625 2.1875 -2.5 4.03125l-2.078125 0l0 -0.09375q0.703125 -0.625 1.40625 -1.53125q0.703125 -0.90625 1.234375 -2.03125q0.578125 -1.15625 0.90625 -2.453125q0.328125 -1.296875 0.328125 -2.84375q0 -1.5 -0.34375 -2.84375q-0.328125 -1.359375 -0.890625 -2.46875q-0.5625 -1.15625 -1.234375 -2.03125q-0.671875 -0.875 -1.40625 -1.53125l0 -0.09375l2.078125 0q1.609375 1.84375 2.5 4.03125q0.90625 2.1875 0.90625 4.9375z" fill-rule="nonzero"/><path fill="#fff2cc" d="m8.778215 394.19946l180.0 0l0 99.87402l-180.0 0z" fill-rule="evenodd"/><path stroke="#000000" stroke-width="1.0" stroke-linejoin="round" stroke-linecap="butt" d="m8.778215 394.19946l180.0 0l0 99.87402l-180.0 0z" fill-rule="evenodd"/><path fill="#000000" d="m37.24772 444.29086q0 1.84375 -0.8125 3.359375q-0.796875 1.5 -2.140625 2.328125q-0.921875 0.5625 -2.078125 0.828125q-1.1406231 0.25 -2.999998 0.25l-3.421875 0l0 -13.5625l3.375 0q2.0 0 3.156248 0.296875q1.171875 0.28125 1.984375 0.78125q1.390625 0.859375 2.15625 2.296875q0.78125 1.4375 0.78125 3.421875zm-1.890625 -0.03125q0 -1.59375 -0.5625 -2.6875q-0.546875 -1.09375 -1.640625 -1.71875q-0.8125 -0.453125 -1.7187481 -0.625q-0.890625 -0.1875 -2.15625 -0.1875l-1.6875 0l0 10.46875l1.6875 0q1.3125 0 2.28125 -0.1875q0.9687481 -0.203125 1.7812481 -0.71875q1.015625 -0.640625 1.515625 -1.6875q0.5 -1.0625 0.5 -2.65625zm13.187286 1.890625l-7.5 0q0 0.9375 0.28125 1.640625q0.28125 0.6875 0.78125 1.140625q0.46875 0.4375 1.109375 0.65625q0.65625 0.21875 1.453125 0.21875q1.03125 0 2.078125 -0.421875q1.0625 -0.421875 1.5 -0.8125l0.09375 0l0 1.859375q-0.859375 0.375 -1.765625 0.625q-0.90625 0.234375 -1.890625 0.234375q-2.53125 0 -3.953125 -1.359375q-1.421875 -1.375 -1.421875 -3.90625q0 -2.5 1.359375 -3.953125q1.359375 -1.46875 3.578125 -1.46875q2.0625 0 3.171875 1.203125q1.125 1.203125 1.125 3.40625l0 0.9375zm-1.671875 -1.3125q0 -1.34375 -0.671875 -2.078125q-0.671875 -0.75 -2.03125 -0.75q-1.375 0 -2.203125 0.8125q-0.8125 0.8125 -0.921875 2.015625l5.828125 0zm11.535461 3.28125q0 1.390625 -1.15625 2.296875q-1.140625 0.890625 -3.140625 0.890625q-1.125 0 -2.078125 -0.265625q-0.9375 -0.28125 -1.578125 -0.59375l0 -1.921875l0.09375 0q0.8125 0.609375 1.796875 0.96875q1.0 0.359375 1.90625 0.359375q1.140625 0 1.765625 -0.359375q0.640625 -0.375 0.640625 -1.15625q0 -0.59375 -0.34375 -0.90625q-0.34375 -0.3125 -1.328125 -0.53125q-0.359375 -0.078125 -0.953125 -0.1875q-0.59375 -0.109375 -1.078125 -0.234375q-1.328125 -0.359375 -1.890625 -1.046875q-0.5625 -0.6875 -0.5625 -1.6875q0 -0.625 0.25 -1.1875q0.265625 -0.5625 0.796875 -0.984375q0.515625 -0.4375 1.296875 -0.6875q0.796875 -0.25 1.765625 -0.25q0.90625 0 1.84375 0.234375q0.9375 0.21875 1.546875 0.53125l0 1.828125l-0.078125 0q-0.65625 -0.484375 -1.59375 -0.8125q-0.9375 -0.328125 -1.84375 -0.328125q-0.9375 0 -1.59375 0.359375q-0.640625 0.359375 -0.640625 1.0625q0 0.625 0.390625 0.953125q0.390625 0.3125 1.234375 0.515625q0.484375 0.109375 1.0625 0.21875q0.59375 0.109375 0.984375 0.203125q1.1875 0.265625 1.84375 0.9375q0.640625 0.671875 0.640625 1.78125zm10.969833 -1.96875l-7.5 0q0 0.9375 0.28125 1.640625q0.28125 0.6875 0.78125 1.140625q0.46875 0.4375 1.109375 0.65625q0.65625 0.21875 1.453125 0.21875q1.03125 0 2.078125 -0.421875q1.0625 -0.421875 1.5 -0.8125l0.09375 0l0 1.859375q-0.859375 0.375 -1.765625 0.625q-0.90625 0.234375 -1.890625 0.234375q-2.53125 0 -3.953125 -1.359375q-1.421875 -1.375 -1.421875 -3.90625q0 -2.5 1.359375 -3.953125q1.359375 -1.46875 3.578125 -1.46875q2.0625 0 3.171875 1.203125q1.125 1.203125 1.125 3.40625l0 0.9375zm-1.671875 -1.3125q0 -1.34375 -0.671875 -2.078125q-0.671875 -0.75 -2.03125 -0.75q-1.375 0 -2.203125 0.8125q-0.8125 0.8125 -0.921875 2.015625l5.828125 0zm10.613586 -2.09375l-0.09375 0q-0.375 -0.09375 -0.734375 -0.125q-0.359375 -0.046875 -0.859375 -0.046875q-0.78125 0 -1.53125 0.359375q-0.734375 0.34375 -1.421875 0.90625l0 7.21875l-1.703125 0l0 -10.171875l1.703125 0l0 1.5q1.03125 -0.8125 1.796875 -1.15625q0.78125 -0.34375 1.59375 -0.34375q0.453125 0 0.65625 0.03125q0.203125 0.015625 0.59375 0.078125l0 1.75zm3.4617004 -3.5625l-1.9375 0l0 -1.78125l1.9375 0l0 1.78125zm-0.109375 11.875l-1.71875 0l0 -10.171875l1.71875 0l0 10.171875zm11.291412 0l-1.703125 0l0 -1.078125q-0.234375 0.15625 -0.625 0.4375q-0.375 0.265625 -0.75 0.4375q-0.421875 0.203125 -0.984375 0.34375q-0.546875 0.140625 -1.296875 0.140625q-1.375 0 -2.328125 -0.90625q-0.953125 -0.921875 -0.953125 -2.328125q0 -1.15625 0.484375 -1.859375q0.5 -0.71875 1.421875 -1.140625q0.9375 -0.40625 2.234375 -0.546875q1.296875 -0.15625 2.796875 -0.21875l0 -0.265625q0 -0.578125 -0.203125 -0.953125q-0.203125 -0.390625 -0.59375 -0.609375q-0.359375 -0.21875 -0.875 -0.28125q-0.5 -0.078125 -1.0625 -0.078125q-0.671875 0 -1.5 0.1875q-0.828125 0.171875 -1.71875 0.5l-0.09375 0l0 -1.734375q0.5 -0.140625 1.453125 -0.296875q0.953125 -0.171875 1.875 -0.171875q1.0625 0 1.859375 0.1875q0.796875 0.171875 1.390625 0.59375q0.5625 0.421875 0.859375 1.09375q0.3125 0.65625 0.3125 1.640625l0 6.90625zm-1.703125 -2.5l0 -2.84375q-0.78125 0.046875 -1.84375 0.140625q-1.0625 0.09375 -1.6875 0.265625q-0.734375 0.203125 -1.1875 0.65625q-0.453125 0.4375 -0.453125 1.21875q0 0.859375 0.515625 1.3125q0.53125 0.4375 1.625 0.4375q0.890625 0 1.640625 -0.34375q0.75 -0.359375 1.390625 -0.84375zm6.7359314 2.5l-1.71875 0l0 -14.171875l1.71875 0l0 14.171875zm5.2289124 -11.875l-1.9375 0l0 -1.78125l1.9375 0l0 1.78125zm-0.109375 11.875l-1.71875 0l0 -10.171875l1.71875 0l0 10.171875zm10.650787 -2.9375q0 1.390625 -1.15625 2.296875q-1.140625 0.890625 -3.140625 0.890625q-1.125 0 -2.078125 -0.265625q-0.9375 -0.28125 -1.578125 -0.59375l0 -1.921875l0.09375 0q0.8125 0.609375 1.796875 0.96875q1.0 0.359375 1.90625 0.359375q1.140625 0 1.765625 -0.359375q0.640625 -0.375 0.640625 -1.15625q0 -0.59375 -0.34375 -0.90625q-0.34375 -0.3125 -1.328125 -0.53125q-0.359375 -0.078125 -0.953125 -0.1875q-0.59375 -0.109375 -1.078125 -0.234375q-1.328125 -0.359375 -1.890625 -1.046875q-0.5625 -0.6875 -0.5625 -1.6875q0 -0.625 0.25 -1.1875q0.265625 -0.5625 0.796875 -0.984375q0.515625 -0.4375 1.296875 -0.6875q0.796875 -0.25 1.765625 -0.25q0.90625 0 1.84375 0.234375q0.9375 0.21875 1.546875 0.53125l0 1.828125l-0.078125 0q-0.65625 -0.484375 -1.59375 -0.8125q-0.9375 -0.328125 -1.84375 -0.328125q-0.9375 0 -1.59375 0.359375q-0.640625 0.359375 -0.640625 1.0625q0 0.625 0.390625 0.953125q0.390625 0.3125 1.234375 0.515625q0.484375 0.109375 1.0625 0.21875q0.59375 0.109375 0.984375 0.203125q1.1875 0.265625 1.84375 0.9375q0.640625 0.671875 0.640625 1.78125zm10.969833 -1.96875l-7.5 0q0 0.9375 0.28125 1.640625q0.28125 0.6875 0.78125 1.140625q0.46875 0.4375 1.109375 0.65625q0.65625 0.21875 1.453125 0.21875q1.03125 0 2.078125 -0.421875q1.0625 -0.421875 1.5 -0.8125l0.09375 0l0 1.859375q-0.859375 0.375 -1.765625 0.625q-0.90625 0.234375 -1.890625 0.234375q-2.53125 0 -3.953125 -1.359375q-1.421875 -1.375 -1.421875 -3.90625q0 -2.5 1.359375 -3.953125q1.359375 -1.46875 3.578125 -1.46875q2.0625 0 3.171875 1.203125q1.125 1.203125 1.125 3.40625l0 0.9375zm-1.671875 -1.3125q0 -1.34375 -0.671875 -2.078125q-0.671875 -0.75 -2.03125 -0.75q-1.375 0 -2.203125 0.8125q-0.8125 0.8125 -0.921875 2.015625l5.828125 0zm19.078682 6.21875l-1.71875 0l0 -1.0625q-0.734375 0.640625 -1.53125 1.0q-0.796875 0.34375 -1.734375 0.34375q-1.828125 0 -2.90625 -1.390625q-1.0625 -1.40625 -1.0625 -3.90625q0 -1.28125 0.359375 -2.296875q0.375 -1.015625 1.0 -1.71875q0.625 -0.703125 1.453125 -1.0625q0.828125 -0.359375 1.703125 -0.359375q0.796875 0 1.421875 0.171875q0.625 0.15625 1.296875 0.515625l0 -4.40625l1.71875 0l0 14.171875zm-1.71875 -2.5l0 -5.84375q-0.6875 -0.3125 -1.234375 -0.421875q-0.546875 -0.125 -1.1875 -0.125q-1.4375 0 -2.25 1.0q-0.796875 1.0 -0.796875 2.84375q0 1.8125 0.609375 2.765625q0.625 0.9375 2.0 0.9375q0.71875 0 1.46875 -0.328125q0.75 -0.328125 1.390625 -0.828125zm12.998718 2.5l-1.703125 0l0 -1.078125q-0.234375 0.15625 -0.625 0.4375q-0.375 0.265625 -0.75 0.4375q-0.421875 0.203125 -0.984375 0.34375q-0.546875 0.140625 -1.296875 0.140625q-1.375 0 -2.328125 -0.90625q-0.953125 -0.921875 -0.953125 -2.328125q0 -1.15625 0.484375 -1.859375q0.5 -0.71875 1.421875 -1.140625q0.9375 -0.40625 2.234375 -0.546875q1.296875 -0.15625 2.796875 -0.21875l0 -0.265625q0 -0.578125 -0.203125 -0.953125q-0.203125 -0.390625 -0.59375 -0.609375q-0.359375 -0.21875 -0.875 -0.28125q-0.5 -0.078125 -1.0625 -0.078125q-0.671875 0 -1.5 0.1875q-0.828125 0.171875 -1.71875 0.5l-0.09375 0l0 -1.734375q0.5 -0.140625 1.453125 -0.296875q0.953125 -0.171875 1.875 -0.171875q1.0625 0 1.859375 0.1875q0.796875 0.171875 1.390625 0.59375q0.5625 0.421875 0.859375 1.09375q0.3125 0.65625 0.3125 1.640625l0 6.90625zm-1.703125 -2.5l0 -2.84375q-0.78125 0.046875 -1.84375 0.140625q-1.0625 0.09375 -1.6875 0.265625q-0.734375 0.203125 -1.1875 0.65625q-0.453125 0.4375 -0.453125 1.21875q0 0.859375 0.515625 1.3125q0.53125 0.4375 1.625 0.4375q0.890625 0 1.640625 -0.34375q0.75 -0.359375 1.390625 -0.84375zm10.282806 2.40625q-0.484375 0.125 -1.0625 0.203125q-0.5625 0.09375 -1.0 0.09375q-1.5625 0 -2.375 -0.828125q-0.8125 -0.84375 -0.8125 -2.703125l0 -5.40625l-1.15625 0l0 -1.4375l1.15625 0l0 -2.921875l1.71875 0l0 2.921875l3.53125 0l0 1.4375l-3.53125 0l0 4.640625q0 0.796875 0.03125 1.25q0.03125 0.453125 0.25 0.84375q0.203125 0.359375 0.546875 0.53125q0.359375 0.171875 1.078125 0.171875q0.421875 0 0.875 -0.125q0.453125 -0.125 0.65625 -0.203125l0.09375 0l0 1.53125zm9.976349 0.09375l-1.703125 0l0 -1.078125q-0.234375 0.15625 -0.625 0.4375q-0.375 0.265625 -0.75 0.4375q-0.421875 0.203125 -0.984375 0.34375q-0.546875 0.140625 -1.296875 0.140625q-1.375 0 -2.328125 -0.90625q-0.953125 -0.921875 -0.953125 -2.328125q0 -1.15625 0.484375 -1.859375q0.5 -0.71875 1.421875 -1.140625q0.9375 -0.40625 2.234375 -0.546875q1.296875 -0.15625 2.796875 -0.21875l0 -0.265625q0 -0.578125 -0.203125 -0.953125q-0.203125 -0.390625 -0.59375 -0.609375q-0.359375 -0.21875 -0.875 -0.28125q-0.5 -0.078125 -1.0625 -0.078125q-0.671875 0 -1.5 0.1875q-0.828125 0.171875 -1.71875 0.5l-0.09375 0l0 -1.734375q0.5 -0.140625 1.453125 -0.296875q0.953125 -0.171875 1.875 -0.171875q1.0625 0 1.859375 0.1875q0.796875 0.171875 1.390625 0.59375q0.5625 0.421875 0.859375 1.09375q0.3125 0.65625 0.3125 1.640625l0 6.90625zm-1.703125 -2.5l0 -2.84375q-0.78125 0.046875 -1.84375 0.140625q-1.0625 0.09375 -1.6875 0.265625q-0.734375 0.203125 -1.1875 0.65625q-0.453125 0.4375 -0.453125 1.21875q0 0.859375 0.515625 1.3125q0.53125 0.4375 1.625 0.4375q0.890625 0 1.640625 -0.34375q0.75 -0.359375 1.390625 -0.84375z" fill-rule="nonzero"/><path fill="#fff2cc" d="m8.778215 523.5866l180.0 0l0 99.87402l-180.0 0z" fill-rule="evenodd"/><path stroke="#000000" stroke-width="1.0" stroke-linejoin="round" stroke-linecap="butt" d="m8.778215 523.5866l180.0 0l0 99.87402l-180.0 0z" fill-rule="evenodd"/><path fill="#000000" d="m45.93167 580.4436l-2.34375 0l-4.53125 -5.390625l-2.546875 0l0 5.390625l-1.796875 0l0 -13.5625l3.796875 0q1.21875 0 2.03125 0.15625q0.828125 0.15625 1.484375 0.578125q0.75 0.453125 1.15625 1.171875q0.421875 0.703125 0.421875 1.78125q0 1.46875 -0.75 2.453125q-0.734375 0.984375 -2.03125 1.484375l5.109375 5.9375zm-4.21875 -9.75q0 -0.578125 -0.203125 -1.03125q-0.203125 -0.453125 -0.6875 -0.765625q-0.390625 -0.265625 -0.921875 -0.359375q-0.53125 -0.109375 -1.265625 -0.109375l-2.125 0l0 5.125l1.828125 0q0.84375 0 1.484375 -0.15625q0.640625 -0.15625 1.09375 -0.5625q0.40625 -0.375 0.59375 -0.875q0.203125 -0.5 0.203125 -1.265625zm13.89119 4.84375l-7.5 0q0 0.9375 0.28125 1.640625q0.28125 0.6875 0.78125 1.140625q0.46875 0.4375 1.109375 0.65625q0.65625 0.21875 1.453125 0.21875q1.03125 0 2.078125 -0.421875q1.0625 -0.421875 1.5 -0.8125l0.09375 0l0 1.859375q-0.859375 0.375 -1.765625 0.625q-0.90625 0.234375 -1.890625 0.234375q-2.53125 0 -3.953125 -1.359375q-1.421875 -1.375 -1.421875 -3.90625q0 -2.5 1.359375 -3.953125q1.359375 -1.46875 3.578125 -1.46875q2.0625 0 3.171875 1.203125q1.125 1.203125 1.125 3.40625l0 0.9375zm-1.671875 -1.3125q0 -1.34375 -0.671875 -2.078125q-0.671875 -0.75 -2.03125 -0.75q-1.375 0 -2.203125 0.8125q-0.8125 0.8125 -0.921875 2.015625l5.828125 0zm9.551086 6.125q-0.484375 0.125 -1.0625 0.203125q-0.5625 0.09375 -1.0 0.09375q-1.5625 0 -2.375 -0.828125q-0.8125 -0.84375 -0.8125 -2.703125l0 -5.40625l-1.15625 0l0 -1.4375l1.15625 0l0 -2.921875l1.71875 0l0 2.921875l3.53125 0l0 1.4375l-3.53125 0l0 4.640625q0 0.796875 0.03125 1.25q0.03125 0.453125 0.25 0.84375q0.203125 0.359375 0.546875 0.53125q0.359375 0.171875 1.078125 0.171875q0.421875 0 0.875 -0.125q0.453125 -0.125 0.65625 -0.203125l0.09375 0l0 1.53125zm10.507614 0.09375l-1.71875 0l0 -1.125q-0.859375 0.671875 -1.65625 1.046875q-0.796875 0.359375 -1.75 0.359375q-1.609375 0 -2.5 -0.96875q-0.890625 -0.984375 -0.890625 -2.890625l0 -6.59375l1.71875 0l0 5.796875q0 0.765625 0.0625 1.328125q0.078125 0.546875 0.3125 0.9375q0.25 0.390625 0.640625 0.578125q0.390625 0.1875 1.140625 0.1875q0.671875 0 1.453125 -0.34375q0.78125 -0.359375 1.46875 -0.890625l0 -7.59375l1.71875 0l0 10.171875zm9.712158 -8.3125l-0.09375 0q-0.375 -0.09375 -0.734375 -0.125q-0.359375 -0.046875 -0.859375 -0.046875q-0.78125 0 -1.53125 0.359375q-0.734375 0.34375 -1.421875 0.90625l0 7.21875l-1.703125 0l0 -10.171875l1.703125 0l0 1.5q1.03125 -0.8125 1.796875 -1.15625q0.78125 -0.34375 1.59375 -0.34375q0.453125 0 0.65625 0.03125q0.203125 0.015625 0.59375 0.078125l0 1.75zm10.11795 8.3125l-1.703125 0l0 -5.796875q0 -0.703125 -0.09375 -1.3125q-0.078125 -0.609375 -0.296875 -0.96875q-0.21875 -0.375 -0.65625 -0.5625q-0.421875 -0.1875 -1.109375 -0.1875q-0.703125 0 -1.46875 0.34375q-0.765625 0.34375 -1.46875 0.890625l0 7.59375l-1.703125 0l0 -10.171875l1.703125 0l0 1.125q0.8125 -0.65625 1.65625 -1.03125q0.859375 -0.375 1.765625 -0.375q1.65625 0 2.515625 1.0q0.859375 0.984375 0.859375 2.84375l0 6.609375zm18.364746 0l-1.703125 0l0 -5.796875q0 -0.703125 -0.09375 -1.3125q-0.078125 -0.609375 -0.296875 -0.96875q-0.21875 -0.375 -0.65625 -0.5625q-0.421875 -0.1875 -1.109375 -0.1875q-0.703125 0 -1.46875 0.34375q-0.765625 0.34375 -1.46875 0.890625l0 7.59375l-1.703125 0l0 -14.171875l1.703125 0l0 5.125q0.8125 -0.65625 1.65625 -1.03125q0.859375 -0.375 1.765625 -0.375q1.65625 0 2.515625 1.0q0.859375 0.984375 0.859375 2.84375l0 6.609375zm11.212158 0l-1.703125 0l0 -1.078125q-0.234375 0.15625 -0.625 0.4375q-0.375 0.265625 -0.75 0.4375q-0.421875 0.203125 -0.984375 0.34375q-0.546875 0.140625 -1.296875 0.140625q-1.375 0 -2.328125 -0.90625q-0.953125 -0.921875 -0.953125 -2.328125q0 -1.15625 0.484375 -1.859375q0.5 -0.71875 1.421875 -1.140625q0.9375 -0.40625 2.234375 -0.546875q1.296875 -0.15625 2.796875 -0.21875l0 -0.265625q0 -0.578125 -0.203125 -0.953125q-0.203125 -0.390625 -0.59375 -0.609375q-0.359375 -0.21875 -0.875 -0.28125q-0.5 -0.078125 -1.0625 -0.078125q-0.671875 0 -1.5 0.1875q-0.828125 0.171875 -1.71875 0.5l-0.09375 0l0 -1.734375q0.5 -0.140625 1.453125 -0.296875q0.953125 -0.171875 1.875 -0.171875q1.0625 0 1.859375 0.1875q0.796875 0.171875 1.390625 0.59375q0.5625 0.421875 0.859375 1.09375q0.3125 0.65625 0.3125 1.640625l0 6.90625zm-1.703125 -2.5l0 -2.84375q-0.78125 0.046875 -1.84375 0.140625q-1.0625 0.09375 -1.6875 0.265625q-0.734375 0.203125 -1.1875 0.65625q-0.453125 0.4375 -0.453125 1.21875q0 0.859375 0.515625 1.3125q0.53125 0.4375 1.625 0.4375q0.890625 0 1.640625 -0.34375q0.75 -0.359375 1.390625 -0.84375zm13.501556 2.5l-1.703125 0l0 -5.796875q0 -0.703125 -0.09375 -1.3125q-0.078125 -0.609375 -0.296875 -0.96875q-0.21875 -0.375 -0.65625 -0.5625q-0.421875 -0.1875 -1.109375 -0.1875q-0.703125 0 -1.46875 0.34375q-0.765625 0.34375 -1.46875 0.890625l0 7.59375l-1.703125 0l0 -10.171875l1.703125 0l0 1.125q0.8125 -0.65625 1.65625 -1.03125q0.859375 -0.375 1.765625 -0.375q1.65625 0 2.515625 1.0q0.859375 0.984375 0.859375 2.84375l0 6.609375zm11.555908 0l-1.71875 0l0 -1.0625q-0.734375 0.640625 -1.53125 1.0q-0.796875 0.34375 -1.734375 0.34375q-1.828125 0 -2.90625 -1.390625q-1.0625 -1.40625 -1.0625 -3.90625q0 -1.28125 0.359375 -2.296875q0.375 -1.015625 1.0 -1.71875q0.625 -0.703125 1.453125 -1.0625q0.828125 -0.359375 1.703125 -0.359375q0.796875 0 1.421875 0.171875q0.625 0.15625 1.296875 0.515625l0 -4.40625l1.71875 0l0 14.171875zm-1.71875 -2.5l0 -5.84375q-0.6875 -0.3125 -1.234375 -0.421875q-0.546875 -0.125 -1.1875 -0.125q-1.4375 0 -2.25 1.0q-0.796875 1.0 -0.796875 2.84375q0 1.8125 0.609375 2.765625q0.625 0.9375 2.0 0.9375q0.71875 0 1.46875 -0.328125q0.75 -0.328125 1.390625 -0.828125zm6.8268433 2.5l-1.71875 0l0 -14.171875l1.71875 0l0 14.171875zm11.900787 -4.90625l-7.5 0q0 0.9375 0.28125 1.640625q0.28125 0.6875 0.78125 1.140625q0.46875 0.4375 1.109375 0.65625q0.65625 0.21875 1.453125 0.21875q1.03125 0 2.078125 -0.421875q1.0625 -0.421875 1.5 -0.8125l0.09375 0l0 1.859375q-0.859375 0.375 -1.765625 0.625q-0.90625 0.234375 -1.890625 0.234375q-2.53125 0 -3.953125 -1.359375q-1.421875 -1.375 -1.421875 -3.90625q0 -2.5 1.359375 -3.953125q1.359375 -1.46875 3.578125 -1.46875q2.0625 0 3.171875 1.203125q1.125 1.203125 1.125 3.40625l0 0.9375zm-1.671875 -1.3125q0 -1.34375 -0.671875 -2.078125q-0.671875 -0.75 -2.03125 -0.75q-1.375 0 -2.203125 0.8125q-0.8125 0.8125 -0.921875 2.015625l5.828125 0z" fill-rule="nonzero"/><path fill="#fff2cc" d="m8.778215 264.81104l180.0 0l0 99.87399l-180.0 0z" fill-rule="evenodd"/><path stroke="#000000" stroke-width="1.0" stroke-linejoin="round" stroke-linecap="butt" d="m8.778215 264.81104l180.0 0l0 99.87399l-180.0 0z" fill-rule="evenodd"/><path fill="#000000" d="m52.066963 321.66803l-2.34375 0l-4.53125 -5.390625l-2.546875 0l0 5.390625l-1.796875 0l0 -13.5625l3.796875 0q1.21875 0 2.03125 0.15625q0.828125 0.15625 1.484375 0.578125q0.75 0.453125 1.15625 1.171875q0.421875 0.703125 0.421875 1.78125q0 1.46875 -0.75 2.453125q-0.734375 0.984375 -2.03125 1.484375l5.109375 5.9375zm-4.21875 -9.75q0 -0.578125 -0.203125 -1.03125q-0.203125 -0.453125 -0.6875 -0.765625q-0.390625 -0.265625 -0.921875 -0.359375q-0.53125 -0.109375 -1.265625 -0.109375l-2.125 0l0 5.125l1.828125 0q0.84375 0 1.484375 -0.15625q0.640625 -0.15625 1.09375 -0.5625q0.40625 -0.375 0.59375 -0.875q0.203125 -0.5 0.203125 -1.265625zm13.89119 4.84375l-7.5 0q0 0.9375 0.28125 1.640625q0.28125 0.6875 0.78125 1.140625q0.46875 0.4375 1.109375 0.65625q0.65625 0.21875 1.453125 0.21875q1.03125 0 2.078125 -0.421875q1.0625 -0.421875 1.5 -0.8125l0.09375 0l0 1.859375q-0.859375 0.375 -1.765625 0.625q-0.90625 0.234375 -1.890625 0.234375q-2.53125 0 -3.953125 -1.359375q-1.421875 -1.375 -1.421875 -3.90625q0 -2.5 1.359375 -3.953125q1.359375 -1.46875 3.578125 -1.46875q2.0625 0 3.171875 1.203125q1.125 1.203125 1.125 3.40625l0 0.9375zm-1.671875 -1.3125q0 -1.34375 -0.671875 -2.078125q-0.671875 -0.75 -2.03125 -0.75q-1.375 0 -2.203125 0.8125q-0.8125 0.8125 -0.921875 2.015625l5.828125 0zm11.785461 5.578125q-0.84375 0.40625 -1.625 0.640625q-0.765625 0.234375 -1.625 0.234375q-1.109375 0 -2.03125 -0.328125q-0.921875 -0.328125 -1.578125 -0.984375q-0.65625 -0.65625 -1.03125 -1.65625q-0.359375 -1.0 -0.359375 -2.34375q0 -2.484375 1.375 -3.90625q1.375 -1.421875 3.625 -1.421875q0.875 0 1.71875 0.25q0.84375 0.234375 1.53125 0.59375l0 1.90625l-0.078125 0q-0.796875 -0.609375 -1.625 -0.9375q-0.828125 -0.328125 -1.625 -0.328125q-1.453125 0 -2.296875 0.984375q-0.84375 0.96875 -0.84375 2.859375q0 1.84375 0.8125 2.84375q0.828125 0.984375 2.328125 0.984375q0.515625 0 1.046875 -0.140625q0.546875 -0.140625 0.96875 -0.359375q0.375 -0.1875 0.703125 -0.40625q0.328125 -0.21875 0.53125 -0.359375l0.078125 0l0 1.875zm10.719833 -4.265625l-7.5 0q0 0.9375 0.28125 1.640625q0.28125 0.6875 0.78125 1.140625q0.46875 0.4375 1.109375 0.65625q0.65625 0.21875 1.453125 0.21875q1.03125 0 2.078125 -0.421875q1.0625 -0.421875 1.5 -0.8125l0.09375 0l0 1.859375q-0.859375 0.375 -1.765625 0.625q-0.90625 0.234375 -1.890625 0.234375q-2.53125 0 -3.953125 -1.359375q-1.421875 -1.375 -1.421875 -3.90625q0 -2.5 1.359375 -3.953125q1.359375 -1.46875 3.578125 -1.46875q2.0625 0 3.171875 1.203125q1.125 1.203125 1.125 3.40625l0 0.9375zm-1.671875 -1.3125q0 -1.34375 -0.671875 -2.078125q-0.671875 -0.75 -2.03125 -0.75q-1.375 0 -2.203125 0.8125q-0.8125 0.8125 -0.921875 2.015625l5.828125 0zm6.1135864 -5.65625l-1.9375 0l0 -1.78125l1.9375 0l0 1.78125zm-0.109375 11.875l-1.71875 0l0 -10.171875l1.71875 0l0 10.171875zm12.182037 -10.171875l-4.109375 10.171875l-1.734375 0l-4.078125 -10.171875l1.84375 0l3.15625 8.09375l3.125 -8.09375l1.796875 0zm10.595398 5.265625l-7.5 0q0 0.9375 0.28125 1.640625q0.28125 0.6875 0.78125 1.140625q0.46875 0.4375 1.109375 0.65625q0.65625 0.21875 1.453125 0.21875q1.03125 0 2.078125 -0.421875q1.0625 -0.421875 1.5 -0.8125l0.09375 0l0 1.859375q-0.859375 0.375 -1.765625 0.625q-0.90625 0.234375 -1.890625 0.234375q-2.53125 0 -3.953125 -1.359375q-1.421875 -1.375 -1.421875 -3.90625q0 -2.5 1.359375 -3.953125q1.359375 -1.46875 3.578125 -1.46875q2.0625 0 3.171875 1.203125q1.125 1.203125 1.125 3.40625l0 0.9375zm-1.671875 -1.3125q0 -1.34375 -0.671875 -2.078125q-0.671875 -0.75 -2.03125 -0.75q-1.375 0 -2.203125 0.8125q-0.8125 0.8125 -0.921875 2.015625l5.828125 0zm19.078674 6.21875l-1.71875 0l0 -1.0625q-0.734375 0.640625 -1.53125 1.0q-0.796875 0.34375 -1.734375 0.34375q-1.828125 0 -2.90625 -1.390625q-1.0625 -1.40625 -1.0625 -3.90625q0 -1.28125 0.359375 -2.296875q0.375 -1.015625 1.0 -1.71875q0.625 -0.703125 1.453125 -1.0625q0.828125 -0.359375 1.703125 -0.359375q0.796875 0 1.421875 0.171875q0.625 0.15625 1.296875 0.515625l0 -4.40625l1.71875 0l0 14.171875zm-1.71875 -2.5l0 -5.84375q-0.6875 -0.3125 -1.234375 -0.421875q-0.546875 -0.125 -1.1875 -0.125q-1.4375 0 -2.25 1.0q-0.796875 1.0 -0.796875 2.84375q0 1.8125 0.609375 2.765625q0.625 0.9375 2.0 0.9375q0.71875 0 1.46875 -0.328125q0.75 -0.328125 1.390625 -0.828125zm12.998726 2.5l-1.703125 0l0 -1.078125q-0.234375 0.15625 -0.625 0.4375q-0.375 0.265625 -0.75 0.4375q-0.421875 0.203125 -0.984375 0.34375q-0.546875 0.140625 -1.296875 0.140625q-1.375 0 -2.328125 -0.90625q-0.953125 -0.921875 -0.953125 -2.328125q0 -1.15625 0.484375 -1.859375q0.5 -0.71875 1.421875 -1.140625q0.9375 -0.40625 2.234375 -0.546875q1.296875 -0.15625 2.796875 -0.21875l0 -0.265625q0 -0.578125 -0.203125 -0.953125q-0.203125 -0.390625 -0.59375 -0.609375q-0.359375 -0.21875 -0.875 -0.28125q-0.5 -0.078125 -1.0625 -0.078125q-0.671875 0 -1.5 0.1875q-0.828125 0.171875 -1.71875 0.5l-0.09375 0l0 -1.734375q0.5 -0.140625 1.453125 -0.296875q0.953125 -0.171875 1.875 -0.171875q1.0625 0 1.859375 0.1875q0.796875 0.171875 1.390625 0.59375q0.5625 0.421875 0.859375 1.09375q0.3125 0.65625 0.3125 1.640625l0 6.90625zm-1.703125 -2.5l0 -2.84375q-0.78125 0.046875 -1.84375 0.140625q-1.0625 0.09375 -1.6875 0.265625q-0.734375 0.203125 -1.1875 0.65625q-0.453125 0.4375 -0.453125 1.21875q0 0.859375 0.515625 1.3125q0.53125 0.4375 1.625 0.4375q0.890625 0 1.640625 -0.34375q0.75 -0.359375 1.390625 -0.84375zm10.282806 2.40625q-0.484375 0.125 -1.0625 0.203125q-0.5625 0.09375 -1.0 0.09375q-1.5625 0 -2.375 -0.828125q-0.8125 -0.84375 -0.8125 -2.703125l0 -5.40625l-1.15625 0l0 -1.4375l1.15625 0l0 -2.921875l1.71875 0l0 2.921875l3.53125 0l0 1.4375l-3.53125 0l0 4.640625q0 0.796875 0.03125 1.25q0.03125 0.453125 0.25 0.84375q0.203125 0.359375 0.546875 0.53125q0.359375 0.171875 1.078125 0.171875q0.421875 0 0.875 -0.125q0.453125 -0.125 0.65625 -0.203125l0.09375 0l0 1.53125zm9.976349 0.09375l-1.703125 0l0 -1.078125q-0.234375 0.15625 -0.625 0.4375q-0.375 0.265625 -0.75 0.4375q-0.421875 0.203125 -0.984375 0.34375q-0.546875 0.140625 -1.296875 0.140625q-1.375 0 -2.328125 -0.90625q-0.953125 -0.921875 -0.953125 -2.328125q0 -1.15625 0.484375 -1.859375q0.5 -0.71875 1.421875 -1.140625q0.9375 -0.40625 2.234375 -0.546875q1.296875 -0.15625 2.796875 -0.21875l0 -0.265625q0 -0.578125 -0.203125 -0.953125q-0.203125 -0.390625 -0.59375 -0.609375q-0.359375 -0.21875 -0.875 -0.28125q-0.5 -0.078125 -1.0625 -0.078125q-0.671875 0 -1.5 0.1875q-0.828125 0.171875 -1.71875 0.5l-0.09375 0l0 -1.734375q0.5 -0.140625 1.453125 -0.296875q0.953125 -0.171875 1.875 -0.171875q1.0625 0 1.859375 0.1875q0.796875 0.171875 1.390625 0.59375q0.5625 0.421875 0.859375 1.09375q0.3125 0.65625 0.3125 1.640625l0 6.90625zm-1.703125 -2.5l0 -2.84375q-0.78125 0.046875 -1.84375 0.140625q-1.0625 0.09375 -1.6875 0.265625q-0.734375 0.203125 -1.1875 0.65625q-0.453125 0.4375 -0.453125 1.21875q0 0.859375 0.515625 1.3125q0.53125 0.4375 1.625 0.4375q0.890625 0 1.640625 -0.34375q0.75 -0.359375 1.390625 -0.84375z" fill-rule="nonzero"/><path fill="#cfe2f3" d="m188.7559 448.56168l98.45668 0l0 4.4252014l8.850403 -8.850403l-8.850403 -8.850372l0 4.425171l-98.45668 0z" fill-rule="evenodd"/><path stroke="#000000" stroke-width="1.0" stroke-linejoin="round" stroke-linecap="butt" d="m188.7559 448.56168l98.45668 0l0 4.4252014l8.850403 -8.850403l-8.850403 -8.850372l0 4.425171l-98.45668 0z" fill-rule="evenodd"/><path fill="#d9ead3" d="m259.45538 523.5866l180.0 0l0 99.87402l-180.0 0z" fill-rule="evenodd"/><path stroke="#000000" stroke-width="1.0" stroke-linejoin="round" stroke-linecap="butt" d="m259.45538 523.5866l180.0 0l0 99.87402l-180.0 0z" fill-rule="evenodd"/><path fill="#000000" d="m284.71335 580.4436l-1.921875 0l-1.328125 -3.78125l-5.875 0l-1.328125 3.78125l-1.828125 0l4.9375 -13.5625l2.40625 0l4.9375 13.5625zm-3.8125 -5.328125l-2.375 -6.65625l-2.390625 6.65625l4.765625 0zm13.253296 4.6875q-0.84375 0.40625 -1.625 0.640625q-0.765625 0.234375 -1.625 0.234375q-1.109375 0 -2.03125 -0.328125q-0.921875 -0.328125 -1.578125 -0.984375q-0.65625 -0.65625 -1.03125 -1.65625q-0.359375 -1.0 -0.359375 -2.34375q0 -2.484375 1.375 -3.90625q1.375 -1.421875 3.625 -1.421875q0.875 0 1.71875 0.25q0.84375 0.234375 1.53125 0.59375l0 1.90625l-0.078125 0q-0.796875 -0.609375 -1.625 -0.9375q-0.828125 -0.328125 -1.625 -0.328125q-1.453125 0 -2.296875 0.984375q-0.84375 0.96875 -0.84375 2.859375q0 1.84375 0.8125 2.84375q0.828125 0.984375 2.328125 0.984375q0.515625 0 1.046875 -0.140625q0.546875 -0.140625 0.96875 -0.359375q0.375 -0.1875 0.703125 -0.40625q0.328125 -0.21875 0.53125 -0.359375l0.078125 0l0 1.875zm9.719849 0q-0.84375 0.40625 -1.625 0.640625q-0.765625 0.234375 -1.625 0.234375q-1.109375 0 -2.03125 -0.328125q-0.921875 -0.328125 -1.578125 -0.984375q-0.65625 -0.65625 -1.03125 -1.65625q-0.359375 -1.0 -0.359375 -2.34375q0 -2.484375 1.375 -3.90625q1.375 -1.421875 3.625 -1.421875q0.875 0 1.71875 0.25q0.84375 0.234375 1.53125 0.59375l0 1.90625l-0.078125 0q-0.796875 -0.609375 -1.625 -0.9375q-0.828125 -0.328125 -1.625 -0.328125q-1.453125 0 -2.296875 0.984375q-0.84375 0.96875 -0.84375 2.859375q0 1.84375 0.8125 2.84375q0.828125 0.984375 2.328125 0.984375q0.515625 0 1.046875 -0.140625q0.546875 -0.140625 0.96875 -0.359375q0.375 -0.1875 0.703125 -0.40625q0.328125 -0.21875 0.53125 -0.359375l0.078125 0l0 1.875zm10.719818 -4.265625l-7.5 0q0 0.9375 0.28125 1.640625q0.28125 0.6875 0.78125 1.140625q0.46875 0.4375 1.109375 0.65625q0.65625 0.21875 1.453125 0.21875q1.03125 0 2.078125 -0.421875q1.0625 -0.421875 1.5 -0.8125l0.09375 0l0 1.859375q-0.859375 0.375 -1.765625 0.625q-0.90625 0.234375 -1.890625 0.234375q-2.53125 0 -3.953125 -1.359375q-1.421875 -1.375 -1.421875 -3.90625q0 -2.5 1.359375 -3.953125q1.359375 -1.46875 3.578125 -1.46875q2.0625 0 3.171875 1.203125q1.125 1.203125 1.125 3.40625l0 0.9375zm-1.671875 -1.3125q0 -1.34375 -0.671875 -2.078125q-0.671875 -0.75 -2.03125 -0.75q-1.375 0 -2.203125 0.8125q-0.8125 0.8125 -0.921875 2.015625l5.828125 0zm11.535461 3.28125q0 1.390625 -1.15625 2.296875q-1.140625 0.890625 -3.140625 0.890625q-1.125 0 -2.078125 -0.265625q-0.9375 -0.28125 -1.578125 -0.59375l0 -1.921875l0.09375 0q0.8125 0.609375 1.796875 0.96875q1.0 0.359375 1.90625 0.359375q1.140625 0 1.765625 -0.359375q0.640625 -0.375 0.640625 -1.15625q0 -0.59375 -0.34375 -0.90625q-0.34375 -0.3125 -1.328125 -0.53125q-0.359375 -0.078125 -0.953125 -0.1875q-0.59375 -0.109375 -1.078125 -0.234375q-1.328125 -0.359375 -1.890625 -1.046875q-0.5625 -0.6875 -0.5625 -1.6875q0 -0.625 0.25 -1.1875q0.265625 -0.5625 0.796875 -0.984375q0.515625 -0.4375 1.296875 -0.6875q0.796875 -0.25 1.765625 -0.25q0.90625 0 1.84375 0.234375q0.9375 0.21875 1.546875 0.53125l0 1.828125l-0.078125 0q-0.65625 -0.484375 -1.59375 -0.8125q-0.9375 -0.328125 -1.84375 -0.328125q-0.9375 0 -1.59375 0.359375q-0.640625 0.359375 -0.640625 1.0625q0 0.625 0.390625 0.953125q0.390625 0.3125 1.234375 0.515625q0.484375 0.109375 1.0625 0.21875q0.59375 0.109375 0.984375 0.203125q1.1875 0.265625 1.84375 0.9375q0.640625 0.671875 0.640625 1.78125zm9.719849 0q0 1.390625 -1.15625 2.296875q-1.140625 0.890625 -3.140625 0.890625q-1.125 0 -2.078125 -0.265625q-0.9375 -0.28125 -1.578125 -0.59375l0 -1.921875l0.09375 0q0.8125 0.609375 1.796875 0.96875q1.0 0.359375 1.90625 0.359375q1.140625 0 1.765625 -0.359375q0.640625 -0.375 0.640625 -1.15625q0 -0.59375 -0.34375 -0.90625q-0.34375 -0.3125 -1.328125 -0.53125q-0.359375 -0.078125 -0.953125 -0.1875q-0.59375 -0.109375 -1.078125 -0.234375q-1.328125 -0.359375 -1.890625 -1.046875q-0.5625 -0.6875 -0.5625 -1.6875q0 -0.625 0.25 -1.1875q0.265625 -0.5625 0.796875 -0.984375q0.515625 -0.4375 1.296875 -0.6875q0.796875 -0.25 1.765625 -0.25q0.90625 0 1.84375 0.234375q0.9375 0.21875 1.546875 0.53125l0 1.828125l-0.078125 0q-0.65625 -0.484375 -1.59375 -0.8125q-0.9375 -0.328125 -1.84375 -0.328125q-0.9375 0 -1.59375 0.359375q-0.640625 0.359375 -0.640625 1.0625q0 0.625 0.390625 0.953125q0.390625 0.3125 1.234375 0.515625q0.484375 0.109375 1.0625 0.21875q0.59375 0.109375 0.984375 0.203125q1.1875 0.265625 1.84375 0.9375q0.640625 0.671875 0.640625 1.78125zm14.481781 -9.578125l-0.09375 0q-0.28125 -0.078125 -0.734375 -0.15625q-0.453125 -0.09375 -0.796875 -0.09375q-1.109375 0 -1.609375 0.484375q-0.484375 0.484375 -0.484375 1.765625l0 0.34375l3.078125 0l0 1.4375l-3.03125 0l0 8.734375l-1.703125 0l0 -8.734375l-1.15625 0l0 -1.4375l1.15625 0l0 -0.34375q0 -1.8125 0.890625 -2.78125q0.90625 -0.96875 2.609375 -0.96875q0.578125 0 1.03125 0.0625q0.46875 0.046875 0.84375 0.125l0 1.5625zm9.527588 12.515625l-1.71875 0l0 -1.125q-0.859375 0.671875 -1.65625 1.046875q-0.796875 0.359375 -1.75 0.359375q-1.609375 0 -2.5 -0.96875q-0.890625 -0.984375 -0.890625 -2.890625l0 -6.59375l1.71875 0l0 5.796875q0 0.765625 0.0625 1.328125q0.078125 0.546875 0.3125 0.9375q0.25 0.390625 0.640625 0.578125q0.390625 0.1875 1.140625 0.1875q0.671875 0 1.453125 -0.34375q0.78125 -0.359375 1.46875 -0.890625l0 -7.59375l1.71875 0l0 10.171875zm11.868408 0l-1.703125 0l0 -5.796875q0 -0.703125 -0.09375 -1.3125q-0.078125 -0.609375 -0.296875 -0.96875q-0.21875 -0.375 -0.65625 -0.5625q-0.421875 -0.1875 -1.109375 -0.1875q-0.703125 0 -1.46875 0.34375q-0.765625 0.34375 -1.46875 0.890625l0 7.59375l-1.703125 0l0 -10.171875l1.703125 0l0 1.125q0.8125 -0.65625 1.65625 -1.03125q0.859375 -0.375 1.765625 -0.375q1.65625 0 2.515625 1.0q0.859375 0.984375 0.859375 2.84375l0 6.609375zm10.821533 -0.640625q-0.84375 0.40625 -1.625 0.640625q-0.765625 0.234375 -1.625 0.234375q-1.109375 0 -2.03125 -0.328125q-0.921875 -0.328125 -1.578125 -0.984375q-0.65625 -0.65625 -1.03125 -1.65625q-0.359375 -1.0 -0.359375 -2.34375q0 -2.484375 1.375 -3.90625q1.375 -1.421875 3.625 -1.421875q0.875 0 1.71875 0.25q0.84375 0.234375 1.53125 0.59375l0 1.90625l-0.078125 0q-0.796875 -0.609375 -1.625 -0.9375q-0.828125 -0.328125 -1.625 -0.328125q-1.453125 0 -2.296875 0.984375q-0.84375 0.96875 -0.84375 2.859375q0 1.84375 0.8125 2.84375q0.828125 0.984375 2.328125 0.984375q0.515625 0 1.046875 -0.140625q0.546875 -0.140625 0.96875 -0.359375q0.375 -0.1875 0.703125 -0.40625q0.328125 -0.21875 0.53125 -0.359375l0.078125 0l0 1.875zm7.4854736 0.546875q-0.484375 0.125 -1.0625 0.203125q-0.5625 0.09375 -1.0 0.09375q-1.5625 0 -2.375 -0.828125q-0.8125 -0.84375 -0.8125 -2.703125l0 -5.40625l-1.15625 0l0 -1.4375l1.15625 0l0 -2.921875l1.71875 0l0 2.921875l3.53125 0l0 1.4375l-3.53125 0l0 4.640625q0 0.796875 0.03125 1.25q0.03125 0.453125 0.25 0.84375q0.203125 0.359375 0.546875 0.53125q0.359375 0.171875 1.078125 0.171875q0.421875 0 0.875 -0.125q0.453125 -0.125 0.65625 -0.203125l0.09375 0l0 1.53125zm3.9138489 -11.78125l-1.9375 0l0 -1.78125l1.9375 0l0 1.78125zm-0.109375 11.875l-1.71875 0l0 -10.171875l1.71875 0l0 10.171875zm12.057037 -5.078125q0 2.484375 -1.28125 3.921875q-1.265625 1.4375 -3.40625 1.4375q-2.171875 0 -3.4375 -1.4375q-1.265625 -1.4375 -1.265625 -3.921875q0 -2.484375 1.265625 -3.921875q1.265625 -1.453125 3.4375 -1.453125q2.140625 0 3.40625 1.453125q1.28125 1.4375 1.28125 3.921875zm-1.765625 0q0 -1.984375 -0.78125 -2.9375q-0.765625 -0.96875 -2.140625 -0.96875q-1.40625 0 -2.171875 0.96875q-0.765625 0.953125 -0.765625 2.9375q0 1.90625 0.765625 2.90625q0.78125 0.984375 2.171875 0.984375q1.359375 0 2.140625 -0.984375q0.78125 -0.984375 0.78125 -2.90625zm12.91687 5.078125l-1.703125 0l0 -5.796875q0 -0.703125 -0.09375 -1.3125q-0.078125 -0.609375 -0.296875 -0.96875q-0.21875 -0.375 -0.65625 -0.5625q-0.421875 -0.1875 -1.109375 -0.1875q-0.703125 0 -1.46875 0.34375q-0.765625 0.34375 -1.46875 0.890625l0 7.59375l-1.703125 0l0 -10.171875l1.703125 0l0 1.125q0.8125 -0.65625 1.65625 -1.03125q0.859375 -0.375 1.765625 -0.375q1.65625 0 2.515625 1.0q0.859375 0.984375 0.859375 2.84375l0 6.609375zm10.571533 -2.9375q0 1.390625 -1.15625 2.296875q-1.140625 0.890625 -3.140625 0.890625q-1.125 0 -2.078125 -0.265625q-0.9375 -0.28125 -1.578125 -0.59375l0 -1.921875l0.09375 0q0.8125 0.609375 1.796875 0.96875q1.0 0.359375 1.90625 0.359375q1.140625 0 1.765625 -0.359375q0.640625 -0.375 0.640625 -1.15625q0 -0.59375 -0.34375 -0.90625q-0.34375 -0.3125 -1.328125 -0.53125q-0.359375 -0.078125 -0.953125 -0.1875q-0.59375 -0.109375 -1.078125 -0.234375q-1.328125 -0.359375 -1.890625 -1.046875q-0.5625 -0.6875 -0.5625 -1.6875q0 -0.625 0.25 -1.1875q0.265625 -0.5625 0.796875 -0.984375q0.515625 -0.4375 1.296875 -0.6875q0.796875 -0.25 1.765625 -0.25q0.90625 0 1.84375 0.234375q0.9375 0.21875 1.546875 0.53125l0 1.828125l-0.078125 0q-0.65625 -0.484375 -1.59375 -0.8125q-0.9375 -0.328125 -1.84375 -0.328125q-0.9375 0 -1.59375 0.359375q-0.640625 0.359375 -0.640625 1.0625q0 0.625 0.390625 0.953125q0.390625 0.3125 1.234375 0.515625q0.484375 0.109375 1.0625 0.21875q0.59375 0.109375 0.984375 0.203125q1.1875 0.265625 1.84375 0.9375q0.640625 0.671875 0.640625 1.78125z" fill-rule="nonzero"/><path fill="#c9daf8" d="m353.8819 493.6987l0 21.039398l4.4252014 0l-8.850403 8.850342l-8.850403 -8.850342l4.4252014 0l0 -21.039398z" fill-rule="evenodd"/><path stroke="#000000" stroke-width="1.0" stroke-linejoin="round" stroke-linecap="butt" d="m353.8819 493.6987l0 21.039398l4.4252014 0l-8.850403 8.850342l-8.850403 -8.850342l4.4252014 0l0 -21.039398z" fill-rule="evenodd"/><path fill="#fff2cc" d="m189.79527 577.95013l60.818893 0l0 4.425171l8.850403 -8.850342l-8.850403 -8.850403l0 4.425171l-60.818893 0z" fill-rule="evenodd"/><path stroke="#000000" stroke-width="1.0" stroke-linejoin="round" stroke-linecap="butt" d="m189.79527 577.95013l60.818893 0l0 4.425171l8.850403 -8.850342l-8.850403 -8.850403l0 4.425171l-60.818893 0z" fill-rule="evenodd"/></g></svg>