<svg version="1.1" viewBox="0.0 0.0 436.63517060367457 100.0" fill="none" stroke="none" stroke-linecap="square" stroke-miterlimit="10" xmlns:xlink="http://www.w3.org/1999/xlink" xmlns="http://www.w3.org/2000/svg"><clipPath id="p.0"><path d="m0 0l436.63516 0l0 100.0l-436.63516 0l0 -100.0z" clip-rule="nonzero"/></clipPath><g clip-path="url(#p.0)"><path fill="#000000" fill-opacity="0.0" d="m0 0l436.63516 0l0 100.0l-436.63516 0z" fill-rule="evenodd"/><path fill="#cfe2f3" d="m1.8057743 4.8346457l61.259842 0l45.165356 45.165356l-45.165356 45.16535l-61.259842 0l45.165356 -45.16535z" fill-rule="evenodd"/><path stroke="#000000" stroke-width="1.0" stroke-linejoin="round" stroke-linecap="butt" d="m1.8057743 4.8346457l61.259842 0l45.165356 45.165356l-45.165356 45.16535l-61.259842 0l45.165356 -45.16535z" fill-rule="evenodd"/><path fill="#d0e0e3" d="m83.45512 4.8346457l61.25985 0l45.165344 45.165356l-45.165344 45.16535l-61.25985 0l45.16535 -45.16535z" fill-rule="evenodd"/><path stroke="#000000" stroke-width="1.0" stroke-linejoin="round" stroke-linecap="butt" d="m83.45512 4.8346457l61.25985 0l45.165344 45.165356l-45.165344 45.16535l-61.25985 0l45.16535 -45.16535z" fill-rule="evenodd"/><path fill="#fff2cc" d="m165.10446 4.8346457l61.259842 0l45.16536 45.165356l-45.16536 45.16535l-61.259842 0l45.16536 -45.16535z" fill-rule="evenodd"/><path stroke="#000000" stroke-width="1.0" stroke-linejoin="round" stroke-linecap="butt" d="m165.10446 4.8346457l61.259842 0l45.16536 45.165356l-45.16536 45.16535l-61.259842 0l45.16536 -45.16535z" fill-rule="evenodd"/><path fill="#fce5cd" d="m246.7538 4.8346457l61.259842 0l45.165375 45.165356l-45.165375 45.16535l-61.259842 0l45.16536 -45.16535z" fill-rule="evenodd"/><path stroke="#000000" stroke-width="1.0" stroke-linejoin="round" stroke-linecap="butt" d="m246.7538 4.8346457l61.259842 0l45.165375 45.165356l-45.165375 45.16535l-61.259842 0l45.16536 -45.16535z" fill-rule="evenodd"/><path fill="#f4cccc" d="m328.40314 4.8346457l61.259857 0l45.165344 45.165356l-45.165344 45.16535l-61.259857 0l45.165375 -45.16535z" fill-rule="evenodd"/><path stroke="#000000" stroke-width="1.0" stroke-linejoin="round" stroke-linecap="butt" d="m328.40314 4.8346457l61.259857 0l45.165344 45.165356l-45.165344 45.16535l-61.259857 0l45.165375 -45.16535z" fill-rule="evenodd"/></g></svg>