<svg version="1.1" viewBox="0.0 0.0 868.3543307086615 646.8346456692914" fill="none" stroke="none" stroke-linecap="square" stroke-miterlimit="10" xmlns:xlink="http://www.w3.org/1999/xlink" xmlns="http://www.w3.org/2000/svg"><clipPath id="p.0"><path d="m0 0l868.3543 0l0 646.83466l-868.3543 0l0 -646.83466z" clip-rule="nonzero"/></clipPath><g clip-path="url(#p.0)"><path fill="#000000" fill-opacity="0.0" d="m0 0l868.3543 0l0 646.83466l-868.3543 0z" fill-rule="evenodd"/><path fill="#cfe2f3" d="m7.8188977 7.92126l118.960625 0l0 90.33071l-118.960625 0z" fill-rule="evenodd"/><path stroke="#000000" stroke-width="1.0" stroke-linejoin="round" stroke-linecap="butt" d="m7.8188977 7.92126l118.960625 0l0 90.33071l-118.960625 0z" fill-rule="evenodd"/><path fill="#000000" d="m49.413174 60.006615l-5.359375 0l0 -1.390625l1.78125 0l0 -10.78125l-1.78125 0l0 -1.390625l5.359375 0l0 1.390625l-1.78125 0l0 10.78125l1.78125 0l0 1.390625zm15.149265 0l-1.8125038 0l0 -11.6875l-3.765625 7.953125l-1.078125 0l-3.75 -7.953125l0 11.6875l-1.671875 0l0 -13.5625l2.453125 0l3.609375 7.546875l3.5 -7.546875l2.5156288 0l0 13.5625zm14.332367 0l-1.921875 0l-1.328125 -3.78125l-5.875 0l-1.328125 3.78125l-1.828125 0l4.9375 -13.5625l2.40625 0l4.9375 13.5625zm-3.8125 -5.328125l-2.375 -6.65625l-2.390625 6.65625l4.765625 0zm15.630905 1.453125q0 0.796875 -0.375 1.578125q-0.359375 0.765625 -1.015625 1.296875q-0.734375 0.59375 -1.703125 0.921875q-0.96875 0.328125 -2.34375 0.328125q-1.46875 0 -2.640625 -0.265625q-1.15625 -0.28125 -2.375 -0.828125l0 -2.25l0.125 0q1.03125 0.859375 2.375 1.328125q1.359375 0.453125 2.546875 0.453125q1.671875 0 2.59375 -0.625q0.9375 -0.625 0.9375 -1.671875q0 -0.90625 -0.4375 -1.328125q-0.4375 -0.4375 -1.34375 -0.671875q-0.6875 -0.1875 -1.484375 -0.296875q-0.796875 -0.125 -1.6875 -0.3125q-1.796875 -0.375 -2.671875 -1.296875q-0.875 -0.921875 -0.875 -2.40625q0 -1.71875 1.4375 -2.796875q1.453125 -1.09375 3.65625 -1.09375q1.4375 0 2.625 0.28125q1.203125 0.265625 2.109375 0.671875l0 2.125l-0.125 0q-0.765625 -0.65625 -2.03125 -1.078125q-1.265625 -0.4375 -2.578125 -0.4375q-1.453125 0 -2.34375 0.609375q-0.875 0.59375 -0.875 1.53125q0 0.859375 0.4375 1.34375q0.4375 0.46875 1.546875 0.734375q0.578125 0.125 1.65625 0.3125q1.078125 0.171875 1.828125 0.375q1.5 0.390625 2.265625 1.203125q0.765625 0.8125 0.765625 2.265625z" fill-rule="nonzero"/><path fill="#c9daf8" d="m126.779526 98.25197l118.96063 0l0 90.3307l-118.96063 0z" fill-rule="evenodd"/><path stroke="#000000" stroke-width="1.0" stroke-linejoin="round" stroke-linecap="butt" d="m126.779526 98.25197l118.96063 0l0 90.3307l-118.96063 0z" fill-rule="evenodd"/><path fill="#000000" d="m177.89949 133.8842q0 1.484375 -0.328125 2.578125q-0.3125 1.09375 -1.046875 1.828125q-0.703125 0.6875 -1.640625 1.015625q-0.9375 0.3125 -2.1875 0.3125q-1.28125 0 -2.234375 -0.328125q-0.9375 -0.34375 -1.59375 -1.0q-0.734375 -0.75 -1.0625 -1.796875q-0.3125 -1.0625 -0.3125 -2.609375l0 -8.109383l1.796875 0l0 8.203133q0 1.109375 0.140625 1.75q0.15625 0.625 0.515625 1.15625q0.40625 0.578125 1.09375 0.890625q0.6875 0.296875 1.65625 0.296875q0.96875 0 1.65625 -0.296875q0.6875 -0.296875 1.09375 -0.890625q0.34375 -0.53125 0.5 -1.1875q0.15625 -0.671875 0.15625 -1.671875l0 -8.250008l1.796875 0l0 8.109383zm14.905136 -1.3125q0 1.84375 -0.8125 3.359375q-0.796875 1.5 -2.140625 2.328125q-0.921875 0.5625 -2.078125 0.828125q-1.140625 0.25 -3.0 0.25l-3.421875 0l0 -13.562508l3.375 0q2.0 0 3.15625 0.296875q1.171875 0.28125 1.984375 0.78125q1.390625 0.859375 2.15625 2.2968826q0.78125 1.4375 0.78125 3.421875zm-1.890625 -0.03125q0 -1.59375 -0.5625 -2.6875q-0.546875 -1.09375 -1.640625 -1.71875q-0.8125 -0.45313263 -1.71875 -0.6250076q-0.890625 -0.1875 -2.15625 -0.1875l-1.6875 0l0 10.468758l1.6875 0q1.3125 0 2.28125 -0.1875q0.96875 -0.203125 1.78125 -0.71875q1.015625 -0.640625 1.515625 -1.6875q0.5 -1.0625 0.5 -2.65625zm15.499786 6.796875l-1.921875 0l-1.328125 -3.78125l-5.875 0l-1.328125 3.78125l-1.828125 0l4.9375 -13.562508l2.40625 0l4.9375 13.562508zm-3.8125 -5.328125l-2.375 -6.6562576l-2.390625 6.6562576l4.765625 0z" fill-rule="nonzero"/><path fill="#000000" d="m158.74878 157.16545q0 1.015625 -0.390625 1.796875q-0.375 0.765625 -1.015625 1.265625q-0.765625 0.59375 -1.6875 0.859375q-0.90625 0.25 -2.328125 0.25l-4.796875 0l0 -13.5625l4.015625 0q1.484375 0 2.21875 0.109375q0.734375 0.109375 1.40625 0.453125q0.75 0.390625 1.078125 1.015625q0.34375 0.609375 0.34375 1.46875q0 0.953125 -0.5 1.640625q-0.484375 0.671875 -1.296875 1.09375l0 0.0625q1.375 0.28125 2.15625 1.21875q0.796875 0.921875 0.796875 2.328125zm-3.03125 -6.109375q0 -0.5 -0.171875 -0.828125q-0.15625 -0.34375 -0.515625 -0.546875q-0.4375 -0.25 -1.046875 -0.3125q-0.609375 -0.0625 -1.5 -0.0625l-2.15625 0l0 3.921875l2.328125 0q0.859375 0 1.359375 -0.078125q0.5 -0.09375 0.921875 -0.359375q0.421875 -0.28125 0.59375 -0.703125q0.1875 -0.4375 0.1875 -1.03125zm1.15625 6.1875q0 -0.828125 -0.25 -1.3125q-0.234375 -0.484375 -0.890625 -0.8125q-0.4375 -0.234375 -1.0625 -0.296875q-0.625 -0.078125 -1.515625 -0.078125l-2.828125 0l0 5.046875l2.390625 0q1.1875 0 1.9375 -0.109375q0.75 -0.125 1.234375 -0.453125q0.515625 -0.359375 0.75 -0.8125q0.234375 -0.453125 0.234375 -1.171875zm12.211609 4.09375l-1.703125 0l0 -1.078125q-0.234375 0.15625 -0.625 0.4375q-0.375 0.265625 -0.75 0.4375q-0.421875 0.203125 -0.984375 0.34375q-0.546875 0.140625 -1.296875 0.140625q-1.375 0 -2.328125 -0.90625q-0.953125 -0.921875 -0.953125 -2.328125q0 -1.15625 0.484375 -1.859375q0.5 -0.71875 1.421875 -1.140625q0.9375 -0.40625 2.234375 -0.546875q1.296875 -0.15625 2.796875 -0.21875l0 -0.265625q0 -0.578125 -0.203125 -0.953125q-0.203125 -0.390625 -0.59375 -0.609375q-0.359375 -0.21875 -0.875 -0.28125q-0.5 -0.078125 -1.0625 -0.078125q-0.671875 0 -1.5 0.1875q-0.828125 0.171875 -1.71875 0.5l-0.09375 0l0 -1.734375q0.5 -0.140625 1.453125 -0.296875q0.953125 -0.171875 1.875 -0.171875q1.0625 0 1.859375 0.1875q0.796875 0.171875 1.390625 0.59375q0.5625 0.421875 0.859375 1.09375q0.3125 0.65625 0.3125 1.640625l0 6.90625zm-1.703125 -2.5l0 -2.84375q-0.78125 0.046875 -1.84375 0.140625q-1.0625 0.09375 -1.6875 0.265625q-0.734375 0.203125 -1.1875 0.65625q-0.453125 0.4375 -0.453125 1.21875q0 0.859375 0.515625 1.3125q0.53125 0.4375 1.625 0.4375q0.890625 0 1.640625 -0.34375q0.75 -0.359375 1.390625 -0.84375zm12.517181 1.859375q-0.84375 0.40625 -1.625 0.640625q-0.765625 0.234375 -1.625 0.234375q-1.109375 0 -2.03125 -0.328125q-0.921875 -0.328125 -1.578125 -0.984375q-0.65625 -0.65625 -1.03125 -1.65625q-0.359375 -1.0 -0.359375 -2.34375q0 -2.484375 1.375 -3.90625q1.375 -1.421875 3.625 -1.421875q0.875 0 1.71875 0.25q0.84375 0.234375 1.53125 0.59375l0 1.90625l-0.078125 0q-0.796875 -0.609375 -1.625 -0.9375q-0.828125 -0.328125 -1.625 -0.328125q-1.453125 0 -2.296875 0.984375q-0.84375 0.96875 -0.84375 2.859375q0 1.84375 0.8125 2.84375q0.828125 0.984375 2.328125 0.984375q0.515625 0 1.046875 -0.140625q0.546875 -0.140625 0.96875 -0.359375q0.375 -0.1875 0.703125 -0.40625q0.328125 -0.21875 0.53125 -0.359375l0.078125 0l0 1.875zm11.438583 0.640625l-2.265625 0l-4.078125 -4.453125l-1.109375 1.0625l0 3.390625l-1.703125 0l0 -14.171875l1.703125 0l0 9.09375l4.953125 -5.09375l2.15625 0l-4.734375 4.703125l5.078125 5.46875zm10.139664 -4.90625l-7.5 0q0 0.9375 0.28125 1.640625q0.28125 0.6875 0.78125 1.140625q0.46875 0.4375 1.109375 0.65625q0.65625 0.21875 1.453125 0.21875q1.03125 0 2.078125 -0.421875q1.0625 -0.421875 1.5 -0.8125l0.09375 0l0 1.859375q-0.859375 0.375 -1.765625 0.625q-0.90625 0.234375 -1.890625 0.234375q-2.53125 0 -3.953125 -1.359375q-1.421875 -1.375 -1.421875 -3.90625q0 -2.5 1.359375 -3.953125q1.359375 -1.46875 3.578125 -1.46875q2.0625 0 3.171875 1.203125q1.125 1.203125 1.125 3.40625l0 0.9375zm-1.671875 -1.3125q0 -1.34375 -0.671875 -2.078125q-0.671875 -0.75 -2.03125 -0.75q-1.375 0 -2.203125 0.8125q-0.8125 0.8125 -0.921875 2.015625l5.828125 0zm12.769836 6.21875l-1.703125 0l0 -5.796875q0 -0.703125 -0.09375 -1.3125q-0.078125 -0.609375 -0.296875 -0.96875q-0.21875 -0.375 -0.65625 -0.5625q-0.421875 -0.1875 -1.109375 -0.1875q-0.703125 0 -1.46875 0.34375q-0.765625 0.34375 -1.46875 0.890625l0 7.59375l-1.703125 0l0 -10.171875l1.703125 0l0 1.125q0.8125 -0.65625 1.65625 -1.03125q0.859375 -0.375 1.765625 -0.375q1.65625 0 2.515625 1.0q0.859375 0.984375 0.859375 2.84375l0 6.609375zm11.555908 0l-1.71875 0l0 -1.0625q-0.734375 0.640625 -1.53125 1.0q-0.796875 0.34375 -1.734375 0.34375q-1.828125 0 -2.90625 -1.390625q-1.0625 -1.40625 -1.0625 -3.90625q0 -1.28125 0.359375 -2.296875q0.375 -1.015625 1.0 -1.71875q0.625 -0.703125 1.453125 -1.0625q0.828125 -0.359375 1.703125 -0.359375q0.796875 0 1.421875 0.171875q0.625 0.15625 1.296875 0.515625l0 -4.40625l1.71875 0l0 14.171875zm-1.71875 -2.5l0 -5.84375q-0.6875 -0.3125 -1.234375 -0.421875q-0.546875 -0.125 -1.1875 -0.125q-1.4375 0 -2.25 1.0q-0.796875 1.0 -0.796875 2.84375q0 1.8125 0.609375 2.765625q0.625 0.9375 2.0 0.9375q0.71875 0 1.46875 -0.328125q0.75 -0.328125 1.390625 -0.828125z" fill-rule="nonzero"/><path fill="#d9ead3" d="m364.70078 278.9134l118.96063 0l0 90.33069l-118.96063 0z" fill-rule="evenodd"/><path stroke="#000000" stroke-width="1.0" stroke-linejoin="round" stroke-linecap="butt" d="m364.70078 278.9134l118.96063 0l0 90.33069l-118.96063 0z" fill-rule="evenodd"/><path fill="#000000" d="m415.82074 314.54562q0 1.484375 -0.328125 2.578125q-0.3125 1.09375 -1.046875 1.828125q-0.703125 0.6875 -1.640625 1.015625q-0.9375 0.3125 -2.1875 0.3125q-1.28125 0 -2.234375 -0.328125q-0.9375 -0.34375 -1.59375 -1.0q-0.734375 -0.75 -1.0625 -1.796875q-0.3125 -1.0625 -0.3125 -2.609375l0 -8.109375l1.796875 0l0 8.203125q0 1.109375 0.140625 1.75q0.15625 0.625 0.515625 1.15625q0.40625 0.578125 1.09375 0.890625q0.6875 0.296875 1.65625 0.296875q0.96875 0 1.65625 -0.296875q0.6875 -0.296875 1.09375 -0.890625q0.34375 -0.53125 0.5 -1.1875q0.15625 -0.671875 0.15625 -1.671875l0 -8.25l1.796875 0l0 8.109375zm14.905151 -1.3125q0 1.84375 -0.8125 3.359375q-0.796875 1.5 -2.140625 2.328125q-0.921875 0.5625 -2.078125 0.828125q-1.140625 0.25 -3.0 0.25l-3.421875 0l0 -13.5625l3.375 0q2.0 0 3.15625 0.296875q1.171875 0.28125 1.984375 0.78125q1.390625 0.859375 2.15625 2.296875q0.78125 1.4375 0.78125 3.421875zm-1.890625 -0.03125q0 -1.59375 -0.5625 -2.6875q-0.546875 -1.09375 -1.640625 -1.71875q-0.8125 -0.453125 -1.71875 -0.625q-0.890625 -0.1875 -2.15625 -0.1875l-1.6875 0l0 10.46875l1.6875 0q1.3125 0 2.28125 -0.1875q0.96875 -0.203125 1.78125 -0.71875q1.015625 -0.640625 1.515625 -1.6875q0.5 -1.0625 0.5 -2.65625zm15.499786 6.796875l-1.921875 0l-1.328125 -3.78125l-5.875 0l-1.328125 3.78125l-1.828125 0l4.9375 -13.5625l2.40625 0l4.9375 13.5625zm-3.8125 -5.328125l-2.375 -6.65625l-2.390625 6.65625l4.765625 0z" fill-rule="nonzero"/><path fill="#000000" d="m404.9627 338.12375q0 0.796875 -0.375 1.578125q-0.359375 0.765625 -1.015625 1.296875q-0.734375 0.59375 -1.703125 0.921875q-0.96875 0.328125 -2.34375 0.328125q-1.46875 0 -2.640625 -0.265625q-1.15625 -0.28125 -2.375 -0.828125l0 -2.25l0.125 0q1.03125 0.859375 2.375 1.328125q1.359375 0.453125 2.546875 0.453125q1.671875 0 2.59375 -0.625q0.9375 -0.625 0.9375 -1.671875q0 -0.90625 -0.4375 -1.328125q-0.4375 -0.4375 -1.34375 -0.671875q-0.6875 -0.1875 -1.484375 -0.296875q-0.796875 -0.125 -1.6875 -0.3125q-1.796875 -0.375 -2.671875 -1.296875q-0.875 -0.921875 -0.875 -2.40625q0 -1.71875 1.4375 -2.796875q1.453125 -1.09375 3.65625 -1.09375q1.4375 0 2.625 0.28125q1.203125 0.265625 2.109375 0.671875l0 2.125l-0.125 0q-0.765625 -0.65625 -2.03125 -1.078125q-1.265625 -0.4375 -2.578125 -0.4375q-1.453125 0 -2.34375 0.609375q-0.875 0.59375 -0.875 1.53125q0 0.859375 0.4375 1.34375q0.4375 0.46875 1.546875 0.734375q0.578125 0.125 1.65625 0.3125q1.078125 0.171875 1.828125 0.375q1.5 0.390625 2.265625 1.203125q0.765625 0.8125 0.765625 2.265625zm11.284546 -1.03125l-7.5 0q0 0.9375 0.28125 1.640625q0.28125 0.6875 0.78125 1.140625q0.46875 0.4375 1.109375 0.65625q0.65625 0.21875 1.453125 0.21875q1.03125 0 2.078125 -0.421875q1.0625 -0.421875 1.5 -0.8125l0.09375 0l0 1.859375q-0.859375 0.375 -1.765625 0.625q-0.90625 0.234375 -1.890625 0.234375q-2.53125 0 -3.953125 -1.359375q-1.421875 -1.375 -1.421875 -3.90625q0 -2.5 1.359375 -3.953125q1.359375 -1.46875 3.578125 -1.46875q2.0625 0 3.171875 1.203125q1.125 1.203125 1.125 3.40625l0 0.9375zm-1.671875 -1.3125q0 -1.34375 -0.671875 -2.078125q-0.671875 -0.75 -2.03125 -0.75q-1.375 0 -2.203125 0.8125q-0.8125 0.8125 -0.921875 2.015625l5.828125 0zm10.613586 -2.09375l-0.09375 0q-0.375 -0.09375 -0.734375 -0.125q-0.359375 -0.046875 -0.859375 -0.046875q-0.78125 0 -1.53125 0.359375q-0.734375 0.34375 -1.421875 0.90625l0 7.21875l-1.703125 0l0 -10.171875l1.703125 0l0 1.5q1.03125 -0.8125 1.796875 -1.15625q0.78125 -0.34375 1.59375 -0.34375q0.453125 0 0.65625 0.03125q0.203125 0.015625 0.59375 0.078125l0 1.75zm10.414825 -1.859375l-4.109375 10.171875l-1.734375 0l-4.078125 -10.171875l1.84375 0l3.15625 8.09375l3.125 -8.09375l1.796875 0zm10.595398 5.265625l-7.5 0q0 0.9375 0.28125 1.640625q0.28125 0.6875 0.78125 1.140625q0.46875 0.4375 1.109375 0.65625q0.65625 0.21875 1.453125 0.21875q1.03125 0 2.078125 -0.421875q1.0625 -0.421875 1.5 -0.8125l0.09375 0l0 1.859375q-0.859375 0.375 -1.765625 0.625q-0.90625 0.234375 -1.890625 0.234375q-2.53125 0 -3.953125 -1.359375q-1.421875 -1.375 -1.421875 -3.90625q0 -2.5 1.359375 -3.953125q1.359375 -1.46875 3.578125 -1.46875q2.0625 0 3.171875 1.203125q1.125 1.203125 1.125 3.40625l0 0.9375zm-1.671875 -1.3125q0 -1.34375 -0.671875 -2.078125q-0.671875 -0.75 -2.03125 -0.75q-1.375 0 -2.203125 0.8125q-0.8125 0.8125 -0.921875 2.015625l5.828125 0zm10.613586 -2.09375l-0.09375 0q-0.375 -0.09375 -0.734375 -0.125q-0.359375 -0.046875 -0.859375 -0.046875q-0.78125 0 -1.53125 0.359375q-0.734375 0.34375 -1.421875 0.90625l0 7.21875l-1.703125 0l0 -10.171875l1.703125 0l0 1.5q1.03125 -0.8125 1.796875 -1.15625q0.78125 -0.34375 1.59375 -0.34375q0.453125 0 0.65625 0.03125q0.203125 0.015625 0.59375 0.078125l0 1.75z" fill-rule="nonzero"/><path fill="#d0e0e3" d="m245.74016 188.58267l118.96062 0l0 90.33072l-118.96062 0z" fill-rule="evenodd"/><path stroke="#000000" stroke-width="1.0" stroke-linejoin="round" stroke-linecap="butt" d="m245.74016 188.58267l118.96062 0l0 90.33072l-118.96062 0z" fill-rule="evenodd"/><path fill="#000000" d="m266.81244 235.2149q0 1.484375 -0.328125 2.578125q-0.3125 1.09375 -1.046875 1.828125q-0.703125 0.6875 -1.640625 1.015625q-0.9375 0.3125 -2.1875 0.3125q-1.28125 0 -2.234375 -0.328125q-0.9375 -0.34375 -1.59375 -1.0q-0.734375 -0.75 -1.0625 -1.796875q-0.3125 -1.0625 -0.3125 -2.609375l0 -8.109375l1.796875 0l0 8.203125q0 1.109375 0.140625 1.75q0.15625 0.625 0.515625 1.15625q0.40625 0.578125 1.09375 0.890625q0.6875 0.296875 1.65625 0.296875q0.96875 0 1.65625 -0.296875q0.6875 -0.296875 1.09375 -0.890625q0.34375 -0.53125 0.5 -1.1875q0.15625 -0.671875 0.15625 -1.671875l0 -8.25l1.796875 0l0 8.109375zm14.905121 -1.3125q0 1.84375 -0.8125 3.359375q-0.796875 1.5 -2.140625 2.328125q-0.921875 0.5625 -2.078125 0.828125q-1.140625 0.25 -3.0 0.25l-3.421875 0l0 -13.5625l3.375 0q2.0 0 3.15625 0.296875q1.171875 0.28125 1.984375 0.78125q1.390625 0.859375 2.15625 2.296875q0.78125 1.4375 0.78125 3.421875zm-1.890625 -0.03125q0 -1.59375 -0.5625 -2.6875q-0.546875 -1.09375 -1.640625 -1.71875q-0.8125 -0.453125 -1.71875 -0.625q-0.890625 -0.1875 -2.15625 -0.1875l-1.6875 0l0 10.46875l1.6875 0q1.3125 0 2.28125 -0.1875q0.96875 -0.203125 1.78125 -0.71875q1.015625 -0.640625 1.515625 -1.6875q0.5 -1.0625 0.5 -2.65625zm15.499786 6.796875l-1.921875 0l-1.328125 -3.78125l-5.875 0l-1.328125 3.78125l-1.828125 0l4.9375 -13.5625l2.40625 0l4.9375 13.5625zm-3.8125 -5.328125l-2.375 -6.65625l-2.390625 6.65625l4.765625 0zm22.905884 4.34375q-0.5 0.21875 -0.90625 0.421875q-0.40625 0.1875 -1.0625 0.390625q-0.546875 0.171875 -1.203125 0.296875q-0.65625 0.125 -1.4375 0.125q-1.46875 0 -2.6875 -0.40625q-1.203125 -0.421875 -2.09375 -1.3125q-0.875 -0.859375 -1.375 -2.1875q-0.484375 -1.34375 -0.484375 -3.109375q0 -1.671875 0.46875 -3.0q0.484375 -1.328125 1.375 -2.234375q0.859375 -0.875 2.078125 -1.34375q1.234375 -0.46875 2.734375 -0.46875q1.09375 0 2.171875 0.265625q1.09375 0.265625 2.421875 0.9375l0 2.140625l-0.140625 0q-1.109375 -0.953125 -2.21875 -1.375q-1.09375 -0.421875 -2.359375 -0.421875q-1.03125 0 -1.859375 0.328125q-0.8125 0.328125 -1.46875 1.03125q-0.625 0.6875 -0.984375 1.734375q-0.34375 1.03125 -0.34375 2.40625q0 1.421875 0.390625 2.453125q0.390625 1.03125 1.0 1.6875q0.640625 0.671875 1.484375 1.0q0.859375 0.3125 1.796875 0.3125q1.3125 0 2.4375 -0.4375q1.140625 -0.453125 2.140625 -1.34375l0.125 0l0 2.109375zm4.151581 0.984375l-1.71875 0l0 -14.171875l1.71875 0l0 14.171875zm5.2289124 -11.875l-1.9375 0l0 -1.78125l1.9375 0l0 1.78125zm-0.109375 11.875l-1.71875 0l0 -10.171875l1.71875 0l0 10.171875zm11.900787 -4.90625l-7.5 0q0 0.9375 0.28125 1.640625q0.28125 0.6875 0.78125 1.140625q0.46875 0.4375 1.109375 0.65625q0.65625 0.21875 1.453125 0.21875q1.03125 0 2.078125 -0.421875q1.0625 -0.421875 1.5 -0.8125l0.09375 0l0 1.859375q-0.859375 0.375 -1.765625 0.625q-0.90625 0.234375 -1.890625 0.234375q-2.53125 0 -3.953125 -1.359375q-1.421875 -1.375 -1.421875 -3.90625q0 -2.5 1.359375 -3.953125q1.359375 -1.46875 3.578125 -1.46875q2.0625 0 3.171875 1.203125q1.125 1.203125 1.125 3.40625l0 0.9375zm-1.671875 -1.3125q0 -1.34375 -0.671875 -2.078125q-0.671875 -0.75 -2.03125 -0.75q-1.375 0 -2.203125 0.8125q-0.8125 0.8125 -0.921875 2.015625l5.828125 0zm12.769836 6.21875l-1.703125 0l0 -5.796875q0 -0.703125 -0.09375 -1.3125q-0.078125 -0.609375 -0.296875 -0.96875q-0.21875 -0.375 -0.65625 -0.5625q-0.421875 -0.1875 -1.109375 -0.1875q-0.703125 0 -1.46875 0.34375q-0.765625 0.34375 -1.46875 0.890625l0 7.59375l-1.703125 0l0 -10.171875l1.703125 0l0 1.125q0.8125 -0.65625 1.65625 -1.03125q0.859375 -0.375 1.765625 -0.375q1.65625 0 2.515625 1.0q0.859375 0.984375 0.859375 2.84375l0 6.609375zm8.587158 -0.09375q-0.484375 0.125 -1.0625 0.203125q-0.5625 0.09375 -1.0 0.09375q-1.5625 0 -2.375 -0.828125q-0.8125 -0.84375 -0.8125 -2.703125l0 -5.40625l-1.15625 0l0 -1.4375l1.15625 0l0 -2.921875l1.71875 0l0 2.921875l3.53125 0l0 1.4375l-3.53125 0l0 4.640625q0 0.796875 0.03125 1.25q0.03125 0.453125 0.25 0.84375q0.203125 0.359375 0.546875 0.53125q0.359375 0.171875 1.078125 0.171875q0.421875 0 0.875 -0.125q0.453125 -0.125 0.65625 -0.203125l0.09375 0l0 1.53125z" fill-rule="nonzero"/><path fill="#fff2cc" d="m483.6614 367.92126l118.96066 0l0 90.33072l-118.96066 0z" fill-rule="evenodd"/><path stroke="#000000" stroke-width="1.0" stroke-linejoin="round" stroke-linecap="butt" d="m483.6614 367.92126l118.96066 0l0 90.33072l-118.96066 0z" fill-rule="evenodd"/><path fill="#000000" d="m525.2557 409.00662l-5.359375 0l0 -1.390625l1.78125 0l0 -10.78125l-1.78125 0l0 -1.390625l5.359375 0l0 1.390625l-1.78125 0l0 10.78125l1.78125 0l0 1.390625zm15.149292 0l-1.8125 0l0 -11.6875l-3.765625 7.953125l-1.078125 0l-3.75 -7.953125l0 11.6875l-1.671875 0l0 -13.5625l2.453125 0l3.609375 7.546875l3.5 -7.546875l2.515625 0l0 13.5625zm14.332336 0l-1.921875 0l-1.328125 -3.78125l-5.875 0l-1.328125 3.78125l-1.828125 0l4.9375 -13.5625l2.40625 0l4.9375 13.5625zm-3.8125 -5.328125l-2.375 -6.65625l-2.390625 6.65625l4.765625 0zm15.63092 1.453125q0 0.796875 -0.375 1.578125q-0.359375 0.765625 -1.015625 1.296875q-0.734375 0.59375 -1.703125 0.921875q-0.96875 0.328125 -2.34375 0.328125q-1.46875 0 -2.640625 -0.265625q-1.15625 -0.28125 -2.375 -0.828125l0 -2.25l0.125 0q1.03125 0.859375 2.375 1.328125q1.359375 0.453125 2.546875 0.453125q1.671875 0 2.59375 -0.625q0.9375 -0.625 0.9375 -1.671875q0 -0.90625 -0.4375 -1.328125q-0.4375 -0.4375 -1.34375 -0.671875q-0.6875 -0.1875 -1.484375 -0.296875q-0.796875 -0.125 -1.6875 -0.3125q-1.796875 -0.375 -2.671875 -1.296875q-0.875 -0.921875 -0.875 -2.40625q0 -1.71875 1.4375 -2.796875q1.453125 -1.09375 3.65625 -1.09375q1.4375 0 2.625 0.28125q1.203125 0.265625 2.109375 0.671875l0 2.125l-0.125 0q-0.765625 -0.65625 -2.03125 -1.078125q-1.265625 -0.4375 -2.578125 -0.4375q-1.453125 0 -2.34375 0.609375q-0.875 0.59375 -0.875 1.53125q0 0.859375 0.4375 1.34375q0.4375 0.46875 1.546875 0.734375q0.578125 0.125 1.65625 0.3125q1.078125 0.171875 1.828125 0.375q1.5 0.390625 2.265625 1.203125q0.765625 0.8125 0.765625 2.265625z" fill-rule="nonzero"/><path fill="#000000" d="m525.2332 425.8035q0 1.234375 -0.359375 2.265625q-0.359375 1.015625 -1.0 1.71875q-0.59375 0.6875 -1.421875 1.0625q-0.8125 0.359375 -1.71875 0.359375q-0.796875 0 -1.4375 -0.171875q-0.640625 -0.171875 -1.3125 -0.546875l0 4.265625l-1.703125 0l0 -13.921875l1.703125 0l0 1.0625q0.6875 -0.578125 1.53125 -0.953125q0.859375 -0.390625 1.828125 -0.390625q1.84375 0 2.859375 1.390625q1.03125 1.390625 1.03125 3.859375zm-1.765625 0.03125q0 -1.828125 -0.640625 -2.734375q-0.625 -0.921875 -1.921875 -0.921875q-0.734375 0 -1.484375 0.328125q-0.75 0.3125 -1.4375 0.828125l0 5.765625q0.734375 0.328125 1.25 0.453125q0.53125 0.109375 1.203125 0.109375q1.421875 0 2.21875 -0.953125q0.8125 -0.96875 0.8125 -2.875zm6.1705933 5.171875l-1.71875 0l0 -14.171875l1.71875 0l0 14.171875zm11.822632 0l-1.71875 0l0 -1.125q-0.859375 0.671875 -1.65625 1.046875q-0.796875 0.359375 -1.75 0.359375q-1.609375 0 -2.5 -0.96875q-0.890625 -0.984375 -0.890625 -2.890625l0 -6.59375l1.71875 0l0 5.796875q0 0.765625 0.0625 1.328125q0.078125 0.546875 0.3125 0.9375q0.25 0.390625 0.640625 0.578125q0.390625 0.1875 1.140625 0.1875q0.671875 0 1.453125 -0.34375q0.78125 -0.359375 1.46875 -0.890625l0 -7.59375l1.71875 0l0 10.171875zm11.618408 -1.15625q0 2.59375 -1.171875 3.796875q-1.171875 1.21875 -3.625 1.21875q-0.796875 0 -1.578125 -0.125q-0.765625 -0.109375 -1.515625 -0.3125l0 -1.75l0.09375 0q0.421875 0.15625 1.328125 0.390625q0.90625 0.25 1.828125 0.25q0.875 0 1.4375 -0.21875q0.578125 -0.203125 0.90625 -0.578125q0.3125 -0.34375 0.4375 -0.859375q0.140625 -0.5 0.140625 -1.109375l0 -0.9375q-0.765625 0.625 -1.46875 0.9375q-0.703125 0.296875 -1.796875 0.296875q-1.828125 0 -2.90625 -1.3125q-1.0625 -1.3125 -1.0625 -3.71875q0 -1.3125 0.359375 -2.265625q0.375 -0.953125 1.015625 -1.640625q0.59375 -0.640625 1.4375 -1.0q0.84375 -0.359375 1.6875 -0.359375q0.890625 0 1.484375 0.171875q0.59375 0.171875 1.25 0.546875l0.109375 -0.4375l1.609375 0l0 9.015625zm-1.71875 -1.640625l0 -5.546875q-0.671875 -0.3125 -1.265625 -0.4375q-0.578125 -0.140625 -1.171875 -0.140625q-1.40625 0 -2.21875 0.953125q-0.8125 0.953125 -0.8125 2.75q0 1.71875 0.59375 2.609375q0.609375 0.875 2.0 0.875q0.75 0 1.5 -0.28125q0.75 -0.296875 1.375 -0.78125zm6.9362183 -9.078125l-1.9375 0l0 -1.78125l1.9375 0l0 1.78125zm-0.109375 11.875l-1.71875 0l0 -10.171875l1.71875 0l0 10.171875zm11.885193 0l-1.703125 0l0 -5.796875q0 -0.703125 -0.09375 -1.3125q-0.078125 -0.609375 -0.296875 -0.96875q-0.21875 -0.375 -0.65625 -0.5625q-0.421875 -0.1875 -1.109375 -0.1875q-0.703125 0 -1.46875 0.34375q-0.765625 0.34375 -1.46875 0.890625l0 7.59375l-1.703125 0l0 -10.171875l1.703125 0l0 1.125q0.8125 -0.65625 1.65625 -1.03125q0.859375 -0.375 1.765625 -0.375q1.65625 0 2.515625 1.0q0.859375 0.984375 0.859375 2.84375l0 6.609375z" fill-rule="nonzero"/><path fill="#fce5cd" d="m602.6221 458.25198l118.96063 0l0 90.33072l-118.96063 0z" fill-rule="evenodd"/><path stroke="#000000" stroke-width="1.0" stroke-linejoin="round" stroke-linecap="butt" d="m602.6221 458.25198l118.96063 0l0 90.33072l-118.96063 0z" fill-rule="evenodd"/><path fill="#000000" d="m643.962 495.80606q0 1.796875 -1.09375 2.765625q-1.078125 0.953125 -2.921875 0.953125q-0.4375 0 -1.171875 -0.078125q-0.71875 -0.078125 -1.203125 -0.1875l0 -1.6875l0.09375 0q0.375 0.140625 0.921875 0.28125q0.546875 0.125 1.125 0.125q0.828125 0 1.328125 -0.1875q0.5 -0.1875 0.734375 -0.546875q0.25 -0.359375 0.3125 -0.890625q0.0625 -0.53125 0.0625 -1.21875l0 -7.921875l-2.859375 0l0 -1.4375l4.671875 0l0 10.03125zm13.355957 -0.34375q0 0.796875 -0.375 1.578125q-0.359375 0.765625 -1.015625 1.296875q-0.734375 0.59375 -1.703125 0.921875q-0.96875 0.328125 -2.34375 0.328125q-1.46875 0 -2.640625 -0.265625q-1.15625 -0.28125 -2.375 -0.828125l0 -2.25l0.125 0q1.03125 0.859375 2.375 1.328125q1.359375 0.453125 2.546875 0.453125q1.671875 0 2.59375 -0.625q0.9375 -0.625 0.9375 -1.671875q0 -0.90625 -0.4375 -1.328125q-0.4375 -0.4375 -1.34375 -0.671875q-0.6875 -0.1875 -1.484375 -0.296875q-0.796875 -0.125 -1.6875 -0.3125q-1.796875 -0.375 -2.671875 -1.296875q-0.875 -0.921875 -0.875 -2.40625q0 -1.71875 1.4375 -2.796875q1.453125 -1.09375 3.65625 -1.09375q1.4375 0 2.625 0.28125q1.203125 0.265625 2.109375 0.671875l0 2.125l-0.125 0q-0.765625 -0.65625 -2.03125 -1.078125q-1.265625 -0.4375 -2.578125 -0.4375q-1.453125 0 -2.34375 0.609375q-0.875 0.59375 -0.875 1.53125q0 0.859375 0.4375 1.34375q0.4375 0.46875 1.546875 0.734375q0.578125 0.125 1.65625 0.3125q1.078125 0.171875 1.828125 0.375q1.5 0.390625 2.265625 1.203125q0.765625 0.8125 0.765625 2.265625zm13.018921 -8.125q0.828125 0.90625 1.265625 2.234375q0.4375 1.3125 0.4375 2.984375q0 1.6875 -0.453125 3.015625q-0.4375 1.3125 -1.25 2.203125q-0.84375 0.921875 -1.984375 1.390625q-1.140625 0.453125 -2.609375 0.453125q-1.4375 0 -2.609375 -0.46875q-1.15625 -0.484375 -1.984375 -1.375q-0.8125 -0.90625 -1.265625 -2.21875q-0.4375 -1.3125 -0.4375 -3.0q0 -1.65625 0.4375 -2.96875q0.4375 -1.3125 1.28125 -2.25q0.796875 -0.90625 1.984375 -1.375q1.1875 -0.46875 2.59375 -0.46875q1.453125 0 2.609375 0.484375q1.171875 0.46875 1.984375 1.359375zm-0.171875 5.21875q0 -2.640625 -1.1875 -4.0625q-1.171875 -1.4375 -3.234375 -1.4375q-2.0625 0 -3.25 1.4375q-1.171875 1.421875 -1.171875 4.0625q0 2.671875 1.203125 4.09375q1.203125 1.40625 3.21875 1.40625q2.03125 0 3.21875 -1.40625q1.203125 -1.421875 1.203125 -4.09375zm15.090759 6.78125l-2.234375 0l-6.4375 -12.140625l0 12.140625l-1.671875 0l0 -13.5625l2.796875 0l5.859375 11.078125l0 -11.078125l1.6875 0l0 13.5625z" fill-rule="nonzero"/><path fill="#000000" d="m644.19385 516.1342q0 1.234375 -0.359375 2.265625q-0.359375 1.015625 -1.0 1.71875q-0.59375 0.6875 -1.421875 1.0625q-0.8125 0.359375 -1.71875 0.359375q-0.796875 0 -1.4375 -0.171875q-0.640625 -0.171875 -1.3125 -0.546875l0 4.265625l-1.703125 0l0 -13.9219055l1.703125 0l0 1.0625305q0.6875 -0.5781555 1.53125 -0.9531555q0.859375 -0.390625 1.828125 -0.390625q1.84375 0 2.859375 1.3906555q1.03125 1.390625 1.03125 3.859375zm-1.765625 0.03125q0 -1.828125 -0.640625 -2.734375q-0.625 -0.921875 -1.921875 -0.921875q-0.734375 0 -1.484375 0.328125q-0.75 0.3125 -1.4375 0.828125l0 5.765625q0.734375 0.328125 1.25 0.453125q0.53125 0.109375 1.203125 0.109375q1.421875 0 2.21875 -0.953125q0.8125 -0.96875 0.8125 -2.875zm6.1705933 5.171875l-1.71875 0l0 -14.1719055l1.71875 0l0 14.1719055zm11.822632 0l-1.71875 0l0 -1.125q-0.859375 0.671875 -1.65625 1.046875q-0.796875 0.359375 -1.75 0.359375q-1.609375 0 -2.5 -0.96875q-0.890625 -0.984375 -0.890625 -2.890625l0 -6.5937805l1.71875 0l0 5.7969055q0 0.765625 0.0625 1.328125q0.078125 0.546875 0.3125 0.9375q0.25 0.390625 0.640625 0.578125q0.390625 0.1875 1.140625 0.1875q0.671875 0 1.453125 -0.34375q0.78125 -0.359375 1.46875 -0.890625l0 -7.5937805l1.71875 0l0 10.1719055zm11.618408 -1.15625q0 2.59375 -1.171875 3.796875q-1.171875 1.21875 -3.625 1.21875q-0.796875 0 -1.578125 -0.125q-0.765625 -0.109375 -1.515625 -0.3125l0 -1.75l0.09375 0q0.421875 0.15625 1.328125 0.390625q0.90625 0.25 1.828125 0.25q0.875 0 1.4375 -0.21875q0.578125 -0.203125 0.90625 -0.578125q0.3125 -0.34375 0.4375 -0.859375q0.140625 -0.5 0.140625 -1.109375l0 -0.9375q-0.765625 0.625 -1.46875 0.9375q-0.703125 0.296875 -1.796875 0.296875q-1.828125 0 -2.90625 -1.3125q-1.0625 -1.3125 -1.0625 -3.71875q0 -1.3125 0.359375 -2.265625q0.375 -0.953125 1.015625 -1.640625q0.59375 -0.6406555 1.4375 -1.0000305q0.84375 -0.359375 1.6875 -0.359375q0.890625 0 1.484375 0.171875q0.59375 0.171875 1.25 0.546875l0.109375 -0.4375l1.609375 0l0 9.0156555zm-1.71875 -1.640625l0 -5.546875q-0.671875 -0.3125 -1.265625 -0.4375q-0.578125 -0.140625 -1.171875 -0.140625q-1.40625 0 -2.21875 0.953125q-0.8125 0.953125 -0.8125 2.75q0 1.71875 0.59375 2.609375q0.609375 0.875 2.0 0.875q0.75 0 1.5 -0.28125q0.75 -0.296875 1.375 -0.78125zm6.9362183 -9.0781555l-1.9375 0l0 -1.78125l1.9375 0l0 1.78125zm-0.109375 11.8750305l-1.71875 0l0 -10.1719055l1.71875 0l0 10.1719055zm11.885193 0l-1.703125 0l0 -5.796875q0 -0.703125 -0.09375 -1.3125q-0.078125 -0.609375 -0.296875 -0.96875q-0.21875 -0.375 -0.65625 -0.5625q-0.421875 -0.1875 -1.109375 -0.1875q-0.703125 0 -1.46875 0.34375q-0.765625 0.34375 -1.46875 0.890625l0 7.59375l-1.703125 0l0 -10.1719055l1.703125 0l0 1.1250305q0.8125 -0.6562805 1.65625 -1.0312805q0.859375 -0.375 1.765625 -0.375q1.65625 0 2.515625 1.0q0.859375 0.9844055 0.859375 2.8437805l0 6.609375z" fill-rule="nonzero"/><path fill="#f4cccc" d="m721.5827 548.5827l118.96063 0l0 90.33069l-118.96063 0z" fill-rule="evenodd"/><path stroke="#000000" stroke-width="1.0" stroke-linejoin="round" stroke-linecap="butt" d="m721.5827 548.5827l118.96063 0l0 90.33069l-118.96063 0z" fill-rule="evenodd"/><path fill="#000000" d="m772.2765 571.9024q0 1.84375 -0.8125 3.359375q-0.796875 1.5 -2.140625 2.328125q-0.921875 0.5625 -2.078125 0.828125q-1.140625 0.25 -3.0 0.25l-3.421875 0l0 -13.5625l3.375 0q2.0 0 3.15625 0.296875q1.171875 0.28125 1.984375 0.78125q1.390625 0.859375 2.15625 2.296875q0.78125 1.4375 0.78125 3.421875zm-1.890625 -0.03125q0 -1.59375 -0.5625 -2.6875q-0.546875 -1.09375 -1.640625 -1.71875q-0.8125 -0.453125 -1.71875 -0.625q-0.890625 -0.1875 -2.15625 -0.1875l-1.6875 0l0 10.46875l1.6875 0q1.3125 0 2.28125 -0.1875q0.96875 -0.203125 1.78125 -0.71875q1.015625 -0.640625 1.515625 -1.6875q0.5 -1.0625 0.5 -2.65625zm12.577881 6.796875l-1.703125 0l0 -1.078125q-0.234375 0.15625 -0.625 0.4375q-0.375 0.265625 -0.75 0.4375q-0.421875 0.203125 -0.984375 0.34375q-0.546875 0.140625 -1.296875 0.140625q-1.375 0 -2.328125 -0.90625q-0.953125 -0.921875 -0.953125 -2.328125q0 -1.15625 0.484375 -1.859375q0.5 -0.71875 1.421875 -1.140625q0.9375 -0.40625 2.234375 -0.546875q1.296875 -0.15625 2.796875 -0.21875l0 -0.265625q0 -0.578125 -0.203125 -0.953125q-0.203125 -0.390625 -0.59375 -0.609375q-0.359375 -0.21875 -0.875 -0.28125q-0.5 -0.078125 -1.0625 -0.078125q-0.671875 0 -1.5 0.1875q-0.828125 0.171875 -1.71875 0.5l-0.09375 0l0 -1.734375q0.5 -0.140625 1.453125 -0.296875q0.953125 -0.171875 1.875 -0.171875q1.0625 0 1.859375 0.1875q0.796875 0.171875 1.390625 0.59375q0.5625 0.421875 0.859375 1.09375q0.3125 0.65625 0.3125 1.640625l0 6.90625zm-1.703125 -2.5l0 -2.84375q-0.78125 0.046875 -1.84375 0.140625q-1.0625 0.09375 -1.6875 0.265625q-0.734375 0.203125 -1.1875 0.65625q-0.453125 0.4375 -0.453125 1.21875q0 0.859375 0.515625 1.3125q0.53125 0.4375 1.625 0.4375q0.890625 0 1.640625 -0.34375q0.75 -0.359375 1.390625 -0.84375zm10.282837 2.40625q-0.484375 0.125 -1.0625 0.203125q-0.5625 0.09375 -1.0 0.09375q-1.5625 0 -2.375 -0.828125q-0.8125 -0.84375 -0.8125 -2.703125l0 -5.40625l-1.15625 0l0 -1.4375l1.15625 0l0 -2.921875l1.71875 0l0 2.921875l3.53125 0l0 1.4375l-3.53125 0l0 4.640625q0 0.796875 0.03125 1.25q0.03125 0.453125 0.25 0.84375q0.203125 0.359375 0.546875 0.53125q0.359375 0.171875 1.078125 0.171875q0.421875 0 0.875 -0.125q0.453125 -0.125 0.65625 -0.203125l0.09375 0l0 1.53125zm9.976379 0.09375l-1.703125 0l0 -1.078125q-0.234375 0.15625 -0.625 0.4375q-0.375 0.265625 -0.75 0.4375q-0.421875 0.203125 -0.984375 0.34375q-0.546875 0.140625 -1.296875 0.140625q-1.375 0 -2.328125 -0.90625q-0.953125 -0.921875 -0.953125 -2.328125q0 -1.15625 0.484375 -1.859375q0.5 -0.71875 1.421875 -1.140625q0.9375 -0.40625 2.234375 -0.546875q1.296875 -0.15625 2.796875 -0.21875l0 -0.265625q0 -0.578125 -0.203125 -0.953125q-0.203125 -0.390625 -0.59375 -0.609375q-0.359375 -0.21875 -0.875 -0.28125q-0.5 -0.078125 -1.0625 -0.078125q-0.671875 0 -1.5 0.1875q-0.828125 0.171875 -1.71875 0.5l-0.09375 0l0 -1.734375q0.5 -0.140625 1.453125 -0.296875q0.953125 -0.171875 1.875 -0.171875q1.0625 0 1.859375 0.1875q0.796875 0.171875 1.390625 0.59375q0.5625 0.421875 0.859375 1.09375q0.3125 0.65625 0.3125 1.640625l0 6.90625zm-1.703125 -2.5l0 -2.84375q-0.78125 0.046875 -1.84375 0.140625q-1.0625 0.09375 -1.6875 0.265625q-0.734375 0.203125 -1.1875 0.65625q-0.453125 0.4375 -0.453125 1.21875q0 0.859375 0.515625 1.3125q0.53125 0.4375 1.625 0.4375q0.890625 0 1.640625 -0.34375q0.75 -0.359375 1.390625 -0.84375z" fill-rule="nonzero"/><path fill="#000000" d="m760.0579 600.668l-1.703125 0l0 -1.078125q-0.234375 0.15625 -0.625 0.4375q-0.375 0.265625 -0.75 0.4375q-0.421875 0.203125 -0.984375 0.34375q-0.546875 0.140625 -1.296875 0.140625q-1.375 0 -2.328125 -0.90625q-0.953125 -0.921875 -0.953125 -2.328125q0 -1.15625 0.484375 -1.859375q0.5 -0.71875 1.421875 -1.140625q0.9375 -0.40625 2.234375 -0.546875q1.296875 -0.15625 2.796875 -0.21875l0 -0.265625q0 -0.578125 -0.203125 -0.953125q-0.203125 -0.390625 -0.59375 -0.609375q-0.359375 -0.21875 -0.875 -0.28125q-0.5 -0.078125 -1.0625 -0.078125q-0.671875 0 -1.5 0.1875q-0.828125 0.171875 -1.71875 0.5l-0.09375 0l0 -1.734375q0.5 -0.140625 1.453125 -0.296875q0.953125 -0.171875 1.875 -0.171875q1.0625 0 1.859375 0.1875q0.796875 0.171875 1.390625 0.59375q0.5625 0.421875 0.859375 1.09375q0.3125 0.65625 0.3125 1.640625l0 6.90625zm-1.703125 -2.5l0 -2.84375q-0.78125 0.046875 -1.84375 0.140625q-1.0625 0.09375 -1.6875 0.265625q-0.734375 0.203125 -1.1875 0.65625q-0.453125 0.4375 -0.453125 1.21875q0 0.859375 0.515625 1.3125q0.53125 0.4375 1.625 0.4375q0.890625 0 1.640625 -0.34375q0.75 -0.359375 1.390625 -0.84375zm12.517212 1.859375q-0.84375 0.40625 -1.625 0.640625q-0.765625 0.234375 -1.625 0.234375q-1.109375 0 -2.03125 -0.328125q-0.921875 -0.328125 -1.578125 -0.984375q-0.65625 -0.65625 -1.03125 -1.65625q-0.359375 -1.0 -0.359375 -2.34375q0 -2.484375 1.375 -3.90625q1.375 -1.421875 3.625 -1.421875q0.875 0 1.71875 0.25q0.84375 0.234375 1.53125 0.59375l0 1.90625l-0.078125 0q-0.796875 -0.609375 -1.625 -0.9375q-0.828125 -0.328125 -1.625 -0.328125q-1.453125 0 -2.296875 0.984375q-0.84375 0.96875 -0.84375 2.859375q0 1.84375 0.8125 2.84375q0.828125 0.984375 2.328125 0.984375q0.515625 0 1.046875 -0.140625q0.546875 -0.140625 0.96875 -0.359375q0.375 -0.1875 0.703125 -0.40625q0.328125 -0.21875 0.53125 -0.359375l0.078125 0l0 1.875zm9.719849 0q-0.84375 0.40625 -1.625 0.640625q-0.765625 0.234375 -1.625 0.234375q-1.109375 0 -2.03125 -0.328125q-0.921875 -0.328125 -1.578125 -0.984375q-0.65625 -0.65625 -1.03125 -1.65625q-0.359375 -1.0 -0.359375 -2.34375q0 -2.484375 1.375 -3.90625q1.375 -1.421875 3.625 -1.421875q0.875 0 1.71875 0.25q0.84375 0.234375 1.53125 0.59375l0 1.90625l-0.078125 0q-0.796875 -0.609375 -1.625 -0.9375q-0.828125 -0.328125 -1.625 -0.328125q-1.453125 0 -2.296875 0.984375q-0.84375 0.96875 -0.84375 2.859375q0 1.84375 0.8125 2.84375q0.828125 0.984375 2.328125 0.984375q0.515625 0 1.046875 -0.140625q0.546875 -0.140625 0.96875 -0.359375q0.375 -0.1875 0.703125 -0.40625q0.328125 -0.21875 0.53125 -0.359375l0.078125 0l0 1.875zm10.719788 -4.265625l-7.5 0q0 0.9375 0.28125 1.640625q0.28125 0.6875 0.78125 1.140625q0.46875 0.4375 1.109375 0.65625q0.65625 0.21875 1.453125 0.21875q1.03125 0 2.078125 -0.421875q1.0625 -0.421875 1.5 -0.8125l0.09375 0l0 1.859375q-0.859375 0.375 -1.765625 0.625q-0.90625 0.234375 -1.890625 0.234375q-2.53125 0 -3.953125 -1.359375q-1.421875 -1.375 -1.421875 -3.90625q0 -2.5 1.359375 -3.953125q1.359375 -1.46875 3.578125 -1.46875q2.0625 0 3.171875 1.203125q1.125 1.203125 1.125 3.40625l0 0.9375zm-1.671875 -1.3125q0 -1.34375 -0.671875 -2.078125q-0.671875 -0.75 -2.03125 -0.75q-1.375 0 -2.203125 0.8125q-0.8125 0.8125 -0.921875 2.015625l5.828125 0zm11.535461 3.28125q0 1.390625 -1.15625 2.296875q-1.140625 0.890625 -3.140625 0.890625q-1.125 0 -2.078125 -0.265625q-0.9375 -0.28125 -1.578125 -0.59375l0 -1.921875l0.09375 0q0.8125 0.609375 1.796875 0.96875q1.0 0.359375 1.90625 0.359375q1.140625 0 1.765625 -0.359375q0.640625 -0.375 0.640625 -1.15625q0 -0.59375 -0.34375 -0.90625q-0.34375 -0.3125 -1.328125 -0.53125q-0.359375 -0.078125 -0.953125 -0.1875q-0.59375 -0.109375 -1.078125 -0.234375q-1.328125 -0.359375 -1.890625 -1.046875q-0.5625 -0.6875 -0.5625 -1.6875q0 -0.625 0.25 -1.1875q0.265625 -0.5625 0.796875 -0.984375q0.515625 -0.4375 1.296875 -0.6875q0.796875 -0.25 1.765625 -0.25q0.90625 0 1.84375 0.234375q0.9375 0.21875 1.546875 0.53125l0 1.828125l-0.078125 0q-0.65625 -0.484375 -1.59375 -0.8125q-0.9375 -0.328125 -1.84375 -0.328125q-0.9375 0 -1.59375 0.359375q-0.640625 0.359375 -0.640625 1.0625q0 0.625 0.390625 0.953125q0.390625 0.3125 1.234375 0.515625q0.484375 0.109375 1.0625 0.21875q0.59375 0.109375 0.984375 0.203125q1.1875 0.265625 1.84375 0.9375q0.640625 0.671875 0.640625 1.78125zm9.719849 0q0 1.390625 -1.15625 2.296875q-1.140625 0.890625 -3.140625 0.890625q-1.125 0 -2.078125 -0.265625q-0.9375 -0.28125 -1.578125 -0.59375l0 -1.921875l0.09375 0q0.8125 0.609375 1.796875 0.96875q1.0 0.359375 1.90625 0.359375q1.140625 0 1.765625 -0.359375q0.640625 -0.375 0.640625 -1.15625q0 -0.59375 -0.34375 -0.90625q-0.34375 -0.3125 -1.328125 -0.53125q-0.359375 -0.078125 -0.953125 -0.1875q-0.59375 -0.109375 -1.078125 -0.234375q-1.328125 -0.359375 -1.890625 -1.046875q-0.5625 -0.6875 -0.5625 -1.6875q0 -0.625 0.25 -1.1875q0.265625 -0.5625 0.796875 -0.984375q0.515625 -0.4375 1.296875 -0.6875q0.796875 -0.25 1.765625 -0.25q0.90625 0 1.84375 0.234375q0.9375 0.21875 1.546875 0.53125l0 1.828125l-0.078125 0q-0.65625 -0.484375 -1.59375 -0.8125q-0.9375 -0.328125 -1.84375 -0.328125q-0.9375 0 -1.59375 0.359375q-0.640625 0.359375 -0.640625 1.0625q0 0.625 0.390625 0.953125q0.390625 0.3125 1.234375 0.515625q0.484375 0.109375 1.0625 0.21875q0.59375 0.109375 0.984375 0.203125q1.1875 0.265625 1.84375 0.9375q0.640625 0.671875 0.640625 1.78125z" fill-rule="nonzero"/><path fill="#000000" d="m763.1545 617.4649q0 1.234375 -0.359375 2.265625q-0.359375 1.015625 -1.0 1.71875q-0.59375 0.6875 -1.421875 1.0625q-0.8125 0.359375 -1.71875 0.359375q-0.796875 0 -1.4375 -0.171875q-0.640625 -0.171875 -1.3125 -0.546875l0 4.265625l-1.703125 0l0 -13.921875l1.703125 0l0 1.0625q0.6875 -0.578125 1.53125 -0.953125q0.859375 -0.390625 1.828125 -0.390625q1.84375 0 2.859375 1.390625q1.03125 1.390625 1.03125 3.859375zm-1.765625 0.03125q0 -1.828125 -0.640625 -2.734375q-0.625 -0.921875 -1.921875 -0.921875q-0.734375 0 -1.484375 0.328125q-0.75 0.3125 -1.4375 0.828125l0 5.765625q0.734375 0.328125 1.25 0.453125q0.53125 0.109375 1.203125 0.109375q1.421875 0 2.21875 -0.953125q0.8125 -0.96875 0.8125 -2.875zm6.1705933 5.171875l-1.71875 0l0 -14.171875l1.71875 0l0 14.171875zm11.822632 0l-1.71875 0l0 -1.125q-0.859375 0.671875 -1.65625 1.046875q-0.796875 0.359375 -1.75 0.359375q-1.609375 0 -2.5 -0.96875q-0.890625 -0.984375 -0.890625 -2.890625l0 -6.59375l1.71875 0l0 5.796875q0 0.765625 0.0625 1.328125q0.078125 0.546875 0.3125 0.9375q0.25 0.390625 0.640625 0.578125q0.390625 0.1875 1.140625 0.1875q0.671875 0 1.453125 -0.34375q0.78125 -0.359375 1.46875 -0.890625l0 -7.59375l1.71875 0l0 10.171875zm11.618408 -1.15625q0 2.59375 -1.171875 3.796875q-1.171875 1.21875 -3.625 1.21875q-0.796875 0 -1.578125 -0.125q-0.765625 -0.109375 -1.515625 -0.3125l0 -1.75l0.09375 0q0.421875 0.15625 1.328125 0.390625q0.90625 0.25 1.828125 0.25q0.875 0 1.4375 -0.21875q0.578125 -0.203125 0.90625 -0.578125q0.3125 -0.34375 0.4375 -0.859375q0.140625 -0.5 0.140625 -1.109375l0 -0.9375q-0.765625 0.625 -1.46875 0.9375q-0.703125 0.296875 -1.796875 0.296875q-1.828125 0 -2.90625 -1.3125q-1.0625 -1.3125 -1.0625 -3.71875q0 -1.3125 0.359375 -2.265625q0.375 -0.953125 1.015625 -1.640625q0.59375 -0.640625 1.4375 -1.0q0.84375 -0.359375 1.6875 -0.359375q0.890625 0 1.484375 0.171875q0.59375 0.171875 1.25 0.546875l0.109375 -0.4375l1.609375 0l0 9.015625zm-1.71875 -1.640625l0 -5.546875q-0.671875 -0.3125 -1.265625 -0.4375q-0.578125 -0.140625 -1.171875 -0.140625q-1.40625 0 -2.21875 0.953125q-0.8125 0.953125 -0.8125 2.75q0 1.71875 0.59375 2.609375q0.609375 0.875 2.0 0.875q0.75 0 1.5 -0.28125q0.75 -0.296875 1.375 -0.78125zm6.9362183 -9.078125l-1.9375 0l0 -1.78125l1.9375 0l0 1.78125zm-0.109375 11.875l-1.71875 0l0 -10.171875l1.71875 0l0 10.171875zm11.885193 0l-1.703125 0l0 -5.796875q0 -0.703125 -0.09375 -1.3125q-0.078125 -0.609375 -0.296875 -0.96875q-0.21875 -0.375 -0.65625 -0.5625q-0.421875 -0.1875 -1.109375 -0.1875q-0.703125 0 -1.46875 0.34375q-0.765625 0.34375 -1.46875 0.890625l0 7.59375l-1.703125 0l0 -10.171875l1.703125 0l0 1.125q0.8125 -0.65625 1.65625 -1.03125q0.859375 -0.375 1.765625 -0.375q1.65625 0 2.515625 1.0q0.859375 0.984375 0.859375 2.84375l0 6.609375z" fill-rule="nonzero"/><path fill="#efefef" d="m765.72833 364.53018l0 0c0 -9.468567 21.223022 -17.144348 47.402893 -17.144348c26.17987 0 47.402893 7.6757812 47.402893 17.144348l0 68.57742c0 9.468567 -21.223022 17.144379 -47.402893 17.144379c-26.17987 0 -47.402893 -7.675812 -47.402893 -17.144379z" fill-rule="evenodd"/><path fill="#000000" fill-opacity="0.0" d="m860.5341 364.53018l0 0c0 9.468567 -21.223022 17.144348 -47.402893 17.144348c-26.17987 0 -47.402893 -7.6757812 -47.402893 -17.144348" fill-rule="evenodd"/><path fill="#000000" fill-opacity="0.0" d="m765.72833 364.53018l0 0c0 -9.468567 21.223022 -17.144348 47.402893 -17.144348c26.17987 0 47.402893 7.6757812 47.402893 17.144348l0 68.57742c0 9.468567 -21.223022 17.144379 -47.402893 17.144379c-26.17987 0 -47.402893 -7.675812 -47.402893 -17.144379z" fill-rule="evenodd"/><path stroke="#000000" stroke-width="1.0" stroke-linejoin="round" stroke-linecap="butt" d="m860.5341 364.53018l0 0c0 9.468567 -21.223022 17.144348 -47.402893 17.144348c-26.17987 0 -47.402893 -7.6757812 -47.402893 -17.144348" fill-rule="evenodd"/><path stroke="#000000" stroke-width="1.0" stroke-linejoin="round" stroke-linecap="butt" d="m765.72833 364.53018l0 0c0 -9.468567 21.223022 -17.144348 47.402893 -17.144348c26.17987 0 47.402893 7.6757812 47.402893 17.144348l0 68.57742c0 9.468567 -21.223022 17.144379 -47.402893 17.144379c-26.17987 0 -47.402893 -7.675812 -47.402893 -17.144379z" fill-rule="evenodd"/><path fill="#000000" d="m790.514 403.03107l-1.671875 0l0 -10.859375l-3.5 7.390625l-1.0 0l-3.484375 -7.390625l0 10.859375l-1.5625 0l0 -12.59375l2.296875 0l3.34375 7.015625l3.25 -7.015625l2.328125 0l0 12.59375zm10.603699 0l-1.578125 0l0 -1.0q-0.21875 0.140625 -0.578125 0.40625q-0.359375 0.25 -0.6875 0.40625q-0.40625 0.1875 -0.921875 0.3125q-0.515625 0.140625 -1.203125 0.140625q-1.28125 0 -2.171875 -0.84375q-0.890625 -0.859375 -0.890625 -2.15625q0 -1.078125 0.453125 -1.734375q0.46875 -0.671875 1.328125 -1.0625q0.859375 -0.375 2.0625 -0.5q1.21875 -0.140625 2.609375 -0.21875l0 -0.234375q0 -0.546875 -0.1875 -0.890625q-0.1875 -0.359375 -0.546875 -0.5625q-0.34375 -0.203125 -0.8125 -0.265625q-0.46875 -0.078125 -1.0 -0.078125q-0.625 0 -1.390625 0.171875q-0.765625 0.171875 -1.59375 0.484375l-0.078125 0l0 -1.625q0.46875 -0.125 1.34375 -0.265625q0.875 -0.15625 1.734375 -0.15625q1.0 0 1.734375 0.171875q0.75 0.15625 1.28125 0.546875q0.53125 0.390625 0.8125 1.015625q0.28125 0.609375 0.28125 1.53125l0 6.40625zm-1.578125 -2.328125l0 -2.625q-0.734375 0.03125 -1.71875 0.125q-0.984375 0.078125 -1.5625 0.25q-0.671875 0.1875 -1.109375 0.59375q-0.421875 0.40625 -0.421875 1.140625q0 0.796875 0.484375 1.21875q0.5 0.40625 1.515625 0.40625q0.828125 0 1.515625 -0.328125q0.703125 -0.328125 1.296875 -0.78125zm11.625793 1.734375q-0.78125 0.375 -1.5 0.59375q-0.71875 0.21875 -1.515625 0.21875q-1.03125 0 -1.890625 -0.296875q-0.84375 -0.3125 -1.453125 -0.921875q-0.625 -0.609375 -0.96875 -1.53125q-0.328125 -0.9375 -0.328125 -2.1875q0 -2.3125 1.265625 -3.625q1.28125 -1.328125 3.375 -1.328125q0.8125 0 1.59375 0.234375q0.78125 0.21875 1.421875 0.546875l0 1.78125l-0.078125 0q-0.734375 -0.578125 -1.515625 -0.875q-0.765625 -0.3125 -1.5 -0.3125q-1.34375 0 -2.140625 0.921875q-0.78125 0.90625 -0.78125 2.65625q0 1.71875 0.765625 2.640625q0.765625 0.90625 2.15625 0.90625q0.484375 0 0.984375 -0.125q0.5 -0.125 0.890625 -0.328125q0.359375 -0.171875 0.65625 -0.375q0.3125 -0.203125 0.484375 -0.34375l0.078125 0l0 1.75zm9.949768 0.59375l-1.59375 0l0 -5.375q0 -0.65625 -0.078125 -1.21875q-0.078125 -0.578125 -0.28125 -0.90625q-0.203125 -0.359375 -0.609375 -0.53125q-0.390625 -0.171875 -1.03125 -0.171875q-0.640625 0 -1.359375 0.328125q-0.703125 0.3125 -1.359375 0.8125l0 7.0625l-1.59375 0l0 -13.171875l1.59375 0l0 4.765625q0.75 -0.609375 1.53125 -0.953125q0.796875 -0.359375 1.640625 -0.359375q1.53125 0 2.328125 0.921875q0.8125 0.921875 0.8125 2.65625l0 6.140625zm4.777954 -11.03125l-1.796875 0l0 -1.65625l1.796875 0l0 1.65625zm-0.109375 11.03125l-1.59375 0l0 -9.453125l1.59375 0l0 9.453125zm11.051941 0l-1.59375 0l0 -5.375q0 -0.65625 -0.078125 -1.21875q-0.078125 -0.578125 -0.28125 -0.90625q-0.203125 -0.359375 -0.609375 -0.53125q-0.390625 -0.171875 -1.03125 -0.171875q-0.640625 0 -1.359375 0.328125q-0.703125 0.3125 -1.359375 0.8125l0 7.0625l-1.59375 0l0 -9.453125l1.59375 0l0 1.046875q0.75 -0.609375 1.53125 -0.953125q0.796875 -0.359375 1.640625 -0.359375q1.53125 0 2.328125 0.921875q0.8125 0.921875 0.8125 2.65625l0 6.140625zm10.965454 -4.5625l-6.953125 0q0 0.875 0.25 1.53125q0.265625 0.640625 0.734375 1.046875q0.4375 0.40625 1.03125 0.609375q0.609375 0.203125 1.34375 0.203125q0.96875 0 1.9375 -0.375q0.984375 -0.390625 1.390625 -0.765625l0.09375 0l0 1.734375q-0.8125 0.34375 -1.65625 0.578125q-0.828125 0.21875 -1.75 0.21875q-2.359375 0 -3.6875 -1.265625q-1.3125 -1.28125 -1.3125 -3.625q0 -2.3125 1.265625 -3.671875q1.265625 -1.375 3.328125 -1.375q1.921875 0 2.953125 1.125q1.03125 1.109375 1.03125 3.171875l0 0.859375zm-1.546875 -1.21875q0 -1.25 -0.625 -1.9375q-0.625 -0.6875 -1.890625 -0.6875q-1.28125 0 -2.046875 0.765625q-0.75 0.75 -0.84375 1.859375l5.40625 0z" fill-rule="nonzero"/><path fill="#000000" d="m804.9782 417.74982q0 1.71875 -0.75 3.109375q-0.75 1.390625 -2.0 2.171875q-0.859375 0.53125 -1.921875 0.765625q-1.0625 0.234375 -2.796875 0.234375l-3.1875 0l0 -12.59375l3.15625 0q1.84375 0 2.921875 0.265625q1.09375 0.265625 1.84375 0.734375q1.28125 0.796875 2.0 2.140625q0.734375 1.328125 0.734375 3.171875zm-1.765625 -0.03125q0 -1.484375 -0.515625 -2.5q-0.515625 -1.015625 -1.53125 -1.59375q-0.75 -0.421875 -1.59375 -0.578125q-0.828125 -0.171875 -2.0 -0.171875l-1.5625 0l0 9.71875l1.5625 0q1.21875 0 2.109375 -0.171875q0.90625 -0.1875 1.65625 -0.671875q0.9375 -0.59375 1.40625 -1.578125q0.46875 -0.984375 0.46875 -2.453125zm11.679565 6.3125l-1.578125 0l0 -1.0q-0.21875 0.140625 -0.578125 0.40625q-0.359375 0.25 -0.6875 0.40625q-0.40625 0.1875 -0.921875 0.3125q-0.515625 0.140625 -1.203125 0.140625q-1.28125 0 -2.171875 -0.84375q-0.890625 -0.859375 -0.890625 -2.15625q0 -1.078125 0.453125 -1.734375q0.46875 -0.671875 1.328125 -1.0625q0.859375 -0.375 2.0625 -0.5q1.21875 -0.140625 2.609375 -0.21875l0 -0.234375q0 -0.546875 -0.1875 -0.890625q-0.1875 -0.359375 -0.546875 -0.5625q-0.34375 -0.203125 -0.8125 -0.265625q-0.46875 -0.078125 -1.0 -0.078125q-0.625 0 -1.390625 0.171875q-0.765625 0.171875 -1.59375 0.484375l-0.078125 0l0 -1.625q0.46875 -0.125 1.34375 -0.265625q0.875 -0.15625 1.734375 -0.15625q1.0 0 1.734375 0.171875q0.75 0.15625 1.28125 0.546875q0.53125 0.390625 0.8125 1.015625q0.28125 0.609375 0.28125 1.53125l0 6.40625zm-1.578125 -2.328125l0 -2.625q-0.734375 0.03125 -1.71875 0.125q-0.984375 0.078125 -1.5625 0.25q-0.671875 0.1875 -1.109375 0.59375q-0.421875 0.40625 -0.421875 1.140625q0 0.796875 0.484375 1.21875q0.5 0.40625 1.515625 0.40625q0.828125 0 1.515625 -0.328125q0.703125 -0.328125 1.296875 -0.78125zm9.547668 2.25q-0.4375 0.109375 -0.96875 0.1875q-0.53125 0.078125 -0.953125 0.078125q-1.4375 0 -2.203125 -0.78125q-0.75 -0.78125 -0.75 -2.5l0 -5.015625l-1.0625 0l0 -1.34375l1.0625 0l0 -2.71875l1.59375 0l0 2.71875l3.28125 0l0 1.34375l-3.28125 0l0 4.296875q0 0.75 0.03125 1.171875q0.03125 0.421875 0.234375 0.78125q0.1875 0.34375 0.515625 0.5q0.328125 0.15625 1.0 0.15625q0.390625 0 0.8125 -0.109375q0.421875 -0.125 0.609375 -0.203125l0.078125 0l0 1.4375zm9.265503 0.078125l-1.578125 0l0 -1.0q-0.21875 0.140625 -0.578125 0.40625q-0.35931396 0.25 -0.68743896 0.40625q-0.40625 0.1875 -0.921875 0.3125q-0.515625 0.140625 -1.203125 0.140625q-1.28125 0 -2.171875 -0.84375q-0.890625 -0.859375 -0.890625 -2.15625q0 -1.078125 0.453125 -1.734375q0.46875 -0.671875 1.328125 -1.0625q0.859375 -0.375 2.0625 -0.5q1.21875 -0.140625 2.609314 -0.21875l0 -0.234375q0 -0.546875 -0.1875 -0.890625q-0.1875 -0.359375 -0.546875 -0.5625q-0.34368896 -0.203125 -0.81243896 -0.265625q-0.46875 -0.078125 -1.0 -0.078125q-0.625 0 -1.390625 0.171875q-0.765625 0.171875 -1.59375 0.484375l-0.078125 0l0 -1.625q0.46875 -0.125 1.34375 -0.265625q0.875 -0.15625 1.734375 -0.15625q1.0 0 1.734314 0.171875q0.75 0.15625 1.28125 0.546875q0.53125 0.390625 0.8125 1.015625q0.28125 0.609375 0.28125 1.53125l0 6.40625zm-1.578125 -2.328125l0 -2.625q-0.734375 0.03125 -1.718689 0.125q-0.984375 0.078125 -1.5625 0.25q-0.671875 0.1875 -1.109375 0.59375q-0.421875 0.40625 -0.421875 1.140625q0 0.796875 0.484375 1.21875q0.5 0.40625 1.515625 0.40625q0.828125 0 1.515625 -0.328125q0.70306396 -0.328125 1.296814 -0.78125z" fill-rule="nonzero"/><path fill="#efefef" d="m644.63257 269.59055l118.96063 0l0 75.2753l-15.05542 15.05542l-103.90521 0z" fill-rule="evenodd"/><path fill="#bfbfbf" d="m748.5378 359.92126l3.0110474 -12.044342l12.044373 -3.011078z" fill-rule="evenodd"/><path fill="#000000" fill-opacity="0.0" d="m748.5378 359.92126l3.0110474 -12.044342l12.044373 -3.011078l-15.05542 15.05542l-103.90521 0l0 -90.33072l118.96063 0l0 75.2753" fill-rule="evenodd"/><path stroke="#000000" stroke-width="1.0" stroke-linejoin="round" stroke-linecap="butt" d="m748.5378 359.92126l3.0110474 -12.044342l12.044373 -3.011078l-15.05542 15.05542l-103.90521 0l0 -90.33072l118.96063 0l0 75.2753" fill-rule="evenodd"/><path fill="#000000" d="m687.26337 299.58694q0 1.671875 -1.015625 2.5625q-1.0 0.890625 -2.703125 0.890625q-0.40625 0 -1.09375 -0.078125q-0.671875 -0.0625 -1.125 -0.15625l0 -1.578125l0.09375 0q0.34375 0.125 0.84375 0.25q0.515625 0.125 1.046875 0.125q0.78125 0 1.234375 -0.171875q0.46875 -0.171875 0.6875 -0.515625q0.234375 -0.328125 0.296875 -0.8125q0.0625 -0.5 0.0625 -1.140625l0 -7.359375l-2.671875 0l0 -1.328125l4.34375 0l0 9.3125zm12.408447 -0.3125q0 0.734375 -0.34375 1.453125q-0.34375 0.71875 -0.953125 1.21875q-0.6875 0.546875 -1.59375 0.859375q-0.890625 0.296875 -2.15625 0.296875q-1.359375 0 -2.453125 -0.25q-1.078125 -0.265625 -2.203125 -0.765625l0 -2.09375l0.109375 0q0.953125 0.796875 2.203125 1.234375q1.265625 0.421875 2.359375 0.421875q1.5625 0 2.421875 -0.578125q0.875 -0.59375 0.875 -1.5625q0 -0.84375 -0.421875 -1.234375q-0.40625 -0.390625 -1.234375 -0.625q-0.640625 -0.15625 -1.390625 -0.265625q-0.734375 -0.109375 -1.5625 -0.28125q-1.671875 -0.359375 -2.484375 -1.21875q-0.8125 -0.859375 -0.8125 -2.234375q0 -1.59375 1.34375 -2.59375q1.34375 -1.015625 3.390625 -1.015625q1.328125 0 2.4375 0.265625q1.109375 0.25 1.96875 0.609375l0 1.984375l-0.125 0q-0.71875 -0.609375 -1.890625 -1.0q-1.171875 -0.40625 -2.390625 -0.40625q-1.359375 0 -2.171875 0.5625q-0.8125 0.546875 -0.8125 1.421875q0 0.796875 0.40625 1.25q0.40625 0.4375 1.421875 0.671875q0.546875 0.125 1.546875 0.296875q1.0 0.171875 1.6875 0.34375q1.40625 0.375 2.109375 1.125q0.71875 0.75 0.71875 2.109375zm12.079773 -7.5625q0.78125 0.84375 1.1875 2.078125q0.40625 1.21875 0.40625 2.78125q0 1.5625 -0.421875 2.796875q-0.40625 1.21875 -1.171875 2.046875q-0.765625 0.859375 -1.828125 1.296875q-1.0625 0.421875 -2.4375 0.421875q-1.328125 0 -2.421875 -0.4375q-1.078125 -0.453125 -1.828125 -1.28125q-0.765625 -0.84375 -1.1875 -2.0625q-0.40625 -1.21875 -0.40625 -2.78125q0 -1.53125 0.40625 -2.75q0.40625 -1.234375 1.1875 -2.109375q0.75 -0.828125 1.84375 -1.265625q1.109375 -0.4375 2.40625 -0.4375q1.359375 0 2.4375 0.453125q1.078125 0.4375 1.828125 1.25zm-0.140625 4.859375q0 -2.453125 -1.109375 -3.78125q-1.09375 -1.328125 -3.0 -1.328125q-1.921875 0 -3.015625 1.328125q-1.09375 1.328125 -1.09375 3.78125q0 2.484375 1.109375 3.796875q1.125 1.3125 3.0 1.3125q1.875 0 2.984375 -1.3125q1.125 -1.3125 1.125 -3.796875zm13.998535 6.296875l-2.0625 0l-5.984375 -11.265625l0 11.265625l-1.5625 0l0 -12.59375l2.609375 0l5.4375 10.28125l0 -10.28125l1.5625 0l0 12.59375z" fill-rule="nonzero"/><path fill="#000000" d="m677.273 323.8682l-1.59375 0l0 -5.375q0 -0.609375 -0.0625 -1.171875q-0.046875 -0.578125 -0.21875 -0.921875q-0.203125 -0.359375 -0.5625 -0.546875q-0.359375 -0.1875 -1.046875 -0.1875q-0.671875 0 -1.34375 0.34375q-0.671875 0.328125 -1.328125 0.84375q0.015625 0.203125 0.03125 0.46875q0.015625 0.25 0.015625 0.5l0 6.046875l-1.578125 0l0 -5.375q0 -0.625 -0.0625 -1.1875q-0.046875 -0.5625 -0.234375 -0.90625q-0.1875 -0.359375 -0.5625 -0.546875q-0.359375 -0.1875 -1.046875 -0.1875q-0.640625 0 -1.296875 0.328125q-0.65625 0.3125 -1.3125 0.8125l0 7.0625l-1.59375 0l0 -9.453125l1.59375 0l0 1.046875q0.75 -0.609375 1.484375 -0.953125q0.734375 -0.359375 1.578125 -0.359375q0.96875 0 1.640625 0.40625q0.671875 0.40625 1.0 1.125q0.96875 -0.8125 1.75 -1.171875q0.796875 -0.359375 1.703125 -0.359375q1.5625 0 2.296875 0.953125q0.75 0.9375 0.75 2.625l0 6.140625zm10.401184 0l-1.578125 0l0 -1.0q-0.21875 0.140625 -0.578125 0.40625q-0.359375 0.25 -0.6875 0.40625q-0.40625 0.1875 -0.921875 0.3125q-0.515625 0.140625 -1.203125 0.140625q-1.28125 0 -2.171875 -0.84375q-0.890625 -0.859375 -0.890625 -2.15625q0 -1.078125 0.453125 -1.734375q0.46875 -0.671875 1.328125 -1.0625q0.859375 -0.375 2.0625 -0.5q1.21875 -0.140625 2.609375 -0.21875l0 -0.234375q0 -0.546875 -0.1875 -0.890625q-0.1875 -0.359375 -0.546875 -0.5625q-0.34375 -0.203125 -0.8125 -0.265625q-0.46875 -0.078125 -1.0 -0.078125q-0.625 0 -1.390625 0.171875q-0.765625 0.171875 -1.59375 0.484375l-0.078125 0l0 -1.625q0.46875 -0.125 1.34375 -0.265625q0.875 -0.15625 1.734375 -0.15625q1.0 0 1.734375 0.171875q0.75 0.15625 1.28125 0.546875q0.53125 0.390625 0.8125 1.015625q0.28125 0.609375 0.28125 1.53125l0 6.40625zm-1.578125 -2.328125l0 -2.625q-0.734375 0.03125 -1.71875 0.125q-0.984375 0.078125 -1.5625 0.25q-0.671875 0.1875 -1.109375 0.59375q-0.421875 0.40625 -0.421875 1.140625q0 0.796875 0.484375 1.21875q0.5 0.40625 1.515625 0.40625q0.828125 0 1.515625 -0.328125q0.703125 -0.328125 1.296875 -0.78125zm12.953918 -2.515625q0 1.15625 -0.328125 2.109375q-0.328125 0.953125 -0.921875 1.609375q-0.5625 0.625 -1.328125 0.96875q-0.75 0.34375 -1.59375 0.34375q-0.734375 0 -1.328125 -0.171875q-0.59375 -0.15625 -1.21875 -0.484375l0 3.953125l-1.59375 0l0 -12.9375l1.59375 0l0 0.984375q0.640625 -0.53125 1.421875 -0.890625q0.796875 -0.359375 1.6875 -0.359375q1.71875 0 2.65625 1.296875q0.953125 1.296875 0.953125 3.578125zm-1.640625 0.046875q0 -1.703125 -0.578125 -2.546875q-0.578125 -0.859375 -1.796875 -0.859375q-0.6875 0 -1.375 0.296875q-0.6875 0.296875 -1.328125 0.78125l0 5.359375q0.671875 0.296875 1.15625 0.40625q0.5 0.109375 1.109375 0.109375q1.328125 0 2.0625 -0.890625q0.75 -0.890625 0.75 -2.65625zm12.436829 -0.046875q0 1.15625 -0.328125 2.109375q-0.328125 0.953125 -0.921875 1.609375q-0.5625 0.625 -1.328125 0.96875q-0.75 0.34375 -1.59375 0.34375q-0.734375 0 -1.328125 -0.171875q-0.59375 -0.15625 -1.21875 -0.484375l0 3.953125l-1.59375 0l0 -12.9375l1.59375 0l0 0.984375q0.640625 -0.53125 1.421875 -0.890625q0.796875 -0.359375 1.6875 -0.359375q1.71875 0 2.65625 1.296875q0.953125 1.296875 0.953125 3.578125zm-1.640625 0.046875q0 -1.703125 -0.578125 -2.546875q-0.578125 -0.859375 -1.796875 -0.859375q-0.6875 0 -1.375 0.296875q-0.6875 0.296875 -1.328125 0.78125l0 5.359375q0.671875 0.296875 1.15625 0.40625q0.5 0.109375 1.109375 0.109375q1.328125 0 2.0625 -0.890625q0.75 -0.890625 0.75 -2.65625zm5.8431396 -6.234375l-1.796875 0l0 -1.65625l1.796875 0l0 1.65625zm-0.109375 11.03125l-1.59375 0l0 -9.453125l1.59375 0l0 9.453125zm11.051941 0l-1.59375 0l0 -5.375q0 -0.65625 -0.078125 -1.21875q-0.078125 -0.578125 -0.28125 -0.90625q-0.203125 -0.359375 -0.609375 -0.53125q-0.390625 -0.171875 -1.03125 -0.171875q-0.640625 0 -1.359375 0.328125q-0.703125 0.3125 -1.359375 0.8125l0 7.0625l-1.59375 0l0 -9.453125l1.59375 0l0 1.046875q0.75 -0.609375 1.53125 -0.953125q0.796875 -0.359375 1.640625 -0.359375q1.53125 0 2.328125 0.921875q0.8125 0.921875 0.8125 2.65625l0 6.140625zm10.731079 -1.078125q0 2.40625 -1.09375 3.53125q-1.09375 1.125 -3.359375 1.125q-0.75 0 -1.46875 -0.109375q-0.71875 -0.09375 -1.40625 -0.296875l0 -1.625l0.078125 0q0.390625 0.15625 1.234375 0.375q0.84375 0.234375 1.703125 0.234375q0.8125 0 1.34375 -0.203125q0.53125 -0.1875 0.828125 -0.546875q0.296875 -0.328125 0.421875 -0.796875q0.125 -0.453125 0.125 -1.03125l0 -0.859375q-0.71875 0.578125 -1.375 0.859375q-0.65625 0.28125 -1.671875 0.28125q-1.6875 0 -2.6875 -1.21875q-1.0 -1.234375 -1.0 -3.453125q0 -1.21875 0.34375 -2.09375q0.34375 -0.890625 0.9375 -1.53125q0.546875 -0.609375 1.328125 -0.9375q0.796875 -0.34375 1.578125 -0.34375q0.828125 0 1.375 0.171875q0.546875 0.15625 1.171875 0.5l0.09375 -0.40625l1.5 0l0 8.375zm-1.59375 -1.515625l0 -5.15625q-0.640625 -0.28125 -1.1875 -0.40625q-0.53125 -0.125 -1.078125 -0.125q-1.3125 0 -2.0625 0.890625q-0.75 0.875 -0.75 2.546875q0 1.59375 0.546875 2.421875q0.5625 0.8125 1.859375 0.8125q0.6875 0 1.390625 -0.265625q0.703125 -0.28125 1.28125 -0.71875zm11.468079 -0.125q0 1.28125 -1.078125 2.125q-1.0625 0.828125 -2.90625 0.828125q-1.046875 0 -1.9375 -0.25q-0.875 -0.25 -1.453125 -0.546875l0 -1.796875l0.078125 0q0.75 0.578125 1.671875 0.921875q0.921875 0.328125 1.765625 0.328125q1.0625 0 1.640625 -0.34375q0.59375 -0.34375 0.59375 -1.0625q0 -0.5625 -0.3125 -0.859375q-0.328125 -0.28125 -1.234375 -0.484375q-0.34375 -0.078125 -0.890625 -0.171875q-0.546875 -0.109375 -1.0 -0.21875q-1.234375 -0.328125 -1.765625 -0.96875q-0.515625 -0.640625 -0.515625 -1.578125q0 -0.578125 0.234375 -1.09375q0.25 -0.515625 0.75 -0.921875q0.46875 -0.40625 1.203125 -0.625q0.734375 -0.234375 1.625 -0.234375q0.859375 0 1.71875 0.203125q0.875 0.203125 1.4375 0.5l0 1.703125l-0.078125 0q-0.609375 -0.453125 -1.484375 -0.75q-0.859375 -0.3125 -1.703125 -0.3125q-0.875 0 -1.484375 0.328125q-0.59375 0.328125 -0.59375 1.0q0 0.578125 0.375 0.875q0.34375 0.296875 1.140625 0.484375q0.4375 0.09375 0.984375 0.203125q0.546875 0.09375 0.90625 0.1875q1.109375 0.25 1.71875 0.875q0.59375 0.625 0.59375 1.65625z" fill-rule="nonzero"/><path fill="#cfe2f3" d="m126.76903 44.587925l41.86615 0c12.75473 0 23.094482 10.339756 23.094482 23.094486l0 16.496063l6.598419 0l-13.196838 13.196854l-13.196854 -13.196854l6.598419 0l0 -16.496063l0 0c0 -5.4663124 -4.43132 -9.897633 -9.897629 -9.897633l-41.86615 0z" fill-rule="evenodd"/><path stroke="#000000" stroke-width="1.0" stroke-linejoin="round" stroke-linecap="butt" d="m126.76903 44.587925l41.86615 0c12.75473 0 23.094482 10.339756 23.094482 23.094486l0 16.496063l6.598419 0l-13.196838 13.196854l-13.196854 -13.196854l6.598419 0l0 -16.496063l0 0c0 -5.4663124 -4.43132 -9.897633 -9.897629 -9.897633l-41.86615 0z" fill-rule="evenodd"/><path fill="#f4cccc" d="m721.5827 601.37006l-41.86615 0c-12.754761 0 -23.094482 -10.339722 -23.094482 -23.094482l0 -16.496033l-6.5984497 0l13.196838 -13.196838l13.196838 13.196838l-6.5983887 0l0 16.496033l0 0c0 5.4663086 4.4313354 9.897644 9.897644 9.897644l41.86615 0z" fill-rule="evenodd"/><path stroke="#000000" stroke-width="1.0" stroke-linejoin="round" stroke-linecap="butt" d="m721.5827 601.37006l-41.86615 0c-12.754761 0 -23.094482 -10.339722 -23.094482 -23.094482l0 -16.496033l-6.5984497 0l13.196838 -13.196838l13.196838 13.196838l-6.5983887 0l0 16.496033l0 0c0 5.4663086 4.4313354 9.897644 9.897644 9.897644l41.86615 0z" fill-rule="evenodd"/><path fill="#c9daf8" d="m245.74016 135.79527l41.866135 0c12.75473 0 23.094482 10.339752 23.094482 23.094498l0 16.496063l6.5984497 0l-13.196869 13.196838l-13.196838 -13.196838l6.598419 0l0 -16.496063l0 0c0 -5.466324 -4.4313354 -9.897644 -9.897644 -9.897644l-41.866135 0z" fill-rule="evenodd"/><path stroke="#000000" stroke-width="1.0" stroke-linejoin="round" stroke-linecap="butt" d="m245.74016 135.79527l41.866135 0c12.75473 0 23.094482 10.339752 23.094482 23.094498l0 16.496063l6.5984497 0l-13.196869 13.196838l-13.196838 -13.196838l6.598419 0l0 -16.496063l0 0c0 -5.466324 -4.4313354 -9.897644 -9.897644 -9.897644l-41.866135 0z" fill-rule="evenodd"/><path fill="#d0e0e3" d="m364.70078 226.12599l41.86615 0c12.75473 0 23.094482 10.339752 23.094482 23.094482l0 16.496048l6.5984497 0l-13.196869 13.196869l-13.196838 -13.196869l6.598419 0l0 -16.496048l0 0c0 -5.4663086 -4.4313354 -9.897644 -9.897644 -9.897644l-41.86615 0z" fill-rule="evenodd"/><path stroke="#000000" stroke-width="1.0" stroke-linejoin="round" stroke-linecap="butt" d="m364.70078 226.12599l41.86615 0c12.75473 0 23.094482 10.339752 23.094482 23.094482l0 16.496048l6.5984497 0l-13.196869 13.196869l-13.196838 -13.196869l6.598419 0l0 -16.496048l0 0c0 -5.4663086 -4.4313354 -9.897644 -9.897644 -9.897644l-41.86615 0z" fill-rule="evenodd"/><path fill="#d9ead3" d="m483.6614 315.13385l41.86618 0c12.7547 0 23.094482 10.339752 23.094482 23.094482l0 16.496063l6.5983887 0l-13.196838 13.196869l-13.196838 -13.196869l6.5983887 0l0 -16.496063l0 0c0 -5.4663086 -4.4312744 -9.897614 -9.897583 -9.897614l-41.86618 0z" fill-rule="evenodd"/><path stroke="#000000" stroke-width="1.0" stroke-linejoin="round" stroke-linecap="butt" d="m483.6614 315.13385l41.86618 0c12.7547 0 23.094482 10.339752 23.094482 23.094482l0 16.496063l6.5983887 0l-13.196838 13.196869l-13.196838 -13.196869l6.5983887 0l0 -16.496063l0 0c0 -5.4663086 -4.4312744 -9.897614 -9.897583 -9.897614l-41.86618 0z" fill-rule="evenodd"/><path fill="#fff2cc" d="m602.6221 405.46457l41.86609 0c12.754761 0 23.094543 10.339752 23.094543 23.094482l0 16.496063l6.5983887 0l-13.196838 13.196869l-13.196838 -13.196869l6.5983887 0l0 -16.496063l0 0c0 -5.4663086 -4.4312744 -9.897644 -9.897644 -9.897644l-41.86609 0z" fill-rule="evenodd"/><path stroke="#000000" stroke-width="1.0" stroke-linejoin="round" stroke-linecap="butt" d="m602.6221 405.46457l41.86609 0c12.754761 0 23.094543 10.339752 23.094543 23.094482l0 16.496063l6.5983887 0l-13.196838 13.196869l-13.196838 -13.196869l6.5983887 0l0 -16.496063l0 0c0 -5.4663086 -4.4312744 -9.897644 -9.897644 -9.897644l-41.86609 0z" fill-rule="evenodd"/><path fill="#fce5cd" d="m721.5827 495.7953l41.86609 0c12.754761 0 23.094543 10.339752 23.094543 23.094482l0 16.496033l6.5983887 0l-13.196838 13.196899l-13.196838 -13.196899l6.5983887 0l0 -16.496033l0 0c0 -5.4663086 -4.4312744 -9.897644 -9.897644 -9.897644l-41.86609 0z" fill-rule="evenodd"/><path stroke="#000000" stroke-width="1.0" stroke-linejoin="round" stroke-linecap="butt" d="m721.5827 495.7953l41.86609 0c12.754761 0 23.094543 10.339752 23.094543 23.094482l0 16.496033l6.5983887 0l-13.196838 13.196899l-13.196838 -13.196899l6.5983887 0l0 -16.496033l0 0c0 -5.4663086 -4.4312744 -9.897644 -9.897644 -9.897644l-41.86609 0z" fill-rule="evenodd"/><path fill="#fce5cd" d="m602.6221 511.03937l-41.86615 0c-12.754761 0 -23.094482 -10.339752 -23.094482 -23.094482l0 -16.496063l-6.5984497 0l13.196838 -13.196838l13.196838 13.196838l-6.5983887 0l0 16.496063l0 0c0 5.4663086 4.4313354 9.897644 9.897644 9.897644l41.86615 0z" fill-rule="evenodd"/><path stroke="#000000" stroke-width="1.0" stroke-linejoin="round" stroke-linecap="butt" d="m602.6221 511.03937l-41.86615 0c-12.754761 0 -23.094482 -10.339752 -23.094482 -23.094482l0 -16.496063l-6.5984497 0l13.196838 -13.196838l13.196838 13.196838l-6.5983887 0l0 16.496063l0 0c0 5.4663086 4.4313354 9.897644 9.897644 9.897644l41.86615 0z" fill-rule="evenodd"/><path fill="#fff2cc" d="m483.6614 422.0315l-41.86612 0c-12.754761 0 -23.094513 -10.339752 -23.094513 -23.094482l0 -16.496063l-6.598419 0l13.196869 -13.196869l13.196838 13.196869l-6.598419 0l0 16.496063l0 0c0 5.4663086 4.431305 9.897644 9.897644 9.897644l41.86612 0z" fill-rule="evenodd"/><path stroke="#000000" stroke-width="1.0" stroke-linejoin="round" stroke-linecap="butt" d="m483.6614 422.0315l-41.86612 0c-12.754761 0 -23.094513 -10.339752 -23.094513 -23.094482l0 -16.496063l-6.598419 0l13.196869 -13.196869l13.196838 13.196869l-6.598419 0l0 16.496063l0 0c0 5.4663086 4.431305 9.897644 9.897644 9.897644l41.86612 0z" fill-rule="evenodd"/><path fill="#d9ead3" d="m364.70078 331.70078l-41.86612 0c-12.75473 0 -23.094513 -10.339752 -23.094513 -23.094482l0 -16.496063l-6.598419 0l13.196869 -13.196838l13.196838 13.196838l-6.598419 0l0 16.496063l0 0c0 5.4663086 4.431305 9.897644 9.897644 9.897644l41.86612 0z" fill-rule="evenodd"/><path stroke="#000000" stroke-width="1.0" stroke-linejoin="round" stroke-linecap="butt" d="m364.70078 331.70078l-41.86612 0c-12.75473 0 -23.094513 -10.339752 -23.094513 -23.094482l0 -16.496063l-6.598419 0l13.196869 -13.196838l13.196838 13.196838l-6.598419 0l0 16.496063l0 0c0 5.4663086 4.431305 9.897644 9.897644 9.897644l41.86612 0z" fill-rule="evenodd"/><path fill="#d0e0e3" d="m245.74016 241.37007l-41.86615 0c-12.75473 0 -23.094482 -10.339752 -23.094482 -23.094482l0 -16.496063l-6.598419 0l13.196854 -13.196854l13.196838 13.196854l-6.598419 0l0 16.496063l0 0c0 5.4663086 4.43132 9.897644 9.897629 9.897644l41.86615 0z" fill-rule="evenodd"/><path stroke="#000000" stroke-width="1.0" stroke-linejoin="round" stroke-linecap="butt" d="m245.74016 241.37007l-41.86615 0c-12.75473 0 -23.094482 -10.339752 -23.094482 -23.094482l0 -16.496063l-6.598419 0l13.196854 -13.196854l13.196838 13.196854l-6.598419 0l0 16.496063l0 0c0 5.4663086 4.43132 9.897644 9.897629 9.897644l41.86615 0z" fill-rule="evenodd"/><path fill="#c9daf8" d="m126.779526 150.16273l-41.866142 0c-12.75473 0 -23.094486 -10.339767 -23.094486 -23.09449l0 -16.496063l-6.598423 0l13.196846 -13.196854l13.196854 13.196854l-6.598427 0l0 16.496063l0 0c0 5.466316 4.431328 9.897636 9.897636 9.897636l41.866142 0z" fill-rule="evenodd"/><path stroke="#000000" stroke-width="1.0" stroke-linejoin="round" stroke-linecap="butt" d="m126.779526 150.16273l-41.866142 0c-12.75473 0 -23.094486 -10.339767 -23.094486 -23.09449l0 -16.496063l-6.598423 0l13.196846 -13.196854l13.196854 13.196854l-6.598427 0l0 16.496063l0 0c0 5.466316 4.431328 9.897636 9.897636 9.897636l41.866142 0z" fill-rule="evenodd"/><path fill="#efefef" d="m690.2546 444.3937l6.929138 0l0 -84.47244l13.858276 0l0 84.47244l6.929138 0l-13.858276 13.858276z" fill-rule="evenodd"/><path stroke="#000000" stroke-width="1.0" stroke-linejoin="round" stroke-linecap="butt" d="m690.2546 444.3937l6.929138 0l0 -84.47244l13.858276 0l0 84.47244l6.929138 0l-13.858276 13.858276z" fill-rule="evenodd"/><path fill="#efefef" d="m799.27295 534.7244l6.929138 0l0 -84.47244l13.858276 0l0 84.47244l6.929138 0l-13.858276 13.858276z" fill-rule="evenodd"/><path stroke="#000000" stroke-width="1.0" stroke-linejoin="round" stroke-linecap="butt" d="m799.27295 534.7244l6.929138 0l0 -84.47244l13.858276 0l0 84.47244l6.929138 0l-13.858276 13.858276z" fill-rule="evenodd"/><path fill="#000000" fill-opacity="0.0" d="m236.54068 258.78094l0 0c0 7.710083 -3.0628052 15.10437 -8.514664 20.556213c-5.4518433 5.4518433 -12.84613 8.514648 -20.556198 8.514648l-51.874023 0c-16.05539 0 -29.070862 13.015472 -29.070862 29.070862l0 0c0 -16.05539 -13.015465 -29.070862 -29.070862 -29.070862l-51.87402 0c-16.055395 0 -29.070866 -13.015472 -29.070866 -29.070862z" fill-rule="evenodd"/><path fill="#000000" fill-opacity="0.0" d="m236.54068 258.78094l0 0c0 7.710083 -3.0628052 15.10437 -8.514664 20.556213c-5.4518433 5.4518433 -12.84613 8.514648 -20.556198 8.514648l-51.874023 0c-16.05539 0 -29.070862 13.015472 -29.070862 29.070862l0 0c0 -16.05539 -13.015465 -29.070862 -29.070862 -29.070862l-51.87402 0c-16.055395 0 -29.070866 -13.015472 -29.070866 -29.070862" fill-rule="evenodd"/><path stroke="#000000" stroke-width="1.0" stroke-linejoin="round" stroke-linecap="butt" d="m236.54068 258.78094l0 0c0 7.710083 -3.0628052 15.10437 -8.514664 20.556213c-5.4518433 5.4518433 -12.84613 8.514648 -20.556198 8.514648l-51.874023 0c-16.05539 0 -29.070862 13.015472 -29.070862 29.070862l0 0c0 -16.05539 -13.015465 -29.070862 -29.070862 -29.070862l-51.87402 0c-16.055395 0 -29.070866 -13.015472 -29.070866 -29.070862" fill-rule="evenodd"/><path fill="#000000" fill-opacity="0.0" d="m88.666664 312.4567l75.716545 0l0 58.141724l-75.716545 0z" fill-rule="evenodd"/><path fill="#000000" d="m108.63889 339.37668l-5.359375 0l0 -1.390625l1.78125 0l0 -10.78125l-1.78125 0l0 -1.390625l5.359375 0l0 1.390625l-1.78125 0l0 10.78125l1.78125 0l0 1.390625zm15.149261 0l-1.8125 0l0 -11.6875l-3.765625 7.953125l-1.078125 0l-3.75 -7.953125l0 11.6875l-1.671875 0l0 -13.5625l2.453125 0l3.609375 7.546875l3.5 -7.546875l2.515625 0l0 13.5625zm14.332375 0l-1.921875 0l-1.328125 -3.78125l-5.875 0l-1.3281326 3.78125l-1.828125 0l4.9375076 -13.5625l2.40625 0l4.9375 13.5625zm-3.8125 -5.328125l-2.375 -6.65625l-2.390625 6.65625l4.765625 0zm15.630905 1.453125q0 0.796875 -0.375 1.578125q-0.359375 0.765625 -1.015625 1.296875q-0.734375 0.59375 -1.703125 0.921875q-0.96875 0.328125 -2.34375 0.328125q-1.46875 0 -2.640625 -0.265625q-1.15625 -0.28125 -2.375 -0.828125l0 -2.25l0.125 0q1.03125 0.859375 2.375 1.328125q1.359375 0.453125 2.546875 0.453125q1.671875 0 2.59375 -0.625q0.9375 -0.625 0.9375 -1.671875q0 -0.90625 -0.4375 -1.328125q-0.4375 -0.4375 -1.34375 -0.671875q-0.6875 -0.1875 -1.484375 -0.296875q-0.796875 -0.125 -1.6875 -0.3125q-1.796875 -0.375 -2.671875 -1.296875q-0.875 -0.921875 -0.875 -2.40625q0 -1.71875 1.4375 -2.796875q1.453125 -1.09375 3.65625 -1.09375q1.4375 0 2.625 0.28125q1.203125 0.265625 2.109375 0.671875l0 2.125l-0.125 0q-0.765625 -0.65625 -2.03125 -1.078125q-1.265625 -0.4375 -2.578125 -0.4375q-1.453125 0 -2.34375 0.609375q-0.875 0.59375 -0.875 1.53125q0 0.859375 0.4375 1.34375q0.4375 0.46875 1.546875 0.734375q0.578125 0.125 1.65625 0.3125q1.078125 0.171875 1.828125 0.375q1.5 0.390625 2.265625 1.203125q0.765625 0.8125 0.765625 2.265625z" fill-rule="nonzero"/><path fill="#000000" fill-opacity="0.0" d="m473.6614 440.69815l0 0c0 7.710083 -3.0628052 15.10437 -8.514648 20.556213c-5.4518433 5.4518433 -12.84613 8.514679 -20.556213 8.514679l-51.874023 0c-16.05539 0 -29.070862 13.015442 -29.070862 29.070862l0 0c0 -16.05542 -13.015472 -29.070862 -29.070862 -29.070862l-51.874023 0c-16.05539 0 -29.070847 -13.015472 -29.070847 -29.070892z" fill-rule="evenodd"/><path fill="#000000" fill-opacity="0.0" d="m473.6614 440.69815l0 0c0 7.710083 -3.0628052 15.10437 -8.514648 20.556213c-5.4518433 5.4518433 -12.84613 8.514679 -20.556213 8.514679l-51.874023 0c-16.05539 0 -29.070862 13.015442 -29.070862 29.070862l0 0c0 -16.05542 -13.015472 -29.070862 -29.070862 -29.070862l-51.874023 0c-16.05539 0 -29.070847 -13.015472 -29.070847 -29.070892" fill-rule="evenodd"/><path stroke="#000000" stroke-width="1.0" stroke-linejoin="round" stroke-linecap="butt" d="m473.6614 440.69815l0 0c0 7.710083 -3.0628052 15.10437 -8.514648 20.556213c-5.4518433 5.4518433 -12.84613 8.514679 -20.556213 8.514679l-51.874023 0c-16.05539 0 -29.070862 13.015442 -29.070862 29.070862l0 0c0 -16.05542 -13.015472 -29.070862 -29.070862 -29.070862l-51.874023 0c-16.05539 0 -29.070847 -13.015472 -29.070847 -29.070892" fill-rule="evenodd"/><path fill="#000000" fill-opacity="0.0" d="m325.7874 493.1181l75.71652 0l0 58.141724l-75.71652 0z" fill-rule="evenodd"/><path fill="#000000" d="m355.2853 514.58496q0 1.484375 -0.328125 2.578125q-0.3125 1.09375 -1.046875 1.828125q-0.703125 0.6875 -1.640625 1.015625q-0.9375 0.3125 -2.1875 0.3125q-1.28125 0 -2.234375 -0.328125q-0.9375 -0.34375 -1.59375 -1.0q-0.734375 -0.75 -1.0625 -1.796875q-0.3125 -1.0625 -0.3125 -2.609375l0 -8.1093445l1.796875 0l0 8.2030945q0 1.109375 0.140625 1.75q0.15625 0.625 0.515625 1.15625q0.40625 0.578125 1.09375 0.890625q0.6875 0.296875 1.65625 0.296875q0.96875 0 1.65625 -0.296875q0.6875 -0.296875 1.09375 -0.890625q0.34375 -0.53125 0.5 -1.1875q0.15625 -0.671875 0.15625 -1.671875l0 -8.2499695l1.796875 0l0 8.1093445zm14.905151 -1.3125q0 1.84375 -0.8125 3.359375q-0.796875 1.5 -2.140625 2.328125q-0.921875 0.5625 -2.078125 0.828125q-1.140625 0.25 -3.0 0.25l-3.421875 0l0 -13.5624695l3.375 0q2.0 0 3.15625 0.296875q1.171875 0.28125 1.984375 0.78125q1.390625 0.859375 2.15625 2.296875q0.78125 1.4375 0.78125 3.4218445zm-1.890625 -0.03125q0 -1.5937195 -0.5625 -2.6874695q-0.546875 -1.09375 -1.640625 -1.71875q-0.8125 -0.453125 -1.71875 -0.625q-0.890625 -0.1875 -2.15625 -0.1875l-1.6875 0l0 10.4687195l1.6875 0q1.3125 0 2.28125 -0.1875q0.96875 -0.203125 1.78125 -0.71875q1.015625 -0.640625 1.515625 -1.6875q0.5 -1.0625 0.5 -2.65625zm15.499786 6.796875l-1.921875 0l-1.328125 -3.78125l-5.875 0l-1.328125 3.78125l-1.828125 0l4.9375 -13.5624695l2.40625 0l4.9375 13.5624695zm-3.8125 -5.328125l-2.375 -6.6562195l-2.390625 6.6562195l4.765625 0z" fill-rule="nonzero"/><path fill="#000000" fill-opacity="0.0" d="m253.62993 435.32285l0 -147.46457" fill-rule="evenodd"/><path stroke="#000000" stroke-width="1.0" stroke-linejoin="round" stroke-linecap="butt" stroke-dasharray="4.0,3.0" d="m253.62993 435.32285l0 -147.46457" fill-rule="evenodd"/><path fill="#000000" fill-opacity="0.0" d="m16.509186 253.78477l0 -148.37796" fill-rule="evenodd"/><path stroke="#000000" stroke-width="1.0" stroke-linejoin="round" stroke-linecap="butt" stroke-dasharray="4.0,3.0" d="m16.509186 253.78477l0 -148.37796" fill-rule="evenodd"/><path fill="#efefef" d="m525.9265 25.065617l0 0c0 -9.468567 21.222961 -17.144356 47.402893 -17.144356c26.17987 0 47.402893 7.67579 47.402893 17.144356l0 68.57742c0 9.468567 -21.223022 17.144356 -47.402893 17.144356c-26.179932 0 -47.402893 -7.675789 -47.402893 -17.144356z" fill-rule="evenodd"/><path fill="#000000" fill-opacity="0.0" d="m620.7323 25.065617l0 0c0 9.468567 -21.223022 17.144356 -47.402893 17.144356c-26.179932 0 -47.402893 -7.675789 -47.402893 -17.144356" fill-rule="evenodd"/><path fill="#000000" fill-opacity="0.0" d="m525.9265 25.065617l0 0c0 -9.468567 21.222961 -17.144356 47.402893 -17.144356c26.17987 0 47.402893 7.67579 47.402893 17.144356l0 68.57742c0 9.468567 -21.223022 17.144356 -47.402893 17.144356c-26.179932 0 -47.402893 -7.675789 -47.402893 -17.144356z" fill-rule="evenodd"/><path stroke="#000000" stroke-width="1.0" stroke-linejoin="round" stroke-linecap="butt" d="m620.7323 25.065617l0 0c0 9.468567 -21.223022 17.144356 -47.402893 17.144356c-26.179932 0 -47.402893 -7.675789 -47.402893 -17.144356" fill-rule="evenodd"/><path stroke="#000000" stroke-width="1.0" stroke-linejoin="round" stroke-linecap="butt" d="m525.9265 25.065617l0 0c0 -9.468567 21.222961 -17.144356 47.402893 -17.144356c26.17987 0 47.402893 7.67579 47.402893 17.144356l0 68.57742c0 9.468567 -21.223022 17.144356 -47.402893 17.144356c-26.179932 0 -47.402893 -7.675789 -47.402893 -17.144356z" fill-rule="evenodd"/><path fill="#000000" d="m563.2249 63.56651l-4.984375 0l0 -1.28125l1.65625 0l0 -10.03125l-1.65625 0l0 -1.28125l4.984375 0l0 1.28125l-1.65625 0l0 10.03125l1.65625 0l0 1.28125zm13.496521 -6.28125q0 1.71875 -0.75 3.109375q-0.75 1.390625 -2.0 2.171875q-0.859375 0.53125 -1.921875 0.765625q-1.0625 0.234375 -2.796875 0.234375l-3.1875 0l0 -12.59375l3.15625 0q1.84375 0 2.921875 0.265625q1.09375 0.265625 1.84375 0.734375q1.28125 0.796875 2.0 2.140625q0.734375 1.328125 0.734375 3.171875zm-1.765625 -0.03125q0 -1.484375 -0.515625 -2.5q-0.515625 -1.015625 -1.53125 -1.59375q-0.75 -0.421875 -1.59375 -0.578125q-0.828125 -0.171875 -2.0 -0.171875l-1.5625 0l0 9.71875l1.5625 0q1.21875 0 2.109375 -0.171875q0.90625 -0.1875 1.65625 -0.671875q0.9375 -0.59375 1.40625 -1.578125q0.46875 -0.984375 0.46875 -2.453125zm13.617065 2.71875q0 0.734375 -0.34375 1.453125q-0.34375 0.71875 -0.953125 1.21875q-0.6875 0.546875 -1.59375 0.859375q-0.890625 0.296875 -2.15625 0.296875q-1.359375 0 -2.453125 -0.25q-1.078125 -0.265625 -2.203125 -0.765625l0 -2.09375l0.109375 0q0.953125 0.796875 2.203125 1.234375q1.265625 0.421875 2.359375 0.421875q1.5625 0 2.421875 -0.578125q0.875 -0.59375 0.875 -1.5625q0 -0.84375 -0.421875 -1.234375q-0.40625 -0.390625 -1.234375 -0.625q-0.640625 -0.15625 -1.390625 -0.265625q-0.734375 -0.109375 -1.5625 -0.28125q-1.671875 -0.359375 -2.484375 -1.21875q-0.8125 -0.859375 -0.8125 -2.234375q0 -1.59375 1.34375 -2.59375q1.34375 -1.015625 3.390625 -1.015625q1.328125 0 2.4375 0.265625q1.109375 0.25 1.96875 0.609375l0 1.984375l-0.125 0q-0.71875 -0.609375 -1.890625 -1.0q-1.171875 -0.40625 -2.390625 -0.40625q-1.359375 0 -2.171875 0.5625q-0.8125 0.546875 -0.8125 1.421875q0 0.796875 0.40625 1.25q0.40625 0.4375 1.421875 0.671875q0.546875 0.125 1.546875 0.296875q1.0 0.171875 1.6875 0.34375q1.40625 0.375 2.109375 1.125q0.71875 0.75 0.71875 2.109375z" fill-rule="nonzero"/><path fill="#000000" d="m565.1764 78.28526q0 1.71875 -0.75 3.109375q-0.75 1.390625 -2.0 2.171875q-0.859375 0.53125 -1.921875 0.765625q-1.0625 0.234375 -2.796875 0.234375l-3.1875 0l0 -12.59375l3.15625 0q1.84375 0 2.921875 0.265625q1.09375 0.265625 1.84375 0.734375q1.28125 0.796875 2.0 2.140625q0.734375 1.328125 0.734375 3.171875zm-1.765625 -0.03125q0 -1.484375 -0.515625 -2.5q-0.515625 -1.015625 -1.53125 -1.59375q-0.75 -0.421875 -1.59375 -0.578125q-0.828125 -0.171875 -2.0 -0.171875l-1.5625 0l0 9.71875l1.5625 0q1.21875 0 2.109375 -0.171875q0.90625 -0.1875 1.65625 -0.671875q0.9375 -0.59375 1.40625 -1.578125q0.46875 -0.984375 0.46875 -2.453125zm11.679565 6.3125l-1.578125 0l0 -1.0q-0.21875 0.140625 -0.578125 0.40625q-0.359375 0.25 -0.6875 0.40625q-0.40625 0.1875 -0.921875 0.3125q-0.515625 0.140625 -1.203125 0.140625q-1.28125 0 -2.171875 -0.84375q-0.890625 -0.859375 -0.890625 -2.15625q0 -1.078125 0.453125 -1.734375q0.46875 -0.671875 1.328125 -1.0625q0.859375 -0.375 2.0625 -0.5q1.21875 -0.140625 2.609375 -0.21875l0 -0.234375q0 -0.546875 -0.1875 -0.890625q-0.1875 -0.359375 -0.546875 -0.5625q-0.34375 -0.203125 -0.8125 -0.265625q-0.46875 -0.078125 -1.0 -0.078125q-0.625 0 -1.390625 0.171875q-0.765625 0.171875 -1.59375 0.484375l-0.078125 0l0 -1.625q0.46875 -0.125 1.34375 -0.265625q0.875 -0.15625 1.734375 -0.15625q1.0 0 1.734375 0.171875q0.75 0.15625 1.28125 0.546875q0.53125 0.390625 0.8125 1.015625q0.28125 0.609375 0.28125 1.53125l0 6.40625zm-1.578125 -2.328125l0 -2.625q-0.734375 0.03125 -1.71875 0.125q-0.984375 0.078125 -1.5625 0.25q-0.671875 0.1875 -1.109375 0.59375q-0.421875 0.40625 -0.421875 1.140625q0 0.796875 0.484375 1.21875q0.5 0.40625 1.515625 0.40625q0.828125 0 1.515625 -0.328125q0.703125 -0.328125 1.296875 -0.78125zm9.547668 2.25q-0.4375 0.109375 -0.96875 0.1875q-0.53125 0.078125 -0.953125 0.078125q-1.4375 0 -2.203125 -0.78125q-0.75 -0.78125 -0.75 -2.5l0 -5.015625l-1.0625 0l0 -1.34375l1.0625 0l0 -2.71875l1.59375 0l0 2.71875l3.28125 0l0 1.34375l-3.28125 0l0 4.296875q0 0.75 0.03125 1.171875q0.03125 0.421875 0.234375 0.78125q0.1875 0.34375 0.515625 0.5q0.328125 0.15625 1.0 0.15625q0.390625 0 0.8125 -0.109375q0.421875 -0.125 0.609375 -0.203125l0.078125 0l0 1.4375zm9.265503 0.078125l-1.578125 0l0 -1.0q-0.21875 0.140625 -0.578125 0.40625q-0.359375 0.25 -0.6875 0.40625q-0.40625 0.1875 -0.921875 0.3125q-0.515625 0.140625 -1.203125 0.140625q-1.28125 0 -2.171875 -0.84375q-0.890625 -0.859375 -0.890625 -2.15625q0 -1.078125 0.453125 -1.734375q0.46875 -0.671875 1.328125 -1.0625q0.859375 -0.375 2.0625 -0.5q1.21875 -0.140625 2.609375 -0.21875l0 -0.234375q0 -0.546875 -0.1875 -0.890625q-0.1875 -0.359375 -0.546875 -0.5625q-0.34375 -0.203125 -0.8125 -0.265625q-0.46875 -0.078125 -1.0 -0.078125q-0.625 0 -1.390625 0.171875q-0.765625 0.171875 -1.59375 0.484375l-0.078125 0l0 -1.625q0.46875 -0.125 1.34375 -0.265625q0.875 -0.15625 1.734375 -0.15625q1.0 0 1.734375 0.171875q0.75 0.15625 1.28125 0.546875q0.53125 0.390625 0.8125 1.015625q0.28125 0.609375 0.28125 1.53125l0 6.40625zm-1.578125 -2.328125l0 -2.625q-0.734375 0.03125 -1.71875 0.125q-0.984375 0.078125 -1.5625 0.25q-0.671875 0.1875 -1.109375 0.59375q-0.421875 0.40625 -0.421875 1.140625q0 0.796875 0.484375 1.21875q0.5 0.40625 1.515625 0.40625q0.828125 0 1.515625 -0.328125q0.703125 -0.328125 1.296875 -0.78125z" fill-rule="nonzero"/><path fill="#cfe2f3" d="m559.4724 354.0761l6.929138 0l0 -76.47244l13.858276 0l0 76.47244l6.929138 0l-13.858276 13.858276z" fill-rule="evenodd"/><path stroke="#000000" stroke-width="1.0" stroke-linejoin="round" stroke-linecap="butt" d="m559.4724 354.0761l6.929138 0l0 -76.47244l13.858276 0l0 76.47244l6.929138 0l-13.858276 13.858276z" fill-rule="evenodd"/><path fill="#cfe2f3" d="m513.8504 188.58267l118.96063 0l0 90.33072l-118.96063 0z" fill-rule="evenodd"/><path stroke="#000000" stroke-width="1.0" stroke-linejoin="round" stroke-linecap="butt" d="m513.8504 188.58267l118.96063 0l0 90.33072l-118.96063 0z" fill-rule="evenodd"/><path fill="#000000" d="m555.44464 229.66803l-5.359375 0l0 -1.390625l1.78125 0l0 -10.78125l-1.78125 0l0 -1.390625l5.359375 0l0 1.390625l-1.78125 0l0 10.78125l1.78125 0l0 1.390625zm15.149292 0l-1.8125 0l0 -11.6875l-3.765625 7.953125l-1.078125 0l-3.75 -7.953125l0 11.6875l-1.671875 0l0 -13.5625l2.453125 0l3.609375 7.546875l3.5 -7.546875l2.515625 0l0 13.5625zm14.332336 0l-1.921875 0l-1.328125 -3.78125l-5.875 0l-1.328125 3.78125l-1.828125 0l4.9375 -13.5625l2.40625 0l4.9375 13.5625zm-3.8125 -5.328125l-2.375 -6.65625l-2.390625 6.65625l4.765625 0zm15.63092 1.453125q0 0.796875 -0.375 1.578125q-0.359375 0.765625 -1.015625 1.296875q-0.734375 0.59375 -1.703125 0.921875q-0.96875 0.328125 -2.34375 0.328125q-1.46875 0 -2.640625 -0.265625q-1.15625 -0.28125 -2.375 -0.828125l0 -2.25l0.125 0q1.03125 0.859375 2.375 1.328125q1.359375 0.453125 2.546875 0.453125q1.671875 0 2.59375 -0.625q0.9375 -0.625 0.9375 -1.671875q0 -0.90625 -0.4375 -1.328125q-0.4375 -0.4375 -1.34375 -0.671875q-0.6875 -0.1875 -1.484375 -0.296875q-0.796875 -0.125 -1.6875 -0.3125q-1.796875 -0.375 -2.671875 -1.296875q-0.875 -0.921875 -0.875 -2.40625q0 -1.71875 1.4375 -2.796875q1.453125 -1.09375 3.65625 -1.09375q1.4375 0 2.625 0.28125q1.203125 0.265625 2.109375 0.671875l0 2.125l-0.125 0q-0.765625 -0.65625 -2.03125 -1.078125q-1.265625 -0.4375 -2.578125 -0.4375q-1.453125 0 -2.34375 0.609375q-0.875 0.59375 -0.875 1.53125q0 0.859375 0.4375 1.34375q0.4375 0.46875 1.546875 0.734375q0.578125 0.125 1.65625 0.3125q1.078125 0.171875 1.828125 0.375q1.5 0.390625 2.265625 1.203125q0.765625 0.8125 0.765625 2.265625z" fill-rule="nonzero"/><path fill="#000000" d="m534.45734 255.41803l-2.078125 0q-1.609375 -1.84375 -2.5 -4.03125q-0.890625 -2.1875 -0.890625 -4.921875q0 -2.75 0.890625 -4.9375q0.890625 -2.1875 2.5 -4.03125l2.078125 0l0 0.09375q-0.734375 0.65625 -1.40625 1.53125q-0.65625 0.875 -1.234375 2.03125q-0.546875 1.109375 -0.890625 2.46875q-0.34375 1.34375 -0.34375 2.84375q0 1.546875 0.328125 2.84375q0.34375 1.296875 0.90625 2.453125q0.546875 1.125 1.25 2.03125q0.703125 0.90625 1.390625 1.53125l0 0.09375zm4.768738 -3.75l-1.71875 0l0 -14.171875l1.71875 0l0 14.171875zm12.057007 -5.078125q0 2.484375 -1.28125 3.921875q-1.265625 1.4375 -3.40625 1.4375q-2.171875 0 -3.4375 -1.4375q-1.265625 -1.4375 -1.265625 -3.921875q0 -2.484375 1.265625 -3.921875q1.265625 -1.453125 3.4375 -1.453125q2.140625 0 3.40625 1.453125q1.28125 1.4375 1.28125 3.921875zm-1.765625 0q0 -1.984375 -0.78125 -2.9375q-0.765625 -0.96875 -2.140625 -0.96875q-1.40625 0 -2.171875 0.96875q-0.765625 0.953125 -0.765625 2.9375q0 1.90625 0.765625 2.90625q0.78125 0.984375 2.171875 0.984375q1.359375 0 2.140625 -0.984375q0.78125 -0.984375 0.78125 -2.90625zm17.213745 -5.09375l-2.65625 10.171875l-1.578125 0l-2.609375 -7.84375l-2.609375 7.84375l-1.5625 0l-2.6875 -10.171875l1.78125 0l1.875 7.875l2.546875 -7.875l1.40625 0l2.609375 7.875l1.765625 -7.875l1.71875 0zm4.205017 10.171875l-1.71875 0l0 -14.171875l1.71875 0l0 14.171875zm11.900757 -4.90625l-7.5 0q0 0.9375 0.28125 1.640625q0.28125 0.6875 0.78125 1.140625q0.46875 0.4375 1.109375 0.65625q0.65625 0.21875 1.453125 0.21875q1.03125 0 2.078125 -0.421875q1.0625 -0.421875 1.5 -0.8125l0.09375 0l0 1.859375q-0.859375 0.375 -1.765625 0.625q-0.90625 0.234375 -1.890625 0.234375q-2.53125 0 -3.953125 -1.359375q-1.421875 -1.375 -1.421875 -3.90625q0 -2.5 1.359375 -3.953125q1.359375 -1.46875 3.578125 -1.46875q2.0625 0 3.171875 1.203125q1.125 1.203125 1.125 3.40625l0 0.9375zm-1.671875 -1.3125q0 -1.34375 -0.671875 -2.078125q-0.671875 -0.75 -2.03125 -0.75q-1.375 0 -2.203125 0.8125q-0.8125 0.8125 -0.921875 2.015625l5.828125 0zm13.066711 -3.953125l-4.109375 10.171875l-1.734375 0l-4.078125 -10.171875l1.84375 0l3.15625 8.09375l3.125 -8.09375l1.796875 0zm10.595398 5.265625l-7.5 0q0 0.9375 0.28125 1.640625q0.28125 0.6875 0.78125 1.140625q0.46875 0.4375 1.109375 0.65625q0.65625 0.21875 1.453125 0.21875q1.03125 0 2.078125 -0.421875q1.0625 -0.421875 1.5 -0.8125l0.09375 0l0 1.859375q-0.859375 0.375 -1.765625 0.625q-0.90625 0.234375 -1.890625 0.234375q-2.53125 0 -3.953125 -1.359375q-1.421875 -1.375 -1.421875 -3.90625q0 -2.5 1.359375 -3.953125q1.359375 -1.46875 3.578125 -1.46875q2.0625 0 3.171875 1.203125q1.125 1.203125 1.125 3.40625l0 0.9375zm-1.671875 -1.3125q0 -1.34375 -0.671875 -2.078125q-0.671875 -0.75 -2.03125 -0.75q-1.375 0 -2.203125 0.8125q-0.8125 0.8125 -0.921875 2.015625l5.828125 0zm6.0042114 6.21875l-1.71875 0l0 -14.171875l1.71875 0l0 14.171875zm8.525818 -5.203125q0 2.734375 -0.90625 4.921875q-0.890625 2.1875 -2.5 4.03125l-2.078125 0l0 -0.09375q0.703125 -0.625 1.40625 -1.53125q0.703125 -0.90625 1.234375 -2.03125q0.578125 -1.15625 0.90625 -2.453125q0.328125 -1.296875 0.328125 -2.84375q0 -1.5 -0.34375 -2.84375q-0.328125 -1.359375 -0.890625 -2.46875q-0.5625 -1.15625 -1.234375 -2.03125q-0.671875 -0.875 -1.40625 -1.53125l0 -0.09375l2.078125 0q1.609375 1.84375 2.5 4.03125q0.90625 2.1875 0.90625 4.9375z" fill-rule="nonzero"/><path fill="#efefef" d="m559.4724 173.43307l6.929138 0l0 -62.645676l13.858276 0l0 62.645676l6.929138 0l-13.858276 13.858261z" fill-rule="evenodd"/><path stroke="#000000" stroke-width="1.0" stroke-linejoin="round" stroke-linecap="butt" d="m559.4724 173.43307l6.929138 0l0 -62.645676l13.858276 0l0 62.645676l6.929138 0l-13.858276 13.858261z" fill-rule="evenodd"/></g></svg>