<svg version="1.1" viewBox="0.0 0.0 946.0 390.0" fill="none" stroke="none" stroke-linecap="square" stroke-miterlimit="10" xmlns:xlink="http://www.w3.org/1999/xlink" xmlns="http://www.w3.org/2000/svg"><clipPath id="p.0"><path d="m0 0l946.0 0l0 390.0l-946.0 0l0 -390.0z" clip-rule="nonzero"/></clipPath><g clip-path="url(#p.0)"><path fill="#000000" fill-opacity="0.0" d="m0 0l946.0 0l0 390.0l-946.0 0z" fill-rule="evenodd"/><path fill="#efefef" d="m5.9947505 5.8687663l225.00787 0l0 231.62206l-225.00787 0z" fill-rule="evenodd"/><path stroke="#000000" stroke-width="1.0" stroke-linejoin="round" stroke-linecap="butt" d="m5.9947505 5.8687663l225.00787 0l0 231.62206l-225.00787 0z" fill-rule="evenodd"/><path fill="#000000" d="m65.80406 32.788765l-1.921875 0l-1.328125 -3.78125l-5.875 0l-1.328125 3.78125l-1.828125 0l4.9375 -13.5625l2.40625 0l4.9375 13.5625zm-3.8125 -5.328125l-2.375 -6.65625l-2.390625 6.65625l4.765625 0zm13.253296 4.6875q-0.84375 0.40625 -1.625 0.640625q-0.765625 0.234375 -1.625 0.234375q-1.109375 0 -2.03125 -0.328125q-0.921875 -0.328125 -1.578125 -0.984375q-0.65625 -0.65625 -1.03125 -1.65625q-0.359375 -1.0 -0.359375 -2.34375q0 -2.484375 1.375 -3.90625q1.375 -1.421875 3.625 -1.421875q0.875 0 1.71875 0.25q0.84375 0.234375 1.53125 0.59375l0 1.90625l-0.078125 0q-0.796875 -0.609375 -1.625 -0.9375q-0.828125 -0.328125 -1.625 -0.328125q-1.453125 0 -2.296875 0.984375q-0.84375 0.96875 -0.84375 2.859375q0 1.84375 0.8125 2.84375q0.828125 0.984375 2.328125 0.984375q0.515625 0 1.046875 -0.140625q0.546875 -0.140625 0.96875 -0.359375q0.375 -0.1875 0.703125 -0.40625q0.328125 -0.21875 0.53125 -0.359375l0.078125 0l0 1.875zm9.719833 0q-0.84375 0.40625 -1.625 0.640625q-0.765625 0.234375 -1.625 0.234375q-1.109375 0 -2.03125 -0.328125q-0.921875 -0.328125 -1.578125 -0.984375q-0.65625 -0.65625 -1.03125 -1.65625q-0.359375 -1.0 -0.359375 -2.34375q0 -2.484375 1.375 -3.90625q1.375 -1.421875 3.625 -1.421875q0.875 0 1.71875 0.25q0.84375 0.234375 1.53125 0.59375l0 1.90625l-0.078125 0q-0.796875 -0.609375 -1.625 -0.9375q-0.828125 -0.328125 -1.625 -0.328125q-1.453125 0 -2.296875 0.984375q-0.84375 0.96875 -0.84375 2.859375q0 1.84375 0.8125 2.84375q0.828125 0.984375 2.328125 0.984375q0.515625 0 1.046875 -0.140625q0.546875 -0.140625 0.96875 -0.359375q0.375 -0.1875 0.703125 -0.40625q0.328125 -0.21875 0.53125 -0.359375l0.078125 0l0 1.875zm10.719833 -4.265625l-7.5 0q0 0.9375 0.28125 1.640625q0.28125 0.6875 0.78125 1.140625q0.46875 0.4375 1.109375 0.65625q0.65625 0.21875 1.453125 0.21875q1.03125 0 2.078125 -0.421875q1.0625 -0.421875 1.5 -0.8125l0.09375 0l0 1.859375q-0.859375 0.375 -1.765625 0.625q-0.90625 0.234375 -1.890625 0.234375q-2.53125 0 -3.953125 -1.359375q-1.421875 -1.375 -1.421875 -3.90625q0 -2.5 1.359375 -3.953125q1.359375 -1.46875 3.578125 -1.46875q2.0625 0 3.171875 1.203125q1.125 1.203125 1.125 3.40625l0 0.9375zm-1.671875 -1.3125q0 -1.34375 -0.671875 -2.078125q-0.671875 -0.75 -2.03125 -0.75q-1.375 0 -2.203125 0.8125q-0.8125 0.8125 -0.921875 2.015625l5.828125 0zm11.535461 3.28125q0 1.390625 -1.15625 2.296875q-1.140625 0.890625 -3.140625 0.890625q-1.125 0 -2.078125 -0.265625q-0.9375 -0.28125 -1.578125 -0.59375l0 -1.921875l0.09375 0q0.8125 0.609375 1.796875 0.96875q1.0 0.359375 1.90625 0.359375q1.140625 0 1.765625 -0.359375q0.640625 -0.375 0.640625 -1.15625q0 -0.59375 -0.34375 -0.90625q-0.34375 -0.3125 -1.328125 -0.53125q-0.359375 -0.078125 -0.953125 -0.1875q-0.59375 -0.109375 -1.078125 -0.234375q-1.328125 -0.359375 -1.890625 -1.046875q-0.5625 -0.6875 -0.5625 -1.6875q0 -0.625 0.25 -1.1875q0.265625 -0.5625 0.796875 -0.984375q0.515625 -0.4375 1.296875 -0.6875q0.796875 -0.25 1.765625 -0.25q0.90625 0 1.84375 0.234375q0.9375 0.21875 1.546875 0.53125l0 1.828125l-0.078125 0q-0.65625 -0.484375 -1.59375 -0.8125q-0.9375 -0.328125 -1.84375 -0.328125q-0.9375 0 -1.59375 0.359375q-0.640625 0.359375 -0.640625 1.0625q0 0.625 0.390625 0.953125q0.390625 0.3125 1.234375 0.515625q0.484375 0.109375 1.0625 0.21875q0.59375 0.109375 0.984375 0.203125q1.1875 0.265625 1.84375 0.9375q0.640625 0.671875 0.640625 1.78125zm9.719833 0q0 1.390625 -1.15625 2.296875q-1.140625 0.890625 -3.140625 0.890625q-1.125 0 -2.078125 -0.265625q-0.9375 -0.28125 -1.578125 -0.59375l0 -1.921875l0.09375 0q0.8125 0.609375 1.796875 0.96875q1.0 0.359375 1.90625 0.359375q1.140625 0 1.765625 -0.359375q0.640625 -0.375 0.640625 -1.15625q0 -0.59375 -0.34375 -0.90625q-0.34375 -0.3125 -1.328125 -0.53125q-0.359375 -0.078125 -0.953125 -0.1875q-0.59375 -0.109375 -1.078125 -0.234375q-1.328125 -0.359375 -1.890625 -1.046875q-0.5625 -0.6875 -0.5625 -1.6875q0 -0.625 0.25 -1.1875q0.265625 -0.5625 0.796875 -0.984375q0.515625 -0.4375 1.296875 -0.6875q0.796875 -0.25 1.765625 -0.25q0.90625 0 1.84375 0.234375q0.9375 0.21875 1.546875 0.53125l0 1.828125l-0.078125 0q-0.65625 -0.484375 -1.59375 -0.8125q-0.9375 -0.328125 -1.84375 -0.328125q-0.9375 0 -1.59375 0.359375q-0.640625 0.359375 -0.640625 1.0625q0 0.625 0.390625 0.953125q0.390625 0.3125 1.234375 0.515625q0.484375 0.109375 1.0625 0.21875q0.59375 0.109375 0.984375 0.203125q1.1875 0.265625 1.84375 0.9375q0.640625 0.671875 0.640625 1.78125zm17.731796 2.9375l-8.578125 0l0 -13.5625l1.796875 0l0 11.953125l6.78125 0l0 1.609375zm9.572327 0l-1.703125 0l0 -1.078125q-0.234375 0.15625 -0.625 0.4375q-0.375 0.265625 -0.75 0.4375q-0.421875 0.203125 -0.984375 0.34375q-0.546875 0.140625 -1.296875 0.140625q-1.375 0 -2.328125 -0.90625q-0.953125 -0.921875 -0.953125 -2.328125q0 -1.15625 0.484375 -1.859375q0.5 -0.71875 1.421875 -1.140625q0.9375 -0.40625 2.234375 -0.546875q1.296875 -0.15625 2.796875 -0.21875l0 -0.265625q0 -0.578125 -0.203125 -0.953125q-0.203125 -0.390625 -0.59375 -0.609375q-0.359375 -0.21875 -0.875 -0.28125q-0.5 -0.078125 -1.0625 -0.078125q-0.671875 0 -1.5 0.1875q-0.828125 0.171875 -1.71875 0.5l-0.09375 0l0 -1.734375q0.5 -0.140625 1.453125 -0.296875q0.953125 -0.171875 1.875 -0.171875q1.0625 0 1.859375 0.1875q0.796875 0.171875 1.390625 0.59375q0.5625 0.421875 0.859375 1.09375q0.3125 0.65625 0.3125 1.640625l0 6.90625zm-1.703125 -2.5l0 -2.84375q-0.78125 0.046875 -1.84375 0.140625q-1.0625 0.09375 -1.6875 0.265625q-0.734375 0.203125 -1.1875 0.65625q-0.453125 0.4375 -0.453125 1.21875q0 0.859375 0.515625 1.3125q0.53125 0.4375 1.625 0.4375q0.890625 0 1.640625 -0.34375q0.75 -0.359375 1.390625 -0.84375zm13.652603 -7.671875l-5.9375 13.921875l-1.828125 0l1.890625 -4.234375l-4.046875 -9.6875l1.84375 0l3.125 7.546875l3.15625 -7.546875l1.796875 0zm10.595398 5.265625l-7.5 0q0 0.9375 0.28125 1.640625q0.28125 0.6875 0.78125 1.140625q0.46875 0.4375 1.109375 0.65625q0.65625 0.21875 1.453125 0.21875q1.03125 0 2.078125 -0.421875q1.0625 -0.421875 1.5 -0.8125l0.09375 0l0 1.859375q-0.859375 0.375 -1.765625 0.625q-0.90625 0.234375 -1.890625 0.234375q-2.53125 0 -3.953125 -1.359375q-1.421875 -1.375 -1.421875 -3.90625q0 -2.5 1.359375 -3.953125q1.359375 -1.46875 3.578125 -1.46875q2.0625 0 3.171875 1.203125q1.125 1.203125 1.125 3.40625l0 0.9375zm-1.671875 -1.3125q0 -1.34375 -0.671875 -2.078125q-0.671875 -0.75 -2.03125 -0.75q-1.375 0 -2.203125 0.8125q-0.8125 0.8125 -0.921875 2.015625l5.828125 0zm10.613586 -2.09375l-0.09375 0q-0.375 -0.09375 -0.734375 -0.125q-0.359375 -0.046875 -0.859375 -0.046875q-0.78125 0 -1.53125 0.359375q-0.734375 0.34375 -1.421875 0.90625l0 7.21875l-1.703125 0l0 -10.171875l1.703125 0l0 1.5q1.03125 -0.8125 1.796875 -1.15625q0.78125 -0.34375 1.59375 -0.34375q0.453125 0 0.65625 0.03125q0.203125 0.015625 0.59375 0.078125l0 1.75zm8.883575 5.375q0 1.390625 -1.15625 2.296875q-1.140625 0.890625 -3.140625 0.890625q-1.125 0 -2.078125 -0.265625q-0.9375 -0.28125 -1.578125 -0.59375l0 -1.921875l0.09375 0q0.8125 0.609375 1.796875 0.96875q1.0 0.359375 1.90625 0.359375q1.140625 0 1.765625 -0.359375q0.640625 -0.375 0.640625 -1.15625q0 -0.59375 -0.34375 -0.90625q-0.34375 -0.3125 -1.328125 -0.53125q-0.359375 -0.078125 -0.953125 -0.1875q-0.59375 -0.109375 -1.078125 -0.234375q-1.328125 -0.359375 -1.890625 -1.046875q-0.5625 -0.6875 -0.5625 -1.6875q0 -0.625 0.25 -1.1875q0.265625 -0.5625 0.796875 -0.984375q0.515625 -0.4375 1.296875 -0.6875q0.796875 -0.25 1.765625 -0.25q0.90625 0 1.84375 0.234375q0.9375 0.21875 1.546875 0.53125l0 1.828125l-0.078125 0q-0.65625 -0.484375 -1.59375 -0.8125q-0.9375 -0.328125 -1.84375 -0.328125q-0.9375 0 -1.59375 0.359375q-0.640625 0.359375 -0.640625 1.0625q0 0.625 0.390625 0.953125q0.390625 0.3125 1.234375 0.515625q0.484375 0.109375 1.0625 0.21875q0.59375 0.109375 0.984375 0.203125q1.1875 0.265625 1.84375 0.9375q0.640625 0.671875 0.640625 1.78125z" fill-rule="nonzero"/><path fill="#cfe2f3" d="m17.994751 58.868767l96.0 0l0 80.62992l-96.0 0z" fill-rule="evenodd"/><path stroke="#000000" stroke-width="1.0" stroke-linejoin="round" stroke-linecap="butt" d="m17.994751 58.868767l96.0 0l0 80.62992l-96.0 0z" fill-rule="evenodd"/><path fill="#000000" d="m44.39364 96.63497q0 0.90625 -0.3125 1.6875q-0.3125 0.765625 -0.875 1.328125q-0.703125 0.703125 -1.65625 1.046875q-0.953125 0.34375 -2.421875 0.34375l-1.796875 0l0 5.0625l-1.796875 0l0 -13.5625l3.671875 0q1.21875 0 2.0625 0.203125q0.859375 0.203125 1.515625 0.640625q0.765625 0.515625 1.1875 1.296875q0.421875 0.765625 0.421875 1.953125zm-1.875 0.046875q0 -0.703125 -0.25 -1.21875q-0.234375 -0.515625 -0.734375 -0.84375q-0.4375 -0.28125 -1.0 -0.40625q-0.5625 -0.125 -1.421875 -0.125l-1.78125 0l0 5.421875l1.515625 0q1.09375 0 1.78125 -0.1875q0.6875 -0.203125 1.109375 -0.640625q0.4375 -0.4375 0.609375 -0.90625q0.171875 -0.484375 0.171875 -1.09375zm12.922104 -0.75l-5.9375 13.921875l-1.828125 0l1.890625 -4.234375l-4.046875 -9.6875l1.84375 0l3.125 7.546875l3.15625 -7.546875l1.796875 0zm7.5250854 10.078125q-0.484375 0.125 -1.0625 0.203125q-0.5625 0.09375 -1.0 0.09375q-1.5625 0 -2.375 -0.828125q-0.8125 -0.84375 -0.8125 -2.703125l0 -5.40625l-1.15625 0l0 -1.4375l1.15625 0l0 -2.921875l1.71875 0l0 2.921875l3.53125 0l0 1.4375l-3.53125 0l0 4.640625q0 0.796875 0.03125 1.25q0.03125 0.453125 0.25 0.84375q0.203125 0.359375 0.546875 0.53125q0.359375 0.171875 1.078125 0.171875q0.421875 0 0.875 -0.125q0.453125 -0.125 0.65625 -0.203125l0.09375 0l0 1.53125zm10.570114 0.09375l-1.703125 0l0 -5.796875q0 -0.703125 -0.09375 -1.3125q-0.078125 -0.609375 -0.296875 -0.96875q-0.21875 -0.375 -0.65625 -0.5625q-0.421875 -0.1875 -1.109375 -0.1875q-0.703125 0 -1.46875 0.34375q-0.765625 0.34375 -1.46875 0.890625l0 7.59375l-1.703125 0l0 -14.171875l1.703125 0l0 5.125q0.8125 -0.65625 1.65625 -1.03125q0.859375 -0.375 1.765625 -0.375q1.65625 0 2.515625 1.0q0.859375 0.984375 0.859375 2.84375l0 6.609375zm11.977783 -5.078125q0 2.484375 -1.28125 3.921875q-1.265625 1.4375 -3.40625 1.4375q-2.171875 0 -3.4375 -1.4375q-1.265625 -1.4375 -1.265625 -3.921875q0 -2.484375 1.265625 -3.921875q1.265625 -1.453125 3.4375 -1.453125q2.140625 0 3.40625 1.453125q1.28125 1.4375 1.28125 3.921875zm-1.765625 0q0 -1.984375 -0.78125 -2.9375q-0.765625 -0.96875 -2.140625 -0.96875q-1.40625 0 -2.171875 0.96875q-0.765625 0.953125 -0.765625 2.9375q0 1.90625 0.765625 2.90625q0.78125 0.984375 2.171875 0.984375q1.359375 0 2.140625 -0.984375q0.78125 -0.984375 0.78125 -2.90625zm12.916855 5.078125l-1.703125 0l0 -5.796875q0 -0.703125 -0.09375 -1.3125q-0.078125 -0.609375 -0.296875 -0.96875q-0.21875 -0.375 -0.65625 -0.5625q-0.421875 -0.1875 -1.109375 -0.1875q-0.703125 0 -1.46875 0.34375q-0.765625 0.34375 -1.46875 0.890625l0 7.59375l-1.703125 0l0 -10.171875l1.703125 0l0 1.125q0.8125 -0.65625 1.65625 -1.03125q0.859375 -0.375 1.765625 -0.375q1.65625 0 2.515625 1.0q0.859375 0.984375 0.859375 2.84375l0 6.609375z" fill-rule="nonzero"/><path fill="#cfe2f3" d="m121.99475 58.868767l96.0 0l0 80.62992l-96.0 0z" fill-rule="evenodd"/><path stroke="#000000" stroke-width="1.0" stroke-linejoin="round" stroke-linecap="butt" d="m121.99475 58.868767l96.0 0l0 80.62992l-96.0 0z" fill-rule="evenodd"/><path fill="#000000" d="m146.70589 94.1506l-6.859375 0l0 3.8125l5.890625 0l0 1.609375l-5.890625 0l0 6.53125l-1.796875 0l0 -13.5625l8.65625 0l0 1.609375zm10.141144 6.875q0 2.484375 -1.28125 3.921875q-1.265625 1.4375 -3.40625 1.4375q-2.171875 0 -3.4375 -1.4375q-1.265625 -1.4375 -1.265625 -3.921875q0 -2.484375 1.265625 -3.921875q1.265625 -1.453125 3.4375 -1.453125q2.140625 0 3.40625 1.453125q1.28125 1.4375 1.28125 3.921875zm-1.765625 0q0 -1.984375 -0.78125 -2.9375q-0.765625 -0.96875 -2.140625 -0.96875q-1.40625 0 -2.171875 0.96875q-0.765625 0.953125 -0.765625 2.9375q0 1.90625 0.765625 2.90625q0.78125 0.984375 2.171875 0.984375q1.359375 0 2.140625 -0.984375q0.78125 -0.984375 0.78125 -2.90625zm10.760605 -3.234375l-0.09375 0q-0.375 -0.09375 -0.734375 -0.125q-0.359375 -0.046875 -0.859375 -0.046875q-0.78125 0 -1.53125 0.359375q-0.734375 0.34375 -1.421875 0.90625l0 7.21875l-1.703125 0l0 -10.171875l1.703125 0l0 1.5q1.03125 -0.8125 1.796875 -1.15625q0.78125 -0.34375 1.59375 -0.34375q0.453125 0 0.65625 0.03125q0.203125 0.015625 0.59375 0.078125l0 1.75zm6.8992004 8.21875q-0.484375 0.125 -1.0625 0.203125q-0.5625 0.09375 -1.0 0.09375q-1.5625 0 -2.375 -0.828125q-0.8125 -0.84375 -0.8125 -2.703125l0 -5.40625l-1.15625 0l0 -1.4375l1.15625 0l0 -2.921875l1.71875 0l0 2.921875l3.53125 0l0 1.4375l-3.53125 0l0 4.640625q0 0.796875 0.03125 1.25q0.03125 0.453125 0.25 0.84375q0.203125 0.359375 0.546875 0.53125q0.359375 0.171875 1.078125 0.171875q0.421875 0 0.875 -0.125q0.453125 -0.125 0.65625 -0.203125l0.09375 0l0 1.53125zm8.413864 -8.21875l-0.09375 0q-0.375 -0.09375 -0.734375 -0.125q-0.359375 -0.046875 -0.859375 -0.046875q-0.78125 0 -1.53125 0.359375q-0.734375 0.34375 -1.421875 0.90625l0 7.21875l-1.703125 0l0 -10.171875l1.703125 0l0 1.5q1.03125 -0.8125 1.796875 -1.15625q0.78125 -0.34375 1.59375 -0.34375q0.453125 0 0.65625 0.03125q0.203125 0.015625 0.59375 0.078125l0 1.75zm9.196075 8.3125l-1.703125 0l0 -1.078125q-0.234375 0.15625 -0.625 0.4375q-0.375 0.265625 -0.75 0.4375q-0.421875 0.203125 -0.984375 0.34375q-0.546875 0.140625 -1.296875 0.140625q-1.375 0 -2.328125 -0.90625q-0.953125 -0.921875 -0.953125 -2.328125q0 -1.15625 0.484375 -1.859375q0.5 -0.71875 1.421875 -1.140625q0.9375 -0.40625 2.234375 -0.546875q1.296875 -0.15625 2.796875 -0.21875l0 -0.265625q0 -0.578125 -0.203125 -0.953125q-0.203125 -0.390625 -0.59375 -0.609375q-0.359375 -0.21875 -0.875 -0.28125q-0.5 -0.078125 -1.0625 -0.078125q-0.671875 0 -1.5 0.1875q-0.828125 0.171875 -1.71875 0.5l-0.09375 0l0 -1.734375q0.5 -0.140625 1.453125 -0.296875q0.953125 -0.171875 1.875 -0.171875q1.0625 0 1.859375 0.1875q0.796875 0.171875 1.390625 0.59375q0.5625 0.421875 0.859375 1.09375q0.3125 0.65625 0.3125 1.640625l0 6.90625zm-1.703125 -2.5l0 -2.84375q-0.78125 0.046875 -1.84375 0.140625q-1.0625 0.09375 -1.6875 0.265625q-0.734375 0.203125 -1.1875 0.65625q-0.453125 0.4375 -0.453125 1.21875q0 0.859375 0.515625 1.3125q0.53125 0.4375 1.625 0.4375q0.890625 0 1.640625 -0.34375q0.75 -0.359375 1.390625 -0.84375zm13.501556 2.5l-1.703125 0l0 -5.796875q0 -0.703125 -0.09375 -1.3125q-0.078125 -0.609375 -0.296875 -0.96875q-0.21875 -0.375 -0.65625 -0.5625q-0.421875 -0.1875 -1.109375 -0.1875q-0.703125 0 -1.46875 0.34375q-0.765625 0.34375 -1.46875 0.890625l0 7.59375l-1.703125 0l0 -10.171875l1.703125 0l0 1.125q0.8125 -0.65625 1.65625 -1.03125q0.859375 -0.375 1.765625 -0.375q1.65625 0 2.515625 1.0q0.859375 0.984375 0.859375 2.84375l0 6.609375z" fill-rule="nonzero"/><path fill="#cfe2f3" d="m17.994751 146.49869l96.0 0l0 80.62993l-96.0 0z" fill-rule="evenodd"/><path stroke="#000000" stroke-width="1.0" stroke-linejoin="round" stroke-linecap="butt" d="m17.994751 146.49869l96.0 0l0 80.62993l-96.0 0z" fill-rule="evenodd"/><path fill="#000000" d="m56.51082 192.74927q-0.5 0.21875 -0.90625 0.421875q-0.40625 0.1875 -1.0625 0.390625q-0.546875 0.171875 -1.203125 0.296875q-0.65625 0.125 -1.4375 0.125q-1.46875 0 -2.6875 -0.40625q-1.203125 -0.421875 -2.09375 -1.3125q-0.875 -0.859375 -1.375 -2.1875q-0.484375 -1.34375 -0.484375 -3.109375q0 -1.671875 0.46875 -3.0q0.484375 -1.328125 1.375 -2.234375q0.859375 -0.875 2.078125 -1.34375q1.234375 -0.46875 2.734375 -0.46875q1.09375 0 2.171875 0.265625q1.09375 0.265625 2.421875 0.9375l0 2.140625l-0.140625 0q-1.109375 -0.953125 -2.21875 -1.375q-1.09375 -0.421875 -2.359375 -0.421875q-1.03125 0 -1.859375 0.328125q-0.8125 0.328125 -1.46875 1.03125q-0.625 0.6875 -0.984375 1.734375q-0.34375 1.03125 -0.34375 2.40625q0 1.421875 0.390625 2.453125q0.390625 1.03125 1.0 1.6875q0.640625 0.671875 1.484375 1.0q0.859375 0.3125 1.796875 0.3125q1.3125 0 2.4375 -0.4375q1.140625 -0.453125 2.140625 -1.34375l0.125 0l0 2.109375zm14.089081 -4.21875l-4.96875 0l0 4.953125l-1.515625 0l0 -4.953125l-4.96875 0l0 -1.46875l4.96875 0l0 -4.96875l1.515625 0l0 4.96875l4.96875 0l0 1.46875zm15.267517 0l-4.96875 0l0 4.953125l-1.515625 0l0 -4.953125l-4.96875 0l0 -1.46875l4.96875 0l0 -4.96875l1.515625 0l0 4.96875l4.96875 0l0 1.46875z" fill-rule="nonzero"/><path fill="#cfe2f3" d="m121.99475 146.49869l96.0 0l0 80.62993l-96.0 0z" fill-rule="evenodd"/><path stroke="#000000" stroke-width="1.0" stroke-linejoin="round" stroke-linecap="butt" d="m121.99475 146.49869l96.0 0l0 80.62993l-96.0 0z" fill-rule="evenodd"/><path fill="#000000" d="m176.00162 193.73364l-1.859375 0l0 -2.03125l1.859375 0l0 2.03125zm-5.078125 0l-1.859375 0l0 -2.03125l1.859375 0l0 2.03125zm-5.078125 0l-1.859375 0l0 -2.03125l1.859375 0l0 2.03125z" fill-rule="nonzero"/><path fill="#efefef" d="m290.0 28.36483l650.01575 0l0 353.6378l-650.01575 0z" fill-rule="evenodd"/><path stroke="#000000" stroke-width="1.0" stroke-linejoin="round" stroke-linecap="butt" d="m290.0 28.36483l650.01575 0l0 353.6378l-650.01575 0z" fill-rule="evenodd"/><path fill="#000000" d="m579.3429 55.28483l-8.578125 0l0 -13.5625l1.796875 0l0 11.953125l6.78125 0l0 1.609375zm10.337952 -5.078125q0 2.484375 -1.28125 3.921875q-1.265625 1.4375 -3.40625 1.4375q-2.171875 0 -3.4375 -1.4375q-1.265625 -1.4375 -1.265625 -3.921875q0 -2.484375 1.265625 -3.921875q1.265625 -1.453125 3.4375 -1.453125q2.140625 0 3.40625 1.453125q1.28125 1.4375 1.28125 3.921875zm-1.765625 0q0 -1.984375 -0.78125 -2.9375q-0.765625 -0.96875 -2.140625 -0.96875q-1.40625 0 -2.171875 0.96875q-0.765625 0.953125 -0.765625 2.9375q0 1.90625 0.765625 2.90625q0.78125 0.984375 2.171875 0.984375q1.359375 0 2.140625 -0.984375q0.78125 -0.984375 0.78125 -2.90625zm17.213745 -5.09375l-2.65625 10.171875l-1.578125 0l-2.609375 -7.84375l-2.609375 7.84375l-1.5625 0l-2.6875 -10.171875l1.78125 0l1.875 7.875l2.546875 -7.875l1.40625 0l2.609375 7.875l1.765625 -7.875l1.71875 0zm17.74823 10.171875l-8.578125 0l0 -13.5625l1.796875 0l0 11.953125l6.78125 0l0 1.609375zm10.181702 -4.90625l-7.5 0q0 0.9375 0.28125 1.640625q0.28125 0.6875 0.78125 1.140625q0.46875 0.4375 1.109375 0.65625q0.65625 0.21875 1.453125 0.21875q1.03125 0 2.078125 -0.421875q1.0625 -0.421875 1.5 -0.8125l0.09375 0l0 1.859375q-0.859375 0.375 -1.765625 0.625q-0.90625 0.234375 -1.890625 0.234375q-2.53125 0 -3.953125 -1.359375q-1.421875 -1.375 -1.421875 -3.90625q0 -2.5 1.359375 -3.953125q1.359375 -1.46875 3.578125 -1.46875q2.0625 0 3.171875 1.203125q1.125 1.203125 1.125 3.40625l0 0.9375zm-1.671875 -1.3125q0 -1.34375 -0.671875 -2.078125q-0.671875 -0.75 -2.03125 -0.75q-1.375 0 -2.203125 0.8125q-0.8125 0.8125 -0.921875 2.015625l5.828125 0zm13.066711 -3.953125l-4.109375 10.171875l-1.734375 0l-4.078125 -10.171875l1.84375 0l3.15625 8.09375l3.125 -8.09375l1.796875 0zm10.595398 5.265625l-7.5 0q0 0.9375 0.28125 1.640625q0.28125 0.6875 0.78125 1.140625q0.46875 0.4375 1.109375 0.65625q0.65625 0.21875 1.453125 0.21875q1.03125 0 2.078125 -0.421875q1.0625 -0.421875 1.5 -0.8125l0.09375 0l0 1.859375q-0.859375 0.375 -1.765625 0.625q-0.90625 0.234375 -1.890625 0.234375q-2.53125 0 -3.953125 -1.359375q-1.421875 -1.375 -1.421875 -3.90625q0 -2.5 1.359375 -3.953125q1.359375 -1.46875 3.578125 -1.46875q2.0625 0 3.171875 1.203125q1.125 1.203125 1.125 3.40625l0 0.9375zm-1.671875 -1.3125q0 -1.34375 -0.671875 -2.078125q-0.671875 -0.75 -2.03125 -0.75q-1.375 0 -2.203125 0.8125q-0.8125 0.8125 -0.921875 2.015625l5.828125 0zm6.0042114 6.21875l-1.71875 0l0 -14.171875l1.71875 0l0 14.171875z" fill-rule="nonzero"/><path fill="#cfe2f3" d="m309.9908 80.36352l202.01578 0l0 80.62992l-202.01578 0z" fill-rule="evenodd"/><path stroke="#000000" stroke-width="1.0" stroke-linejoin="round" stroke-linecap="butt" d="m309.9908 80.36352l202.01578 0l0 80.62992l-202.01578 0z" fill-rule="evenodd"/><path fill="#000000" d="m368.9735 127.59847l-1.703125 0l0 -1.078125q-0.234375 0.15625 -0.625 0.4375q-0.375 0.265625 -0.75 0.4375q-0.421875 0.203125 -0.984375 0.34375q-0.546875 0.140625 -1.296875 0.140625q-1.375 0 -2.328125 -0.90625q-0.953125 -0.921875 -0.953125 -2.328125q0 -1.15625 0.484375 -1.859375q0.5 -0.71875 1.421875 -1.140625q0.9375 -0.40625 2.234375 -0.546875q1.296875 -0.15625 2.796875 -0.21875l0 -0.265625q0 -0.578125 -0.203125 -0.953125q-0.203125 -0.390625 -0.59375 -0.609375q-0.359375 -0.21875 -0.875 -0.28125q-0.5 -0.078125 -1.0625 -0.078125q-0.671875 0 -1.5 0.1875q-0.828125 0.171875 -1.71875 0.5l-0.09375 0l0 -1.734375q0.5 -0.140625 1.453125 -0.296875q0.953125 -0.171875 1.875 -0.171875q1.0625 0 1.859375 0.1875q0.796875 0.171875 1.390625 0.59375q0.5625 0.421875 0.859375 1.09375q0.3125 0.65625 0.3125 1.640625l0 6.90625zm-1.703125 -2.5l0 -2.84375q-0.78125 0.046875 -1.84375 0.140625q-1.0625 0.09375 -1.6875 0.265625q-0.734375 0.203125 -1.1875 0.65625q-0.453125 0.4375 -0.453125 1.21875q0 0.859375 0.515625 1.3125q0.53125 0.4375 1.625 0.4375q0.890625 0 1.640625 -0.34375q0.75 -0.359375 1.390625 -0.84375zm6.7359314 2.5l-1.71875 0l0 -14.171875l1.71875 0l0 14.171875zm13.588287 2.7343826l-11.921875 0l0 -1.09375l11.921875 0l0 1.09375zm3.3918152 -2.7343826l-1.71875 0l0 -14.171875l1.71875 0l0 14.171875zm12.057037 -5.078125q0 2.484375 -1.28125 3.921875q-1.265625 1.4375 -3.40625 1.4375q-2.171875 0 -3.4375 -1.4375q-1.265625 -1.4375 -1.265625 -3.921875q0 -2.484375 1.265625 -3.921875q1.265625 -1.453125 3.4375 -1.453125q2.140625 0 3.40625 1.453125q1.28125 1.4375 1.28125 3.921875zm-1.765625 0q0 -1.984375 -0.78125 -2.9375q-0.765625 -0.96875 -2.140625 -0.96875q-1.40625 0 -2.171875 0.96875q-0.765625 0.953125 -0.765625 2.9375q0 1.90625 0.765625 2.90625q0.78125 0.984375 2.171875 0.984375q1.359375 0 2.140625 -0.984375q0.78125 -0.984375 0.78125 -2.90625zm17.213745 -5.09375l-2.65625 10.171875l-1.578125 0l-2.609375 -7.84375l-2.609375 7.84375l-1.5625 0l-2.6875 -10.171875l1.78125 0l1.875 7.875l2.546875 -7.875l1.40625 0l2.609375 7.875l1.765625 -7.875l1.71875 0zm4.205017 10.171875l-1.71875 0l0 -14.171875l1.71875 0l0 14.171875zm11.900787 -4.90625l-7.5 0q0 0.9375 0.28125 1.640625q0.28125 0.6875 0.78125 1.140625q0.46875 0.4375 1.109375 0.65625q0.65625 0.21875 1.453125 0.21875q1.03125 0 2.078125 -0.421875q1.0625 -0.421875 1.5 -0.8125l0.09375 0l0 1.859375q-0.859375 0.375 -1.765625 0.625q-0.90625 0.234375 -1.890625 0.234375q-2.53125 0 -3.953125 -1.359375q-1.421875 -1.375 -1.421875 -3.90625q0 -2.5 1.359375 -3.953125q1.359375 -1.46875 3.578125 -1.46875q2.0625 0 3.171875 1.203125q1.125 1.203125 1.125 3.40625l0 0.9375zm-1.671875 -1.3125q0 -1.34375 -0.671875 -2.078125q-0.671875 -0.75 -2.03125 -0.75q-1.375 0 -2.203125 0.8125q-0.8125 0.8125 -0.921875 2.015625l5.828125 0zm13.066711 -3.953125l-4.109375 10.171875l-1.734375 0l-4.078125 -10.171875l1.84375 0l3.15625 8.09375l3.125 -8.09375l1.796875 0zm10.595398 5.265625l-7.5 0q0 0.9375 0.28125 1.640625q0.28125 0.6875 0.78125 1.140625q0.46875 0.4375 1.109375 0.65625q0.65625 0.21875 1.453125 0.21875q1.03125 0 2.078125 -0.421875q1.0625 -0.421875 1.5 -0.8125l0.09375 0l0 1.859375q-0.859375 0.375 -1.765625 0.625q-0.90625 0.234375 -1.890625 0.234375q-2.53125 0 -3.953125 -1.359375q-1.421875 -1.375 -1.421875 -3.90625q0 -2.5 1.359375 -3.953125q1.359375 -1.46875 3.578125 -1.46875q2.0625 0 3.171875 1.203125q1.125 1.203125 1.125 3.40625l0 0.9375zm-1.671875 -1.3125q0 -1.34375 -0.671875 -2.078125q-0.671875 -0.75 -2.03125 -0.75q-1.375 0 -2.203125 0.8125q-0.8125 0.8125 -0.921875 2.015625l5.828125 0zm6.0042114 6.21875l-1.71875 0l0 -14.171875l1.71875 0l0 14.171875z" fill-rule="nonzero"/><path fill="#d9ead3" d="m309.9908 184.35826l202.01578 0l0 80.62993l-202.01578 0z" fill-rule="evenodd"/><path stroke="#000000" stroke-width="1.0" stroke-linejoin="round" stroke-linecap="butt" d="m309.9908 184.35826l202.01578 0l0 80.62993l-202.01578 0z" fill-rule="evenodd"/><path fill="#000000" d="m333.5357 227.42136q0 1.015625 -0.390625 1.796875q-0.375 0.765625 -1.015625 1.265625q-0.765625 0.59375 -1.6875 0.859375q-0.90625 0.25 -2.328125 0.25l-4.796875 0l0 -13.5625l4.015625 0q1.484375 0 2.21875 0.109375q0.734375 0.109375 1.40625 0.453125q0.75 0.390625 1.078125 1.015625q0.34375 0.609375 0.34375 1.46875q0 0.953125 -0.5 1.640625q-0.484375 0.671875 -1.296875 1.09375l0 0.0625q1.375 0.28125 2.15625 1.21875q0.796875 0.921875 0.796875 2.328125zm-3.03125 -6.109375q0 -0.5 -0.171875 -0.828125q-0.15625 -0.34375 -0.515625 -0.546875q-0.4375 -0.25 -1.046875 -0.3125q-0.609375 -0.0625 -1.5 -0.0625l-2.15625 0l0 3.921875l2.328125 0q0.859375 0 1.359375 -0.078125q0.5 -0.09375 0.921875 -0.359375q0.421875 -0.28125 0.59375 -0.703125q0.1875 -0.4375 0.1875 -1.03125zm1.15625 6.1875q0 -0.828125 -0.25 -1.3125q-0.234375 -0.484375 -0.890625 -0.8125q-0.4375 -0.234375 -1.0625 -0.296875q-0.625 -0.078125 -1.515625 -0.078125l-2.828125 0l0 5.046875l2.390625 0q1.1875 0 1.9375 -0.109375q0.75 -0.125 1.234375 -0.453125q0.515625 -0.359375 0.75 -0.8125q0.234375 -0.453125 0.234375 -1.171875zm12.211609 4.09375l-1.703125 0l0 -1.078125q-0.234375 0.15625 -0.625 0.4375q-0.375 0.265625 -0.75 0.4375q-0.421875 0.203125 -0.984375 0.34375q-0.546875 0.140625 -1.296875 0.140625q-1.375 0 -2.328125 -0.90625q-0.953125 -0.921875 -0.953125 -2.328125q0 -1.15625 0.484375 -1.859375q0.5 -0.71875 1.421875 -1.140625q0.9375 -0.40625 2.234375 -0.546875q1.296875 -0.15625 2.796875 -0.21875l0 -0.265625q0 -0.578125 -0.203125 -0.953125q-0.203125 -0.390625 -0.59375 -0.609375q-0.359375 -0.21875 -0.875 -0.28125q-0.5 -0.078125 -1.0625 -0.078125q-0.671875 0 -1.5 0.1875q-0.828125 0.171875 -1.71875 0.5l-0.09375 0l0 -1.734375q0.5 -0.140625 1.453125 -0.296875q0.953125 -0.171875 1.875 -0.171875q1.0625 0 1.859375 0.1875q0.796875 0.171875 1.390625 0.59375q0.5625 0.421875 0.859375 1.09375q0.3125 0.65625 0.3125 1.640625l0 6.90625zm-1.703125 -2.5l0 -2.84375q-0.78125 0.046875 -1.84375 0.140625q-1.0625 0.09375 -1.6875 0.265625q-0.734375 0.203125 -1.1875 0.65625q-0.453125 0.4375 -0.453125 1.21875q0 0.859375 0.515625 1.3125q0.53125 0.4375 1.625 0.4375q0.890625 0 1.640625 -0.34375q0.75 -0.359375 1.390625 -0.84375zm12.517181 1.859375q-0.84375 0.40625 -1.625 0.640625q-0.765625 0.234375 -1.625 0.234375q-1.109375 0 -2.03125 -0.328125q-0.921875 -0.328125 -1.578125 -0.984375q-0.65625 -0.65625 -1.03125 -1.65625q-0.359375 -1.0 -0.359375 -2.34375q0 -2.484375 1.375 -3.90625q1.375 -1.421875 3.625 -1.421875q0.875 0 1.71875 0.25q0.84375 0.234375 1.53125 0.59375l0 1.90625l-0.078125 0q-0.796875 -0.609375 -1.625 -0.9375q-0.828125 -0.328125 -1.625 -0.328125q-1.453125 0 -2.296875 0.984375q-0.84375 0.96875 -0.84375 2.859375q0 1.84375 0.8125 2.84375q0.828125 0.984375 2.328125 0.984375q0.515625 0 1.046875 -0.140625q0.546875 -0.140625 0.96875 -0.359375q0.375 -0.1875 0.703125 -0.40625q0.328125 -0.21875 0.53125 -0.359375l0.078125 0l0 1.875zm11.438568 0.640625l-2.265625 0l-4.078125 -4.453125l-1.109375 1.0625l0 3.390625l-1.703125 0l0 -14.171875l1.703125 0l0 9.09375l4.953125 -5.09375l2.15625 0l-4.734375 4.703125l5.078125 5.46875zm10.139679 -4.90625l-7.5 0q0 0.9375 0.28125 1.640625q0.28125 0.6875 0.78125 1.140625q0.46875 0.4375 1.109375 0.65625q0.65625 0.21875 1.453125 0.21875q1.03125 0 2.078125 -0.421875q1.0625 -0.421875 1.5 -0.8125l0.09375 0l0 1.859375q-0.859375 0.375 -1.765625 0.625q-0.90625 0.234375 -1.890625 0.234375q-2.53125 0 -3.953125 -1.359375q-1.421875 -1.375 -1.421875 -3.90625q0 -2.5 1.359375 -3.953125q1.359375 -1.46875 3.578125 -1.46875q2.0625 0 3.171875 1.203125q1.125 1.203125 1.125 3.40625l0 0.9375zm-1.671875 -1.3125q0 -1.34375 -0.671875 -2.078125q-0.671875 -0.75 -2.03125 -0.75q-1.375 0 -2.203125 0.8125q-0.8125 0.8125 -0.921875 2.015625l5.828125 0zm12.769836 6.21875l-1.703125 0l0 -5.796875q0 -0.703125 -0.09375 -1.3125q-0.078125 -0.609375 -0.296875 -0.96875q-0.21875 -0.375 -0.65625 -0.5625q-0.421875 -0.1875 -1.109375 -0.1875q-0.703125 0 -1.46875 0.34375q-0.765625 0.34375 -1.46875 0.890625l0 7.59375l-1.703125 0l0 -10.171875l1.703125 0l0 1.125q0.8125 -0.65625 1.65625 -1.03125q0.859375 -0.375 1.765625 -0.375q1.65625 0 2.515625 1.0q0.859375 0.984375 0.859375 2.84375l0 6.609375zm11.555908 0l-1.71875 0l0 -1.0625q-0.734375 0.640625 -1.53125 1.0q-0.796875 0.34375 -1.734375 0.34375q-1.828125 0 -2.90625 -1.390625q-1.0625 -1.40625 -1.0625 -3.90625q0 -1.28125 0.359375 -2.296875q0.375 -1.015625 1.0 -1.71875q0.625 -0.703125 1.453125 -1.0625q0.828125 -0.359375 1.703125 -0.359375q0.796875 0 1.421875 0.171875q0.625 0.15625 1.296875 0.515625l0 -4.40625l1.71875 0l0 14.171875zm-1.71875 -2.5l0 -5.84375q-0.6875 -0.3125 -1.234375 -0.421875q-0.546875 -0.125 -1.1875 -0.125q-1.4375 0 -2.25 1.0q-0.796875 1.0 -0.796875 2.84375q0 1.8125 0.609375 2.765625q0.625 0.9375 2.0 0.9375q0.71875 0 1.46875 -0.328125q0.75 -0.328125 1.390625 -0.828125z" fill-rule="nonzero"/><path fill="#000000" d="m410.2573 226.78073l2.359375 4.15625l-1.328125 0l-2.90625 -4.15625l2.90625 -4.15625l1.34375 0l-2.375 4.15625zm3.53125 0l2.40625 4.15625l-1.390625 0l-2.84375 -4.15625l2.84375 -4.15625l1.390625 0l-2.40625 4.15625zm5.485077 4.8125l0 -13.359375l1.765625 0l0 13.359375l-1.765625 0zm4.683319 0l0 -9.671875l1.46875 0l0 1.375q1.0625 -1.59375 3.078125 -1.59375q0.875 0 1.609375 0.3125q0.734375 0.3125 1.09375 0.828125q0.375 0.5 0.515625 1.203125q0.09375 0.453125 0.09375 1.59375l0 5.953125l-1.640625 0l0 -5.890625q0 -1.0 -0.203125 -1.484375q-0.1875 -0.5 -0.671875 -0.796875q-0.484375 -0.296875 -1.140625 -0.296875q-1.046875 0 -1.8125 0.671875q-0.75 0.65625 -0.75 2.515625l0 5.28125l-1.640625 0zm13.953827 -1.46875l0.234375 1.453125q-0.6875 0.140625 -1.234375 0.140625q-0.890625 0 -1.390625 -0.28125q-0.484375 -0.28125 -0.6875 -0.734375q-0.203125 -0.46875 -0.203125 -1.9375l0 -5.578125l-1.203125 0l0 -1.265625l1.203125 0l0 -2.390625l1.625 -0.984375l0 3.375l1.65625 0l0 1.265625l-1.65625 0l0 5.671875q0 0.6875 0.078125 0.890625q0.09375 0.203125 0.28125 0.328125q0.203125 0.109375 0.578125 0.109375q0.265625 0 0.71875 -0.0625zm8.230194 -1.640625l1.6875 0.203125q-0.40625 1.484375 -1.484375 2.3125q-1.078125 0.8125 -2.765625 0.8125q-2.125 0 -3.375 -1.296875q-1.234375 -1.3125 -1.234375 -3.671875q0 -2.453125 1.25 -3.796875q1.265625 -1.34375 3.265625 -1.34375q1.9375 0 3.15625 1.328125q1.234375 1.3125 1.234375 3.703125q0 0.15625 0 0.4375l-7.21875 0q0.09375 1.59375 0.90625 2.453125q0.8125 0.84375 2.015625 0.84375q0.90625 0 1.546875 -0.46875q0.640625 -0.484375 1.015625 -1.515625zm-5.390625 -2.65625l5.40625 0q-0.109375 -1.21875 -0.625 -1.828125q-0.78125 -0.953125 -2.03125 -0.953125q-1.125 0 -1.90625 0.765625q-0.765625 0.75 -0.84375 2.015625zm9.125702 5.765625l0 -9.671875l1.46875 0l0 1.46875q0.5625 -1.03125 1.03125 -1.359375q0.484375 -0.328125 1.0625 -0.328125q0.828125 0 1.6875 0.53125l-0.5625 1.515625q-0.609375 -0.359375 -1.203125 -0.359375q-0.546875 0 -0.96875 0.328125q-0.421875 0.328125 -0.609375 0.890625q-0.28125 0.875 -0.28125 1.921875l0 5.0625l-1.625 0zm6.618927 0l0 -8.40625l-1.453125 0l0 -1.265625l1.453125 0l0 -1.03125q0 -0.96875 0.171875 -1.453125q0.234375 -0.640625 0.828125 -1.03125q0.59375 -0.390625 1.671875 -0.390625q0.6875 0 1.53125 0.15625l-0.25 1.4375q-0.5 -0.09375 -0.953125 -0.09375q-0.75 0 -1.0625 0.328125q-0.3125 0.3125 -0.3125 1.1875l0 0.890625l1.890625 0l0 1.265625l-1.890625 0l0 8.40625l-1.625 0zm11.105194 -1.1875q-0.921875 0.765625 -1.765625 1.09375q-0.828125 0.3125 -1.796875 0.3125q-1.59375 0 -2.453125 -0.78125q-0.859375 -0.78125 -0.859375 -1.984375q0 -0.71875 0.328125 -1.296875q0.328125 -0.59375 0.84375 -0.9375q0.53125 -0.359375 1.1875 -0.546875q0.46875 -0.125 1.453125 -0.25q1.984375 -0.234375 2.921875 -0.5625q0.015625 -0.34375 0.015625 -0.421875q0 -1.0 -0.46875 -1.421875q-0.625 -0.546875 -1.875 -0.546875q-1.15625 0 -1.703125 0.40625q-0.546875 0.40625 -0.8125 1.421875l-1.609375 -0.21875q0.21875 -1.015625 0.71875 -1.640625q0.5 -0.640625 1.453125 -0.984375q0.953125 -0.34375 2.1875 -0.34375q1.25 0 2.015625 0.296875q0.78125 0.28125 1.140625 0.734375q0.375 0.4375 0.515625 1.109375q0.078125 0.421875 0.078125 1.515625l0 2.1875q0 2.28125 0.109375 2.890625q0.109375 0.59375 0.40625 1.15625l-1.703125 0q-0.265625 -0.515625 -0.328125 -1.1875zm-0.140625 -3.671875q-0.890625 0.375 -2.671875 0.625q-1.015625 0.140625 -1.4375 0.328125q-0.421875 0.1875 -0.65625 0.53125q-0.21875 0.34375 -0.21875 0.78125q0 0.65625 0.5 1.09375q0.5 0.4375 1.453125 0.4375q0.9375 0 1.671875 -0.40625q0.75 -0.421875 1.09375 -1.140625q0.265625 -0.5625 0.265625 -1.640625l0 -0.609375zm10.516327 1.3125l1.609375 0.21875q-0.265625 1.65625 -1.359375 2.609375q-1.078125 0.9375 -2.671875 0.9375q-1.984375 0 -3.1875 -1.296875q-1.203125 -1.296875 -1.203125 -3.71875q0 -1.578125 0.515625 -2.75q0.515625 -1.171875 1.578125 -1.75q1.0625 -0.59375 2.3125 -0.59375q1.578125 0 2.578125 0.796875q1.0 0.796875 1.28125 2.265625l-1.59375 0.234375q-0.234375 -0.96875 -0.8125 -1.453125q-0.578125 -0.5 -1.390625 -0.5q-1.234375 0 -2.015625 0.890625q-0.78125 0.890625 -0.78125 2.8125q0 1.953125 0.75 2.84375q0.75 0.875 1.953125 0.875q0.96875 0 1.609375 -0.59375q0.65625 -0.59375 0.828125 -1.828125zm9.640625 0.4375l1.6875 0.203125q-0.40625 1.484375 -1.484375 2.3125q-1.078125 0.8125 -2.765625 0.8125q-2.125 0 -3.375 -1.296875q-1.234375 -1.3125 -1.234375 -3.671875q0 -2.453125 1.25 -3.796875q1.265625 -1.34375 3.265625 -1.34375q1.9375 0 3.15625 1.328125q1.234375 1.3125 1.234375 3.703125q0 0.15625 0 0.4375l-7.21875 0q0.09375 1.59375 0.90625 2.453125q0.8125 0.84375 2.015625 0.84375q0.90625 0 1.546875 -0.46875q0.640625 -0.484375 1.015625 -1.515625zm-5.390625 -2.65625l5.40625 0q-0.109375 -1.21875 -0.625 -1.828125q-0.78125 -0.953125 -2.03125 -0.953125q-1.125 0 -1.90625 0.765625q-0.765625 0.75 -0.84375 2.015625zm15.110107 0.953125l-2.375 -4.15625l1.34375 0l2.90625 4.15625l-2.90625 4.15625l-1.328125 0l2.359375 -4.15625zm-3.515625 0l-2.40625 -4.15625l1.375 0l2.859375 4.15625l-2.859375 4.15625l-1.375 0l2.40625 -4.15625z" fill-rule="nonzero"/><path fill="#fff2cc" d="m309.9908 288.35565l202.01578 0l0 80.62991l-202.01578 0z" fill-rule="evenodd"/><path stroke="#000000" stroke-width="1.0" stroke-linejoin="round" stroke-linecap="butt" d="m309.9908 288.35565l202.01578 0l0 80.62991l-202.01578 0z" fill-rule="evenodd"/><path fill="#000000" d="m359.80096 330.13748q0 1.484375 -0.328125 2.578125q-0.3125 1.09375 -1.046875 1.828125q-0.703125 0.6875 -1.640625 1.015625q-0.9375 0.3125 -2.1875 0.3125q-1.28125 0 -2.234375 -0.328125q-0.9375 -0.34375 -1.59375 -1.0q-0.734375 -0.75 -1.0625 -1.796875q-0.3125 -1.0625 -0.3125 -2.609375l0 -8.109375l1.796875 0l0 8.203125q0 1.109375 0.140625 1.75q0.15625 0.625 0.515625 1.15625q0.40625 0.578125 1.09375 0.890625q0.6875 0.296875 1.65625 0.296875q0.96875 0 1.65625 -0.296875q0.6875 -0.296875 1.09375 -0.890625q0.34375 -0.53125 0.5 -1.1875q0.15625 -0.671875 0.15625 -1.671875l0 -8.25l1.796875 0l0 8.109375zm14.905151 -1.3125q0 1.84375 -0.8125 3.359375q-0.796875 1.5 -2.140625 2.328125q-0.921875 0.5625 -2.078125 0.828125q-1.140625 0.25 -3.0 0.25l-3.421875 0l0 -13.5625l3.375 0q2.0 0 3.15625 0.296875q1.171875 0.28125 1.984375 0.78125q1.390625 0.859375 2.15625 2.296875q0.78125 1.4375 0.78125 3.421875zm-1.890625 -0.03125q0 -1.59375 -0.5625 -2.6875q-0.546875 -1.09375 -1.640625 -1.71875q-0.8125 -0.453125 -1.71875 -0.625q-0.890625 -0.1875 -2.15625 -0.1875l-1.6875 0l0 10.46875l1.6875 0q1.3125 0 2.28125 -0.1875q0.96875 -0.203125 1.78125 -0.71875q1.015625 -0.640625 1.515625 -1.6875q0.5 -1.0625 0.5 -2.65625zm15.499786 6.796875l-1.921875 0l-1.328125 -3.78125l-5.875 0l-1.328125 3.78125l-1.828125 0l4.9375 -13.5625l2.40625 0l4.9375 13.5625zm-3.8125 -5.328125l-2.375 -6.65625l-2.390625 6.65625l4.765625 0zm22.655884 1.15625q0 1.015625 -0.390625 1.796875q-0.375 0.765625 -1.015625 1.265625q-0.765625 0.59375 -1.6875 0.859375q-0.90625 0.25 -2.328125 0.25l-4.796875 0l0 -13.5625l4.015625 0q1.484375 0 2.21875 0.109375q0.734375 0.109375 1.40625 0.453125q0.75 0.390625 1.078125 1.015625q0.34375 0.609375 0.34375 1.46875q0 0.953125 -0.5 1.640625q-0.484375 0.671875 -1.296875 1.09375l0 0.0625q1.375 0.28125 2.15625 1.21875q0.796875 0.921875 0.796875 2.328125zm-3.03125 -6.109375q0 -0.5 -0.171875 -0.828125q-0.15625 -0.34375 -0.515625 -0.546875q-0.4375 -0.25 -1.046875 -0.3125q-0.609375 -0.0625 -1.5 -0.0625l-2.15625 0l0 3.921875l2.328125 0q0.859375 0 1.359375 -0.078125q0.5 -0.09375 0.921875 -0.359375q0.421875 -0.28125 0.59375 -0.703125q0.1875 -0.4375 0.1875 -1.03125zm1.15625 6.1875q0 -0.828125 -0.25 -1.3125q-0.234375 -0.484375 -0.890625 -0.8125q-0.4375 -0.234375 -1.0625 -0.296875q-0.625 -0.078125 -1.515625 -0.078125l-2.828125 0l0 5.046875l2.390625 0q1.1875 0 1.9375 -0.109375q0.75 -0.125 1.234375 -0.453125q0.515625 -0.359375 0.75 -0.8125q0.234375 -0.453125 0.234375 -1.171875zm12.211609 4.09375l-1.703125 0l0 -1.078125q-0.234375 0.15625 -0.625 0.4375q-0.375 0.265625 -0.75 0.4375q-0.421875 0.203125 -0.984375 0.34375q-0.546875 0.140625 -1.296875 0.140625q-1.375 0 -2.328125 -0.90625q-0.953125 -0.921875 -0.953125 -2.328125q0 -1.15625 0.484375 -1.859375q0.5 -0.71875 1.421875 -1.140625q0.9375 -0.40625 2.234375 -0.546875q1.296875 -0.15625 2.796875 -0.21875l0 -0.265625q0 -0.578125 -0.203125 -0.953125q-0.203125 -0.390625 -0.59375 -0.609375q-0.359375 -0.21875 -0.875 -0.28125q-0.5 -0.078125 -1.0625 -0.078125q-0.671875 0 -1.5 0.1875q-0.828125 0.171875 -1.71875 0.5l-0.09375 0l0 -1.734375q0.5 -0.140625 1.453125 -0.296875q0.953125 -0.171875 1.875 -0.171875q1.0625 0 1.859375 0.1875q0.796875 0.171875 1.390625 0.59375q0.5625 0.421875 0.859375 1.09375q0.3125 0.65625 0.3125 1.640625l0 6.90625zm-1.703125 -2.5l0 -2.84375q-0.78125 0.046875 -1.84375 0.140625q-1.0625 0.09375 -1.6875 0.265625q-0.734375 0.203125 -1.1875 0.65625q-0.453125 0.4375 -0.453125 1.21875q0 0.859375 0.515625 1.3125q0.53125 0.4375 1.625 0.4375q0.890625 0 1.640625 -0.34375q0.75 -0.359375 1.390625 -0.84375zm12.517181 1.859375q-0.84375 0.40625 -1.625 0.640625q-0.765625 0.234375 -1.625 0.234375q-1.109375 0 -2.03125 -0.328125q-0.921875 -0.328125 -1.578125 -0.984375q-0.65625 -0.65625 -1.03125 -1.65625q-0.359375 -1.0 -0.359375 -2.34375q0 -2.484375 1.375 -3.90625q1.375 -1.421875 3.625 -1.421875q0.875 0 1.71875 0.25q0.84375 0.234375 1.53125 0.59375l0 1.90625l-0.078125 0q-0.796875 -0.609375 -1.625 -0.9375q-0.828125 -0.328125 -1.625 -0.328125q-1.453125 0 -2.296875 0.984375q-0.84375 0.96875 -0.84375 2.859375q0 1.84375 0.8125 2.84375q0.828125 0.984375 2.328125 0.984375q0.515625 0 1.046875 -0.140625q0.546875 -0.140625 0.96875 -0.359375q0.375 -0.1875 0.703125 -0.40625q0.328125 -0.21875 0.53125 -0.359375l0.078125 0l0 1.875zm11.438568 0.640625l-2.265625 0l-4.078125 -4.453125l-1.109375 1.0625l0 3.390625l-1.703125 0l0 -14.171875l1.703125 0l0 9.09375l4.953125 -5.09375l2.15625 0l-4.734375 4.703125l5.078125 5.46875zm10.139679 -4.90625l-7.5 0q0 0.9375 0.28125 1.640625q0.28125 0.6875 0.78125 1.140625q0.46875 0.4375 1.109375 0.65625q0.65625 0.21875 1.453125 0.21875q1.03125 0 2.078125 -0.421875q1.0625 -0.421875 1.5 -0.8125l0.09375 0l0 1.859375q-0.859375 0.375 -1.765625 0.625q-0.90625 0.234375 -1.890625 0.234375q-2.53125 0 -3.953125 -1.359375q-1.421875 -1.375 -1.421875 -3.90625q0 -2.5 1.359375 -3.953125q1.359375 -1.46875 3.578125 -1.46875q2.0625 0 3.171875 1.203125q1.125 1.203125 1.125 3.40625l0 0.9375zm-1.671875 -1.3125q0 -1.34375 -0.671875 -2.078125q-0.671875 -0.75 -2.03125 -0.75q-1.375 0 -2.203125 0.8125q-0.8125 0.8125 -0.921875 2.015625l5.828125 0zm12.769836 6.21875l-1.703125 0l0 -5.796875q0 -0.703125 -0.09375 -1.3125q-0.078125 -0.609375 -0.296875 -0.96875q-0.21875 -0.375 -0.65625 -0.5625q-0.421875 -0.1875 -1.109375 -0.1875q-0.703125 0 -1.46875 0.34375q-0.765625 0.34375 -1.46875 0.890625l0 7.59375l-1.703125 0l0 -10.171875l1.703125 0l0 1.125q0.8125 -0.65625 1.65625 -1.03125q0.859375 -0.375 1.765625 -0.375q1.65625 0 2.515625 1.0q0.859375 0.984375 0.859375 2.84375l0 6.609375zm11.555908 0l-1.71875 0l0 -1.0625q-0.734375 0.640625 -1.53125 1.0q-0.796875 0.34375 -1.734375 0.34375q-1.828125 0 -2.90625 -1.390625q-1.0625 -1.40625 -1.0625 -3.90625q0 -1.28125 0.359375 -2.296875q0.375 -1.015625 1.0 -1.71875q0.625 -0.703125 1.453125 -1.0625q0.828125 -0.359375 1.703125 -0.359375q0.796875 0 1.421875 0.171875q0.625 0.15625 1.296875 0.515625l0 -4.40625l1.71875 0l0 14.171875zm-1.71875 -2.5l0 -5.84375q-0.6875 -0.3125 -1.234375 -0.421875q-0.546875 -0.125 -1.1875 -0.125q-1.4375 0 -2.25 1.0q-0.796875 1.0 -0.796875 2.84375q0 1.8125 0.609375 2.765625q0.625 0.9375 2.0 0.9375q0.71875 0 1.46875 -0.328125q0.75 -0.328125 1.390625 -0.828125z" fill-rule="nonzero"/><path fill="#000000" fill-opacity="0.0" d="m231.00262 121.67979l78.99213 -1.0078735" fill-rule="evenodd"/><path stroke="#000000" stroke-width="2.0" stroke-linejoin="round" stroke-linecap="butt" d="m231.00262 121.67979l66.9931 -0.85476685" fill-rule="evenodd"/><path fill="#000000" stroke="#000000" stroke-width="2.0" stroke-linecap="butt" d="m298.03787 124.12821l9.033325 -3.418991l-9.117615 -3.1874008z" fill-rule="evenodd"/><path fill="#000000" fill-opacity="0.0" d="m410.9987 160.99344l0 23.370071" fill-rule="evenodd"/><path stroke="#000000" stroke-width="1.0" stroke-linejoin="round" stroke-linecap="butt" d="m410.9987 160.99344l0 17.370071" fill-rule="evenodd"/><path fill="#000000" stroke="#000000" stroke-width="1.0" stroke-linecap="butt" d="m409.34695 178.36351l1.6517334 4.538101l1.6517334 -4.538101z" fill-rule="evenodd"/><path fill="#000000" fill-opacity="0.0" d="m410.9987 264.9882l0 23.370087" fill-rule="evenodd"/><path stroke="#000000" stroke-width="1.0" stroke-linejoin="round" stroke-linecap="butt" stroke-dasharray="4.0,3.0" d="m410.9987 264.9882l0 23.370087" fill-rule="evenodd"/><path fill="#d9ead3" d="m639.9829 80.36483l202.01575 0l0 80.62992l-202.01575 0z" fill-rule="evenodd"/><path stroke="#000000" stroke-width="1.0" stroke-linejoin="round" stroke-linecap="butt" d="m639.9829 80.36483l202.01575 0l0 80.62992l-202.01575 0z" fill-rule="evenodd"/><path fill="#000000" d="m716.7814 115.61541q-0.5 0.21875 -0.90625 0.421875q-0.40625 0.1875 -1.0625 0.390625q-0.546875 0.171875 -1.203125 0.296875q-0.65625 0.125 -1.4375 0.125q-1.46875 0 -2.6875 -0.40625q-1.203125 -0.421875 -2.09375 -1.3125q-0.875 -0.859375 -1.375 -2.1875q-0.484375 -1.34375 -0.484375 -3.109375q0 -1.671875 0.46875 -3.0q0.484375 -1.328125 1.375 -2.234375q0.859375 -0.875 2.078125 -1.34375q1.234375 -0.46875 2.734375 -0.46875q1.09375 0 2.171875 0.265625q1.09375 0.265625 2.421875 0.9375l0 2.140625l-0.140625 0q-1.109375 -0.953125 -2.21875 -1.375q-1.09375 -0.421875 -2.359375 -0.421875q-1.03125 0 -1.859375 0.328125q-0.8125 0.328125 -1.46875 1.03125q-0.625 0.6875 -0.984375 1.734375q-0.34375 1.03125 -0.34375 2.40625q0 1.421875 0.390625 2.453125q0.390625 1.03125 1.0 1.6875q0.640625 0.671875 1.484375 1.0q0.859375 0.3125 1.796875 0.3125q1.3125 0 2.4375 -0.4375q1.140625 -0.453125 2.140625 -1.34375l0.125 0l0 2.109375zm11.089111 -4.09375q0 2.484375 -1.28125 3.921875q-1.265625 1.4375 -3.40625 1.4375q-2.171875 0 -3.4375 -1.4375q-1.265625 -1.4375 -1.265625 -3.921875q0 -2.484375 1.265625 -3.921875q1.265625 -1.453125 3.4375 -1.453125q2.140625 0 3.40625 1.453125q1.28125 1.4375 1.28125 3.921875zm-1.765625 0q0 -1.984375 -0.78125 -2.9375q-0.765625 -0.96875 -2.140625 -0.96875q-1.40625 0 -2.171875 0.96875q-0.765625 0.953125 -0.765625 2.9375q0 1.90625 0.765625 2.90625q0.78125 0.984375 2.171875 0.984375q1.359375 0 2.140625 -0.984375q0.78125 -0.984375 0.78125 -2.90625zm12.916809 5.078125l-1.703125 0l0 -5.796875q0 -0.703125 -0.09375 -1.3125q-0.078125 -0.609375 -0.296875 -0.96875q-0.21875 -0.375 -0.65625 -0.5625q-0.421875 -0.1875 -1.109375 -0.1875q-0.703125 0 -1.46875 0.34375q-0.765625 0.34375 -1.46875 0.890625l0 7.59375l-1.703125 0l0 -10.171875l1.703125 0l0 1.125q0.8125 -0.65625 1.65625 -1.03125q0.859375 -0.375 1.765625 -0.375q1.65625 0 2.515625 1.0q0.859375 0.984375 0.859375 2.84375l0 6.609375zm8.587158 -0.09375q-0.484375 0.125 -1.0625 0.203125q-0.5625 0.09375 -1.0 0.09375q-1.5625 0 -2.375 -0.828125q-0.8125 -0.84375 -0.8125 -2.703125l0 -5.40625l-1.15625 0l0 -1.4375l1.15625 0l0 -2.921875l1.71875 0l0 2.921875l3.53125 0l0 1.4375l-3.53125 0l0 4.640625q0 0.796875 0.03125 1.25q0.03125 0.453125 0.25 0.84375q0.203125 0.359375 0.546875 0.53125q0.359375 0.171875 1.078125 0.171875q0.421875 0 0.875 -0.125q0.453125 -0.125 0.65625 -0.203125l0.09375 0l0 1.53125zm10.585754 -4.8125l-7.5 0q0 0.9375 0.28125 1.640625q0.28125 0.6875 0.78125 1.140625q0.46875 0.4375 1.109375 0.65625q0.65625 0.21875 1.453125 0.21875q1.03125 0 2.078125 -0.421875q1.0625 -0.421875 1.5 -0.8125l0.09375 0l0 1.859375q-0.859375 0.375 -1.765625 0.625q-0.90625 0.234375 -1.890625 0.234375q-2.53125 0 -3.953125 -1.359375q-1.421875 -1.375 -1.421875 -3.90625q0 -2.5 1.359375 -3.953125q1.359375 -1.46875 3.578125 -1.46875q2.0625 0 3.171875 1.203125q1.125 1.203125 1.125 3.40625l0 0.9375zm-1.671875 -1.3125q0 -1.34375 -0.671875 -2.078125q-0.671875 -0.75 -2.03125 -0.75q-1.375 0 -2.203125 0.8125q-0.8125 0.8125 -0.921875 2.015625l5.828125 0zm13.082336 6.21875l-2.171875 0l-2.875 -3.90625l-2.90625 3.90625l-2.0 0l3.96875 -5.078125l-3.9375 -5.09375l2.15625 0l2.875 3.84375l2.875 -3.84375l2.015625 0l-4.0 5.0l4.0 5.171875zm7.5094604 -0.09375q-0.484375 0.125 -1.0625 0.203125q-0.5625 0.09375 -1.0 0.09375q-1.5625 0 -2.375 -0.828125q-0.8125 -0.84375 -0.8125 -2.703125l0 -5.40625l-1.15625 0l0 -1.4375l1.15625 0l0 -2.921875l1.71875 0l0 2.921875l3.53125 0l0 1.4375l-3.53125 0l0 4.640625q0 0.796875 0.03125 1.25q0.03125 0.453125 0.25 0.84375q0.203125 0.359375 0.546875 0.53125q0.359375 0.171875 1.078125 0.171875q0.421875 0 0.875 -0.125q0.453125 -0.125 0.65625 -0.203125l0.09375 0l0 1.53125z" fill-rule="nonzero"/><path fill="#000000" d="m697.0628 136.86542l-4.8125 -3.828125l0 -0.765625l4.8125 -3.8125l0 1.71875l-3.25 2.484375l3.25 2.484375l0 1.71875zm-3.921875 0.265625l-5.0 -4.0625l0 -0.8125l5.0 -4.0625l0 1.78125l-3.375 2.6875l3.375 2.671875l0 1.796875zm12.118286 1.46875l-5.359375 0l0 -1.390625l1.78125 0l0 -10.781258l-1.78125 0l0 -1.390625l5.359375 0l0 1.390625l-1.78125 0l0 10.781258l1.78125 0l0 1.390625zm11.430542 0l-1.703125 0l0 -5.796875q0 -0.703125 -0.09375 -1.3125q-0.078125 -0.609375 -0.296875 -0.96875q-0.21875 -0.375 -0.65625 -0.5625q-0.421875 -0.1875 -1.109375 -0.1875q-0.703125 0 -1.46875 0.34375q-0.765625 0.34375 -1.46875 0.890625l0 7.59375l-1.703125 0l0 -10.171875l1.703125 0l0 1.125q0.8125 -0.65625 1.65625 -1.03125q0.859375 -0.375 1.765625 -0.375q1.65625 0 2.515625 1.0q0.859375 0.984375 0.859375 2.84375l0 6.609375zm8.587158 -0.09375q-0.484375 0.125 -1.0625 0.203125q-0.5625 0.09375 -1.0 0.09375q-1.5625 0 -2.375 -0.828125q-0.8125 -0.84375 -0.8125 -2.703125l0 -5.40625l-1.15625 0l0 -1.4375l1.15625 0l0 -2.9218826l1.71875 0l0 2.9218826l3.53125 0l0 1.4375l-3.53125 0l0 4.640625q0 0.796875 0.03125 1.25q0.03125 0.453125 0.25 0.84375q0.203125 0.359375 0.546875 0.53125q0.359375 0.171875 1.078125 0.171875q0.421875 0 0.875 -0.125q0.453125 -0.125 0.65625 -0.203125l0.09375 0l0 1.53125zm10.585754 -4.8125l-7.5 0q0 0.9375 0.28125 1.640625q0.28125 0.6875 0.78125 1.140625q0.46875 0.4375 1.109375 0.65625q0.65625 0.21875 1.453125 0.21875q1.03125 0 2.078125 -0.421875q1.0625 -0.421875 1.5 -0.8125l0.09375 0l0 1.859375q-0.859375 0.375 -1.765625 0.625q-0.90625 0.234375 -1.890625 0.234375q-2.53125 0 -3.953125 -1.359375q-1.421875 -1.375 -1.421875 -3.90625q0 -2.5 1.359375 -3.953125q1.359375 -1.46875 3.578125 -1.46875q2.0625 0 3.171875 1.203125q1.125 1.203125 1.125 3.40625l0 0.9375zm-1.671875 -1.3125q0 -1.34375 -0.671875 -2.078125q-0.671875 -0.75 -2.03125 -0.75q-1.375 0 -2.203125 0.8125q-0.8125 0.8125 -0.921875 2.015625l5.828125 0zm10.613586 -2.09375l-0.09375 0q-0.375 -0.09375 -0.734375 -0.125q-0.359375 -0.046875 -0.859375 -0.046875q-0.78125 0 -1.53125 0.359375q-0.734375 0.34375 -1.421875 0.90625l0 7.21875l-1.703125 0l0 -10.171875l1.703125 0l0 1.5q1.03125 -0.8125 1.796875 -1.15625q0.78125 -0.34375 1.59375 -0.34375q0.453125 0 0.65625 0.03125q0.203125 0.015625 0.59375 0.078125l0 1.75zm7.08667 -4.2031326l-0.09375 0q-0.28125 -0.078125 -0.734375 -0.15625q-0.453125 -0.09375 -0.796875 -0.09375q-1.109375 0 -1.609375 0.484375q-0.484375 0.484375 -0.484375 1.7656326l0 0.34375l3.078125 0l0 1.4375l-3.03125 0l0 8.734375l-1.703125 0l0 -8.734375l-1.15625 0l0 -1.4375l1.15625 0l0 -0.34375q0 -1.8125076 0.890625 -2.7812576q0.90625 -0.96875 2.609375 -0.96875q0.578125 0 1.03125 0.0625q0.46875 0.046875 0.84375 0.125l0 1.5625zm8.996338 12.515633l-1.703125 0l0 -1.078125q-0.234375 0.15625 -0.625 0.4375q-0.375 0.265625 -0.75 0.4375q-0.421875 0.203125 -0.984375 0.34375q-0.546875 0.140625 -1.296875 0.140625q-1.375 0 -2.328125 -0.90625q-0.953125 -0.921875 -0.953125 -2.328125q0 -1.15625 0.484375 -1.859375q0.5 -0.71875 1.421875 -1.140625q0.9375 -0.40625 2.234375 -0.546875q1.296875 -0.15625 2.796875 -0.21875l0 -0.265625q0 -0.578125 -0.203125 -0.953125q-0.203125 -0.390625 -0.59375 -0.609375q-0.359375 -0.21875 -0.875 -0.28125q-0.5 -0.078125 -1.0625 -0.078125q-0.671875 0 -1.5 0.1875q-0.828125 0.171875 -1.71875 0.5l-0.09375 0l0 -1.734375q0.5 -0.140625 1.453125 -0.296875q0.953125 -0.171875 1.875 -0.171875q1.0625 0 1.859375 0.1875q0.796875 0.171875 1.390625 0.59375q0.5625 0.421875 0.859375 1.09375q0.3125 0.65625 0.3125 1.640625l0 6.90625zm-1.703125 -2.5l0 -2.84375q-0.78125 0.046875 -1.84375 0.140625q-1.0625 0.09375 -1.6875 0.265625q-0.734375 0.203125 -1.1875 0.65625q-0.453125 0.4375 -0.453125 1.21875q0 0.859375 0.515625 1.3125q0.53125 0.4375 1.625 0.4375q0.890625 0 1.640625 -0.34375q0.75 -0.359375 1.390625 -0.84375zm12.517212 1.859375q-0.84375 0.40625 -1.625 0.640625q-0.765625 0.234375 -1.625 0.234375q-1.109375 0 -2.03125 -0.328125q-0.921875 -0.328125 -1.578125 -0.984375q-0.65625 -0.65625 -1.03125 -1.65625q-0.359375 -1.0 -0.359375 -2.34375q0 -2.484375 1.375 -3.90625q1.375 -1.421875 3.625 -1.421875q0.875 0 1.71875 0.25q0.84375 0.234375 1.53125 0.59375l0 1.90625l-0.078125 0q-0.796875 -0.609375 -1.625 -0.9375q-0.828125 -0.328125 -1.625 -0.328125q-1.453125 0 -2.296875 0.984375q-0.84375 0.96875 -0.84375 2.859375q0 1.84375 0.8125 2.84375q0.828125 0.984375 2.328125 0.984375q0.515625 0 1.046875 -0.140625q0.546875 -0.140625 0.96875 -0.359375q0.375 -0.1875 0.703125 -0.40625q0.328125 -0.21875 0.53125 -0.359375l0.078125 0l0 1.875zm10.719788 -4.265625l-7.5 0q0 0.9375 0.28125 1.640625q0.28125 0.6875 0.78125 1.140625q0.46875 0.4375 1.109375 0.65625q0.65625 0.21875 1.453125 0.21875q1.03125 0 2.078125 -0.421875q1.0625 -0.421875 1.5 -0.8125l0.09375 0l0 1.859375q-0.859375 0.375 -1.765625 0.625q-0.90625 0.234375 -1.890625 0.234375q-2.53125 0 -3.953125 -1.359375q-1.421875 -1.375 -1.421875 -3.90625q0 -2.5 1.359375 -3.953125q1.359375 -1.46875 3.578125 -1.46875q2.0625 0 3.171875 1.203125q1.125 1.203125 1.125 3.40625l0 0.9375zm-1.671875 -1.3125q0 -1.34375 -0.671875 -2.078125q-0.671875 -0.75 -2.03125 -0.75q-1.375 0 -2.203125 0.8125q-0.8125 0.8125 -0.921875 2.015625l5.828125 0zm13.097961 0.6875l-5.015625 4.0625l0 -1.796875l3.375 -2.671875l-3.375 -2.6875l0 -1.78125l5.015625 4.0625l0 0.8125zm-4.125 -0.03125l-4.8125 3.828125l0 -1.71875l3.265625 -2.484375l-3.265625 -2.484375l0 -1.71875l4.8125 3.8125l0 0.765625z" fill-rule="nonzero"/><path fill="#d9d9d9" d="m556.9921 184.35957l173.00787 0l0 80.62993l-173.00787 0z" fill-rule="evenodd"/><path stroke="#000000" stroke-width="1.0" stroke-linejoin="round" stroke-linecap="butt" d="m556.9921 184.35957l173.00787 0l0 80.62993l-173.00787 0z" fill-rule="evenodd"/><path fill="#000000" d="m583.2304 224.72205q0 1.59375 -0.6875 2.890625q-0.6875 1.28125 -1.84375 1.984375q-0.796875 0.5 -1.78125 0.71875q-0.96875 0.21875 -2.578125 0.21875l-2.9375 0l0 -11.640625l2.90625 0q1.703125 0 2.703125 0.25q1.015625 0.25 1.703125 0.671875q1.1875 0.75 1.84375 1.984375q0.671875 1.234375 0.671875 2.921875zm-1.609375 -0.015625q0 -1.375 -0.484375 -2.3125q-0.46875 -0.9375 -1.421875 -1.46875q-0.6875 -0.390625 -1.46875 -0.546875q-0.765625 -0.15625 -1.84375 -0.15625l-1.453125 0l0 8.984375l1.453125 0q1.125 0 1.953125 -0.15625q0.828125 -0.171875 1.53125 -0.625q0.859375 -0.546875 1.296875 -1.453125q0.4375 -0.90625 0.4375 -2.265625zm10.78125 5.828125l-1.46875 0l0 -0.9375q-0.1875 0.140625 -0.53125 0.375q-0.328125 0.234375 -0.640625 0.375q-0.359375 0.1875 -0.84375 0.3125q-0.46875 0.125 -1.109375 0.125q-1.1875 0 -2.015625 -0.78125q-0.8125 -0.796875 -0.8125 -2.0q0 -1.0 0.421875 -1.609375q0.4375 -0.609375 1.21875 -0.96875q0.796875 -0.34375 1.90625 -0.46875q1.125 -0.125 2.40625 -0.1875l0 -0.234375q0 -0.5 -0.171875 -0.828125q-0.171875 -0.328125 -0.5 -0.515625q-0.3125 -0.171875 -0.75 -0.234375q-0.4375 -0.0625 -0.921875 -0.0625q-0.578125 0 -1.296875 0.15625q-0.703125 0.140625 -1.453125 0.4375l-0.078125 0l0 -1.5q0.421875 -0.109375 1.234375 -0.25q0.8125 -0.140625 1.609375 -0.140625q0.921875 0 1.59375 0.15625q0.6875 0.140625 1.1875 0.515625q0.5 0.359375 0.75 0.9375q0.265625 0.5625 0.265625 1.40625l0 5.921875zm-1.46875 -2.15625l0 -2.421875q-0.671875 0.03125 -1.578125 0.109375q-0.90625 0.078125 -1.4375 0.234375q-0.640625 0.171875 -1.03125 0.5625q-0.390625 0.375 -0.390625 1.03125q0 0.75 0.453125 1.140625q0.453125 0.375 1.390625 0.375q0.765625 0 1.40625 -0.296875q0.640625 -0.3125 1.1875 -0.734375zm8.828125 2.078125q-0.421875 0.109375 -0.90625 0.171875q-0.484375 0.078125 -0.875 0.078125q-1.328125 0 -2.03125 -0.71875q-0.6875 -0.71875 -0.6875 -2.3125l0 -4.640625l-1.0 0l0 -1.234375l1.0 0l0 -2.5l1.46875 0l0 2.5l3.03125 0l0 1.234375l-3.03125 0l0 3.984375q0 0.6875 0.03125 1.078125q0.03125 0.375 0.21875 0.71875q0.171875 0.3125 0.46875 0.453125q0.296875 0.140625 0.921875 0.140625q0.359375 0 0.75 -0.09375q0.390625 -0.109375 0.5625 -0.1875l0.078125 0l0 1.328125zm8.5546875 0.078125l-1.46875 0l0 -0.9375q-0.1875 0.140625 -0.53125 0.375q-0.328125 0.234375 -0.640625 0.375q-0.359375 0.1875 -0.84375 0.3125q-0.46875 0.125 -1.109375 0.125q-1.1875 0 -2.015625 -0.78125q-0.8125 -0.796875 -0.8125 -2.0q0 -1.0 0.421875 -1.609375q0.4375 -0.609375 1.21875 -0.96875q0.796875 -0.34375 1.90625 -0.46875q1.125 -0.125 2.40625 -0.1875l0 -0.234375q0 -0.5 -0.171875 -0.828125q-0.171875 -0.328125 -0.5 -0.515625q-0.3125 -0.171875 -0.75 -0.234375q-0.4375 -0.0625 -0.921875 -0.0625q-0.578125 0 -1.296875 0.15625q-0.703125 0.140625 -1.453125 0.4375l-0.078125 0l0 -1.5q0.421875 -0.109375 1.234375 -0.25q0.8125 -0.140625 1.609375 -0.140625q0.921875 0 1.59375 0.15625q0.6875 0.140625 1.1875 0.515625q0.5 0.359375 0.75 0.9375q0.265625 0.5625 0.265625 1.40625l0 5.921875zm-1.46875 -2.15625l0 -2.421875q-0.671875 0.03125 -1.578125 0.109375q-0.90625 0.078125 -1.4375 0.234375q-0.640625 0.171875 -1.03125 0.5625q-0.390625 0.375 -0.390625 1.03125q0 0.75 0.453125 1.140625q0.453125 0.375 1.390625 0.375q0.765625 0 1.40625 -0.296875q0.640625 -0.3125 1.1875 -0.734375zm12.078125 2.15625l-7.671875 0l0 -11.640625l7.671875 0l0 1.375l-6.125 0l0 3.1875l6.125 0l0 1.375l-6.125 0l0 4.328125l6.125 0l0 1.375zm9.6328125 0l-1.46875 0l0 -4.96875q0 -0.609375 -0.078125 -1.125q-0.0625 -0.53125 -0.25 -0.828125q-0.203125 -0.328125 -0.578125 -0.484375q-0.359375 -0.171875 -0.9375 -0.171875q-0.609375 0 -1.265625 0.296875q-0.65625 0.296875 -1.25 0.765625l0 6.515625l-1.46875 0l0 -8.734375l1.46875 0l0 0.96875q0.6875 -0.5625 1.421875 -0.875q0.734375 -0.328125 1.5 -0.328125q1.421875 0 2.15625 0.859375q0.75 0.84375 0.75 2.4375l0 5.671875zm7.359375 -0.078125q-0.421875 0.109375 -0.90625 0.171875q-0.484375 0.078125 -0.875 0.078125q-1.328125 0 -2.03125 -0.71875q-0.6875 -0.71875 -0.6875 -2.3125l0 -4.640625l-1.0 0l0 -1.234375l1.0 0l0 -2.5l1.46875 0l0 2.5l3.03125 0l0 1.234375l-3.03125 0l0 3.984375q0 0.6875 0.03125 1.078125q0.03125 0.375 0.21875 0.71875q0.171875 0.3125 0.46875 0.453125q0.296875 0.140625 0.921875 0.140625q0.359375 0 0.75 -0.09375q0.390625 -0.109375 0.5625 -0.1875l0.078125 0l0 1.328125zm7.2109375 -7.046875l-0.078125 0q-0.328125 -0.078125 -0.640625 -0.109375q-0.296875 -0.046875 -0.71875 -0.046875q-0.6875 0 -1.328125 0.3125q-0.625 0.296875 -1.203125 0.765625l0 6.203125l-1.46875 0l0 -8.734375l1.46875 0l0 1.296875q0.875 -0.703125 1.53125 -1.0q0.671875 -0.296875 1.375 -0.296875q0.375 0 0.546875 0.03125q0.171875 0.015625 0.515625 0.0625l0 1.515625zm8.9375 -1.609375l-5.09375 11.953125l-1.578125 0l1.625 -3.640625l-3.46875 -8.3125l1.59375 0l2.671875 6.46875l2.703125 -6.46875l1.546875 0zm11.015625 7.890625q-0.421875 0.1875 -0.78125 0.359375q-0.34375 0.15625 -0.90625 0.328125q-0.46875 0.15625 -1.03125 0.265625q-0.5625 0.109375 -1.234375 0.109375q-1.265625 0 -2.296875 -0.359375q-1.03125 -0.359375 -1.796875 -1.125q-0.75 -0.734375 -1.171875 -1.875q-0.421875 -1.15625 -0.421875 -2.671875q0 -1.4375 0.40625 -2.5625q0.40625 -1.140625 1.171875 -1.921875q0.734375 -0.75 1.78125 -1.140625q1.0625 -0.40625 2.34375 -0.40625q0.9375 0 1.859375 0.234375q0.9375 0.21875 2.078125 0.78125l0 1.84375l-0.109375 0q-0.96875 -0.8125 -1.921875 -1.171875q-0.9375 -0.375 -2.015625 -0.375q-0.875 0 -1.59375 0.296875q-0.703125 0.28125 -1.25 0.875q-0.546875 0.59375 -0.84375 1.484375q-0.296875 0.890625 -0.296875 2.0625q0 1.234375 0.328125 2.125q0.328125 0.875 0.859375 1.421875q0.546875 0.578125 1.265625 0.859375q0.734375 0.28125 1.546875 0.28125q1.125 0 2.09375 -0.375q0.984375 -0.390625 1.828125 -1.15625l0.109375 0l0 1.8125zm9.515625 -3.515625q0 2.125 -1.09375 3.375q-1.09375 1.234375 -2.9375 1.234375q-1.84375 0 -2.9375 -1.234375q-1.09375 -1.25 -1.09375 -3.375q0 -2.140625 1.09375 -3.375q1.09375 -1.234375 2.9375 -1.234375q1.84375 0 2.9375 1.234375q1.09375 1.234375 1.09375 3.375zm-1.515625 0q0 -1.703125 -0.671875 -2.515625q-0.65625 -0.828125 -1.84375 -0.828125q-1.1875 0 -1.859375 0.828125q-0.65625 0.8125 -0.65625 2.515625q0 1.640625 0.65625 2.484375q0.671875 0.84375 1.859375 0.84375q1.171875 0 1.84375 -0.828125q0.671875 -0.84375 0.671875 -2.5zm11.0859375 4.359375l-1.46875 0l0 -4.96875q0 -0.609375 -0.078125 -1.125q-0.0625 -0.53125 -0.25 -0.828125q-0.203125 -0.328125 -0.578125 -0.484375q-0.359375 -0.171875 -0.9375 -0.171875q-0.609375 0 -1.265625 0.296875q-0.65625 0.296875 -1.25 0.765625l0 6.515625l-1.46875 0l0 -8.734375l1.46875 0l0 0.96875q0.6875 -0.5625 1.421875 -0.875q0.734375 -0.328125 1.5 -0.328125q1.421875 0 2.15625 0.859375q0.75 0.84375 0.75 2.4375l0 5.671875zm7.359375 -0.078125q-0.421875 0.109375 -0.90625 0.171875q-0.484375 0.078125 -0.875 0.078125q-1.328125 0 -2.03125 -0.71875q-0.6875 -0.71875 -0.6875 -2.3125l0 -4.640625l-1.0 0l0 -1.234375l1.0 0l0 -2.5l1.46875 0l0 2.5l3.03125 0l0 1.234375l-3.03125 0l0 3.984375q0 0.6875 0.03125 1.078125q0.03125 0.375 0.21875 0.71875q0.171875 0.3125 0.46875 0.453125q0.296875 0.140625 0.921875 0.140625q0.359375 0 0.75 -0.09375q0.390625 -0.109375 0.5625 -0.1875l0.078125 0l0 1.328125zm9.0703125 -4.140625l-6.421875 0q0 0.8125 0.234375 1.40625q0.25 0.59375 0.671875 0.984375q0.40625 0.375 0.953125 0.5625q0.5625 0.1875 1.234375 0.1875q0.890625 0 1.796875 -0.359375q0.90625 -0.359375 1.28125 -0.703125l0.078125 0l0 1.609375q-0.734375 0.3125 -1.515625 0.53125q-0.765625 0.203125 -1.625 0.203125q-2.171875 0 -3.390625 -1.171875q-1.21875 -1.1875 -1.21875 -3.34375q0 -2.140625 1.171875 -3.390625q1.171875 -1.265625 3.078125 -1.265625q1.765625 0 2.71875 1.03125q0.953125 1.03125 0.953125 2.921875l0 0.796875zm-1.421875 -1.125q-0.015625 -1.15625 -0.59375 -1.78125q-0.5625 -0.640625 -1.734375 -0.640625q-1.1875 0 -1.890625 0.703125q-0.6875 0.6875 -0.78125 1.71875l5.0 0zm11.203125 5.34375l-1.84375 0l-2.484375 -3.359375l-2.484375 3.359375l-1.71875 0l3.40625 -4.359375l-3.375 -4.375l1.859375 0l2.453125 3.296875l2.46875 -3.296875l1.71875 0l-3.421875 4.296875l3.421875 4.4375zm6.453125 -0.078125q-0.421875 0.109375 -0.90625 0.171875q-0.484375 0.078125 -0.875 0.078125q-1.328125 0 -2.03125 -0.71875q-0.6875 -0.71875 -0.6875 -2.3125l0 -4.640625l-1.0 0l0 -1.234375l1.0 0l0 -2.5l1.46875 0l0 2.5l3.03125 0l0 1.234375l-3.03125 0l0 3.984375q0 0.6875 0.03125 1.078125q0.03125 0.375 0.21875 0.71875q0.171875 0.3125 0.46875 0.453125q0.296875 0.140625 0.921875 0.140625q0.359375 0 0.75 -0.09375q0.390625 -0.109375 0.5625 -0.1875l0.078125 0l0 1.328125z" fill-rule="nonzero"/><path fill="#d9d9d9" d="m751.8583 184.35957l173.00787 0l0 80.62993l-173.00787 0z" fill-rule="evenodd"/><path stroke="#000000" stroke-width="1.0" stroke-linejoin="round" stroke-linecap="butt" d="m751.8583 184.35957l173.00787 0l0 80.62993l-173.00787 0z" fill-rule="evenodd"/><path fill="#000000" d="m777.8974 220.23767q0.71875 0.78125 1.09375 1.921875q0.375 1.125 0.375 2.5625q0 1.4375 -0.390625 2.578125q-0.375 1.125 -1.078125 1.890625q-0.71875 0.78125 -1.703125 1.1875q-0.96875 0.40625 -2.234375 0.40625q-1.21875 0 -2.234375 -0.40625q-1.0 -0.421875 -1.703125 -1.1875q-0.703125 -0.78125 -1.078125 -1.90625q-0.375 -1.125 -0.375 -2.5625q0 -1.421875 0.375 -2.546875q0.375 -1.140625 1.09375 -1.9375q0.6875 -0.765625 1.703125 -1.171875q1.015625 -0.40625 2.21875 -0.40625q1.25 0 2.25 0.40625q1.0 0.40625 1.6875 1.171875zm-0.140625 4.484375q0 -2.265625 -1.015625 -3.5q-1.015625 -1.234375 -2.765625 -1.234375q-1.78125 0 -2.796875 1.234375q-1.0 1.234375 -1.0 3.5q0 2.28125 1.03125 3.5q1.03125 1.21875 2.765625 1.21875q1.734375 0 2.75 -1.21875q1.03125 -1.21875 1.03125 -3.5zm11.625 1.34375q0 1.0625 -0.3125 1.9375q-0.296875 0.875 -0.84375 1.484375q-0.515625 0.578125 -1.21875 0.90625q-0.703125 0.3125 -1.484375 0.3125q-0.671875 0 -1.234375 -0.15625q-0.546875 -0.140625 -1.109375 -0.453125l0 3.65625l-1.46875 0l0 -11.953125l1.46875 0l0 0.921875q0.578125 -0.5 1.3125 -0.828125q0.734375 -0.328125 1.5625 -0.328125q1.578125 0 2.453125 1.1875q0.875 1.1875 0.875 3.3125zm-1.515625 0.03125q0 -1.578125 -0.546875 -2.359375q-0.53125 -0.78125 -1.640625 -0.78125q-0.640625 0 -1.28125 0.28125q-0.640625 0.265625 -1.21875 0.71875l0 4.9375q0.625 0.28125 1.0625 0.390625q0.453125 0.09375 1.03125 0.09375q1.21875 0 1.90625 -0.828125q0.6875 -0.828125 0.6875 -2.453125zm11.109375 0.21875l-6.421875 0q0 0.8125 0.234375 1.40625q0.25 0.59375 0.671875 0.984375q0.40625 0.375 0.953125 0.5625q0.5625 0.1875 1.234375 0.1875q0.890625 0 1.796875 -0.359375q0.90625 -0.359375 1.28125 -0.703125l0.078125 0l0 1.609375q-0.734375 0.3125 -1.515625 0.53125q-0.765625 0.203125 -1.625 0.203125q-2.171875 0 -3.390625 -1.171875q-1.21875 -1.1875 -1.21875 -3.34375q0 -2.140625 1.171875 -3.390625q1.171875 -1.265625 3.078125 -1.265625q1.765625 0 2.71875 1.03125q0.953125 1.03125 0.953125 2.921875l0 0.796875zm-1.421875 -1.125q-0.015625 -1.15625 -0.59375 -1.78125q-0.5625 -0.640625 -1.734375 -0.640625q-1.1875 0 -1.890625 0.703125q-0.6875 0.6875 -0.78125 1.71875l5.0 0zm9.09375 -1.78125l-0.078125 0q-0.328125 -0.078125 -0.640625 -0.109375q-0.296875 -0.046875 -0.71875 -0.046875q-0.6875 0 -1.328125 0.3125q-0.625 0.296875 -1.203125 0.765625l0 6.203125l-1.46875 0l0 -8.734375l1.46875 0l0 1.296875q0.875 -0.703125 1.53125 -1.0q0.671875 -0.296875 1.375 -0.296875q0.375 0 0.546875 0.03125q0.171875 0.015625 0.515625 0.0625l0 1.515625zm7.890625 7.125l-1.46875 0l0 -0.9375q-0.1875 0.140625 -0.53125 0.375q-0.328125 0.234375 -0.640625 0.375q-0.359375 0.1875 -0.84375 0.3125q-0.46875 0.125 -1.109375 0.125q-1.1875 0 -2.015625 -0.78125q-0.8125 -0.796875 -0.8125 -2.0q0 -1.0 0.421875 -1.609375q0.4375 -0.609375 1.21875 -0.96875q0.796875 -0.34375 1.90625 -0.46875q1.125 -0.125 2.40625 -0.1875l0 -0.234375q0 -0.5 -0.171875 -0.828125q-0.171875 -0.328125 -0.5 -0.515625q-0.3125 -0.171875 -0.75 -0.234375q-0.4375 -0.0625 -0.921875 -0.0625q-0.578125 0 -1.296875 0.15625q-0.703125 0.140625 -1.453125 0.4375l-0.078125 0l0 -1.5q0.421875 -0.109375 1.234375 -0.25q0.8125 -0.140625 1.609375 -0.140625q0.921875 0 1.59375 0.15625q0.6875 0.140625 1.1875 0.515625q0.5 0.359375 0.75 0.9375q0.265625 0.5625 0.265625 1.40625l0 5.921875zm-1.46875 -2.15625l0 -2.421875q-0.671875 0.03125 -1.578125 0.109375q-0.90625 0.078125 -1.4375 0.234375q-0.640625 0.171875 -1.03125 0.5625q-0.390625 0.375 -0.390625 1.03125q0 0.75 0.453125 1.140625q0.453125 0.375 1.390625 0.375q0.765625 0 1.40625 -0.296875q0.640625 -0.3125 1.1875 -0.734375zm8.828125 2.078125q-0.421875 0.109375 -0.90625 0.171875q-0.484375 0.078125 -0.875 0.078125q-1.328125 0 -2.03125 -0.71875q-0.6875 -0.71875 -0.6875 -2.3125l0 -4.640625l-1.0 0l0 -1.234375l1.0 0l0 -2.5l1.46875 0l0 2.5l3.03125 0l0 1.234375l-3.03125 0l0 3.984375q0 0.6875 0.03125 1.078125q0.03125 0.375 0.21875 0.71875q0.171875 0.3125 0.46875 0.453125q0.296875 0.140625 0.921875 0.140625q0.359375 0 0.75 -0.09375q0.390625 -0.109375 0.5625 -0.1875l0.078125 0l0 1.328125zm3.3515625 -10.109375l-1.65625 0l0 -1.53125l1.65625 0l0 1.53125zm-0.09375 10.1875l-1.46875 0l0 -8.734375l1.46875 0l0 8.734375zm10.34375 -4.359375q0 2.125 -1.09375 3.375q-1.09375 1.234375 -2.9375 1.234375q-1.84375 0 -2.9375 -1.234375q-1.09375 -1.25 -1.09375 -3.375q0 -2.140625 1.09375 -3.375q1.09375 -1.234375 2.9375 -1.234375q1.84375 0 2.9375 1.234375q1.09375 1.234375 1.09375 3.375zm-1.515625 0q0 -1.703125 -0.671875 -2.515625q-0.65625 -0.828125 -1.84375 -0.828125q-1.1875 0 -1.859375 0.828125q-0.65625 0.8125 -0.65625 2.515625q0 1.640625 0.65625 2.484375q0.671875 0.84375 1.859375 0.84375q1.171875 0 1.84375 -0.828125q0.671875 -0.84375 0.671875 -2.5zm11.0859375 4.359375l-1.46875 0l0 -4.96875q0 -0.609375 -0.078125 -1.125q-0.0625 -0.53125 -0.25 -0.828125q-0.203125 -0.328125 -0.578125 -0.484375q-0.359375 -0.171875 -0.9375 -0.171875q-0.609375 0 -1.265625 0.296875q-0.65625 0.296875 -1.25 0.765625l0 6.515625l-1.46875 0l0 -8.734375l1.46875 0l0 0.96875q0.6875 -0.5625 1.421875 -0.875q0.734375 -0.328125 1.5 -0.328125q1.421875 0 2.15625 0.859375q0.75 0.84375 0.75 2.4375l0 5.671875zm11.921875 -0.84375q-0.421875 0.1875 -0.78125 0.359375q-0.34375 0.15625 -0.90625 0.328125q-0.46875 0.15625 -1.03125 0.265625q-0.5625 0.109375 -1.234375 0.109375q-1.265625 0 -2.296875 -0.359375q-1.03125 -0.359375 -1.796875 -1.125q-0.75 -0.734375 -1.171875 -1.875q-0.421875 -1.15625 -0.421875 -2.671875q0 -1.4375 0.40625 -2.5625q0.40625 -1.140625 1.171875 -1.921875q0.734375 -0.75 1.78125 -1.140625q1.0625 -0.40625 2.34375 -0.40625q0.9375 0 1.859375 0.234375q0.9375 0.21875 2.078125 0.78125l0 1.84375l-0.109375 0q-0.96875 -0.8125 -1.921875 -1.171875q-0.9375 -0.375 -2.015625 -0.375q-0.875 0 -1.59375 0.296875q-0.703125 0.28125 -1.25 0.875q-0.546875 0.59375 -0.84375 1.484375q-0.296875 0.890625 -0.296875 2.0625q0 1.234375 0.328125 2.125q0.328125 0.875 0.859375 1.421875q0.546875 0.578125 1.265625 0.859375q0.734375 0.28125 1.546875 0.28125q1.125 0 2.09375 -0.375q0.984375 -0.390625 1.828125 -1.15625l0.109375 0l0 1.8125zm9.515625 -3.515625q0 2.125 -1.09375 3.375q-1.09375 1.234375 -2.9375 1.234375q-1.84375 0 -2.9375 -1.234375q-1.09375 -1.25 -1.09375 -3.375q0 -2.140625 1.09375 -3.375q1.09375 -1.234375 2.9375 -1.234375q1.84375 0 2.9375 1.234375q1.09375 1.234375 1.09375 3.375zm-1.515625 0q0 -1.703125 -0.671875 -2.515625q-0.65625 -0.828125 -1.84375 -0.828125q-1.1875 0 -1.859375 0.828125q-0.65625 0.8125 -0.65625 2.515625q0 1.640625 0.65625 2.484375q0.671875 0.84375 1.859375 0.84375q1.171875 0 1.84375 -0.828125q0.671875 -0.84375 0.671875 -2.5zm11.0859375 4.359375l-1.46875 0l0 -4.96875q0 -0.609375 -0.078125 -1.125q-0.0625 -0.53125 -0.25 -0.828125q-0.203125 -0.328125 -0.578125 -0.484375q-0.359375 -0.171875 -0.9375 -0.171875q-0.609375 0 -1.265625 0.296875q-0.65625 0.296875 -1.25 0.765625l0 6.515625l-1.46875 0l0 -8.734375l1.46875 0l0 0.96875q0.6875 -0.5625 1.421875 -0.875q0.734375 -0.328125 1.5 -0.328125q1.421875 0 2.15625 0.859375q0.75 0.84375 0.75 2.4375l0 5.671875zm7.359375 -0.078125q-0.421875 0.109375 -0.90625 0.171875q-0.484375 0.078125 -0.875 0.078125q-1.328125 0 -2.03125 -0.71875q-0.6875 -0.71875 -0.6875 -2.3125l0 -4.640625l-1.0 0l0 -1.234375l1.0 0l0 -2.5l1.46875 0l0 2.5l3.03125 0l0 1.234375l-3.03125 0l0 3.984375q0 0.6875 0.03125 1.078125q0.03125 0.375 0.21875 0.71875q0.171875 0.3125 0.46875 0.453125q0.296875 0.140625 0.921875 0.140625q0.359375 0 0.75 -0.09375q0.390625 -0.109375 0.5625 -0.1875l0.078125 0l0 1.328125zm9.0703125 -4.140625l-6.421875 0q0 0.8125 0.234375 1.40625q0.25 0.59375 0.671875 0.984375q0.40625 0.375 0.953125 0.5625q0.5625 0.1875 1.234375 0.1875q0.890625 0 1.796875 -0.359375q0.90625 -0.359375 1.28125 -0.703125l0.078125 0l0 1.609375q-0.734375 0.3125 -1.515625 0.53125q-0.765625 0.203125 -1.625 0.203125q-2.171875 0 -3.390625 -1.171875q-1.21875 -1.1875 -1.21875 -3.34375q0 -2.140625 1.171875 -3.390625q1.171875 -1.265625 3.078125 -1.265625q1.765625 0 2.71875 1.03125q0.953125 1.03125 0.953125 2.921875l0 0.796875zm-1.421875 -1.125q-0.015625 -1.15625 -0.59375 -1.78125q-0.5625 -0.640625 -1.734375 -0.640625q-1.1875 0 -1.890625 0.703125q-0.6875 0.6875 -0.78125 1.71875l5.0 0zm11.203125 5.34375l-1.84375 0l-2.484375 -3.359375l-2.484375 3.359375l-1.71875 0l3.40625 -4.359375l-3.375 -4.375l1.859375 0l2.453125 3.296875l2.46875 -3.296875l1.71875 0l-3.421875 4.296875l3.421875 4.4375zm6.453125 -0.078125q-0.421875 0.109375 -0.90625 0.171875q-0.484375 0.078125 -0.875 0.078125q-1.328125 0 -2.03125 -0.71875q-0.6875 -0.71875 -0.6875 -2.3125l0 -4.640625l-1.0 0l0 -1.234375l1.0 0l0 -2.5l1.46875 0l0 2.5l3.03125 0l0 1.234375l-3.03125 0l0 3.984375q0 0.6875 0.03125 1.078125q0.03125 0.375 0.21875 0.71875q0.171875 0.3125 0.46875 0.453125q0.296875 0.140625 0.921875 0.140625q0.359375 0 0.75 -0.09375q0.390625 -0.109375 0.5625 -0.1875l0.078125 0l0 1.328125z" fill-rule="nonzero"/><path fill="#d9d9d9" d="m654.4567 279.3832l173.00787 0l0 80.62991l-173.00787 0z" fill-rule="evenodd"/><path stroke="#000000" stroke-width="1.0" stroke-linejoin="round" stroke-linecap="butt" d="m654.4567 279.3832l173.00787 0l0 80.62991l-173.00787 0z" fill-rule="evenodd"/><path fill="#000000" d="m675.6364 325.55817l-1.640625 0l-1.140625 -3.25l-5.03125 0l-1.140625 3.25l-1.578125 0l4.234375 -11.640625l2.0625 0l4.234375 11.640625zm-3.265625 -4.578125l-2.03125 -5.703125l-2.046875 5.703125l4.078125 0zm10.359375 -2.546875l-0.078125 0q-0.328125 -0.078125 -0.640625 -0.109375q-0.296875 -0.046875 -0.71875 -0.046875q-0.6875 0 -1.328125 0.3125q-0.625 0.296875 -1.203125 0.765625l0 6.203125l-1.46875 0l0 -8.734375l1.46875 0l0 1.296875q0.875 -0.703125 1.53125 -1.0q0.671875 -0.296875 1.375 -0.296875q0.375 0 0.546875 0.03125q0.171875 0.015625 0.515625 0.0625l0 1.515625zm6.828125 0l-0.078125 0q-0.328125 -0.078125 -0.640625 -0.109375q-0.296875 -0.046875 -0.71875 -0.046875q-0.6875 0 -1.328125 0.3125q-0.625 0.296875 -1.203125 0.765625l0 6.203125l-1.46875 0l0 -8.734375l1.46875 0l0 1.296875q0.875 -0.703125 1.53125 -1.0q0.671875 -0.296875 1.375 -0.296875q0.375 0 0.546875 0.03125q0.171875 0.015625 0.515625 0.0625l0 1.515625zm7.890625 7.125l-1.46875 0l0 -0.9375q-0.1875 0.140625 -0.53125 0.375q-0.328125 0.234375 -0.640625 0.375q-0.359375 0.1875 -0.84375 0.3125q-0.46875 0.125 -1.109375 0.125q-1.1875 0 -2.015625 -0.78125q-0.8125 -0.796875 -0.8125 -2.0q0 -1.0 0.421875 -1.609375q0.4375 -0.609375 1.21875 -0.96875q0.796875 -0.34375 1.90625 -0.46875q1.125 -0.125 2.40625 -0.1875l0 -0.234375q0 -0.5 -0.171875 -0.828125q-0.171875 -0.328125 -0.5 -0.515625q-0.3125 -0.171875 -0.75 -0.234375q-0.4375 -0.0625 -0.921875 -0.0625q-0.578125 0 -1.296875 0.15625q-0.703125 0.140625 -1.453125 0.4375l-0.078125 0l0 -1.5q0.421875 -0.109375 1.234375 -0.25q0.8125 -0.140625 1.609375 -0.140625q0.921875 0 1.59375 0.15625q0.6875 0.140625 1.1875 0.515625q0.5 0.359375 0.75 0.9375q0.265625 0.5625 0.265625 1.40625l0 5.921875zm-1.46875 -2.15625l0 -2.421875q-0.671875 0.03125 -1.578125 0.109375q-0.90625 0.078125 -1.4375 0.234375q-0.640625 0.171875 -1.03125 0.5625q-0.390625 0.375 -0.390625 1.03125q0 0.75 0.453125 1.140625q0.453125 0.375 1.390625 0.375q0.765625 0 1.40625 -0.296875q0.640625 -0.3125 1.1875 -0.734375zm11.71875 -6.578125l-5.09375 11.953125l-1.578125 0l1.625 -3.640625l-3.46875 -8.3125l1.59375 0l2.671875 6.46875l2.703125 -6.46875l1.546875 0zm8.15625 6.21875q0 1.1875 -1.0 1.96875q-0.984375 0.765625 -2.6875 0.765625q-0.96875 0 -1.78125 -0.234375q-0.8125 -0.234375 -1.359375 -0.515625l0 -1.640625l0.078125 0q0.703125 0.515625 1.546875 0.828125q0.859375 0.3125 1.640625 0.3125q0.96875 0 1.515625 -0.3125q0.546875 -0.3125 0.546875 -0.984375q0 -0.515625 -0.296875 -0.78125q-0.296875 -0.265625 -1.140625 -0.453125q-0.3125 -0.078125 -0.828125 -0.171875q-0.5 -0.09375 -0.90625 -0.203125q-1.15625 -0.296875 -1.640625 -0.890625q-0.46875 -0.59375 -0.46875 -1.453125q0 -0.53125 0.21875 -1.0q0.21875 -0.484375 0.671875 -0.859375q0.4375 -0.375 1.109375 -0.578125q0.6875 -0.21875 1.515625 -0.21875q0.78125 0 1.578125 0.1875q0.8125 0.1875 1.34375 0.46875l0 1.5625l-0.078125 0q-0.5625 -0.40625 -1.375 -0.6875q-0.796875 -0.296875 -1.578125 -0.296875q-0.796875 0 -1.359375 0.3125q-0.546875 0.3125 -0.546875 0.921875q0 0.53125 0.328125 0.8125q0.328125 0.265625 1.0625 0.4375q0.40625 0.09375 0.90625 0.1875q0.515625 0.09375 0.84375 0.171875q1.03125 0.234375 1.578125 0.8125q0.5625 0.578125 0.5625 1.53125zm6.6328125 2.4375q-0.421875 0.109375 -0.90625 0.171875q-0.484375 0.078125 -0.875 0.078125q-1.328125 0 -2.03125 -0.71875q-0.6875 -0.71875 -0.6875 -2.3125l0 -4.640625l-1.0 0l0 -1.234375l1.0 0l0 -2.5l1.46875 0l0 2.5l3.03125 0l0 1.234375l-3.03125 0l0 3.984375q0 0.6875 0.03125 1.078125q0.03125 0.375 0.21875 0.71875q0.171875 0.3125 0.46875 0.453125q0.296875 0.140625 0.921875 0.140625q0.359375 0 0.75 -0.09375q0.390625 -0.109375 0.5625 -0.1875l0.078125 0l0 1.328125zm7.2109375 -7.046875l-0.078125 0q-0.328125 -0.078125 -0.640625 -0.109375q-0.296875 -0.046875 -0.71875 -0.046875q-0.6875 0 -1.328125 0.3125q-0.625 0.296875 -1.203125 0.765625l0 6.203125l-1.46875 0l0 -8.734375l1.46875 0l0 1.296875q0.875 -0.703125 1.53125 -1.0q0.671875 -0.296875 1.375 -0.296875q0.375 0 0.546875 0.03125q0.171875 0.015625 0.515625 0.0625l0 1.515625zm8.625 7.125l-1.46875 0l0 -0.96875q-0.75 0.578125 -1.4375 0.90625q-0.671875 0.3125 -1.484375 0.3125q-1.375 0 -2.140625 -0.84375q-0.765625 -0.84375 -0.765625 -2.46875l0 -5.671875l1.46875 0l0 4.96875q0 0.671875 0.0625 1.140625q0.0625 0.46875 0.265625 0.8125q0.203125 0.34375 0.53125 0.5q0.34375 0.15625 0.984375 0.15625q0.578125 0 1.25 -0.296875q0.671875 -0.296875 1.265625 -0.765625l0 -6.515625l1.46875 0l0 8.734375zm9.34375 -0.546875q-0.734375 0.34375 -1.40625 0.546875q-0.65625 0.203125 -1.390625 0.203125q-0.953125 0 -1.75 -0.28125q-0.78125 -0.28125 -1.34375 -0.84375q-0.5625 -0.5625 -0.875 -1.421875q-0.3125 -0.859375 -0.3125 -2.015625q0 -2.140625 1.171875 -3.359375q1.171875 -1.21875 3.109375 -1.21875q0.75 0 1.46875 0.21875q0.71875 0.203125 1.328125 0.515625l0 1.625l-0.078125 0q-0.671875 -0.515625 -1.390625 -0.796875q-0.71875 -0.28125 -1.390625 -0.28125q-1.25 0 -1.984375 0.84375q-0.71875 0.828125 -0.71875 2.453125q0 1.578125 0.703125 2.4375q0.71875 0.84375 2.0 0.84375q0.4375 0 0.890625 -0.109375q0.46875 -0.125 0.84375 -0.3125q0.3125 -0.171875 0.59375 -0.34375q0.28125 -0.1875 0.453125 -0.328125l0.078125 0l0 1.625zm6.4140625 0.46875q-0.421875 0.109375 -0.90625 0.171875q-0.484375 0.078125 -0.875 0.078125q-1.328125 0 -2.03125 -0.71875q-0.6875 -0.71875 -0.6875 -2.3125l0 -4.640625l-1.0 0l0 -1.234375l1.0 0l0 -2.5l1.46875 0l0 2.5l3.03125 0l0 1.234375l-3.03125 0l0 3.984375q0 0.6875 0.03125 1.078125q0.03125 0.375 0.21875 0.71875q0.171875 0.3125 0.46875 0.453125q0.296875 0.140625 0.921875 0.140625q0.359375 0 0.75 -0.09375q0.390625 -0.109375 0.5625 -0.1875l0.078125 0l0 1.328125zm10.8671875 -0.765625q-0.421875 0.1875 -0.78125 0.359375q-0.34375 0.15625 -0.90625 0.328125q-0.46875 0.15625 -1.03125 0.265625q-0.5625 0.109375 -1.234375 0.109375q-1.265625 0 -2.296875 -0.359375q-1.03125 -0.359375 -1.796875 -1.125q-0.75 -0.734375 -1.171875 -1.875q-0.421875 -1.15625 -0.421875 -2.671875q0 -1.4375 0.40625 -2.5625q0.40625 -1.140625 1.171875 -1.921875q0.734375 -0.75 1.78125 -1.140625q1.0625 -0.40625 2.34375 -0.40625q0.9375 0 1.859375 0.234375q0.9375 0.21875 2.078125 0.78125l0 1.84375l-0.109375 0q-0.96875 -0.8125 -1.921875 -1.171875q-0.9375 -0.375 -2.015625 -0.375q-0.875 0 -1.59375 0.296875q-0.703125 0.28125 -1.25 0.875q-0.546875 0.59375 -0.84375 1.484375q-0.296875 0.890625 -0.296875 2.0625q0 1.234375 0.328125 2.125q0.328125 0.875 0.859375 1.421875q0.546875 0.578125 1.265625 0.859375q0.734375 0.28125 1.546875 0.28125q1.125 0 2.09375 -0.375q0.984375 -0.390625 1.828125 -1.15625l0.109375 0l0 1.8125zm9.515625 -3.515625q0 2.125 -1.09375 3.375q-1.09375 1.234375 -2.9375 1.234375q-1.84375 0 -2.9375 -1.234375q-1.09375 -1.25 -1.09375 -3.375q0 -2.140625 1.09375 -3.375q1.09375 -1.234375 2.9375 -1.234375q1.84375 0 2.9375 1.234375q1.09375 1.234375 1.09375 3.375zm-1.515625 0q0 -1.703125 -0.671875 -2.515625q-0.65625 -0.828125 -1.84375 -0.828125q-1.1875 0 -1.859375 0.828125q-0.65625 0.8125 -0.65625 2.515625q0 1.640625 0.65625 2.484375q0.671875 0.84375 1.859375 0.84375q1.171875 0 1.84375 -0.828125q0.671875 -0.84375 0.671875 -2.5zm11.0859375 4.359375l-1.46875 0l0 -4.96875q0 -0.609375 -0.078125 -1.125q-0.0625 -0.53125 -0.25 -0.828125q-0.203125 -0.328125 -0.578125 -0.484375q-0.359375 -0.171875 -0.9375 -0.171875q-0.609375 0 -1.265625 0.296875q-0.65625 0.296875 -1.25 0.765625l0 6.515625l-1.46875 0l0 -8.734375l1.46875 0l0 0.96875q0.6875 -0.5625 1.421875 -0.875q0.734375 -0.328125 1.5 -0.328125q1.421875 0 2.15625 0.859375q0.75 0.84375 0.75 2.4375l0 5.671875zm7.359375 -0.078125q-0.421875 0.109375 -0.90625 0.171875q-0.484375 0.078125 -0.875 0.078125q-1.328125 0 -2.03125 -0.71875q-0.6875 -0.71875 -0.6875 -2.3125l0 -4.640625l-1.0 0l0 -1.234375l1.0 0l0 -2.5l1.46875 0l0 2.5l3.03125 0l0 1.234375l-3.03125 0l0 3.984375q0 0.6875 0.03125 1.078125q0.03125 0.375 0.21875 0.71875q0.171875 0.3125 0.46875 0.453125q0.296875 0.140625 0.921875 0.140625q0.359375 0 0.75 -0.09375q0.390625 -0.109375 0.5625 -0.1875l0.078125 0l0 1.328125zm9.0703125 -4.140625l-6.421875 0q0 0.8125 0.234375 1.40625q0.25 0.59375 0.671875 0.984375q0.40625 0.375 0.953125 0.5625q0.5625 0.1875 1.234375 0.1875q0.890625 0 1.796875 -0.359375q0.90625 -0.359375 1.28125 -0.703125l0.078125 0l0 1.609375q-0.734375 0.3125 -1.515625 0.53125q-0.765625 0.203125 -1.625 0.203125q-2.171875 0 -3.390625 -1.171875q-1.21875 -1.1875 -1.21875 -3.34375q0 -2.140625 1.171875 -3.390625q1.171875 -1.265625 3.078125 -1.265625q1.765625 0 2.71875 1.03125q0.953125 1.03125 0.953125 2.921875l0 0.796875zm-1.421875 -1.125q-0.015625 -1.15625 -0.59375 -1.78125q-0.5625 -0.640625 -1.734375 -0.640625q-1.1875 0 -1.890625 0.703125q-0.6875 0.6875 -0.78125 1.71875l5.0 0zm11.203125 5.34375l-1.84375 0l-2.484375 -3.359375l-2.484375 3.359375l-1.71875 0l3.40625 -4.359375l-3.375 -4.375l1.859375 0l2.453125 3.296875l2.46875 -3.296875l1.71875 0l-3.421875 4.296875l3.421875 4.4375zm6.453125 -0.078125q-0.421875 0.109375 -0.90625 0.171875q-0.484375 0.078125 -0.875 0.078125q-1.328125 0 -2.03125 -0.71875q-0.6875 -0.71875 -0.6875 -2.3125l0 -4.640625l-1.0 0l0 -1.234375l1.0 0l0 -2.5l1.46875 0l0 2.5l3.03125 0l0 1.234375l-3.03125 0l0 3.984375q0 0.6875 0.03125 1.078125q0.03125 0.375 0.21875 0.71875q0.171875 0.3125 0.46875 0.453125q0.296875 0.140625 0.921875 0.140625q0.359375 0 0.75 -0.09375q0.390625 -0.109375 0.5625 -0.1875l0.078125 0l0 1.328125z" fill-rule="nonzero"/><path fill="#000000" fill-opacity="0.0" d="m512.0066 120.678474l127.968445 0" fill-rule="evenodd"/><path stroke="#000000" stroke-width="1.0" stroke-linejoin="round" stroke-linecap="butt" d="m512.0066 120.678474l127.968445 0" fill-rule="evenodd"/><path fill="#000000" fill-opacity="0.0" d="m740.89764 161.021l0 59.181107l0.06298828 0l0 59.181107" fill-rule="evenodd"/><path stroke="#000000" stroke-width="1.0" stroke-linejoin="round" stroke-linecap="butt" stroke-dasharray="4.0,3.0" d="m740.89764 161.021l0 59.181107l0.06298828 0l0 59.181107" fill-rule="evenodd"/><path fill="#000000" fill-opacity="0.0" d="m740.9908 160.99475l0 11.682465l-97.480286 0l0 11.687607" fill-rule="evenodd"/><path stroke="#000000" stroke-width="1.0" stroke-linejoin="round" stroke-linecap="butt" stroke-dasharray="4.0,3.0" d="m740.9908 160.99475l0 11.682465l-97.480286 0l0 11.687607" fill-rule="evenodd"/><path fill="#000000" fill-opacity="0.0" d="m740.9908 160.99475l0 11.682465l97.385864 0l0 11.687607" fill-rule="evenodd"/><path stroke="#000000" stroke-width="1.0" stroke-linejoin="round" stroke-linecap="butt" stroke-dasharray="4.0,3.0" d="m740.9908 160.99475l0 11.682465l97.385864 0l0 11.687607" fill-rule="evenodd"/></g></svg>