<svg version="1.1" viewBox="0.0 0.0 980.8845144356956 525.7454068241469" fill="none" stroke="none" stroke-linecap="square" stroke-miterlimit="10" xmlns:xlink="http://www.w3.org/1999/xlink" xmlns="http://www.w3.org/2000/svg"><clipPath id="p.0"><path d="m0 0l980.8845 0l0 525.7454l-980.8845 0l0 -525.7454z" clip-rule="nonzero"/></clipPath><g clip-path="url(#p.0)"><path fill="#000000" fill-opacity="0.0" d="m0 0l980.8845 0l0 525.7454l-980.8845 0z" fill-rule="evenodd"/><path fill="#d0e0e3" d="m9.0 19.0l196.0 0l0 129.00787l-196.0 0z" fill-rule="evenodd"/><path stroke="#000000" stroke-width="1.0" stroke-linejoin="round" stroke-linecap="butt" d="m9.0 19.0l196.0 0l0 129.00787l-196.0 0z" fill-rule="evenodd"/><path fill="#000000" d="m65.44293 79.423935l-5.359375 0l0 -1.390625l1.78125 0l0 -10.78125l-1.78125 0l0 -1.390625l5.359375 0l0 1.390625l-1.78125 0l0 10.78125l1.78125 0l0 1.390625zm15.149261 0l-1.8125 0l0 -11.6875l-3.765625 7.953125l-1.078125 0l-3.75 -7.953125l0 11.6875l-1.671875 0l0 -13.5625l2.453125 0l3.609375 7.546875l3.5 -7.546875l2.515625 0l0 13.5625zm14.332367 0l-1.921875 0l-1.328125 -3.78125l-5.875 0l-1.328125 3.78125l-1.828125 0l4.9375 -13.5625l2.40625 0l4.9375 13.5625zm-3.8125 -5.328125l-2.375 -6.65625l-2.390625 6.65625l4.765625 0zm15.630905 1.453125q0 0.796875 -0.375 1.578125q-0.359375 0.765625 -1.015625 1.296875q-0.734375 0.59375 -1.703125 0.921875q-0.96875 0.328125 -2.34375 0.328125q-1.46875 0 -2.640625 -0.265625q-1.15625 -0.28125 -2.375 -0.828125l0 -2.25l0.125 0q1.03125 0.859375 2.375 1.328125q1.359375 0.453125 2.546875 0.453125q1.671875 0 2.59375 -0.625q0.9375 -0.625 0.9375 -1.671875q0 -0.90625 -0.4375 -1.328125q-0.4375 -0.4375 -1.34375 -0.671875q-0.6875 -0.1875 -1.484375 -0.296875q-0.796875 -0.125 -1.6875 -0.3125q-1.796875 -0.375 -2.671875 -1.296875q-0.875 -0.921875 -0.875 -2.40625q0 -1.71875 1.4375 -2.796875q1.453125 -1.09375 3.65625 -1.09375q1.4375 0 2.625 0.28125q1.203125 0.265625 2.109375 0.671875l0 2.125l-0.125 0q-0.765625 -0.65625 -2.03125 -1.078125q-1.265625 -0.4375 -2.578125 -0.4375q-1.453125 0 -2.34375 0.609375q-0.875 0.59375 -0.875 1.53125q0 0.859375 0.4375 1.34375q0.4375 0.46875 1.546875 0.734375q0.578125 0.125 1.65625 0.3125q1.078125 0.171875 1.828125 0.375q1.5 0.390625 2.265625 1.203125q0.765625 0.8125 0.765625 2.265625zm19.671509 -1.578125q0 1.484375 -0.328125 2.578125q-0.3125 1.09375 -1.046875 1.828125q-0.703125 0.6875 -1.640625 1.015625q-0.9375 0.3125 -2.1875 0.3125q-1.28125 0 -2.234375 -0.328125q-0.9375 -0.34375 -1.59375 -1.0q-0.734375 -0.75 -1.0625 -1.796875q-0.3125 -1.0625 -0.3125 -2.609375l0 -8.109375l1.796875 0l0 8.203125q0 1.109375 0.140625 1.75q0.15625 0.625 0.515625 1.15625q0.40625 0.578125 1.09375 0.890625q0.6875 0.296875 1.65625 0.296875q0.96875 0 1.65625 -0.296875q0.6875 -0.296875 1.09375 -0.890625q0.34375 -0.53125 0.5 -1.1875q0.15625 -0.671875 0.15625 -1.671875l0 -8.25l1.796875 0l0 8.109375zm14.905136 -1.3125q0 1.84375 -0.8125 3.359375q-0.796875 1.5 -2.140625 2.328125q-0.921875 0.5625 -2.078125 0.828125q-1.140625 0.25 -3.0 0.25l-3.421875 0l0 -13.5625l3.375 0q2.0 0 3.15625 0.296875q1.171875 0.28125 1.984375 0.78125q1.390625 0.859375 2.15625 2.296875q0.78125 1.4375 0.78125 3.421875zm-1.890625 -0.03125q0 -1.59375 -0.5625 -2.6875q-0.546875 -1.09375 -1.640625 -1.71875q-0.8125 -0.453125 -1.71875 -0.625q-0.890625 -0.1875 -2.15625 -0.1875l-1.6875 0l0 10.46875l1.6875 0q1.3125 0 2.28125 -0.1875q0.96875 -0.203125 1.78125 -0.71875q1.015625 -0.640625 1.515625 -1.6875q0.5 -1.0625 0.5 -2.65625zm15.499786 6.796875l-1.921875 0l-1.328125 -3.78125l-5.875 0l-1.328125 3.78125l-1.828125 0l4.9375 -13.5625l2.40625 0l4.9375 13.5625zm-3.8125 -5.328125l-2.375 -6.65625l-2.390625 6.65625l4.765625 0z" fill-rule="nonzero"/><path fill="#000000" d="m79.48894 97.25206q0 1.015625 -0.390625 1.796875q-0.375 0.765625 -1.015625 1.265625q-0.765625 0.59375 -1.6875 0.859375q-0.90625 0.25 -2.328125 0.25l-4.796875 0l0 -13.5625l4.015625 0q1.484375 0 2.21875 0.109375q0.734375 0.109375 1.40625 0.453125q0.75 0.390625 1.078125 1.015625q0.34375 0.609375 0.34375 1.46875q0 0.953125 -0.5 1.640625q-0.484375 0.671875 -1.296875 1.09375l0 0.0625q1.375 0.28125 2.15625 1.21875q0.796875 0.921875 0.796875 2.328125zm-3.03125 -6.109375q0 -0.5 -0.171875 -0.828125q-0.15625 -0.34375 -0.515625 -0.546875q-0.4375 -0.25 -1.046875 -0.3125q-0.609375 -0.0625 -1.5 -0.0625l-2.15625 0l0 3.921875l2.328125 0q0.859375 0 1.359375 -0.078125q0.5 -0.09375 0.921875 -0.359375q0.421875 -0.28125 0.59375 -0.703125q0.1875 -0.4375 0.1875 -1.03125zm1.15625 6.1875q0 -0.828125 -0.25 -1.3125q-0.234375 -0.484375 -0.890625 -0.8125q-0.4375 -0.234375 -1.0625 -0.296875q-0.625 -0.078125 -1.515625 -0.078125l-2.828125 0l0 5.046875l2.390625 0q1.1875 0 1.9375 -0.109375q0.75 -0.125 1.234375 -0.453125q0.515625 -0.359375 0.75 -0.8125q0.234375 -0.453125 0.234375 -1.171875zm12.211609 4.09375l-1.703125 0l0 -1.078125q-0.234375 0.15625 -0.625 0.4375q-0.375 0.265625 -0.75 0.4375q-0.421875 0.203125 -0.984375 0.34375q-0.546875 0.140625 -1.296875 0.140625q-1.375 0 -2.328125 -0.90625q-0.953125 -0.921875 -0.953125 -2.328125q0 -1.15625 0.484375 -1.859375q0.5 -0.71875 1.421875 -1.140625q0.9375 -0.40625 2.234375 -0.546875q1.296875 -0.15625 2.796875 -0.21875l0 -0.265625q0 -0.578125 -0.203125 -0.953125q-0.203125 -0.390625 -0.59375 -0.609375q-0.359375 -0.21875 -0.875 -0.28125q-0.5 -0.078125 -1.0625 -0.078125q-0.671875 0 -1.5 0.1875q-0.828125 0.171875 -1.71875 0.5l-0.09375 0l0 -1.734375q0.5 -0.140625 1.453125 -0.296875q0.953125 -0.171875 1.875 -0.171875q1.0625 0 1.859375 0.1875q0.796875 0.171875 1.390625 0.59375q0.5625 0.421875 0.859375 1.09375q0.3125 0.65625 0.3125 1.640625l0 6.90625zm-1.703125 -2.5l0 -2.84375q-0.78125 0.046875 -1.84375 0.140625q-1.0625 0.09375 -1.6875 0.265625q-0.734375 0.203125 -1.1875 0.65625q-0.453125 0.4375 -0.453125 1.21875q0 0.859375 0.515625 1.3125q0.53125 0.4375 1.625 0.4375q0.890625 0 1.640625 -0.34375q0.75 -0.359375 1.390625 -0.84375zm12.517181 1.859375q-0.84375 0.40625 -1.625 0.640625q-0.765625 0.234375 -1.625 0.234375q-1.109375 0 -2.03125 -0.328125q-0.921875 -0.328125 -1.578125 -0.984375q-0.65625 -0.65625 -1.03125 -1.65625q-0.359375 -1.0 -0.359375 -2.34375q0 -2.484375 1.375 -3.90625q1.375 -1.421875 3.625 -1.421875q0.875 0 1.71875 0.25q0.84375 0.234375 1.53125 0.59375l0 1.90625l-0.078125 0q-0.796875 -0.609375 -1.625 -0.9375q-0.828125 -0.328125 -1.625 -0.328125q-1.453125 0 -2.296875 0.984375q-0.84375 0.96875 -0.84375 2.859375q0 1.84375 0.8125 2.84375q0.828125 0.984375 2.328125 0.984375q0.515625 0 1.046875 -0.140625q0.546875 -0.140625 0.96875 -0.359375q0.375 -0.1875 0.703125 -0.40625q0.328125 -0.21875 0.53125 -0.359375l0.078125 0l0 1.875zm11.438583 0.640625l-2.265625 0l-4.078125 -4.453125l-1.109375 1.0625l0 3.390625l-1.703125 0l0 -14.171875l1.703125 0l0 9.09375l4.953125 -5.09375l2.15625 0l-4.734375 4.703125l5.078125 5.46875zm10.139664 -4.90625l-7.5 0q0 0.9375 0.28125 1.640625q0.28125 0.6875 0.78125 1.140625q0.46875 0.4375 1.109375 0.65625q0.65625 0.21875 1.453125 0.21875q1.03125 0 2.078125 -0.421875q1.0625 -0.421875 1.5 -0.8125l0.09375 0l0 1.859375q-0.859375 0.375 -1.765625 0.625q-0.90625 0.234375 -1.890625 0.234375q-2.53125 0 -3.953125 -1.359375q-1.421875 -1.375 -1.421875 -3.90625q0 -2.5 1.359375 -3.953125q1.359375 -1.46875 3.578125 -1.46875q2.0625 0 3.171875 1.203125q1.125 1.203125 1.125 3.40625l0 0.9375zm-1.671875 -1.3125q0 -1.34375 -0.671875 -2.078125q-0.671875 -0.75 -2.03125 -0.75q-1.375 0 -2.203125 0.8125q-0.8125 0.8125 -0.921875 2.015625l5.828125 0zm12.769836 6.21875l-1.703125 0l0 -5.796875q0 -0.703125 -0.09375 -1.3125q-0.078125 -0.609375 -0.296875 -0.96875q-0.21875 -0.375 -0.65625 -0.5625q-0.421875 -0.1875 -1.109375 -0.1875q-0.703125 0 -1.46875 0.34375q-0.765625 0.34375 -1.46875 0.890625l0 7.59375l-1.703125 0l0 -10.171875l1.703125 0l0 1.125q0.8125 -0.65625 1.65625 -1.03125q0.859375 -0.375 1.765625 -0.375q1.65625 0 2.515625 1.0q0.859375 0.984375 0.859375 2.84375l0 6.609375zm11.555908 0l-1.71875 0l0 -1.0625q-0.734375 0.640625 -1.53125 1.0q-0.796875 0.34375 -1.734375 0.34375q-1.828125 0 -2.90625 -1.390625q-1.0625 -1.40625 -1.0625 -3.90625q0 -1.28125 0.359375 -2.296875q0.375 -1.015625 1.0 -1.71875q0.625 -0.703125 1.453125 -1.0625q0.828125 -0.359375 1.703125 -0.359375q0.796875 0 1.421875 0.171875q0.625 0.15625 1.296875 0.515625l0 -4.40625l1.71875 0l0 14.171875zm-1.71875 -2.5l0 -5.84375q-0.6875 -0.3125 -1.234375 -0.421875q-0.546875 -0.125 -1.1875 -0.125q-1.4375 0 -2.25 1.0q-0.796875 1.0 -0.796875 2.84375q0 1.8125 0.609375 2.765625q0.625 0.9375 2.0 0.9375q0.71875 0 1.46875 -0.328125q0.75 -0.328125 1.390625 -0.828125z" fill-rule="nonzero"/><path fill="#fff2cc" d="m288.0 19.0l196.0 0l0 129.00787l-196.0 0z" fill-rule="evenodd"/><path stroke="#000000" stroke-width="1.0" stroke-linejoin="round" stroke-linecap="butt" d="m288.0 19.0l196.0 0l0 129.00787l-196.0 0z" fill-rule="evenodd"/><path fill="#000000" d="m336.28537 90.423935l-5.359375 0l0 -1.390625l1.78125 0l0 -10.78125l-1.78125 0l0 -1.390625l5.359375 0l0 1.390625l-1.78125 0l0 10.78125l1.78125 0l0 1.390625zm15.149261 0l-1.8125 0l0 -11.6875l-3.765625 7.953125l-1.078125 0l-3.75 -7.953125l0 11.6875l-1.671875 0l0 -13.5625l2.453125 0l3.609375 7.546875l3.5 -7.546875l2.515625 0l0 13.5625zm14.332367 0l-1.921875 0l-1.328125 -3.78125l-5.875 0l-1.328125 3.78125l-1.828125 0l4.9375 -13.5625l2.40625 0l4.9375 13.5625zm-3.8125 -5.328125l-2.375 -6.65625l-2.390625 6.65625l4.765625 0zm15.63092 1.453125q0 0.796875 -0.375 1.578125q-0.359375 0.765625 -1.015625 1.296875q-0.734375 0.59375 -1.703125 0.921875q-0.96875 0.328125 -2.34375 0.328125q-1.46875 0 -2.640625 -0.265625q-1.15625 -0.28125 -2.375 -0.828125l0 -2.25l0.125 0q1.03125 0.859375 2.375 1.328125q1.359375 0.453125 2.546875 0.453125q1.671875 0 2.59375 -0.625q0.9375 -0.625 0.9375 -1.671875q0 -0.90625 -0.4375 -1.328125q-0.4375 -0.4375 -1.34375 -0.671875q-0.6875 -0.1875 -1.484375 -0.296875q-0.796875 -0.125 -1.6875 -0.3125q-1.796875 -0.375 -2.671875 -1.296875q-0.875 -0.921875 -0.875 -2.40625q0 -1.71875 1.4375 -2.796875q1.453125 -1.09375 3.65625 -1.09375q1.4375 0 2.625 0.28125q1.203125 0.265625 2.109375 0.671875l0 2.125l-0.125 0q-0.765625 -0.65625 -2.03125 -1.078125q-1.265625 -0.4375 -2.578125 -0.4375q-1.453125 0 -2.34375 0.609375q-0.875 0.59375 -0.875 1.53125q0 0.859375 0.4375 1.34375q0.4375 0.46875 1.546875 0.734375q0.578125 0.125 1.65625 0.3125q1.078125 0.171875 1.828125 0.375q1.5 0.390625 2.265625 1.203125q0.765625 0.8125 0.765625 2.265625zm18.280884 -1.328125q0 1.234375 -0.359375 2.265625q-0.359375 1.015625 -1.0 1.71875q-0.59375 0.6875 -1.421875 1.0625q-0.8125 0.359375 -1.71875 0.359375q-0.796875 0 -1.4375 -0.171875q-0.640625 -0.171875 -1.3125 -0.546875l0 4.265625l-1.703125 0l0 -13.921875l1.703125 0l0 1.0625q0.6875 -0.578125 1.53125 -0.953125q0.859375 -0.390625 1.828125 -0.390625q1.84375 0 2.859375 1.390625q1.03125 1.390625 1.03125 3.859375zm-1.765625 0.03125q0 -1.828125 -0.640625 -2.734375q-0.625 -0.921875 -1.921875 -0.921875q-0.734375 0 -1.484375 0.328125q-0.75 0.3125 -1.4375 0.828125l0 5.765625q0.734375 0.328125 1.25 0.453125q0.53125 0.109375 1.203125 0.109375q1.421875 0 2.21875 -0.953125q0.8125 -0.96875 0.8125 -2.875zm6.1705933 5.171875l-1.71875 0l0 -14.171875l1.71875 0l0 14.171875zm11.822662 0l-1.71875 0l0 -1.125q-0.859375 0.671875 -1.65625 1.046875q-0.796875 0.359375 -1.75 0.359375q-1.609375 0 -2.5 -0.96875q-0.890625 -0.984375 -0.890625 -2.890625l0 -6.59375l1.71875 0l0 5.796875q0 0.765625 0.0625 1.328125q0.078125 0.546875 0.3125 0.9375q0.25 0.390625 0.640625 0.578125q0.390625 0.1875 1.140625 0.1875q0.671875 0 1.453125 -0.34375q0.78125 -0.359375 1.46875 -0.890625l0 -7.59375l1.71875 0l0 10.171875zm11.618408 -1.15625q0 2.59375 -1.171875 3.796875q-1.171875 1.21875 -3.625 1.21875q-0.796875 0 -1.578125 -0.125q-0.765625 -0.109375 -1.515625 -0.3125l0 -1.75l0.09375 0q0.421875 0.15625 1.328125 0.390625q0.90625 0.25 1.828125 0.25q0.875 0 1.4375 -0.21875q0.578125 -0.203125 0.90625 -0.578125q0.3125 -0.34375 0.4375 -0.859375q0.140625 -0.5 0.140625 -1.109375l0 -0.9375q-0.765625 0.625 -1.46875 0.9375q-0.703125 0.296875 -1.796875 0.296875q-1.828125 0 -2.90625 -1.3125q-1.0625 -1.3125 -1.0625 -3.71875q0 -1.3125 0.359375 -2.265625q0.375 -0.953125 1.015625 -1.640625q0.59375 -0.640625 1.4375 -1.0q0.84375 -0.359375 1.6875 -0.359375q0.890625 0 1.484375 0.171875q0.59375 0.171875 1.25 0.546875l0.109375 -0.4375l1.609375 0l0 9.015625zm-1.71875 -1.640625l0 -5.546875q-0.671875 -0.3125 -1.265625 -0.4375q-0.578125 -0.140625 -1.171875 -0.140625q-1.40625 0 -2.21875 0.953125q-0.8125 0.953125 -0.8125 2.75q0 1.71875 0.59375 2.609375q0.609375 0.875 2.0 0.875q0.75 0 1.5 -0.28125q0.75 -0.296875 1.375 -0.78125zm6.9362183 -9.078125l-1.9375 0l0 -1.78125l1.9375 0l0 1.78125zm-0.109375 11.875l-1.71875 0l0 -10.171875l1.71875 0l0 10.171875zm11.885162 0l-1.703125 0l0 -5.796875q0 -0.703125 -0.09375 -1.3125q-0.078125 -0.609375 -0.296875 -0.96875q-0.21875 -0.375 -0.65625 -0.5625q-0.421875 -0.1875 -1.109375 -0.1875q-0.703125 0 -1.46875 0.34375q-0.765625 0.34375 -1.46875 0.890625l0 7.59375l-1.703125 0l0 -10.171875l1.703125 0l0 1.125q0.8125 -0.65625 1.65625 -1.03125q0.859375 -0.375 1.765625 -0.375q1.65625 0 2.515625 1.0q0.859375 0.984375 0.859375 2.84375l0 6.609375z" fill-rule="nonzero"/><path fill="#d0e0e3" d="m557.0 19.0l196.0 0l0 129.00787l-196.0 0z" fill-rule="evenodd"/><path stroke="#000000" stroke-width="1.0" stroke-linejoin="round" stroke-linecap="butt" d="m557.0 19.0l196.0 0l0 129.00787l-196.0 0z" fill-rule="evenodd"/><path fill="#000000" d="m642.5169 90.423935l-1.703125 0l0 -1.078125q-0.234375 0.15625 -0.625 0.4375q-0.375 0.265625 -0.75 0.4375q-0.421875 0.203125 -0.984375 0.34375q-0.546875 0.140625 -1.296875 0.140625q-1.375 0 -2.328125 -0.90625q-0.953125 -0.921875 -0.953125 -2.328125q0 -1.15625 0.484375 -1.859375q0.5 -0.71875 1.421875 -1.140625q0.9375 -0.40625 2.234375 -0.546875q1.296875 -0.15625 2.796875 -0.21875l0 -0.265625q0 -0.578125 -0.203125 -0.953125q-0.203125 -0.390625 -0.59375 -0.609375q-0.359375 -0.21875 -0.875 -0.28125q-0.5 -0.078125 -1.0625 -0.078125q-0.671875 0 -1.5 0.1875q-0.828125 0.171875 -1.71875 0.5l-0.09375 0l0 -1.734375q0.5 -0.140625 1.453125 -0.296875q0.953125 -0.171875 1.875 -0.171875q1.0625 0 1.859375 0.1875q0.796875 0.171875 1.390625 0.59375q0.5625 0.421875 0.859375 1.09375q0.3125 0.65625 0.3125 1.640625l0 6.90625zm-1.703125 -2.5l0 -2.84375q-0.78125 0.046875 -1.84375 0.140625q-1.0625 0.09375 -1.6875 0.265625q-0.734375 0.203125 -1.1875 0.65625q-0.453125 0.4375 -0.453125 1.21875q0 0.859375 0.515625 1.3125q0.53125 0.4375 1.625 0.4375q0.890625 0 1.640625 -0.34375q0.75 -0.359375 1.390625 -0.84375zm6.735901 2.5l-1.71875 0l0 -14.171875l1.71875 0l0 14.171875zm6.182068 0l-2.171875 0l0 -2.59375l2.171875 0l0 2.59375zm11.25531 -2.9375q0 1.390625 -1.15625 2.296875q-1.140625 0.890625 -3.140625 0.890625q-1.125 0 -2.078125 -0.265625q-0.9375 -0.28125 -1.578125 -0.59375l0 -1.921875l0.09375 0q0.8125 0.609375 1.796875 0.96875q1.0 0.359375 1.90625 0.359375q1.140625 0 1.765625 -0.359375q0.640625 -0.375 0.640625 -1.15625q0 -0.59375 -0.34375 -0.90625q-0.34375 -0.3125 -1.328125 -0.53125q-0.359375 -0.078125 -0.953125 -0.1875q-0.59375 -0.109375 -1.078125 -0.234375q-1.328125 -0.359375 -1.890625 -1.046875q-0.5625 -0.6875 -0.5625 -1.6875q0 -0.625 0.25 -1.1875q0.265625 -0.5625 0.796875 -0.984375q0.515625 -0.4375 1.296875 -0.6875q0.796875 -0.25 1.765625 -0.25q0.90625 0 1.84375 0.234375q0.9375 0.21875 1.546875 0.53125l0 1.828125l-0.078125 0q-0.65625 -0.484375 -1.59375 -0.8125q-0.9375 -0.328125 -1.84375 -0.328125q-0.9375 0 -1.59375 0.359375q-0.640625 0.359375 -0.640625 1.0625q0 0.625 0.390625 0.953125q0.390625 0.3125 1.234375 0.515625q0.484375 0.109375 1.0625 0.21875q0.59375 0.109375 0.984375 0.203125q1.1875 0.265625 1.84375 0.9375q0.640625 0.671875 0.640625 1.78125zm11.126099 -2.140625q0 2.484375 -1.28125 3.921875q-1.265625 1.4375 -3.40625 1.4375q-2.171875 0 -3.4375 -1.4375q-1.265625 -1.4375 -1.265625 -3.921875q0 -2.484375 1.265625 -3.921875q1.265625 -1.453125 3.4375 -1.453125q2.140625 0 3.40625 1.453125q1.28125 1.4375 1.28125 3.921875zm-1.765625 0q0 -1.984375 -0.78125 -2.9375q-0.765625 -0.96875 -2.140625 -0.96875q-1.40625 0 -2.171875 0.96875q-0.765625 0.953125 -0.765625 2.9375q0 1.90625 0.765625 2.90625q0.78125 0.984375 2.171875 0.984375q1.359375 0 2.140625 -0.984375q0.78125 -0.984375 0.78125 -2.90625z" fill-rule="nonzero"/><path fill="#fff2cc" d="m288.0 195.0l196.0 0l0 129.00787l-196.0 0z" fill-rule="evenodd"/><path stroke="#000000" stroke-width="1.0" stroke-linejoin="round" stroke-linecap="butt" d="m288.0 195.0l196.0 0l0 129.00787l-196.0 0z" fill-rule="evenodd"/><path fill="#000000" d="m324.0065 251.89268q0 1.796875 -1.09375 2.765625q-1.078125 0.953125 -2.921875 0.953125q-0.4375 0 -1.171875 -0.078125q-0.71875 -0.078125 -1.203125 -0.1875l0 -1.6875l0.09375 0q0.375 0.140625 0.921875 0.28125q0.546875 0.125 1.125 0.125q0.828125 0 1.328125 -0.1875q0.5 -0.1875 0.734375 -0.546875q0.25 -0.359375 0.3125 -0.890625q0.0625 -0.53125 0.0625 -1.21875l0 -7.921875l-2.859375 0l0 -1.4375l4.671875 0l0 10.03125zm13.355957 -0.34375q0 0.796875 -0.375 1.578125q-0.359375 0.765625 -1.015625 1.296875q-0.734375 0.59375 -1.703125 0.921875q-0.96875 0.328125 -2.34375 0.328125q-1.46875 0 -2.640625 -0.265625q-1.15625 -0.28125 -2.375 -0.828125l0 -2.25l0.125 0q1.03125 0.859375 2.375 1.328125q1.359375 0.453125 2.546875 0.453125q1.671875 0 2.59375 -0.625q0.9375 -0.625 0.9375 -1.671875q0 -0.90625 -0.4375 -1.328125q-0.4375 -0.4375 -1.34375 -0.671875q-0.6875 -0.1875 -1.484375 -0.296875q-0.796875 -0.125 -1.6875 -0.3125q-1.796875 -0.375 -2.671875 -1.296875q-0.875 -0.921875 -0.875 -2.40625q0 -1.71875 1.4375 -2.796875q1.453125 -1.09375 3.65625 -1.09375q1.4375 0 2.625 0.28125q1.203125 0.265625 2.109375 0.671875l0 2.125l-0.125 0q-0.765625 -0.65625 -2.03125 -1.078125q-1.265625 -0.4375 -2.578125 -0.4375q-1.453125 0 -2.34375 0.609375q-0.875 0.59375 -0.875 1.53125q0 0.859375 0.4375 1.34375q0.4375 0.46875 1.546875 0.734375q0.578125 0.125 1.65625 0.3125q1.078125 0.171875 1.828125 0.375q1.5 0.390625 2.265625 1.203125q0.765625 0.8125 0.765625 2.265625zm13.018921 -8.125q0.828125 0.90625 1.265625 2.234375q0.4375 1.3125 0.4375 2.984375q0 1.6875 -0.453125 3.015625q-0.4375 1.3125 -1.25 2.203125q-0.84375 0.921875 -1.984375 1.390625q-1.140625 0.453125 -2.609375 0.453125q-1.4375 0 -2.609375 -0.46875q-1.15625 -0.484375 -1.984375 -1.375q-0.8125 -0.90625 -1.265625 -2.21875q-0.4375 -1.3125 -0.4375 -3.0q0 -1.65625 0.4375 -2.96875q0.4375 -1.3125 1.28125 -2.25q0.796875 -0.90625 1.984375 -1.375q1.1875 -0.46875 2.59375 -0.46875q1.453125 0 2.609375 0.484375q1.171875 0.46875 1.984375 1.359375zm-0.171875 5.21875q0 -2.640625 -1.1875 -4.0625q-1.171875 -1.4375 -3.234375 -1.4375q-2.0625 0 -3.25 1.4375q-1.171875 1.421875 -1.171875 4.0625q0 2.671875 1.203125 4.09375q1.203125 1.40625 3.21875 1.40625q2.03125 0 3.21875 -1.40625q1.203125 -1.421875 1.203125 -4.09375zm15.090759 6.78125l-2.234375 0l-6.4375 -12.140625l0 12.140625l-1.671875 0l0 -13.5625l2.796875 0l5.859375 11.078125l0 -11.078125l1.6875 0l0 13.5625zm24.873962 0l-1.703125 0l0 -5.796875q0 -0.65625 -0.0625 -1.265625q-0.0625 -0.609375 -0.25 -0.96875q-0.21875 -0.390625 -0.609375 -0.59375q-0.390625 -0.203125 -1.125 -0.203125q-0.71875 0 -1.4375 0.359375q-0.71875 0.359375 -1.4375 0.921875q0.015625 0.203125 0.03125 0.484375q0.03125 0.28125 0.03125 0.546875l0 6.515625l-1.71875 0l0 -5.796875q0 -0.671875 -0.0625 -1.265625q-0.046875 -0.609375 -0.25 -0.984375q-0.203125 -0.390625 -0.59375 -0.578125q-0.390625 -0.203125 -1.125 -0.203125q-0.703125 0 -1.421875 0.34375q-0.703125 0.34375 -1.40625 0.890625l0 7.59375l-1.703125 0l0 -10.171875l1.703125 0l0 1.125q0.8125 -0.65625 1.609375 -1.03125q0.796875 -0.375 1.703125 -0.375q1.03125 0 1.75 0.4375q0.734375 0.4375 1.078125 1.203125q1.046875 -0.875 1.890625 -1.25q0.859375 -0.390625 1.84375 -0.390625q1.671875 0 2.46875 1.015625q0.796875 1.015625 0.796875 2.828125l0 6.609375zm11.208618 0l-1.703125 0l0 -1.078125q-0.234375 0.15625 -0.625 0.4375q-0.375 0.265625 -0.75 0.4375q-0.421875 0.203125 -0.984375 0.34375q-0.546875 0.140625 -1.296875 0.140625q-1.375 0 -2.328125 -0.90625q-0.953125 -0.921875 -0.953125 -2.328125q0 -1.15625 0.484375 -1.859375q0.5 -0.71875 1.421875 -1.140625q0.9375 -0.40625 2.234375 -0.546875q1.296875 -0.15625 2.796875 -0.21875l0 -0.265625q0 -0.578125 -0.203125 -0.953125q-0.203125 -0.390625 -0.59375 -0.609375q-0.359375 -0.21875 -0.875 -0.28125q-0.5 -0.078125 -1.0625 -0.078125q-0.671875 0 -1.5 0.1875q-0.828125 0.171875 -1.71875 0.5l-0.09375 0l0 -1.734375q0.5 -0.140625 1.453125 -0.296875q0.953125 -0.171875 1.875 -0.171875q1.0625 0 1.859375 0.1875q0.796875 0.171875 1.390625 0.59375q0.5625 0.421875 0.859375 1.09375q0.3125 0.65625 0.3125 1.640625l0 6.90625zm-1.703125 -2.5l0 -2.84375q-0.78125 0.046875 -1.84375 0.140625q-1.0625 0.09375 -1.6875 0.265625q-0.734375 0.203125 -1.1875 0.65625q-0.453125 0.4375 -0.453125 1.21875q0 0.859375 0.515625 1.3125q0.53125 0.4375 1.625 0.4375q0.890625 0 1.640625 -0.34375q0.75 -0.359375 1.390625 -0.84375zm13.954681 -2.703125q0 1.234375 -0.359375 2.265625q-0.359375 1.015625 -1.0 1.71875q-0.59375 0.6875 -1.421875 1.0625q-0.8125 0.359375 -1.71875 0.359375q-0.796875 0 -1.4375 -0.171875q-0.640625 -0.171875 -1.3125 -0.546875l0 4.2656403l-1.703125 0l0 -13.92189l1.703125 0l0 1.0625q0.6875 -0.578125 1.53125 -0.953125q0.859375 -0.390625 1.828125 -0.390625q1.84375 0 2.859375 1.390625q1.03125 1.390625 1.03125 3.859375zm-1.765625 0.03125q0 -1.828125 -0.640625 -2.734375q-0.625 -0.921875 -1.921875 -0.921875q-0.734375 0 -1.484375 0.328125q-0.75 0.3125 -1.4375 0.828125l0 5.765625q0.734375 0.328125 1.25 0.453125q0.53125 0.109375 1.203125 0.109375q1.421875 0 2.21875 -0.953125q0.8125 -0.96875 0.8125 -2.875zm13.389343 -0.03125q0 1.234375 -0.359375 2.265625q-0.359375 1.015625 -1.0 1.71875q-0.59375 0.6875 -1.421875 1.0625q-0.8125 0.359375 -1.71875 0.359375q-0.796875 0 -1.4375 -0.171875q-0.640625 -0.171875 -1.3125 -0.546875l0 4.2656403l-1.703125 0l0 -13.92189l1.703125 0l0 1.0625q0.6875 -0.578125 1.53125 -0.953125q0.859375 -0.390625 1.828125 -0.390625q1.84375 0 2.859375 1.390625q1.03125 1.390625 1.03125 3.859375zm-1.765625 0.03125q0 -1.828125 -0.640625 -2.734375q-0.625 -0.921875 -1.921875 -0.921875q-0.734375 0 -1.484375 0.328125q-0.75 0.3125 -1.4375 0.828125l0 5.765625q0.734375 0.328125 1.25 0.453125q0.53125 0.109375 1.203125 0.109375q1.421875 0 2.21875 -0.953125q0.8125 -0.96875 0.8125 -2.875zm6.2799683 -6.703125l-1.9375 0l0 -1.78125l1.9375 0l0 1.78125zm-0.109375 11.875l-1.71875 0l0 -10.171875l1.71875 0l0 10.171875zm11.885162 0l-1.703125 0l0 -5.796875q0 -0.703125 -0.09375 -1.3125q-0.078125 -0.609375 -0.296875 -0.96875q-0.21875 -0.375 -0.65625 -0.5625q-0.421875 -0.1875 -1.109375 -0.1875q-0.703125 0 -1.46875 0.34375q-0.765625 0.34375 -1.46875 0.890625l0 7.59375l-1.703125 0l0 -10.171875l1.703125 0l0 1.125q0.8125 -0.65625 1.65625 -1.03125q0.859375 -0.375 1.765625 -0.375q1.65625 0 2.515625 1.0q0.859375 0.984375 0.859375 2.84375l0 6.609375zm11.555908 -1.15625q0 2.5937653 -1.171875 3.7968903q-1.171875 1.21875 -3.625 1.21875q-0.796875 0 -1.578125 -0.125q-0.765625 -0.109375 -1.515625 -0.3125l0 -1.75l0.09375 0q0.421875 0.15625 1.328125 0.390625q0.90625 0.25 1.828125 0.25q0.875 0 1.4375 -0.21875q0.578125 -0.203125 0.90625 -0.578125q0.3125 -0.34375 0.4375 -0.859375q0.140625 -0.50001526 0.140625 -1.1093903l0 -0.9375q-0.765625 0.625 -1.46875 0.9375q-0.703125 0.296875 -1.796875 0.296875q-1.828125 0 -2.90625 -1.3125q-1.0625 -1.3125 -1.0625 -3.71875q0 -1.3125 0.359375 -2.265625q0.375 -0.953125 1.015625 -1.640625q0.59375 -0.640625 1.4375 -1.0q0.84375 -0.359375 1.6875 -0.359375q0.890625 0 1.484375 0.171875q0.59375 0.171875 1.25 0.546875l0.109375 -0.4375l1.609375 0l0 9.015625zm-1.71875 -1.640625l0 -5.546875q-0.671875 -0.3125 -1.265625 -0.4375q-0.578125 -0.140625 -1.171875 -0.140625q-1.40625 0 -2.21875 0.953125q-0.8125 0.953125 -0.8125 2.75q0 1.71875 0.59375 2.609375q0.609375 0.875 2.0 0.875q0.75 0 1.5 -0.28125q0.75 -0.296875 1.375 -0.78125z" fill-rule="nonzero"/><path fill="#000000" d="m368.09146 272.22083q0 1.234375 -0.359375 2.265625q-0.359375 1.015625 -1.0 1.71875q-0.59375 0.6875 -1.421875 1.0625q-0.8125 0.359375 -1.71875 0.359375q-0.796875 0 -1.4375 -0.171875q-0.640625 -0.171875 -1.3125 -0.546875l0 4.265625l-1.703125 0l0 -13.921875l1.703125 0l0 1.0625q0.6875 -0.578125 1.53125 -0.953125q0.859375 -0.390625 1.828125 -0.390625q1.84375 0 2.859375 1.390625q1.03125 1.390625 1.03125 3.859375zm-1.765625 0.03125q0 -1.828125 -0.640625 -2.734375q-0.625 -0.921875 -1.921875 -0.921875q-0.734375 0 -1.484375 0.328125q-0.75 0.3125 -1.4375 0.828125l0 5.765625q0.734375 0.328125 1.25 0.453125q0.53125 0.109375 1.203125 0.109375q1.421875 0 2.21875 -0.953125q0.8125 -0.96875 0.8125 -2.875zm6.1705933 5.171875l-1.71875 0l0 -14.171875l1.71875 0l0 14.171875zm11.822662 0l-1.71875 0l0 -1.125q-0.859375 0.671875 -1.65625 1.046875q-0.796875 0.359375 -1.75 0.359375q-1.609375 0 -2.5 -0.96875q-0.890625 -0.984375 -0.890625 -2.890625l0 -6.59375l1.71875 0l0 5.796875q0 0.765625 0.0625 1.328125q0.078125 0.546875 0.3125 0.9375q0.25 0.390625 0.640625 0.578125q0.390625 0.1875 1.140625 0.1875q0.671875 0 1.453125 -0.34375q0.78125 -0.359375 1.46875 -0.890625l0 -7.59375l1.71875 0l0 10.171875zm11.618408 -1.15625q0 2.59375 -1.171875 3.796875q-1.171875 1.21875 -3.625 1.21875q-0.796875 0 -1.578125 -0.125q-0.765625 -0.109375 -1.515625 -0.3125l0 -1.75l0.09375 0q0.421875 0.15625 1.328125 0.390625q0.90625 0.25 1.828125 0.25q0.875 0 1.4375 -0.21875q0.578125 -0.203125 0.90625 -0.578125q0.3125 -0.34375 0.4375 -0.859375q0.140625 -0.5 0.140625 -1.109375l0 -0.9375q-0.765625 0.625 -1.46875 0.9375q-0.703125 0.296875 -1.796875 0.296875q-1.828125 0 -2.90625 -1.3125q-1.0625 -1.3125 -1.0625 -3.71875q0 -1.3125 0.359375 -2.265625q0.375 -0.953125 1.015625 -1.640625q0.59375 -0.640625 1.4375 -1.0q0.84375 -0.359375 1.6875 -0.359375q0.890625 0 1.484375 0.171875q0.59375 0.171875 1.25 0.546875l0.109375 -0.4375l1.609375 0l0 9.015625zm-1.71875 -1.640625l0 -5.546875q-0.671875 -0.3125 -1.265625 -0.4375q-0.578125 -0.140625 -1.171875 -0.140625q-1.40625 0 -2.21875 0.953125q-0.8125 0.953125 -0.8125 2.75q0 1.71875 0.59375 2.609375q0.609375 0.875 2.0 0.875q0.75 0 1.5 -0.28125q0.75 -0.296875 1.375 -0.78125zm6.9362183 -9.078125l-1.9375 0l0 -1.78125l1.9375 0l0 1.78125zm-0.109375 11.875l-1.71875 0l0 -10.171875l1.71875 0l0 10.171875zm11.885162 0l-1.703125 0l0 -5.796875q0 -0.703125 -0.09375 -1.3125q-0.078125 -0.609375 -0.296875 -0.96875q-0.21875 -0.375 -0.65625 -0.5625q-0.421875 -0.1875 -1.109375 -0.1875q-0.703125 0 -1.46875 0.34375q-0.765625 0.34375 -1.46875 0.890625l0 7.59375l-1.703125 0l0 -10.171875l1.703125 0l0 1.125q0.8125 -0.65625 1.65625 -1.03125q0.859375 -0.375 1.765625 -0.375q1.65625 0 2.515625 1.0q0.859375 0.984375 0.859375 2.84375l0 6.609375z" fill-rule="nonzero"/><path fill="#fff2cc" d="m288.0 363.0l196.0 0l0 129.00787l-196.0 0z" fill-rule="evenodd"/><path stroke="#000000" stroke-width="1.0" stroke-linejoin="round" stroke-linecap="butt" d="m288.0 363.0l196.0 0l0 129.00787l-196.0 0z" fill-rule="evenodd"/><path fill="#000000" d="m324.03326 423.42395l-1.8125 0l0 -11.6875l-3.765625 7.953125l-1.078125 0l-3.75 -7.953125l0 11.6875l-1.671875 0l0 -13.5625l2.453125 0l3.609375 7.546875l3.5 -7.546875l2.515625 0l0 13.5625zm11.410461 0l-1.703125 0l0 -1.078125q-0.234375 0.15625 -0.625 0.4375q-0.375 0.265625 -0.75 0.4375q-0.421875 0.203125 -0.984375 0.34375q-0.546875 0.140625 -1.296875 0.140625q-1.375 0 -2.328125 -0.90625q-0.953125 -0.921875 -0.953125 -2.328125q0 -1.15625 0.484375 -1.859375q0.5 -0.71875 1.421875 -1.140625q0.9375 -0.40625 2.234375 -0.546875q1.296875 -0.15625 2.796875 -0.21875l0 -0.265625q0 -0.578125 -0.203125 -0.953125q-0.203125 -0.390625 -0.59375 -0.609375q-0.359375 -0.21875 -0.875 -0.28125q-0.5 -0.078125 -1.0625 -0.078125q-0.671875 0 -1.5 0.1875q-0.828125 0.171875 -1.71875 0.5l-0.09375 0l0 -1.734375q0.5 -0.140625 1.453125 -0.296875q0.953125 -0.171875 1.875 -0.171875q1.0625 0 1.859375 0.1875q0.796875 0.171875 1.390625 0.59375q0.5625 0.421875 0.859375 1.09375q0.3125 0.65625 0.3125 1.640625l0 6.90625zm-1.703125 -2.5l0 -2.84375q-0.78125 0.046875 -1.84375 0.140625q-1.0625 0.09375 -1.6875 0.265625q-0.734375 0.203125 -1.1875 0.65625q-0.453125 0.4375 -0.453125 1.21875q0 0.859375 0.515625 1.3125q0.53125 0.4375 1.625 0.4375q0.890625 0 1.640625 -0.34375q0.75 -0.359375 1.390625 -0.84375zm12.517212 1.859375q-0.84375 0.40625 -1.625 0.640625q-0.765625 0.234375 -1.625 0.234375q-1.109375 0 -2.03125 -0.328125q-0.921875 -0.328125 -1.578125 -0.984375q-0.65625 -0.65625 -1.03125 -1.65625q-0.359375 -1.0 -0.359375 -2.34375q0 -2.484375 1.375 -3.90625q1.375 -1.421875 3.625 -1.421875q0.875 0 1.71875 0.25q0.84375 0.234375 1.53125 0.59375l0 1.90625l-0.078125 0q-0.796875 -0.609375 -1.625 -0.9375q-0.828125 -0.328125 -1.625 -0.328125q-1.453125 0 -2.296875 0.984375q-0.84375 0.96875 -0.84375 2.859375q0 1.84375 0.8125 2.84375q0.828125 0.984375 2.328125 0.984375q0.515625 0 1.046875 -0.140625q0.546875 -0.140625 0.96875 -0.359375q0.375 -0.1875 0.703125 -0.40625q0.328125 -0.21875 0.53125 -0.359375l0.078125 0l0 1.875zm10.704193 0.640625l-1.703125 0l0 -5.796875q0 -0.703125 -0.09375 -1.3125q-0.078125 -0.609375 -0.296875 -0.96875q-0.21875 -0.375 -0.65625 -0.5625q-0.421875 -0.1875 -1.109375 -0.1875q-0.703125 0 -1.46875 0.34375q-0.765625 0.34375 -1.46875 0.890625l0 7.59375l-1.703125 0l0 -14.171875l1.703125 0l0 5.125q0.8125 -0.65625 1.65625 -1.03125q0.859375 -0.375 1.765625 -0.375q1.65625 0 2.515625 1.0q0.859375 0.984375 0.859375 2.84375l0 6.609375zm5.149658 -11.875l-1.9375 0l0 -1.78125l1.9375 0l0 1.78125zm-0.109375 11.875l-1.71875 0l0 -10.171875l1.71875 0l0 10.171875zm11.885162 0l-1.703125 0l0 -5.796875q0 -0.703125 -0.09375 -1.3125q-0.078125 -0.609375 -0.296875 -0.96875q-0.21875 -0.375 -0.65625 -0.5625q-0.421875 -0.1875 -1.109375 -0.1875q-0.703125 0 -1.46875 0.34375q-0.765625 0.34375 -1.46875 0.890625l0 7.59375l-1.703125 0l0 -10.171875l1.703125 0l0 1.125q0.8125 -0.65625 1.65625 -1.03125q0.859375 -0.375 1.765625 -0.375q1.65625 0 2.515625 1.0q0.859375 0.984375 0.859375 2.84375l0 6.609375zm11.821533 -4.90625l-7.5 0q0 0.9375 0.28125 1.640625q0.28125 0.6875 0.78125 1.140625q0.46875 0.4375 1.109375 0.65625q0.65625 0.21875 1.453125 0.21875q1.03125 0 2.078125 -0.421875q1.0625 -0.421875 1.5 -0.8125l0.09375 0l0 1.859375q-0.859375 0.375 -1.765625 0.625q-0.90625 0.234375 -1.890625 0.234375q-2.53125 0 -3.953125 -1.359375q-1.421875 -1.375 -1.421875 -3.90625q0 -2.5 1.359375 -3.953125q1.359375 -1.46875 3.578125 -1.46875q2.0625 0 3.171875 1.203125q1.125 1.203125 1.125 3.40625l0 0.9375zm-1.671875 -1.3125q0 -1.34375 -0.671875 -2.078125q-0.671875 -0.75 -2.03125 -0.75q-1.375 0 -2.203125 0.8125q-0.8125 0.8125 -0.921875 2.015625l5.828125 0zm18.0943 3.28125q0 1.390625 -1.15625 2.296875q-1.140625 0.890625 -3.140625 0.890625q-1.125 0 -2.078125 -0.265625q-0.9375 -0.28125 -1.578125 -0.59375l0 -1.921875l0.09375 0q0.8125 0.609375 1.796875 0.96875q1.0 0.359375 1.90625 0.359375q1.140625 0 1.765625 -0.359375q0.640625 -0.375 0.640625 -1.15625q0 -0.59375 -0.34375 -0.90625q-0.34375 -0.3125 -1.328125 -0.53125q-0.359375 -0.078125 -0.953125 -0.1875q-0.59375 -0.109375 -1.078125 -0.234375q-1.328125 -0.359375 -1.890625 -1.046875q-0.5625 -0.6875 -0.5625 -1.6875q0 -0.625 0.25 -1.1875q0.265625 -0.5625 0.796875 -0.984375q0.515625 -0.4375 1.296875 -0.6875q0.796875 -0.25 1.765625 -0.25q0.90625 0 1.84375 0.234375q0.9375 0.21875 1.546875 0.53125l0 1.828125l-0.078125 0q-0.65625 -0.484375 -1.59375 -0.8125q-0.9375 -0.328125 -1.84375 -0.328125q-0.9375 0 -1.59375 0.359375q-0.640625 0.359375 -0.640625 1.0625q0 0.625 0.390625 0.953125q0.390625 0.3125 1.234375 0.515625q0.484375 0.109375 1.0625 0.21875q0.59375 0.109375 0.984375 0.203125q1.1875 0.265625 1.84375 0.9375q0.640625 0.671875 0.640625 1.78125zm11.407349 -2.265625q0 1.234375 -0.359375 2.265625q-0.359375 1.015625 -1.0 1.71875q-0.59375 0.6875 -1.421875 1.0625q-0.8125 0.359375 -1.71875 0.359375q-0.796875 0 -1.4375 -0.171875q-0.640625 -0.171875 -1.3125 -0.546875l0 4.265625l-1.703125 0l0 -13.921875l1.703125 0l0 1.0625q0.6875 -0.578125 1.53125 -0.953125q0.859375 -0.390625 1.828125 -0.390625q1.84375 0 2.859375 1.390625q1.03125 1.390625 1.03125 3.859375zm-1.765625 0.03125q0 -1.828125 -0.640625 -2.734375q-0.625 -0.921875 -1.921875 -0.921875q-0.734375 0 -1.484375 0.328125q-0.75 0.3125 -1.4375 0.828125l0 5.765625q0.734375 0.328125 1.25 0.453125q0.53125 0.109375 1.203125 0.109375q1.421875 0 2.21875 -0.953125q0.8125 -0.96875 0.8125 -2.875zm12.951843 0.265625l-7.5 0q0 0.9375 0.28125 1.640625q0.28125 0.6875 0.78125 1.140625q0.46875 0.4375 1.109375 0.65625q0.65625 0.21875 1.453125 0.21875q1.03125 0 2.078125 -0.421875q1.0625 -0.421875 1.5 -0.8125l0.09375 0l0 1.859375q-0.859375 0.375 -1.765625 0.625q-0.90625 0.234375 -1.890625 0.234375q-2.53125 0 -3.953125 -1.359375q-1.421875 -1.375 -1.421875 -3.90625q0 -2.5 1.359375 -3.953125q1.359375 -1.46875 3.578125 -1.46875q2.0625 0 3.171875 1.203125q1.125 1.203125 1.125 3.40625l0 0.9375zm-1.671875 -1.3125q0 -1.34375 -0.671875 -2.078125q-0.671875 -0.75 -2.03125 -0.75q-1.375 0 -2.203125 0.8125q-0.8125 0.8125 -0.921875 2.015625l5.828125 0zm11.785461 5.578125q-0.84375 0.40625 -1.625 0.640625q-0.765625 0.234375 -1.625 0.234375q-1.109375 0 -2.03125 -0.328125q-0.921875 -0.328125 -1.578125 -0.984375q-0.65625 -0.65625 -1.03125 -1.65625q-0.359375 -1.0 -0.359375 -2.34375q0 -2.484375 1.375 -3.90625q1.375 -1.421875 3.625 -1.421875q0.875 0 1.71875 0.25q0.84375 0.234375 1.53125 0.59375l0 1.90625l-0.078125 0q-0.796875 -0.609375 -1.625 -0.9375q-0.828125 -0.328125 -1.625 -0.328125q-1.453125 0 -2.296875 0.984375q-0.84375 0.96875 -0.84375 2.859375q0 1.84375 0.8125 2.84375q0.828125 0.984375 2.328125 0.984375q0.515625 0 1.046875 -0.140625q0.546875 -0.140625 0.96875 -0.359375q0.375 -0.1875 0.703125 -0.40625q0.328125 -0.21875 0.53125 -0.359375l0.078125 0l0 1.875zm4.047943 -11.234375l-1.9375 0l0 -1.78125l1.9375 0l0 1.78125zm-0.109375 11.875l-1.71875 0l0 -10.171875l1.71875 0l0 10.171875zm8.853912 -12.515625l-0.09375 0q-0.28125 -0.078125 -0.734375 -0.15625q-0.453125 -0.09375 -0.796875 -0.09375q-1.109375 0 -1.609375 0.484375q-0.484375 0.484375 -0.484375 1.765625l0 0.34375l3.078125 0l0 1.4375l-3.03125 0l0 8.734375l-1.703125 0l0 -8.734375l-1.15625 0l0 -1.4375l1.15625 0l0 -0.34375q0 -1.8125 0.890625 -2.78125q0.90625 -0.96875 2.609375 -0.96875q0.578125 0 1.03125 0.0625q0.46875 0.046875 0.84375 0.125l0 1.5625zm2.933838 0.640625l-1.9375 0l0 -1.78125l1.9375 0l0 1.78125zm-0.109375 11.875l-1.71875 0l0 -10.171875l1.71875 0l0 10.171875zm10.900787 -0.640625q-0.84375 0.40625 -1.625 0.640625q-0.765625 0.234375 -1.625 0.234375q-1.109375 0 -2.03125 -0.328125q-0.921875 -0.328125 -1.578125 -0.984375q-0.65625 -0.65625 -1.03125 -1.65625q-0.359375 -1.0 -0.359375 -2.34375q0 -2.484375 1.375 -3.90625q1.375 -1.421875 3.625 -1.421875q0.875 0 1.71875 0.25q0.84375 0.234375 1.53125 0.59375l0 1.90625l-0.078125 0q-0.796875 -0.609375 -1.625 -0.9375q-0.828125 -0.328125 -1.625 -0.328125q-1.453125 0 -2.296875 0.984375q-0.84375 0.96875 -0.84375 2.859375q0 1.84375 0.8125 2.84375q0.828125 0.984375 2.328125 0.984375q0.515625 0 1.046875 -0.140625q0.546875 -0.140625 0.96875 -0.359375q0.375 -0.1875 0.703125 -0.40625q0.328125 -0.21875 0.53125 -0.359375l0.078125 0l0 1.875z" fill-rule="nonzero"/><path fill="#000000" d="m368.09146 440.22083q0 1.234375 -0.359375 2.265625q-0.359375 1.015625 -1.0 1.71875q-0.59375 0.6875 -1.421875 1.0625q-0.8125 0.359375 -1.71875 0.359375q-0.796875 0 -1.4375 -0.171875q-0.640625 -0.171875 -1.3125 -0.546875l0 4.265625l-1.703125 0l0 -13.921875l1.703125 0l0 1.0625q0.6875 -0.578125 1.53125 -0.953125q0.859375 -0.390625 1.828125 -0.390625q1.84375 0 2.859375 1.390625q1.03125 1.390625 1.03125 3.859375zm-1.765625 0.03125q0 -1.828125 -0.640625 -2.734375q-0.625 -0.921875 -1.921875 -0.921875q-0.734375 0 -1.484375 0.328125q-0.75 0.3125 -1.4375 0.828125l0 5.765625q0.734375 0.328125 1.25 0.453125q0.53125 0.109375 1.203125 0.109375q1.421875 0 2.21875 -0.953125q0.8125 -0.96875 0.8125 -2.875zm6.1705933 5.171875l-1.71875 0l0 -14.171875l1.71875 0l0 14.171875zm11.822662 0l-1.71875 0l0 -1.125q-0.859375 0.671875 -1.65625 1.046875q-0.796875 0.359375 -1.75 0.359375q-1.609375 0 -2.5 -0.96875q-0.890625 -0.984375 -0.890625 -2.890625l0 -6.59375l1.71875 0l0 5.796875q0 0.765625 0.0625 1.328125q0.078125 0.546875 0.3125 0.9375q0.25 0.390625 0.640625 0.578125q0.390625 0.1875 1.140625 0.1875q0.671875 0 1.453125 -0.34375q0.78125 -0.359375 1.46875 -0.890625l0 -7.59375l1.71875 0l0 10.171875zm11.618408 -1.15625q0 2.59375 -1.171875 3.796875q-1.171875 1.21875 -3.625 1.21875q-0.796875 0 -1.578125 -0.125q-0.765625 -0.109375 -1.515625 -0.3125l0 -1.75l0.09375 0q0.421875 0.15625 1.328125 0.390625q0.90625 0.25 1.828125 0.25q0.875 0 1.4375 -0.21875q0.578125 -0.203125 0.90625 -0.578125q0.3125 -0.34375 0.4375 -0.859375q0.140625 -0.5 0.140625 -1.109375l0 -0.9375q-0.765625 0.625 -1.46875 0.9375q-0.703125 0.296875 -1.796875 0.296875q-1.828125 0 -2.90625 -1.3125q-1.0625 -1.3125 -1.0625 -3.71875q0 -1.3125 0.359375 -2.265625q0.375 -0.953125 1.015625 -1.640625q0.59375 -0.640625 1.4375 -1.0q0.84375 -0.359375 1.6875 -0.359375q0.890625 0 1.484375 0.171875q0.59375 0.171875 1.25 0.546875l0.109375 -0.4375l1.609375 0l0 9.015625zm-1.71875 -1.640625l0 -5.546875q-0.671875 -0.3125 -1.265625 -0.4375q-0.578125 -0.140625 -1.171875 -0.140625q-1.40625 0 -2.21875 0.953125q-0.8125 0.953125 -0.8125 2.75q0 1.71875 0.59375 2.609375q0.609375 0.875 2.0 0.875q0.75 0 1.5 -0.28125q0.75 -0.296875 1.375 -0.78125zm6.9362183 -9.078125l-1.9375 0l0 -1.78125l1.9375 0l0 1.78125zm-0.109375 11.875l-1.71875 0l0 -10.171875l1.71875 0l0 10.171875zm11.885162 0l-1.703125 0l0 -5.796875q0 -0.703125 -0.09375 -1.3125q-0.078125 -0.609375 -0.296875 -0.96875q-0.21875 -0.375 -0.65625 -0.5625q-0.421875 -0.1875 -1.109375 -0.1875q-0.703125 0 -1.46875 0.34375q-0.765625 0.34375 -1.46875 0.890625l0 7.59375l-1.703125 0l0 -10.171875l1.703125 0l0 1.125q0.8125 -0.65625 1.65625 -1.03125q0.859375 -0.375 1.765625 -0.375q1.65625 0 2.515625 1.0q0.859375 0.984375 0.859375 2.84375l0 6.609375z" fill-rule="nonzero"/><path fill="#000000" fill-opacity="0.0" d="m205.0 83.50394l82.99213 0" fill-rule="evenodd"/><path stroke="#000000" stroke-width="3.0" stroke-linejoin="round" stroke-linecap="butt" d="m205.0 83.50394l64.99213 0" fill-rule="evenodd"/><path fill="#000000" stroke="#000000" stroke-width="3.0" stroke-linecap="butt" d="m269.99213 88.45914l13.614288 -4.9552l-13.614288 -4.9552z" fill-rule="evenodd"/><path fill="#000000" fill-opacity="0.0" d="m484.0 83.50394l73.00787 0" fill-rule="evenodd"/><path stroke="#000000" stroke-width="3.0" stroke-linejoin="round" stroke-linecap="butt" d="m484.0 83.50394l55.007874 0" fill-rule="evenodd"/><path fill="#000000" stroke="#000000" stroke-width="3.0" stroke-linecap="butt" d="m539.0079 88.45914l13.614319 -4.9552l-13.614319 -4.9552z" fill-rule="evenodd"/><path fill="#000000" fill-opacity="0.0" d="m386.0 148.00787l0 46.992126" fill-rule="evenodd"/><path stroke="#000000" stroke-width="3.0" stroke-linejoin="round" stroke-linecap="butt" d="m386.0 148.00787l0 28.992126" fill-rule="evenodd"/><path fill="#000000" stroke="#000000" stroke-width="3.0" stroke-linecap="butt" d="m381.0448 177.0l4.9552 13.614288l4.9552 -13.614288z" fill-rule="evenodd"/><path fill="#000000" fill-opacity="0.0" d="m386.0 324.00787l0 38.992126" fill-rule="evenodd"/><path stroke="#000000" stroke-width="3.0" stroke-linejoin="round" stroke-linecap="butt" d="m386.0 324.00787l0 20.992126" fill-rule="evenodd"/><path fill="#000000" stroke="#000000" stroke-width="3.0" stroke-linecap="butt" d="m381.0448 345.0l4.9552 13.614288l4.9552 -13.614288z" fill-rule="evenodd"/><path fill="#000000" fill-opacity="0.0" d="m724.0 -86.0l576.0 0l0 42.015747l-576.0 0z" fill-rule="evenodd"/><path fill="#cfe2f3" d="m826.0 33.501312l0 0c0 -13.807844 31.11444 -25.001312 69.49603 -25.001312c38.381653 0 69.49609 11.193468 69.49609 25.001312l0 100.00525c0 13.807846 -31.11444 25.001312 -69.49609 25.001312c-38.38159 0 -69.49603 -11.193466 -69.49603 -25.001312z" fill-rule="evenodd"/><path fill="#000000" fill-opacity="0.0" d="m964.9921 33.501312l0 0c0 13.807842 -31.11444 25.001312 -69.49609 25.001312c-38.38159 0 -69.49603 -11.19347 -69.49603 -25.001312" fill-rule="evenodd"/><path fill="#000000" fill-opacity="0.0" d="m826.0 33.501312l0 0c0 -13.807844 31.11444 -25.001312 69.49603 -25.001312c38.381653 0 69.49609 11.193468 69.49609 25.001312l0 100.00525c0 13.807846 -31.11444 25.001312 -69.49609 25.001312c-38.38159 0 -69.49603 -11.193466 -69.49603 -25.001312z" fill-rule="evenodd"/><path stroke="#000000" stroke-width="1.0" stroke-linejoin="round" stroke-linecap="butt" d="m964.9921 33.501312l0 0c0 13.807842 -31.11444 25.001312 -69.49609 25.001312c-38.38159 0 -69.49603 -11.19347 -69.49603 -25.001312" fill-rule="evenodd"/><path stroke="#000000" stroke-width="1.0" stroke-linejoin="round" stroke-linecap="butt" d="m826.0 33.501312l0 0c0 -13.807844 31.11444 -25.001312 69.49603 -25.001312c38.381653 0 69.49609 11.193468 69.49609 25.001312l0 100.00525c0 13.807846 -31.11444 25.001312 -69.49609 25.001312c-38.38159 0 -69.49603 -11.193466 -69.49603 -25.001312z" fill-rule="evenodd"/><path fill="#000000" d="m860.64355 102.92459l-5.359375 0l0 -1.390625l1.78125 0l0 -10.78125l-1.78125 0l0 -1.390625l5.359375 0l0 1.390625l-1.78125 0l0 10.78125l1.78125 0l0 1.390625zm14.524292 -6.765625q0 1.84375 -0.8125 3.359375q-0.796875 1.5 -2.140625 2.328125q-0.921875 0.5625 -2.078125 0.828125q-1.140625 0.25 -3.0 0.25l-3.421875 0l0 -13.5625l3.375 0q2.0 0 3.15625 0.296875q1.171875 0.28125 1.984375 0.78125q1.390625 0.859375 2.15625 2.296875q0.78125 1.4375 0.78125 3.421875zm-1.890625 -0.03125q0 -1.59375 -0.5625 -2.6875q-0.546875 -1.09375 -1.640625 -1.71875q-0.8125 -0.453125 -1.71875 -0.625q-0.890625 -0.1875 -2.15625 -0.1875l-1.6875 0l0 10.46875l1.6875 0q1.3125 0 2.28125 -0.1875q0.96875 -0.203125 1.78125 -0.71875q1.015625 -0.640625 1.515625 -1.6875q0.5 -1.0625 0.5 -2.65625zm14.656006 2.921875q0 0.796875 -0.375 1.578125q-0.359375 0.765625 -1.015625 1.296875q-0.734375 0.59375 -1.703125 0.921875q-0.96875 0.328125 -2.34375 0.328125q-1.46875 0 -2.640625 -0.265625q-1.15625 -0.28125 -2.375 -0.828125l0 -2.25l0.125 0q1.03125 0.859375 2.375 1.328125q1.359375 0.453125 2.546875 0.453125q1.671875 0 2.59375 -0.625q0.9375 -0.625 0.9375 -1.671875q0 -0.90625 -0.4375 -1.328125q-0.4375 -0.4375 -1.34375 -0.671875q-0.6875 -0.1875 -1.484375 -0.296875q-0.796875 -0.125 -1.6875 -0.3125q-1.796875 -0.375 -2.671875 -1.296875q-0.875 -0.921875 -0.875 -2.40625q0 -1.71875 1.4375 -2.796875q1.453125 -1.09375 3.65625 -1.09375q1.4375 0 2.625 0.28125q1.203125 0.265625 2.109375 0.671875l0 2.125l-0.125 0q-0.765625 -0.65625 -2.03125 -1.078125q-1.265625 -0.4375 -2.578125 -0.4375q-1.453125 0 -2.34375 0.609375q-0.875 0.59375 -0.875 1.53125q0 0.859375 0.4375 1.34375q0.4375 0.46875 1.546875 0.734375q0.578125 0.125 1.65625 0.3125q1.078125 0.171875 1.828125 0.375q1.5 0.390625 2.265625 1.203125q0.765625 0.8125 0.765625 2.265625zm17.577759 3.875l-1.71875 0l0 -1.0625q-0.734375 0.640625 -1.53125 1.0q-0.796875 0.34375 -1.734375 0.34375q-1.828125 0 -2.90625 -1.390625q-1.0625 -1.40625 -1.0625 -3.90625q0 -1.28125 0.359375 -2.296875q0.375 -1.015625 1.0 -1.71875q0.625 -0.703125 1.453125 -1.0625q0.828125 -0.359375 1.703125 -0.359375q0.796875 0 1.421875 0.171875q0.625 0.15625 1.296875 0.515625l0 -4.40625l1.71875 0l0 14.171875zm-1.71875 -2.5l0 -5.84375q-0.6875 -0.3125 -1.234375 -0.421875q-0.546875 -0.125 -1.1875 -0.125q-1.4375 0 -2.25 1.0q-0.796875 1.0 -0.796875 2.84375q0 1.8125 0.609375 2.765625q0.625 0.9375 2.0 0.9375q0.71875 0 1.46875 -0.328125q0.75 -0.328125 1.390625 -0.828125zm12.998718 2.5l-1.703125 0l0 -1.078125q-0.234375 0.15625 -0.625 0.4375q-0.375 0.265625 -0.75 0.4375q-0.421875 0.203125 -0.984375 0.34375q-0.546875 0.140625 -1.296875 0.140625q-1.375 0 -2.328125 -0.90625q-0.953125 -0.921875 -0.953125 -2.328125q0 -1.15625 0.484375 -1.859375q0.5 -0.71875 1.421875 -1.140625q0.9375 -0.40625 2.234375 -0.546875q1.296875 -0.15625 2.796875 -0.21875l0 -0.265625q0 -0.578125 -0.203125 -0.953125q-0.203125 -0.390625 -0.59375 -0.609375q-0.359375 -0.21875 -0.875 -0.28125q-0.5 -0.078125 -1.0625 -0.078125q-0.671875 0 -1.5 0.1875q-0.828125 0.171875 -1.71875 0.5l-0.09375 0l0 -1.734375q0.5 -0.140625 1.453125 -0.296875q0.953125 -0.171875 1.875 -0.171875q1.0625 0 1.859375 0.1875q0.796875 0.171875 1.390625 0.59375q0.5625 0.421875 0.859375 1.09375q0.3125 0.65625 0.3125 1.640625l0 6.90625zm-1.703125 -2.5l0 -2.84375q-0.78125 0.046875 -1.84375 0.140625q-1.0625 0.09375 -1.6875 0.265625q-0.734375 0.203125 -1.1875 0.65625q-0.453125 0.4375 -0.453125 1.21875q0 0.859375 0.515625 1.3125q0.53125 0.4375 1.625 0.4375q0.890625 0 1.640625 -0.34375q0.75 -0.359375 1.390625 -0.84375zm10.282837 2.40625q-0.484375 0.125 -1.0625 0.203125q-0.5625 0.09375 -1.0 0.09375q-1.5625 0 -2.375 -0.828125q-0.8125 -0.84375 -0.8125 -2.703125l0 -5.40625l-1.15625 0l0 -1.4375l1.15625 0l0 -2.921875l1.71875 0l0 2.921875l3.53125 0l0 1.4375l-3.53125 0l0 4.640625q0 0.796875 0.03125 1.25q0.03125 0.453125 0.25 0.84375q0.203125 0.359375 0.546875 0.53125q0.359375 0.171875 1.078125 0.171875q0.421875 0 0.875 -0.125q0.453125 -0.125 0.65625 -0.203125l0.09375 0l0 1.53125zm9.976318 0.09375l-1.703125 0l0 -1.078125q-0.234375 0.15625 -0.625 0.4375q-0.375 0.265625 -0.75 0.4375q-0.421875 0.203125 -0.984375 0.34375q-0.546875 0.140625 -1.296875 0.140625q-1.375 0 -2.328125 -0.90625q-0.953125 -0.921875 -0.953125 -2.328125q0 -1.15625 0.484375 -1.859375q0.5 -0.71875 1.421875 -1.140625q0.9375 -0.40625 2.234375 -0.546875q1.296875 -0.15625 2.796875 -0.21875l0 -0.265625q0 -0.578125 -0.203125 -0.953125q-0.203125 -0.390625 -0.59375 -0.609375q-0.359375 -0.21875 -0.875 -0.28125q-0.5 -0.078125 -1.0625 -0.078125q-0.671875 0 -1.5 0.1875q-0.828125 0.171875 -1.71875 0.5l-0.09375 0l0 -1.734375q0.5 -0.140625 1.453125 -0.296875q0.953125 -0.171875 1.875 -0.171875q1.0625 0 1.859375 0.1875q0.796875 0.171875 1.390625 0.59375q0.5625 0.421875 0.859375 1.09375q0.3125 0.65625 0.3125 1.640625l0 6.90625zm-1.703125 -2.5l0 -2.84375q-0.78125 0.046875 -1.84375 0.140625q-1.0625 0.09375 -1.6875 0.265625q-0.734375 0.203125 -1.1875 0.65625q-0.453125 0.4375 -0.453125 1.21875q0 0.859375 0.515625 1.3125q0.53125 0.4375 1.625 0.4375q0.890625 0 1.640625 -0.34375q0.75 -0.359375 1.390625 -0.84375z" fill-rule="nonzero"/><path fill="#cfe2f3" d="m557.0079 371.5013l0 0c0 -15.464691 36.041077 -28.001312 80.5 -28.001312c44.458923 0 80.5 12.536621 80.5 28.001312l0 112.00525c0 15.464691 -36.041077 28.001312 -80.5 28.001312c-44.458923 0 -80.5 -12.536621 -80.5 -28.001312z" fill-rule="evenodd"/><path fill="#000000" fill-opacity="0.0" d="m718.0079 371.5013l0 0c0 15.464691 -36.041077 28.001312 -80.5 28.001312c-44.458923 0 -80.5 -12.536621 -80.5 -28.001312" fill-rule="evenodd"/><path fill="#000000" fill-opacity="0.0" d="m557.0079 371.5013l0 0c0 -15.464691 36.041077 -28.001312 80.5 -28.001312c44.458923 0 80.5 12.536621 80.5 28.001312l0 112.00525c0 15.464691 -36.041077 28.001312 -80.5 28.001312c-44.458923 0 -80.5 -12.536621 -80.5 -28.001312z" fill-rule="evenodd"/><path stroke="#000000" stroke-width="1.0" stroke-linejoin="round" stroke-linecap="butt" d="m718.0079 371.5013l0 0c0 15.464691 -36.041077 28.001312 -80.5 28.001312c-44.458923 0 -80.5 -12.536621 -80.5 -28.001312" fill-rule="evenodd"/><path stroke="#000000" stroke-width="1.0" stroke-linejoin="round" stroke-linecap="butt" d="m557.0079 371.5013l0 0c0 -15.464691 36.041077 -28.001312 80.5 -28.001312c44.458923 0 80.5 12.536621 80.5 28.001312l0 112.00525c0 15.464691 -36.041077 28.001312 -80.5 28.001312c-44.458923 0 -80.5 -12.536621 -80.5 -28.001312z" fill-rule="evenodd"/><path fill="#000000" d="m586.5749 437.4246l-8.9375 0l0 -13.5625l8.9375 0l0 1.609375l-7.140625 0l0 3.703125l7.140625 0l0 1.609375l-7.140625 0l0 5.03125l7.140625 0l0 1.609375zm11.531189 0l-2.171875 0l-2.875 -3.90625l-2.90625 3.90625l-2.0 0l3.96875 -5.078125l-3.9375 -5.09375l2.15625 0l2.875 3.84375l2.875 -3.84375l2.015625 0l-4.0 5.0l4.0 5.171875zm11.181335 -5.203125q0 1.234375 -0.359375 2.265625q-0.359375 1.015625 -1.0 1.71875q-0.59375 0.6875 -1.421875 1.0625q-0.8125 0.359375 -1.71875 0.359375q-0.796875 0 -1.4375 -0.171875q-0.640625 -0.171875 -1.3125 -0.546875l0 4.265625l-1.703125 0l0 -13.921875l1.703125 0l0 1.0625q0.6875 -0.578125 1.53125 -0.953125q0.859375 -0.390625 1.828125 -0.390625q1.84375 0 2.859375 1.390625q1.03125 1.390625 1.03125 3.859375zm-1.765625 0.03125q0 -1.828125 -0.640625 -2.734375q-0.625 -0.921875 -1.921875 -0.921875q-0.734375 0 -1.484375 0.328125q-0.75 0.3125 -1.4375 0.828125l0 5.765625q0.734375 0.328125 1.25 0.453125q0.53125 0.109375 1.203125 0.109375q1.421875 0 2.21875 -0.953125q0.8125 -0.96875 0.8125 -2.875zm12.951843 0.265625l-7.5 0q0 0.9375 0.28125 1.640625q0.28125 0.6875 0.78125 1.140625q0.46875 0.4375 1.109375 0.65625q0.65625 0.21875 1.453125 0.21875q1.03125 0 2.078125 -0.421875q1.0625 -0.421875 1.5 -0.8125l0.09375 0l0 1.859375q-0.859375 0.375 -1.765625 0.625q-0.90625 0.234375 -1.890625 0.234375q-2.53125 0 -3.953125 -1.359375q-1.421875 -1.375 -1.421875 -3.90625q0 -2.5 1.359375 -3.953125q1.359375 -1.46875 3.578125 -1.46875q2.0625 0 3.171875 1.203125q1.125 1.203125 1.125 3.40625l0 0.9375zm-1.671875 -1.3125q0 -1.34375 -0.671875 -2.078125q-0.671875 -0.75 -2.03125 -0.75q-1.375 0 -2.203125 0.8125q-0.8125 0.8125 -0.921875 2.015625l5.828125 0zm10.613586 -2.09375l-0.09375 0q-0.375 -0.09375 -0.734375 -0.125q-0.359375 -0.046875 -0.859375 -0.046875q-0.78125 0 -1.53125 0.359375q-0.734375 0.34375 -1.421875 0.90625l0 7.21875l-1.703125 0l0 -10.171875l1.703125 0l0 1.5q1.03125 -0.8125 1.796875 -1.15625q0.78125 -0.34375 1.59375 -0.34375q0.453125 0 0.65625 0.03125q0.203125 0.015625 0.59375 0.078125l0 1.75zm3.46167 -3.5625l-1.9375 0l0 -1.78125l1.9375 0l0 1.78125zm-0.109375 11.875l-1.71875 0l0 -10.171875l1.71875 0l0 10.171875zm18.228943 0l-1.703125 0l0 -5.796875q0 -0.65625 -0.0625 -1.265625q-0.0625 -0.609375 -0.25 -0.96875q-0.21875 -0.390625 -0.609375 -0.59375q-0.390625 -0.203125 -1.125 -0.203125q-0.71875 0 -1.4375 0.359375q-0.71875 0.359375 -1.4375 0.921875q0.015625 0.203125 0.03125 0.484375q0.03125 0.28125 0.03125 0.546875l0 6.515625l-1.71875 0l0 -5.796875q0 -0.671875 -0.0625 -1.265625q-0.046875 -0.609375 -0.25 -0.984375q-0.203125 -0.390625 -0.59375 -0.578125q-0.390625 -0.203125 -1.125 -0.203125q-0.703125 0 -1.421875 0.34375q-0.703125 0.34375 -1.40625 0.890625l0 7.59375l-1.703125 0l0 -10.171875l1.703125 0l0 1.125q0.8125 -0.65625 1.609375 -1.03125q0.796875 -0.375 1.703125 -0.375q1.03125 0 1.75 0.4375q0.734375 0.4375 1.078125 1.203125q1.046875 -0.875 1.890625 -1.25q0.859375 -0.390625 1.84375 -0.390625q1.671875 0 2.46875 1.015625q0.796875 1.015625 0.796875 2.828125l0 6.609375zm11.817993 -4.90625l-7.5 0q0 0.9375 0.28125 1.640625q0.28125 0.6875 0.78125 1.140625q0.46875 0.4375 1.109375 0.65625q0.65625 0.21875 1.453125 0.21875q1.03125 0 2.078125 -0.421875q1.0625 -0.421875 1.5 -0.8125l0.09375 0l0 1.859375q-0.859375 0.375 -1.765625 0.625q-0.90625 0.234375 -1.890625 0.234375q-2.53125 0 -3.953125 -1.359375q-1.421875 -1.375 -1.421875 -3.90625q0 -2.5 1.359375 -3.953125q1.359375 -1.46875 3.578125 -1.46875q2.0625 0 3.171875 1.203125q1.125 1.203125 1.125 3.40625l0 0.9375zm-1.671875 -1.3125q0 -1.34375 -0.671875 -2.078125q-0.671875 -0.75 -2.03125 -0.75q-1.375 0 -2.203125 0.8125q-0.8125 0.8125 -0.921875 2.015625l5.828125 0zm12.769836 6.21875l-1.703125 0l0 -5.796875q0 -0.703125 -0.09375 -1.3125q-0.078125 -0.609375 -0.296875 -0.96875q-0.21875 -0.375 -0.65625 -0.5625q-0.421875 -0.1875 -1.109375 -0.1875q-0.703125 0 -1.46875 0.34375q-0.765625 0.34375 -1.46875 0.890625l0 7.59375l-1.703125 0l0 -10.171875l1.703125 0l0 1.125q0.8125 -0.65625 1.65625 -1.03125q0.859375 -0.375 1.765625 -0.375q1.65625 0 2.515625 1.0q0.859375 0.984375 0.859375 2.84375l0 6.609375zm8.587158 -0.09375q-0.484375 0.125 -1.0625 0.203125q-0.5625 0.09375 -1.0 0.09375q-1.5625 0 -2.375 -0.828125q-0.8125 -0.84375 -0.8125 -2.703125l0 -5.40625l-1.15625 0l0 -1.4375l1.15625 0l0 -2.921875l1.71875 0l0 2.921875l3.53125 0l0 1.4375l-3.53125 0l0 4.640625q0 0.796875 0.03125 1.25q0.03125 0.453125 0.25 0.84375q0.203125 0.359375 0.546875 0.53125q0.359375 0.171875 1.078125 0.171875q0.421875 0 0.875 -0.125q0.453125 -0.125 0.65625 -0.203125l0.09375 0l0 1.53125zm9.976318 0.09375l-1.703125 0l0 -1.078125q-0.234375 0.15625 -0.625 0.4375q-0.375 0.265625 -0.75 0.4375q-0.421875 0.203125 -0.984375 0.34375q-0.546875 0.140625 -1.296875 0.140625q-1.375 0 -2.328125 -0.90625q-0.953125 -0.921875 -0.953125 -2.328125q0 -1.15625 0.484375 -1.859375q0.5 -0.71875 1.421875 -1.140625q0.9375 -0.40625 2.234375 -0.546875q1.296875 -0.15625 2.796875 -0.21875l0 -0.265625q0 -0.578125 -0.203125 -0.953125q-0.203125 -0.390625 -0.59375 -0.609375q-0.359375 -0.21875 -0.875 -0.28125q-0.5 -0.078125 -1.0625 -0.078125q-0.671875 0 -1.5 0.1875q-0.828125 0.171875 -1.71875 0.5l-0.09375 0l0 -1.734375q0.5 -0.140625 1.453125 -0.296875q0.953125 -0.171875 1.875 -0.171875q1.0625 0 1.859375 0.1875q0.796875 0.171875 1.390625 0.59375q0.5625 0.421875 0.859375 1.09375q0.3125 0.65625 0.3125 1.640625l0 6.90625zm-1.703125 -2.5l0 -2.84375q-0.78125 0.046875 -1.84375 0.140625q-1.0625 0.09375 -1.6875 0.265625q-0.734375 0.203125 -1.1875 0.65625q-0.453125 0.4375 -0.453125 1.21875q0 0.859375 0.515625 1.3125q0.53125 0.4375 1.625 0.4375q0.890625 0 1.640625 -0.34375q0.75 -0.359375 1.390625 -0.84375zm6.735962 2.5l-1.71875 0l0 -14.171875l1.71875 0l0 14.171875z" fill-rule="nonzero"/><path fill="#000000" d="m626.7532 459.4246l-1.71875 0l0 -1.0625q-0.734375 0.640625 -1.53125 1.0q-0.796875 0.34375 -1.734375 0.34375q-1.828125 0 -2.90625 -1.390625q-1.0625 -1.40625 -1.0625 -3.90625q0 -1.28125 0.359375 -2.296875q0.375 -1.015625 1.0 -1.71875q0.625 -0.703125 1.453125 -1.0625q0.828125 -0.359375 1.703125 -0.359375q0.796875 0 1.421875 0.171875q0.625 0.15625 1.296875 0.515625l0 -4.40625l1.71875 0l0 14.171875zm-1.71875 -2.5l0 -5.84375q-0.6875 -0.3125 -1.234375 -0.421875q-0.546875 -0.125 -1.1875 -0.125q-1.4375 0 -2.25 1.0q-0.796875 1.0 -0.796875 2.84375q0 1.8125 0.609375 2.765625q0.625 0.9375 2.0 0.9375q0.71875 0 1.46875 -0.328125q0.75 -0.328125 1.390625 -0.828125zm12.998718 2.5l-1.703125 0l0 -1.078125q-0.234375 0.15625 -0.625 0.4375q-0.375 0.265625 -0.75 0.4375q-0.421875 0.203125 -0.984375 0.34375q-0.546875 0.140625 -1.296875 0.140625q-1.375 0 -2.328125 -0.90625q-0.953125 -0.921875 -0.953125 -2.328125q0 -1.15625 0.484375 -1.859375q0.5 -0.71875 1.421875 -1.140625q0.9375 -0.40625 2.234375 -0.546875q1.296875 -0.15625 2.796875 -0.21875l0 -0.265625q0 -0.578125 -0.203125 -0.953125q-0.203125 -0.390625 -0.59375 -0.609375q-0.359375 -0.21875 -0.875 -0.28125q-0.5 -0.078125 -1.0625 -0.078125q-0.671875 0 -1.5 0.1875q-0.828125 0.171875 -1.71875 0.5l-0.09375 0l0 -1.734375q0.5 -0.140625 1.453125 -0.296875q0.953125 -0.171875 1.875 -0.171875q1.0625 0 1.859375 0.1875q0.796875 0.171875 1.390625 0.59375q0.5625 0.421875 0.859375 1.09375q0.3125 0.65625 0.3125 1.640625l0 6.90625zm-1.703125 -2.5l0 -2.84375q-0.78125 0.046875 -1.84375 0.140625q-1.0625 0.09375 -1.6875 0.265625q-0.734375 0.203125 -1.1875 0.65625q-0.453125 0.4375 -0.453125 1.21875q0 0.859375 0.515625 1.3125q0.53125 0.4375 1.625 0.4375q0.890625 0 1.640625 -0.34375q0.75 -0.359375 1.390625 -0.84375zm10.282776 2.40625q-0.484375 0.125 -1.0625 0.203125q-0.5625 0.09375 -1.0 0.09375q-1.5625 0 -2.375 -0.828125q-0.8125 -0.84375 -0.8125 -2.703125l0 -5.40625l-1.15625 0l0 -1.4375l1.15625 0l0 -2.921875l1.71875 0l0 2.921875l3.53125 0l0 1.4375l-3.53125 0l0 4.640625q0 0.796875 0.03125 1.25q0.03125 0.453125 0.25 0.84375q0.203125 0.359375 0.546875 0.53125q0.359375 0.171875 1.078125 0.171875q0.421875 0 0.875 -0.125q0.453125 -0.125 0.65625 -0.203125l0.09375 0l0 1.53125zm9.976379 0.09375l-1.703125 0l0 -1.078125q-0.234375 0.15625 -0.625 0.4375q-0.375 0.265625 -0.75 0.4375q-0.421875 0.203125 -0.984375 0.34375q-0.546875 0.140625 -1.296875 0.140625q-1.375 0 -2.328125 -0.90625q-0.953125 -0.921875 -0.953125 -2.328125q0 -1.15625 0.484375 -1.859375q0.5 -0.71875 1.421875 -1.140625q0.9375 -0.40625 2.234375 -0.546875q1.296875 -0.15625 2.796875 -0.21875l0 -0.265625q0 -0.578125 -0.203125 -0.953125q-0.203125 -0.390625 -0.59375 -0.609375q-0.359375 -0.21875 -0.875 -0.28125q-0.5 -0.078125 -1.0625 -0.078125q-0.671875 0 -1.5 0.1875q-0.828125 0.171875 -1.71875 0.5l-0.09375 0l0 -1.734375q0.5 -0.140625 1.453125 -0.296875q0.953125 -0.171875 1.875 -0.171875q1.0625 0 1.859375 0.1875q0.796875 0.171875 1.390625 0.59375q0.5625 0.421875 0.859375 1.09375q0.3125 0.65625 0.3125 1.640625l0 6.90625zm-1.703125 -2.5l0 -2.84375q-0.78125 0.046875 -1.84375 0.140625q-1.0625 0.09375 -1.6875 0.265625q-0.734375 0.203125 -1.1875 0.65625q-0.453125 0.4375 -0.453125 1.21875q0 0.859375 0.515625 1.3125q0.53125 0.4375 1.625 0.4375q0.890625 0 1.640625 -0.34375q0.75 -0.359375 1.390625 -0.84375z" fill-rule="nonzero"/><path fill="#000000" fill-opacity="0.0" d="m753.0 83.50394l73.00787 0" fill-rule="evenodd"/><path stroke="#000000" stroke-width="3.0" stroke-linejoin="round" stroke-linecap="butt" d="m753.0 83.50394l55.007874 0" fill-rule="evenodd"/><path fill="#000000" stroke="#000000" stroke-width="3.0" stroke-linecap="butt" d="m808.0079 88.45914l13.614319 -4.9552l-13.614319 -4.9552z" fill-rule="evenodd"/><path fill="#000000" fill-opacity="0.0" d="m484.0 427.50394l73.00787 0" fill-rule="evenodd"/><path stroke="#000000" stroke-width="3.0" stroke-linejoin="round" stroke-linecap="butt" d="m484.0 427.50394l55.007874 0" fill-rule="evenodd"/><path fill="#000000" stroke="#000000" stroke-width="3.0" stroke-linecap="butt" d="m539.0079 432.45914l13.614319 -4.9552l-13.614319 -4.9552z" fill-rule="evenodd"/></g></svg>